<svg width="24" height="24" viewBox="0 0 24 24" fill="none" xmlns="http://www.w3.org/2000/svg">
<path d="M10 12H20M10 12C10 12.5304 9.78929 13.0391 9.41421 13.4142C9.03914 13.7893 8.53043 14 8 14C7.46957 14 6.96086 13.7893 6.58579 13.4142C6.21071 13.0391 6 12.5304 6 12M10 12C10 11.4696 9.78929 10.9609 9.41421 10.5858C9.03914 10.2107 8.53043 10 8 10C7.46957 10 6.96086 10.2107 6.58579 10.5858C6.21071 10.9609 6 11.4696 6 12M6 12H4M15 18C15 18.5304 15.2107 19.0391 15.5858 19.4142C15.9609 19.7893 16.4696 20 17 20C17.5304 20 18.0391 19.7893 18.4142 19.4142C18.7893 19.0391 19 18.5304 19 18M15 18C15 17.4696 15.2107 16.9609 15.5858 16.5858C15.9609 16.2107 16.4696 16 17 16C17.5304 16 18.0391 16.2107 18.4142 16.5858C18.7893 16.9609 19 17.4696 19 18M15 18H4M19 18H20M12 6C12 6.53043 12.2107 7.03914 12.5858 7.41421C12.9609 7.78929 13.4696 8 14 8C14.5304 8 15.0391 7.78929 15.4142 7.41421C15.7893 7.03914 16 6.53043 16 6M12 6C12 5.46957 12.2107 4.96086 12.5858 4.58579C12.9609 4.21071 13.4696 4 14 4C14.5304 4 15.0391 4.21071 15.4142 4.58579C15.7893 4.96086 16 5.46957 16 6M12 6H4M16 6H20" stroke="currentcolor" stroke-width="2" stroke-linecap="round" stroke-linejoin="round"/>
</svg>
