<svg width="24" height="24" viewBox="0 0 24 24" fill="none" xmlns="http://www.w3.org/2000/svg">
<mask id="mask0_27502_2307" style="mask-type:alpha" maskUnits="userSpaceOnUse" x="2" y="3" width="20" height="18">
<path fill-rule="evenodd" clip-rule="evenodd" d="M4.29289 5.79289C4.48043 5.60536 4.73478 5.5 5 5.5H19C19.2652 5.5 19.5196 5.60536 19.7071 5.79289C19.8946 5.98043 20 6.23478 20 6.5V17.5C20 17.7652 19.8946 18.0196 19.7071 18.2071C19.5196 18.3946 19.2652 18.5 19 18.5H5C4.73478 18.5 4.48043 18.3946 4.29289 18.2071C4.10536 18.0196 4 17.7652 4 17.5V6.5C4 6.23478 4.10536 5.98043 4.29289 5.79289ZM5 3.5C4.20435 3.5 3.44129 3.81607 2.87868 4.37868C2.31607 4.94129 2 5.70435 2 6.5V17.5C2 18.2956 2.31607 19.0587 2.87868 19.6213C3.44129 20.1839 4.20435 20.5 5 20.5H19C19.7957 20.5 20.5587 20.1839 21.1213 19.6213C21.6839 19.0587 22 18.2957 22 17.5V6.5C22 5.70435 21.6839 4.94129 21.1213 4.37868C20.5587 3.81607 19.7957 3.5 19 3.5H5ZM8.8783 7.875H11.2362L14.0802 16.125H12.0015L11.4093 14.3008H8.7024L8.10895 16.125H6.03027L8.8783 7.875ZM15.0039 7.875H16.9453V16.125H15.0039V7.875ZM10.0571 10.1364L9.21324 12.7305H10.8994L10.0571 10.1364Z" fill="currentcolor"/>
</mask>
<g mask="url(#mask0_27502_2307)">
<rect width="24" height="24" fill="currentcolor"/>
</g>
</svg>
