<svg width="24" height="24" viewBox="0 0 24 24" fill="none" xmlns="http://www.w3.org/2000/svg">
<path d="M18.6915 2.06348C18.6915 1.51119 18.2438 1.06348 17.6915 1.06348C17.1392 1.06348 16.6915 1.51119 16.6915 2.06348C16.6915 2.43478 16.544 2.79088 16.2815 3.05343C16.0189 3.31598 15.6628 3.46348 15.2915 3.46348C15.257 3.46348 15.2229 3.46523 15.1893 3.46864C14.685 3.51985 14.2915 3.94571 14.2915 4.46348C14.2915 5.01576 14.7392 5.46348 15.2915 5.46348C15.6628 5.46348 16.0189 5.61098 16.2815 5.87353C16.544 6.13608 16.6915 6.49217 16.6915 6.86348C16.6915 7.41576 17.1392 7.86348 17.6915 7.86348C18.1417 7.86348 18.5224 7.56598 18.6478 7.15685C18.6762 7.06408 18.6915 6.96556 18.6915 6.86348C18.6915 6.49217 18.839 6.13608 19.1016 5.87353C19.3641 5.61098 19.7202 5.46348 20.0915 5.46348C20.6438 5.46348 21.0915 5.01576 21.0915 4.46348C21.0915 3.91119 20.6438 3.46348 20.0915 3.46348C19.7202 3.46348 19.3641 3.31598 19.1016 3.05343C18.839 2.79088 18.6915 2.43478 18.6915 2.06348Z" fill="currentcolor"/>
<path d="M22.2915 9.26348C22.2915 8.71119 21.8438 8.26348 21.2915 8.26348C20.7392 8.26348 20.2915 8.71119 20.2915 9.26348V9.46348H20.0915C19.5392 9.46348 19.0915 9.91119 19.0915 10.4635C19.0915 11.0158 19.5392 11.4635 20.0915 11.4635H20.2915V11.6635C20.2915 12.2158 20.7392 12.6635 21.2915 12.6635C21.8438 12.6635 22.2915 12.2158 22.2915 11.6635V11.4635H22.4915C23.0438 11.4635 23.4915 11.0158 23.4915 10.4635C23.4915 9.91119 23.0438 9.46348 22.4915 9.46348H22.2915V9.26348Z" fill="currentcolor"/>
<path fill-rule="evenodd" clip-rule="evenodd" d="M5.6626 3.46362H12.4622C12.3516 3.77636 12.2915 4.1129 12.2915 4.46348C12.2915 5.93255 13.3475 7.155 14.7418 7.41322C14.9682 8.63584 15.936 9.5983 17.1614 9.81679C17.1156 10.0251 17.0915 10.2415 17.0915 10.4635C17.0915 11.597 17.7201 12.5836 18.6478 13.0939V18.4636C18.6478 19.2593 18.3317 20.0223 17.7691 20.5849C17.2065 21.1476 16.4434 21.4636 15.6478 21.4636H5.6626C4.86695 21.4636 4.10389 21.1476 3.54128 20.5849C2.97867 20.0223 2.6626 19.2593 2.6626 18.4636V6.46362C2.6626 5.66797 2.97867 4.90491 3.54128 4.3423C4.10389 3.77969 4.86695 3.46362 5.6626 3.46362ZM7.72803 7.46362C7.17574 7.46362 6.72803 7.91134 6.72803 8.46362C6.72803 9.01591 7.17574 9.46362 7.72803 9.46362H10.7102C11.2625 9.46362 11.7102 9.01591 11.7102 8.46362C11.7102 7.91134 11.2625 7.46362 10.7102 7.46362H7.72803ZM7.72803 11.4636C7.17574 11.4636 6.72803 11.9113 6.72803 12.4636C6.72803 13.0159 7.17574 13.4636 7.72803 13.4636H13.7102C14.2625 13.4636 14.7102 13.0159 14.7102 12.4636C14.7102 11.9113 14.2625 11.4636 13.7102 11.4636H7.72803ZM7.72803 15.4636C7.17574 15.4636 6.72803 15.9113 6.72803 16.4636C6.72803 17.0159 7.17574 17.4636 7.72803 17.4636H13.7102C14.2625 17.4636 14.7102 17.0159 14.7102 16.4636C14.7102 15.9113 14.2625 15.4636 13.7102 15.4636H7.72803Z" fill="currentcolor"/>
</svg>
