<svg width="24" height="24" viewBox="0 0 24 24" fill="none" xmlns="http://www.w3.org/2000/svg">
<path d="M7.72817 8.46362H13.7103M7.72817 12.4636H13.7103M7.72817 16.4636H13.7103M17.6478 13.5998V18.4636C17.6478 18.9941 17.4371 19.5028 17.062 19.8778C16.6869 20.2529 16.1782 20.4636 15.6478 20.4636H5.6626C5.13216 20.4636 4.62346 20.2529 4.24838 19.8778C3.87331 19.5028 3.6626 18.9941 3.6626 18.4636V6.46362C3.6626 5.93319 3.87331 5.42448 4.24838 5.04941C4.62346 4.67434 5.13216 4.46362 5.6626 4.46362H10.7521M20.0915 10.4635H22.4915M21.2915 9.26348V11.6635M17.6915 2.06348C17.6915 2.7 17.9444 3.31045 18.3944 3.76053C18.8445 4.21062 19.455 4.46348 20.0915 4.46348C19.455 4.46348 18.8445 4.71633 18.3944 5.16642C17.9444 5.61651 17.6915 6.22696 17.6915 6.86348C17.6915 6.22696 17.4386 5.61651 16.9886 5.16642C16.5385 4.71633 15.928 4.46348 15.2915 4.46348C15.928 4.46348 16.5385 4.21062 16.9886 3.76053C17.4386 3.31045 17.6915 2.7 17.6915 2.06348Z" stroke="currentcolor" stroke-width="2" stroke-linecap="round" stroke-linejoin="round"/>
</svg>
