<svg width="24" height="24" viewBox="0 0 24 24" fill="none" xmlns="http://www.w3.org/2000/svg">
<path d="M14.897 1C15.8797 0.999947 16.8279 1.36161 17.561 2.016L17.726 2.172L21.826 6.272C22.5225 6.96711 22.9383 7.89456 22.994 8.877L23 9.104V14.898C23.0001 15.8807 22.6384 16.8289 21.984 17.562L21.828 17.727L17.728 21.827C17.0334 22.5231 16.1067 22.9389 15.125 22.995L14.898 23.001H9.103C8.1202 23.0009 7.17186 22.6388 6.439 21.984L6.274 21.828L2.174 17.728C1.47772 17.0331 1.0619 16.1061 1.006 15.124L1 14.897V9.103C0.999947 8.12035 1.36161 7.17206 2.016 6.439L2.172 6.274L6.272 2.174C6.96711 1.4775 7.89456 1.06166 8.877 1.006L9.104 1H14.897ZM12.01 15L11.883 15.007C11.64 15.0359 11.4159 15.153 11.2534 15.336C11.0909 15.519 11.0011 15.7552 11.0011 16C11.0011 16.2448 11.0909 16.481 11.2534 16.664C11.4159 16.847 11.64 16.9641 11.883 16.993L12 17L12.127 16.993C12.37 16.9641 12.5941 16.847 12.7566 16.664C12.9191 16.481 13.0089 16.2448 13.0089 16C13.0089 15.7552 12.9191 15.519 12.7566 15.336C12.5941 15.153 12.37 15.0359 12.127 15.007L12.01 15ZM12 7C11.7551 7.00003 11.5187 7.08996 11.3356 7.25272C11.1526 7.41547 11.0357 7.63975 11.007 7.883L11 8V12L11.007 12.117C11.0359 12.36 11.153 12.5841 11.336 12.7466C11.519 12.9091 11.7552 12.9989 12 12.9989C12.2448 12.9989 12.481 12.9091 12.664 12.7466C12.847 12.5841 12.9641 12.36 12.993 12.117L13 12V8L12.993 7.883C12.9643 7.63975 12.8474 7.41547 12.6644 7.25272C12.4813 7.08996 12.2449 7.00003 12 7Z" fill="black"/>
</svg>
