<svg width="24" height="24" viewBox="0 0 24 24" fill="none" xmlns="http://www.w3.org/2000/svg">
<path fill-rule="evenodd" clip-rule="evenodd" d="M5.57738 6.42593C5.91218 6.23263 6.34029 6.34734 6.53359 6.68215L8.06844 9.34058C9.26746 8.84783 10.5935 8.57614 12 8.57614C13.4126 8.57614 14.7441 8.8502 15.9472 9.34703L17.4823 6.68813C17.6756 6.35332 18.1037 6.23861 18.4385 6.43191C18.7733 6.62521 18.888 7.05332 18.6947 7.38813L17.2026 9.97253C19.8959 11.5626 21.724 14.3711 22 17.668H2C2.27629 14.3652 4.11035 11.5525 6.8118 9.96401L5.32116 7.38215C5.12786 7.04734 5.24257 6.61923 5.57738 6.42593ZM16.6025 14.8183C16.1433 14.8183 15.7698 14.4445 15.7698 13.9852C15.7698 13.526 16.1433 13.1525 16.6025 13.1525C17.0618 13.1525 17.4353 13.526 17.4353 13.9852C17.4353 14.4445 17.0618 14.8183 16.6025 14.8183ZM7.39747 14.8183C6.93823 14.8183 6.5647 14.4445 6.5647 13.9852C6.5647 13.526 6.93823 13.1525 7.39747 13.1525C7.85669 13.1525 8.23024 13.526 8.23024 13.9852C8.23024 14.4445 7.85669 14.8183 7.39747 14.8183Z" fill="#3DDC84"/>
</svg>
