<svg width="24" height="24" viewBox="0 0 24 24" fill="none" xmlns="http://www.w3.org/2000/svg">
<path fill-rule="evenodd" clip-rule="evenodd" d="M5.57728 6.42581C5.91209 6.23251 6.3402 6.34722 6.5335 6.68203L8.06835 9.34046C9.26736 8.84771 10.5934 8.57602 11.9999 8.57602C13.4125 8.57602 14.744 8.85008 15.9471 9.3469L17.4822 6.68801C17.6755 6.3532 18.1036 6.23849 18.4384 6.43179C18.7732 6.62509 18.888 7.0532 18.6947 7.38801L17.2025 9.97241C19.8958 11.5624 21.7239 14.371 21.9999 17.6678H1.99991C2.2762 14.3651 4.11025 11.5524 6.8117 9.96389L5.32107 7.38203C5.12777 7.04722 5.24248 6.61911 5.57728 6.42581ZM16.6024 14.8182C16.1432 14.8182 15.7697 14.4443 15.7697 13.9851C15.7697 13.5259 16.1432 13.1523 16.6024 13.1523C17.0617 13.1523 17.4352 13.5259 17.4352 13.9851C17.4352 14.4443 17.0617 14.8182 16.6024 14.8182ZM7.39738 14.8182C6.93814 14.8182 6.56461 14.4443 6.56461 13.9851C6.56461 13.5259 6.93814 13.1523 7.39738 13.1523C7.8566 13.1523 8.23014 13.5259 8.23014 13.9851C8.23014 14.4443 7.85659 14.8182 7.39738 14.8182Z" fill="currentcolor"/>
</svg>
