<svg width="24" height="24" viewBox="0 0 24 24" fill="none" xmlns="http://www.w3.org/2000/svg">
<path fill-rule="evenodd" clip-rule="evenodd" d="M8.89443 2.55276C8.64744 2.05878 8.04677 1.85856 7.55279 2.10555C7.05881 2.35254 6.85859 2.95321 7.10557 3.44719L7.75956 4.75516L7.75736 4.75736C6.87067 5.64405 6.29016 6.77969 6.08389 8H17.9161C17.7098 6.77969 17.1293 5.64405 16.2426 4.75736L16.2404 4.75516L16.8944 3.44719C17.1414 2.95321 16.9412 2.35254 16.4472 2.10555C15.9532 1.85856 15.3526 2.05878 15.1056 2.55276L14.5884 3.58705C13.7878 3.20419 12.9044 3 12 3C11.0956 3 10.2122 3.20419 9.41157 3.58705L8.89443 2.55276ZM9.44314 5.22093C9.77915 5.22093 10.0515 5.49332 10.0515 5.82933V5.83541C10.0515 6.17142 9.77915 6.44381 9.44314 6.44381C9.10714 6.44381 8.83475 6.17142 8.83475 5.83541V5.82933C8.83475 5.49332 9.10714 5.22093 9.44314 5.22093ZM15.0515 5.82933C15.0515 5.49332 14.7792 5.22093 14.4431 5.22093C14.1071 5.22093 13.8347 5.49332 13.8347 5.82933V5.83541C13.8347 6.17142 14.1071 6.44381 14.4431 6.44381C14.7792 6.44381 15.0515 6.17142 15.0515 5.83541V5.82933Z" fill="#A4C639"/>
<path d="M6 9V17C6 17.5304 6.21071 18.0391 6.58579 18.4142C6.96086 18.7893 7.46957 19 8 19H9V21C9 21.5523 9.44772 22 10 22C10.5523 22 11 21.5523 11 21V19H13V21C13 21.5523 13.4477 22 14 22C14.5523 22 15 21.5523 15 21V19H16C16.5304 19 17.0391 18.7893 17.4142 18.4142C17.7893 18.0391 18 17.5304 18 17V9H6Z" fill="#A4C639"/>
<path d="M4 9C4.55228 9 5 9.44772 5 10V16C5 16.5523 4.55228 17 4 17C3.44772 17 3 16.5523 3 16V10C3 9.44772 3.44772 9 4 9Z" fill="#A4C639"/>
<path d="M20 9C20.5523 9 21 9.44772 21 10V16C21 16.5523 20.5523 17 20 17C19.4477 17 19 16.5523 19 16V10C19 9.44772 19.4477 9 20 9Z" fill="#A4C639"/>
</svg>
