<svg width="24" height="24" viewBox="0 0 24 24" fill="none" xmlns="http://www.w3.org/2000/svg">
<g clip-path="url(#clip0_17205_8774)">
<g clip-path="url(#clip1_17205_8774)">
<path d="M12.653 13.6632H15.6825C16.5441 13.6632 17.0892 13.1895 17.0892 12.4283C17.0892 11.7105 16.5441 11.1934 15.6825 11.1934H12.653C12.5527 11.1934 12.4668 11.2792 12.4668 11.3661V13.4905C12.4803 13.5908 12.5517 13.6632 12.653 13.6632ZM12.653 18.5584H15.7828C16.7447 18.5584 17.3188 18.0703 17.3188 17.2087C17.3188 16.462 16.7737 15.859 15.7828 15.859H12.653C12.5527 15.859 12.4668 15.9449 12.4668 16.0317V18.3722C12.4803 18.487 12.5517 18.5584 12.653 18.5584Z" fill="#34313F"/>
<path d="M23.7366 0.0532637L14.7776 8.98333H16.2422C18.5249 8.98333 19.8746 10.4189 19.8746 11.9838C19.8746 13.2187 19.042 14.1227 18.1515 14.5251C18.0077 14.583 18.0077 14.7836 18.166 14.8406C19.1992 15.2429 19.9315 16.3196 19.9315 17.5825C19.9315 19.3625 18.74 20.7836 16.4284 20.7836H10.083C9.98266 20.7836 9.8968 20.6978 9.8968 20.6109V13.8488L0.0617914 23.6413C-0.0674896 23.7706 0.0183761 24.0002 0.205544 24.0002H23.8514C23.9373 24.0002 24.0097 23.9288 24.0097 23.842V0.182545C24.0521 0.0243201 23.8514 -0.0615459 23.7366 0.0532637Z" fill="#34313F"/>
</g>
</g>
<defs>
<clipPath id="clip0_17205_8774">
<rect width="24" height="24" fill="white"/>
</clipPath>
<clipPath id="clip1_17205_8774">
<rect width="24.0154" height="24" fill="white"/>
</clipPath>
</defs>
</svg>
