<svg width="24" height="24" viewBox="0 0 24 24" fill="none" xmlns="http://www.w3.org/2000/svg">
<path fill-rule="evenodd" clip-rule="evenodd" d="M8.17317 2.7612C9.38642 2.25866 10.6868 2 12 2C13.3132 2 14.6136 2.25866 15.8268 2.7612C17.0401 3.26375 18.1425 4.00035 19.0711 4.92893C19.9997 5.85752 20.7362 6.95991 21.2388 8.17317C21.7413 9.38642 22 10.6868 22 12C22 13.3132 21.7413 14.6136 21.2388 15.8268C20.8641 16.7314 20.3594 17.5743 19.7419 18.3295C19.7307 18.3171 19.7191 18.3049 19.7071 18.2929L5.70711 4.29289C5.69513 4.28092 5.68293 4.26931 5.67051 4.25807C6.42572 3.64064 7.26863 3.13588 8.17317 2.7612ZM4.25807 5.67051C3.64064 6.42572 3.13588 7.26863 2.7612 8.17317C2.25866 9.38642 2 10.6868 2 12C2 13.3132 2.25866 14.6136 2.7612 15.8268C3.26375 17.0401 4.00035 18.1425 4.92893 19.0711C5.85752 19.9997 6.95991 20.7362 8.17317 21.2388C9.38642 21.7413 10.6868 22 12 22C13.3132 22 14.6136 21.7413 15.8268 21.2388C16.7314 20.8641 17.5743 20.3594 18.3295 19.7419C18.3171 19.7307 18.3049 19.7191 18.2929 19.7071L4.29289 5.70711C4.28092 5.69513 4.26931 5.68293 4.25807 5.67051Z" fill="currentcolor"/>
</svg>
