<svg width="24" height="24" viewBox="0 0 24 24" fill="none" xmlns="http://www.w3.org/2000/svg">
<path d="M10.5909 19.866C10.8441 19.6874 11 19.3573 11 19V5.99996C11 5.6427 10.8441 5.31257 10.5909 5.13394C9.34712 4.25625 7.93621 3.79419 6.5 3.79419C5.06379 3.79419 3.65288 4.25625 2.40909 5.13394C2.15594 5.31257 2 5.6427 2 5.99996V19C2 19.3572 2.15594 19.6874 2.40909 19.866C2.66224 20.0446 2.97413 20.0446 3.22727 19.866C4.22231 19.1638 5.35103 18.7942 6.5 18.7942C7.64895 18.7942 8.77768 19.1639 9.77273 19.866C10.0259 20.0447 10.3378 20.0447 10.5909 19.866Z" fill="#1B1B20"/>
<path d="M21.5909 19.866C21.8441 19.6874 22 19.3573 22 19V5.99996C22 5.6427 21.8441 5.31257 21.5909 5.13394C20.3471 4.25625 18.9362 3.79419 17.5 3.79419C16.0638 3.79419 14.6529 4.25625 13.4091 5.13394C13.1559 5.31257 13 5.6427 13 5.99996V19C13 19.3572 13.1559 19.6874 13.4091 19.866C13.6622 20.0446 13.9741 20.0446 14.2273 19.866C15.2223 19.1638 16.351 18.7942 17.5 18.7942C18.649 18.7942 19.7777 19.1639 20.7727 19.866C21.0259 20.0447 21.3378 20.0447 21.5909 19.866Z" fill="#1B1B20"/>
</svg>
