<svg width="24" height="24" viewBox="0 0 24 24" fill="none" xmlns="http://www.w3.org/2000/svg">
<g id="icon/caret_up_filled">
<path id="Union" d="M11.2928 7.29286C11.4649 7.12068 11.694 7.01725 11.9371 7.00197C12.1801 6.98669 12.4203 7.06061 12.6128 7.20986L12.7068 7.29286L18.7068 13.2929L18.7898 13.3869L18.8438 13.4639L18.8978 13.5599L18.9148 13.5959L18.9417 13.6629L18.9738 13.7709L18.9837 13.8239L18.9937 13.8839L18.9977 13.9409L18.9998 13.9999L18.9977 14.0589L18.9928 14.1169L18.9837 14.1769L18.9738 14.2289L18.9417 14.3369L18.9148 14.4039L18.8447 14.5359L18.7798 14.6259L18.7068 14.7069L18.6128 14.7899L18.5357 14.8439L18.4398 14.8979L18.4037 14.9149L18.3368 14.9419L18.2288 14.9739L18.1758 14.9839L18.1157 14.9939L18.0588 14.9979L17.9998 14.9999H5.99975C5.14775 14.9999 4.70275 14.0139 5.21675 13.3769L5.29275 13.2929L11.2928 7.29286Z" fill="currentcolor"/>
</g>
</svg>
