<svg width="24" height="24" viewBox="0 0 24 24" fill="none" xmlns="http://www.w3.org/2000/svg">
<g id="icon/caret_down_filled">
<path id="Union" d="M18 9C18.852 9 19.297 9.986 18.783 10.623L18.707 10.707L12.707 16.707C12.5348 16.8792 12.3057 16.9826 12.0626 16.9979C11.8196 17.0132 11.5794 16.9393 11.387 16.79L11.293 16.707L5.29295 10.707L5.20995 10.613L5.15595 10.536L5.10195 10.44L5.08495 10.404L5.05795 10.337L5.02595 10.229L5.01595 10.176L5.00595 10.116L5.00195 10.059V9.941L5.00695 9.883L5.01595 9.823L5.02595 9.771L5.05795 9.663L5.08495 9.596L5.15495 9.464L5.21995 9.374L5.29295 9.293L5.38695 9.21L5.46395 9.156L5.55995 9.102L5.59595 9.085L5.66295 9.058L5.77095 9.026L5.82395 9.016L5.88395 9.006L5.94095 9.002L18 9Z" fill="currentcolor"/>
</g>
</svg>
