<svg width="24" height="24" viewBox="0 0 24 24" fill="none" xmlns="http://www.w3.org/2000/svg">
<path d="M19.3731 8.89023C19.094 8.96189 18.8014 9 18.5 9C16.567 9 15 7.433 15 5.5C15 5.19855 15.0381 4.906 15.1098 4.62691C14.1538 4.22321 13.103 4 12 4C7.58172 4 4 7.58172 4 12C4 16.4183 7.58172 20 12 20C16.4183 20 20 16.4183 20 12C20 10.897 19.7768 9.84622 19.3731 8.89023Z" fill="currentcolor"/>
<path d="M20 5.5C20 6.32843 19.3284 7 18.5 7C17.6716 7 17 6.32843 17 5.5C17 4.67157 17.6716 4 18.5 4C19.3284 4 20 4.67157 20 5.5Z" fill="currentcolor"/>
</svg>
