<svg width="24" height="24" viewBox="0 0 24 24" fill="none" xmlns="http://www.w3.org/2000/svg">
<path d="M20.0215 11.0208C20.8499 11.0208 21.5215 10.3492 21.5215 9.52075C21.5215 8.69232 20.8499 8.02075 20.0215 8.02075C19.1931 8.02075 18.5215 8.69232 18.5215 9.52075C18.5215 10.3492 19.1931 11.0208 20.0215 11.0208Z" fill="currentcolor"/>
<path d="M20.0215 13.0256C20.1838 13.0256 20.3435 13.0146 20.5 12.9932V15H21C21.5523 15 22 15.4477 22 16C22 16.5523 21.5523 17 21 17H3C2.44772 17 2 16.5523 2 16C2 15.4477 2.44772 15 3 15H3.5V11.2759C3.5 10.1713 4.39543 9.27588 5.5 9.27588H16.525C16.5194 9.35678 16.5166 9.43843 16.5166 9.52075C16.5166 11.4564 18.0858 13.0256 20.0215 13.0256Z" fill="currentcolor"/>
</svg>
