<svg width="24" height="24" viewBox="0 0 24 24" fill="none" xmlns="http://www.w3.org/2000/svg">
<path fill-rule="evenodd" clip-rule="evenodd" d="M19 10H5V19C5 19.2652 5.10536 19.5196 5.29289 19.7071C5.48043 19.8946 5.73478 20 6 20H18C18.2652 20 18.5196 19.8946 18.7071 19.7071C18.8946 19.5196 19 19.2652 19 19V10ZM3 10V5C3 4.17649 3.33182 3.43047 3.86904 2.88836C3.87225 2.88513 3.87546 2.8819 3.87868 2.87868C3.8819 2.87546 3.88513 2.87225 3.88836 2.86904C4.43047 2.33182 5.17649 2 6 2H18C18.8235 2 19.5695 2.33182 20.1116 2.86904C20.1149 2.87225 20.1181 2.87546 20.1213 2.87868C20.1245 2.8819 20.1278 2.88513 20.131 2.88836C20.6682 3.43047 21 4.17649 21 5V10V19C21 19.7957 20.6839 20.5587 20.1213 21.1213C19.5587 21.6839 18.7957 22 18 22H6C5.20435 22 4.44129 21.6839 3.87868 21.1213C3.31607 20.5587 3 19.7957 3 19V10ZM8 12.5C7.44772 12.5 7 12.9477 7 13.5C7 14.0523 7.44772 14.5 8 14.5H11.8818C12.4341 14.5 12.8818 14.0523 12.8818 13.5C12.8818 12.9477 12.4341 12.5 11.8818 12.5H8ZM11.5 15.5C10.9477 15.5 10.5 15.9477 10.5 16.5C10.5 17.0523 10.9477 17.5 11.5 17.5H16C16.5523 17.5 17 17.0523 17 16.5C17 15.9477 16.5523 15.5 16 15.5H11.5Z" fill="currentcolor"/>
</svg>
