<svg width="24" height="24" viewBox="0 0 24 24" fill="none" xmlns="http://www.w3.org/2000/svg">
<path fill-rule="evenodd" clip-rule="evenodd" d="M19 7H5V19C5 19.2652 5.10536 19.5196 5.29289 19.7071C5.48043 19.8946 5.73478 20 6 20H18C18.2652 20 18.5196 19.8946 18.7071 19.7071C18.8946 19.5196 19 19.2652 19 19V7ZM6 2C5.20435 2 4.44129 2.31607 3.87868 2.87868C3.31607 3.44129 3 4.20435 3 5V19C3 19.7957 3.31607 20.5587 3.87868 21.1213C4.44129 21.6839 5.20435 22 6 22H18C18.7957 22 19.5587 21.6839 20.1213 21.1213C20.6839 20.5587 21 19.7957 21 19V5C21 4.20435 20.6839 3.44129 20.1213 2.87868C19.5587 2.31607 18.7956 2 18 2H16.6841H7.34896H6ZM8 11C7.44772 11 7 11.4477 7 12C7 12.5523 7.44772 13 8 13H12C12.5523 13 13 12.5523 13 12C13 11.4477 12.5523 11 12 11H8ZM8 14C7.44772 14 7 14.4477 7 15C7 15.5523 7.44772 16 8 16H15.8818C16.4341 16 16.8818 15.5523 16.8818 15C16.8818 14.4477 16.4341 14 15.8818 14H8Z" fill="currentcolor"/>
</svg>
