<svg width="24" height="24" viewBox="0 0 24 24" fill="none" xmlns="http://www.w3.org/2000/svg">
<path fill-rule="evenodd" clip-rule="evenodd" d="M8.17317 2.7612C9.38642 2.25866 10.6868 2 12 2C13.3132 2 14.6136 2.25866 15.8268 2.7612C17.0401 3.26375 18.1425 4.00035 19.0711 4.92893C19.9997 5.85752 20.7362 6.95991 21.2388 8.17317C21.7413 9.38642 22 10.6868 22 12C22 13.3132 21.7413 14.6136 21.2388 15.8268C20.7362 17.0401 19.9997 18.1425 19.0711 19.0711C18.1425 19.9997 17.0401 20.7362 15.8268 21.2388C14.6136 21.7413 13.3132 22 12 22C10.6868 22 9.38642 21.7413 8.17317 21.2388C6.95991 20.7362 5.85752 19.9997 4.92893 19.0711C4.00035 18.1425 3.26375 17.0401 2.7612 15.8268C2.25866 14.6136 2 13.3132 2 12C2 10.6868 2.25866 9.38642 2.7612 8.17317C3.26375 6.95991 4.00035 5.85752 4.92893 4.92893C5.85752 4.00035 6.95991 3.26375 8.17317 2.7612ZM13.4864 8.16437C13.5772 7.6196 13.2092 7.10437 12.6644 7.01358C12.1196 6.92278 11.6044 7.2908 11.5136 7.83557L10.0136 16.8356C9.92281 17.3803 10.2908 17.8956 10.8356 17.9864C11.3804 18.0772 11.8956 17.7091 11.9864 17.1644L13.4864 8.16437ZM16.2809 8.87528C15.9359 8.44401 15.3066 8.37409 14.8753 8.7191C14.444 9.06411 14.3741 9.6934 14.7191 10.1247L16.2194 12L14.7191 13.8753C14.3741 14.3065 14.444 14.9358 14.8753 15.2808C15.3066 15.6258 15.9359 15.5559 16.2809 15.1247L18.2809 12.6247C18.573 12.2594 18.573 11.7405 18.2809 11.3753L16.2809 8.87528ZM9.28087 10.1248C9.62588 9.69353 9.55596 9.06423 9.12469 8.71922C8.69343 8.37421 8.06414 8.44414 7.71913 8.8754L5.71913 11.3754C5.42696 11.7406 5.42696 12.2596 5.71913 12.6248L7.71913 15.1248C8.06414 15.556 8.69343 15.626 9.12469 15.281C9.55596 14.936 9.62588 14.3067 9.28087 13.8754L7.78062 12.0001L9.28087 10.1248Z" fill="currentcolor"/>
</svg>
