<svg width="24" height="24" viewBox="0 0 24 24" fill="none" xmlns="http://www.w3.org/2000/svg">
<path fill-rule="evenodd" clip-rule="evenodd" d="M15 2C15.7652 1.99996 16.5015 2.29233 17.0583 2.81728C17.615 3.34224 17.9501 4.06011 17.995 4.824L18 5V12.5C16.7842 12.5004 15.7375 13.224 15.2667 14.2639C14.13 14.1518 12.9795 14.6972 12.3717 15.7508C11.7641 16.804 11.8674 18.0723 12.5326 19C11.9191 19.8556 11.7835 21.0009 12.2428 22H7C6.23479 22 5.49849 21.7077 4.94174 21.1827C4.38499 20.6578 4.04989 19.9399 4.005 19.176L4 19V5C3.99996 4.23479 4.29233 3.49849 4.81728 2.94174C5.34224 2.38499 6.06011 2.04989 6.824 2.005L7 2H15ZM12 4H10L9.883 4.007C9.63995 4.03591 9.41594 4.15296 9.25341 4.33596C9.09088 4.51897 9.00111 4.75524 9.00111 5C9.00111 5.24476 9.09088 5.48103 9.25341 5.66404C9.41594 5.84704 9.63995 5.96409 9.883 5.993L10 6H12L12.117 5.993C12.36 5.96409 12.5841 5.84704 12.7466 5.66404C12.9091 5.48103 12.9989 5.24476 12.9989 5C12.9989 4.75524 12.9091 4.51897 12.7466 4.33596C12.5841 4.15296 12.36 4.03591 12.117 4.007L12 4Z" fill="currentcolor"/>
<path fill-rule="evenodd" clip-rule="evenodd" d="M19.0011 15.5C19.0011 14.9477 18.5534 14.5 18.0011 14.5C17.4489 14.5 17.0011 14.9477 17.0011 15.5V16.1716C16.6558 16.2937 16.3337 16.4787 16.052 16.7195L15.4701 16.3838C14.9917 16.1078 14.3802 16.2719 14.1042 16.7503C13.8282 17.2287 13.9923 17.8402 14.4707 18.1162L15.0517 18.4514C15.0183 18.6311 15.0011 18.8147 15.0011 19C15.0011 19.1853 15.0183 19.3689 15.0517 19.5486L14.4707 19.8838C13.9923 20.1598 13.8282 20.7713 14.1042 21.2497C14.3802 21.7281 14.9917 21.8922 15.4701 21.6162L16.052 21.2805C16.3337 21.5213 16.6558 21.7063 17.0011 21.8284V22.5C17.0011 23.0523 17.4489 23.5 18.0011 23.5C18.5534 23.5 19.0011 23.0523 19.0011 22.5V21.8284C19.3467 21.7063 19.669 21.5211 19.9508 21.2801L20.5334 21.6162C21.0117 21.8922 21.6233 21.7281 21.8993 21.2497C22.1753 20.7713 22.0112 20.1598 21.5328 19.8838L20.9507 19.548C20.984 19.3685 21.0011 19.1851 21.0011 19C21.0011 18.8148 20.984 18.6313 20.9506 18.4517L21.5321 18.116C22.0104 17.8399 22.1742 17.2283 21.8981 16.75C21.6219 16.2717 21.0104 16.1078 20.5321 16.384L19.9506 16.7197C19.6688 16.4788 19.3466 16.2937 19.0011 16.1716V15.5ZM17.1366 18.4997C17.1308 18.5096 17.125 18.5194 17.119 18.5291C17.0423 18.6727 17.0011 18.8342 17.0011 19C17.0011 19.1658 17.0423 19.3273 17.119 19.4709C17.125 19.4806 17.1308 19.4904 17.1366 19.5003C17.1421 19.5098 17.1474 19.5194 17.1526 19.5291C17.1925 19.5931 17.2398 19.6529 17.294 19.7071C17.4816 19.8946 17.7359 20 18.0011 20C18.2664 20 18.5207 19.8946 18.7083 19.7071C18.7681 19.6472 18.8196 19.5805 18.862 19.5089L18.8669 19.5003L18.8722 19.4911C18.956 19.3425 19.0011 19.1736 19.0011 19C19.0011 18.8264 18.956 18.6574 18.8722 18.5089L18.8671 18.5L18.862 18.4911C18.8196 18.4195 18.7681 18.3528 18.7083 18.2929C18.5207 18.1054 18.2664 18 18.0011 18C17.7359 18 17.4816 18.1054 17.294 18.2929C17.2398 18.3471 17.1925 18.4069 17.1526 18.4709C17.1474 18.4806 17.1421 18.4902 17.1366 18.4997Z" fill="currentcolor"/>
</svg>
