<svg width="24" height="24" viewBox="0 0 24 24" fill="none" xmlns="http://www.w3.org/2000/svg">
<path fill-rule="evenodd" clip-rule="evenodd" d="M8 2C7.20435 2 6.44129 2.31607 5.87868 2.87868C5.31607 3.44129 5 4.20435 5 5V19C5 19.7957 5.31607 20.5587 5.87868 21.1213C6.44129 21.6839 7.20435 22 8 22H16C16.7957 22 17.5587 21.6839 18.1213 21.1213C18.6839 20.5587 19 19.7957 19 19V5C19 4.20435 18.6839 3.44129 18.1213 2.87868C17.5587 2.31607 16.7956 2 16 2H8ZM13 17C13 16.4477 12.5523 16 12 16C11.4477 16 11 16.4477 11 17V17.01C11 17.5623 11.4477 18.01 12 18.01C12.5523 18.01 13 17.5623 13 17.01V17Z" fill="currentcolor"/>
</svg>
