<svg fill="none" height="24" viewBox="0 0 24 24" width="24" xmlns="http://www.w3.org/2000/svg"><path d="m9 15 6-6m-5 .5c0 .27614-.22386.5-.5.5s-.5-.22386-.5-.5.22386-.5.5-.5.5.22386.5.5zm-5-2.30003c0-.58347.23179-1.14305.64437-1.55563s.97216-.64437 1.55563-.64437h1c.5809-.00033 1.13809-.2304 1.55-.64l.7-.7c.2045-.2056.4475-.36876.7152-.48009.2678-.11133.5549-.16865.8448-.16865.29 0 .577.05732.8448.16865.2677.11133.5108.27449.7152.48009l.7.7c.4119.4096.9691.63967 1.55.64h1c.5835 0 1.1431.23179 1.5556.64437.4126.41258.6444.97216.6444 1.55563v1c.0003.5809.2304 1.13809.64 1.55l.7.70003c.2056.2044.3688.4475.4801.7152s.1686.5548.1686.8448c0 .2899-.0573.577-.1686.8447-.1113.2678-.2745.5108-.4801.7153l-.7.7c-.4096.4119-.6397.9691-.64 1.55v1c0 .5834-.2318 1.143-.6444 1.5556-.4125.4126-.9721.6444-1.5556.6444h-1c-.5809.0003-1.1381.2304-1.55.64l-.7.7c-.2044.2056-.4475.3687-.7152.4801-.2678.1113-.5548.1686-.8448.1686-.2899 0-.577-.0573-.8448-.1686-.2677-.1114-.5107-.2745-.7152-.4801l-.7-.7c-.41191-.4096-.9691-.6397-1.55-.64h-1c-.58347 0-1.14305-.2318-1.55563-.6444s-.64437-.9722-.64437-1.5556v-1c-.00033-.5809-.23039-1.1381-.64-1.55l-.7-.7c-.2056-.2045-.36875-.4475-.48009-.7153-.11133-.2677-.16865-.5548-.16865-.8447 0-.29.05732-.5771.16865-.8448.11134-.2677.27449-.5108.48009-.7152l.7-.70003c.40961-.41191.63967-.9691.64-1.55zm10 7.30003c0 .2761-.2239.5-.5.5s-.5-.2239-.5-.5.2239-.5.5-.5.5.2239.5.5z" stroke="#000" stroke-linecap="round" stroke-linejoin="round" stroke-width="2"/></svg>