<svg width="24" height="24" viewBox="0 0 24 24" fill="none" xmlns="http://www.w3.org/2000/svg">
<path fill-rule="evenodd" clip-rule="evenodd" d="M10.7713 2.24653C11.1607 2.08459 11.5783 2.00122 12 2.00122C12.4217 2.00122 12.8393 2.08459 13.2287 2.24653C13.6177 2.40827 13.9708 2.64522 14.268 2.94376L14.2691 2.94485L14.9651 3.64087L14.966 3.64175C15.1905 3.86456 15.494 3.98971 15.8103 3.98996H16.81C17.6587 3.98996 18.4726 4.32711 19.0727 4.92722C19.6729 5.52734 20.01 6.34127 20.01 7.18996V8.18939C20.0102 8.50593 20.1354 8.80956 20.3584 9.03417L21.0551 9.73087L21.0562 9.73198C21.3548 10.0291 21.5917 10.3823 21.7534 10.7712C21.9154 11.1606 21.9987 11.5782 21.9987 12C21.9987 12.4217 21.9154 12.8393 21.7534 13.2287C21.5917 13.6175 21.3549 13.9706 21.0564 14.2677L21.0551 14.2691L20.3591 14.9651L20.3582 14.9659C20.1353 15.1905 20.0102 15.4941 20.01 15.8105V16.81C20.01 17.6587 19.6729 18.4726 19.0727 19.0727C18.4726 19.6728 17.6587 20.01 16.81 20.01H15.8106C15.4941 20.0101 15.1906 20.1353 14.966 20.3582L14.9651 20.3591L14.2691 21.0551L14.2678 21.0564C13.9707 21.3548 13.6176 21.5917 13.2287 21.7534C12.8393 21.9153 12.4217 21.9987 12 21.9987C11.5782 21.9987 11.1607 21.9153 10.7713 21.7534C10.3824 21.5917 10.0292 21.3548 9.73212 21.0563L9.7309 21.0551L9.03488 20.3591L9.03414 20.3583C8.80953 20.1354 8.50593 20.0101 8.18942 20.01H7.18999C6.3413 20.01 5.52737 19.6728 4.92725 19.0727C4.32714 18.4726 3.98999 17.6587 3.98999 16.81V15.8103C3.98974 15.4939 3.86459 15.1905 3.64178 14.966L3.6409 14.9651L2.94488 14.2691L2.94379 14.268C2.64525 13.9708 2.4083 13.6176 2.24656 13.2287C2.08462 12.8393 2.00125 12.4217 2.00125 12C2.00125 11.5782 2.08462 11.1606 2.24656 10.7712C2.40831 10.3823 2.64525 10.0291 2.94379 9.73195L2.94488 9.73087L3.6409 9.03485L3.64172 9.03403C3.86456 8.80949 3.98974 8.50603 3.98999 8.18965V7.18996C3.98999 6.34127 4.32714 5.52734 4.92725 4.92722C5.52737 4.32711 6.3413 3.98996 7.18999 3.98996H8.18968C8.50606 3.98971 8.80952 3.86453 9.03406 3.64169L9.03488 3.64087L9.7309 2.94485L9.73198 2.94376C10.0291 2.64522 10.3823 2.40827 10.7713 2.24653ZM9.5 8C8.67157 8 8 8.67157 8 9.5C8 10.3284 8.67157 11 9.5 11C10.3284 11 11 10.3284 11 9.5C11 8.67157 10.3284 8 9.5 8ZM15.7071 8.29289C15.3166 7.90237 14.6834 7.90237 14.2929 8.29289L8.29289 14.2929C7.90237 14.6834 7.90237 15.3166 8.29289 15.7071C8.68342 16.0976 9.31658 16.0976 9.70711 15.7071L15.7071 9.70711C16.0976 9.31658 16.0976 8.68342 15.7071 8.29289ZM14.5 13C13.6716 13 13 13.6716 13 14.5C13 15.3284 13.6716 16 14.5 16C15.3284 16 16 15.3284 16 14.5C16 13.6716 15.3284 13 14.5 13Z" fill="black"/>
</svg>
