<svg width="24" height="24" viewBox="0 0 24 24" fill="none" xmlns="http://www.w3.org/2000/svg">
<path d="M9 3C8.46957 3 7.96086 3.21071 7.58579 3.58579C7.21071 3.96086 7 4.46957 7 5C7 5.53043 7.21071 6.03914 7.58579 6.41421C7.96086 6.78929 8.46957 7 9 7C9.53043 7 10.0391 6.78929 10.4142 6.41421C10.7893 6.03914 11 5.53043 11 5C11 4.46957 10.7893 3.96086 10.4142 3.58579C10.0391 3.21071 9.53043 3 9 3Z" fill="currentcolor"/>
<path d="M9 10C8.46957 10 7.96086 10.2107 7.58579 10.5858C7.21071 10.9609 7 11.4696 7 12C7 12.5304 7.21071 13.0391 7.58579 13.4142C7.96086 13.7893 8.46957 14 9 14C9.53043 14 10.0391 13.7893 10.4142 13.4142C10.7893 13.0391 11 12.5304 11 12C11 11.4696 10.7893 10.9609 10.4142 10.5858C10.0391 10.2107 9.53043 10 9 10Z" fill="currentcolor"/>
<path d="M7.58579 17.5858C7.96086 17.2107 8.46957 17 9 17C9.53043 17 10.0391 17.2107 10.4142 17.5858C10.7893 17.9609 11 18.4696 11 19C11 19.5304 10.7893 20.0391 10.4142 20.4142C10.0391 20.7893 9.53043 21 9 21C8.46957 21 7.96086 20.7893 7.58579 20.4142C7.21071 20.0391 7 19.5304 7 19C7 18.4696 7.21071 17.9609 7.58579 17.5858Z" fill="currentcolor"/>
<path d="M15 3C14.4696 3 13.9609 3.21071 13.5858 3.58579C13.2107 3.96086 13 4.46957 13 5C13 5.53043 13.2107 6.03914 13.5858 6.41421C13.9609 6.78929 14.4696 7 15 7C15.5304 7 16.0391 6.78929 16.4142 6.41421C16.7893 6.03914 17 5.53043 17 5C17 4.46957 16.7893 3.96086 16.4142 3.58579C16.0391 3.21071 15.5304 3 15 3Z" fill="currentcolor"/>
<path d="M13.5858 10.5858C13.9609 10.2107 14.4696 10 15 10C15.5304 10 16.0391 10.2107 16.4142 10.5858C16.7893 10.9609 17 11.4696 17 12C17 12.5304 16.7893 13.0391 16.4142 13.4142C16.0391 13.7893 15.5304 14 15 14C14.4696 14 13.9609 13.7893 13.5858 13.4142C13.2107 13.0391 13 12.5304 13 12C13 11.4696 13.2107 10.9609 13.5858 10.5858Z" fill="currentcolor"/>
<path d="M15 17C14.4696 17 13.9609 17.2107 13.5858 17.5858C13.2107 17.9609 13 18.4696 13 19C13 19.5304 13.2107 20.0391 13.5858 20.4142C13.9609 20.7893 14.4696 21 15 21C15.5304 21 16.0391 20.7893 16.4142 20.4142C16.7893 20.0391 17 19.5304 17 19C17 18.4696 16.7893 17.9609 16.4142 17.5858C16.0391 17.2107 15.5304 17 15 17Z" fill="currentcolor"/>
</svg>
