<svg width="24" height="24" viewBox="0 0 24 24" fill="none" xmlns="http://www.w3.org/2000/svg">
<path d="M16 12C16 13.0609 15.5786 14.0783 14.8284 14.8284C14.0783 15.5786 13.0609 16 12 16C10.9391 16 9.92172 15.5786 9.17157 14.8284C8.42142 14.0783 8 13.0609 8 12C8 10.9391 8.42142 9.92172 9.17157 9.17157C9.92172 8.42143 10.9391 8 12 8C13.0609 8 14.0783 8.42143 14.8284 9.17157C15.5786 9.92172 16 10.9391 16 12ZM16 12V13.5C16 14.163 16.2634 14.7989 16.7322 15.2678C17.2011 15.7366 17.837 16 18.5 16C19.163 16 19.7989 15.7366 20.2678 15.2678C20.7366 14.7989 21 14.163 21 13.5V12C21.0025 10.0661 20.382 8.18284 19.2304 6.62919C18.0788 5.07554 16.4574 3.93415 14.6064 3.3741C12.7554 2.81405 10.7732 2.86512 8.95343 3.51976C7.13371 4.1744 5.57324 5.39778 4.50321 7.00868C3.43317 8.61957 2.91047 10.5323 3.01255 12.4635C3.11463 14.3947 3.83605 16.2417 5.06995 17.7308C6.30385 19.2199 7.98459 20.2719 9.86319 20.7311C11.7418 21.1902 13.7183 21.0321 15.5 20.28" stroke="currentcolor" stroke-width="2" stroke-linecap="round" stroke-linejoin="round"/>
</svg>
