<svg width="24" height="24" viewBox="0 0 24 24" fill="none" xmlns="http://www.w3.org/2000/svg">
<path d="M22.0752 12.2485C22.0752 6.72571 17.598 2.24855 12.0752 2.24855C6.55235 2.24855 2.0752 6.72571 2.0752 12.2485C2.0752 16.9383 5.30379 20.8734 9.65943 21.9541V15.3044H7.59735V12.2485H9.65943V10.9318C9.65943 7.5281 11.1997 5.95051 14.5413 5.95051C15.1749 5.95051 16.268 6.07471 16.7152 6.19895V8.9691C16.4792 8.94426 16.0693 8.93182 15.5599 8.93182C13.9202 8.93182 13.2867 9.55294 13.2867 11.1678V12.2485H16.553L15.9919 15.3044H13.2867V22.1753C18.2381 21.5773 22.0752 17.3613 22.0752 12.2485Z" fill="#0866FF"/>
<path d="M15.9919 15.3044L16.553 12.2485H13.2867V11.1678C13.2867 9.55291 13.9202 8.93183 15.5599 8.93183C16.0692 8.93183 16.4792 8.94423 16.7152 8.96907V6.19895C16.268 6.07471 15.1748 5.95047 14.5413 5.95047C11.1998 5.95047 9.6594 7.52811 9.6594 10.9318V12.2485H7.59732V15.3044H9.6594V21.9541C10.4331 22.146 11.2421 22.2485 12.0752 22.2485C12.4853 22.2485 12.8895 22.2233 13.2867 22.1753V15.3044H15.9919Z" fill="white"/>
</svg>
