<svg width="24" height="24" viewBox="0 0 24 24" fill="none" xmlns="http://www.w3.org/2000/svg">
<g clip-path="url(#clip0_17205_8693)">
<g clip-path="url(#clip1_17205_8693)">
<path d="M23.1322 8.05194C22.6102 6.83588 21.5512 5.52289 20.722 5.10783C21.3133 6.21642 21.7238 7.40697 21.9387 8.63716L21.9409 8.65666C20.5825 5.37944 18.2798 4.05594 16.3982 1.17786C16.303 1.03231 16.2078 0.886451 16.1151 0.732493C16.0621 0.64456 16.0197 0.56533 15.9828 0.492403C15.9047 0.346114 15.8446 0.191512 15.8036 0.0317303C15.8036 0.0243572 15.8009 0.0172225 15.7959 0.0116873C15.7908 0.00615202 15.7839 0.00260365 15.7763 0.00171904C15.7689 -0.000247494 15.7611 -0.000247494 15.7537 0.00171904C15.7521 0.00171904 15.7496 0.00442006 15.7478 0.00502028C15.7459 0.00562051 15.7419 0.00832152 15.7391 0.00952197L15.7438 0.00171904C12.7259 1.71236 11.7014 4.87855 11.6084 6.46314C10.4028 6.54316 9.2501 6.97311 8.30072 7.6969C8.2017 7.61571 8.09822 7.53977 7.99072 7.46942C7.71699 6.54175 7.70532 5.55998 7.95693 4.62645C6.84864 5.14619 5.86388 5.883 5.06496 6.79026H5.05938C4.58323 6.20595 4.61671 4.27922 4.64399 3.87677C4.50312 3.93158 4.36866 4.00069 4.24285 4.08295C3.8225 4.37338 3.42954 4.69927 3.06858 5.05681C2.65724 5.46056 2.28155 5.89695 1.94546 6.3614V6.3632V6.3611C1.17311 7.42099 0.625241 8.61847 0.333472 9.88442L0.317352 9.96125C0.294722 10.0636 0.213193 10.5762 0.199243 10.6875C0.199243 10.6962 0.197383 10.7043 0.196453 10.713C0.0912861 11.2422 0.0261172 11.7782 0.00146484 12.3165V12.3766C0.00677459 15.2872 1.13903 18.0902 3.17471 20.2321C5.21039 22.3741 8.00157 23.6994 10.9973 23.9464C13.9929 24.1934 16.9754 23.3442 19.356 21.5664C21.7365 19.7886 23.3421 17.2114 23.8558 14.3435C23.8759 14.1934 23.8923 14.0449 23.9103 13.8933C24.1578 11.9132 23.8899 9.90451 23.131 8.05014L23.1322 8.05194ZM9.28465 17.1574C9.34076 17.1835 9.39346 17.2117 9.45112 17.2366L9.45949 17.2417C9.40121 17.2147 9.34293 17.1866 9.28465 17.1574V17.1574ZM21.9412 8.65997V8.64886L21.9434 8.66117L21.9412 8.65997Z" fill="url(#paint0_linear_17205_8693)"/>
<path d="M23.1317 8.05201C22.6097 6.83596 21.5507 5.52297 20.7215 5.10791C21.3128 6.2165 21.7232 7.40704 21.9382 8.63723V8.64834L21.9404 8.66064C22.8666 11.2263 22.7326 14.0393 21.5665 16.5116C20.1895 19.372 16.8577 22.3038 11.6404 22.1597C6.00466 22.0051 1.0385 17.9551 0.111607 12.6521C-0.0573415 11.8157 0.111607 11.3917 0.196546 10.7119C0.080685 11.2399 0.0160279 11.7773 0.00341797 12.3169V12.3769C0.00872771 15.2876 1.14098 18.0906 3.17666 20.2325C5.21234 22.3745 8.00352 23.6998 10.9992 23.9468C13.9949 24.1938 16.9774 23.3446 19.3579 21.5668C21.7384 19.7889 23.344 17.2117 23.8577 14.3439C23.8779 14.1938 23.8943 14.0453 23.9123 13.8937C24.1598 11.9135 23.8918 9.90488 23.1329 8.05051L23.1317 8.05201Z" fill="url(#paint1_radial_17205_8693)"/>
<path d="M23.1317 8.05201C22.6097 6.83596 21.5507 5.52297 20.7215 5.10791C21.3128 6.2165 21.7232 7.40704 21.9382 8.63723V8.64834L21.9404 8.66064C22.8666 11.2263 22.7326 14.0393 21.5665 16.5116C20.1895 19.372 16.8577 22.3038 11.6404 22.1597C6.00466 22.0051 1.0385 17.9551 0.111607 12.6521C-0.0573415 11.8157 0.111607 11.3917 0.196546 10.7119C0.080685 11.2399 0.0160279 11.7773 0.00341797 12.3169V12.3769C0.00872771 15.2876 1.14098 18.0906 3.17666 20.2325C5.21234 22.3745 8.00352 23.6998 10.9992 23.9468C13.9949 24.1938 16.9774 23.3446 19.3579 21.5668C21.7384 19.7889 23.344 17.2117 23.8577 14.3439C23.8779 14.1938 23.8943 14.0453 23.9123 13.8937C24.1598 11.9135 23.8918 9.90488 23.1329 8.05051L23.1317 8.05201Z" fill="url(#paint2_radial_17205_8693)"/>
<path d="M17.2914 9.41753C17.3175 9.43524 17.3417 9.45294 17.3662 9.47065C17.0644 8.95257 16.6887 8.47823 16.2502 8.06162C12.5147 4.44527 15.2715 0.222684 15.7362 0.00660248L15.7408 0C12.723 1.71064 11.6985 4.87683 11.6055 6.46142C11.7456 6.45212 11.8845 6.44072 12.0277 6.44072C13.0984 6.44272 14.1494 6.71915 15.074 7.24191C15.9985 7.76467 16.7636 8.5151 17.2914 9.41693V9.41753Z" fill="url(#paint3_radial_17205_8693)"/>
<path d="M12.0341 10.1409C12.0143 10.4302 10.9584 11.4281 10.5892 11.4281C7.17306 11.4281 6.61816 13.4289 6.61816 13.4289C6.76944 15.1137 7.98215 16.5021 9.44813 17.2343C9.51509 17.2679 9.58298 17.2983 9.65087 17.328C9.76846 17.3784 9.88605 17.425 10.0036 17.4678C10.5068 17.6402 11.0337 17.7386 11.567 17.7598C17.5561 18.0317 18.7155 10.8272 14.3938 8.73545C15.4133 8.60703 16.4456 8.8497 17.2908 9.4164C16.7629 8.51457 15.9978 7.76414 15.0733 7.24138C14.1487 6.71862 13.0977 6.44219 12.027 6.44019C11.8844 6.44019 11.7449 6.45159 11.6048 6.46089C10.3992 6.54091 9.2465 6.97087 8.29711 7.69466C8.48032 7.84471 8.68709 8.04519 9.12263 8.46084C9.93793 9.23843 12.0289 10.0439 12.0335 10.1385L12.0341 10.1409Z" fill="url(#paint4_radial_17205_8693)"/>
<path d="M12.0341 10.1409C12.0143 10.4302 10.9584 11.4281 10.5892 11.4281C7.17306 11.4281 6.61816 13.4289 6.61816 13.4289C6.76944 15.1137 7.98215 16.5021 9.44813 17.2343C9.51509 17.2679 9.58298 17.2983 9.65087 17.328C9.76846 17.3784 9.88605 17.425 10.0036 17.4678C10.5068 17.6402 11.0337 17.7386 11.567 17.7598C17.5561 18.0317 18.7155 10.8272 14.3938 8.73545C15.4133 8.60703 16.4456 8.8497 17.2908 9.4164C16.7629 8.51457 15.9978 7.76414 15.0733 7.24138C14.1487 6.71862 13.0977 6.44219 12.027 6.44019C11.8844 6.44019 11.7449 6.45159 11.6048 6.46089C10.3992 6.54091 9.2465 6.97087 8.29711 7.69466C8.48032 7.84471 8.68709 8.04519 9.12263 8.46084C9.93793 9.23843 12.0289 10.0439 12.0335 10.1385L12.0341 10.1409Z" fill="url(#paint5_radial_17205_8693)"/>
<path d="M7.73733 7.3108C7.83467 7.37083 7.91496 7.42305 7.98533 7.47016C7.7116 6.54249 7.69993 5.56072 7.95154 4.6272C6.84325 5.14693 5.85849 5.88375 5.05957 6.79101C5.11816 6.78951 6.86097 6.7592 7.73733 7.3108V7.3108Z" fill="url(#paint6_radial_17205_8693)"/>
<path d="M0.109771 12.6527C1.03697 17.9557 6.00282 22.0072 11.6386 22.1603C16.8558 22.3032 20.1883 19.3711 21.5647 16.5122C22.7308 14.0399 22.8648 11.2269 21.9386 8.66124V8.65014C21.9386 8.64143 21.9367 8.63633 21.9386 8.63903L21.9407 8.65854C22.367 11.3526 20.9515 13.9615 18.7384 15.7292L18.7316 15.7442C14.4196 19.1445 10.2935 17.7952 9.4596 17.2448C9.40132 17.2177 9.34304 17.1896 9.28477 17.1604C6.771 15.9972 5.73219 13.7812 5.95539 11.8784C5.35868 11.887 4.77222 11.7278 4.26707 11.4202C3.76192 11.1125 3.35975 10.6697 3.10931 10.1453C3.76923 9.75393 4.52168 9.53269 5.29495 9.50264C6.06823 9.47259 6.83657 9.63474 7.52677 9.97363C8.94943 10.5988 10.5683 10.6604 12.0372 10.1453C12.0326 10.0508 9.94165 9.24496 9.12636 8.46767C8.69081 8.05201 8.48404 7.85184 8.30083 7.70148C8.20182 7.62029 8.09834 7.54435 7.99084 7.47399C7.91954 7.42688 7.83925 7.37586 7.74284 7.31464C6.86648 6.76303 5.12367 6.79334 5.06601 6.79484H5.06043C4.58427 6.21052 4.61775 4.2838 4.64503 3.88135C4.50417 3.93615 4.36971 4.00527 4.2439 4.08753C3.82355 4.37796 3.43059 4.70385 3.06963 5.06139C2.65681 5.464 2.27957 5.89938 1.94186 6.36298V6.36478V6.36268C1.16951 7.42256 0.621638 8.62004 0.32987 9.886C0.32398 9.90971 -0.102887 11.7164 0.107601 12.6533L0.109771 12.6527Z" fill="url(#paint7_radial_17205_8693)"/>
<path d="M16.2501 8.06103C16.6887 8.47809 17.0644 8.95294 17.3661 9.47156C17.4321 9.51987 17.4938 9.56789 17.5462 9.61441C20.2701 12.0453 18.8429 15.4816 18.7366 15.7247C20.9493 13.9597 22.3636 11.3491 21.9389 8.65405C20.5798 5.37382 18.2747 4.05032 16.3961 1.17224C16.3009 1.02669 16.2058 0.880836 16.1131 0.726878C16.0601 0.638945 16.0176 0.559715 15.9807 0.486788C15.9027 0.340499 15.8425 0.185896 15.8015 0.0261151C15.8016 0.018742 15.7988 0.0116073 15.7938 0.00607202C15.7888 0.000536785 15.7818 -0.00301159 15.7742 -0.00389619C15.7668 -0.00586273 15.759 -0.00586273 15.7516 -0.00389619C15.7501 -0.00389619 15.7476 -0.00119518 15.7457 -0.000594952C15.7439 5.27296e-06 15.7398 0.00270629 15.737 0.00390674C15.2724 0.217287 12.5162 4.44257 16.2516 8.05593L16.2501 8.06103Z" fill="url(#paint8_radial_17205_8693)"/>
<path d="M17.5457 9.61558C17.4933 9.56907 17.4316 9.52105 17.3656 9.47273C17.3411 9.45502 17.3169 9.43732 17.2909 9.41961C16.4458 8.85291 15.4134 8.61024 14.3939 8.73866C18.7153 10.8304 17.5559 18.0331 11.5671 17.763C11.0338 17.7418 10.5069 17.6434 10.0038 17.471C9.88617 17.4284 9.76857 17.3818 9.65098 17.3312C9.58309 17.3012 9.5152 17.2712 9.44824 17.2375L9.45661 17.2426C10.2917 17.7945 14.4166 19.143 18.7286 15.7421L18.7355 15.7271C18.843 15.484 20.2703 12.0477 17.5451 9.61678L17.5457 9.61558Z" fill="url(#paint9_radial_17205_8693)"/>
<path d="M6.61841 13.4271C6.61841 13.4271 7.17299 11.4263 10.5895 11.4263C10.9587 11.4263 12.0155 10.4284 12.0344 10.1391C10.5654 10.6542 8.94657 10.5926 7.52391 9.96745C6.83371 9.62855 6.06536 9.4664 5.29209 9.49645C4.51881 9.5265 3.76637 9.74775 3.10645 10.1391C3.35689 10.6635 3.75905 11.1064 4.26421 11.414C4.76936 11.7216 5.35582 11.8808 5.95253 11.8723C5.72995 13.7741 6.76844 15.9898 9.2819 17.1542C9.33801 17.1804 9.39071 17.2086 9.44837 17.2335C7.98115 16.4997 6.76968 15.112 6.61841 13.428V13.4271Z" fill="url(#paint10_radial_17205_8693)"/>
<path d="M23.1321 8.05194C22.6101 6.83588 21.5511 5.52289 20.7219 5.10783C21.3132 6.21642 21.7236 7.40697 21.9386 8.63716L21.9408 8.65666C20.5824 5.37944 18.2797 4.05594 16.398 1.17786C16.3029 1.03231 16.2077 0.886451 16.115 0.732493C16.062 0.64456 16.0195 0.56533 15.9826 0.492403C15.9046 0.346114 15.8445 0.191512 15.8035 0.0317303C15.8035 0.0243572 15.8008 0.0172225 15.7957 0.0116873C15.7907 0.00615202 15.7837 0.00260365 15.7762 0.00171904C15.7688 -0.000247494 15.7609 -0.000247494 15.7535 0.00171904C15.752 0.00171904 15.7495 0.00442006 15.7477 0.00502028C15.7458 0.00562051 15.7418 0.00832152 15.739 0.00952197L15.7436 0.00171904C12.7258 1.71236 11.7013 4.87855 11.6083 6.46314C11.7484 6.45384 11.8873 6.44243 12.0305 6.44243C13.1012 6.44444 14.1522 6.72087 15.0767 7.24363C16.0013 7.76638 16.7664 8.51682 17.2942 9.41865C16.4491 8.85195 15.4167 8.60928 14.3973 8.73769C18.7187 10.8295 17.5593 18.0322 11.5704 17.7621C11.0372 17.7409 10.5102 17.6424 10.0071 17.4701C9.88953 17.4275 9.77193 17.3808 9.65434 17.3302C9.58645 17.3002 9.51856 17.2702 9.4516 17.2366L9.45997 17.2417C9.40169 17.2147 9.34341 17.1866 9.28514 17.1573C9.34124 17.1835 9.39394 17.2117 9.4516 17.2366C7.98439 16.5025 6.77292 15.1148 6.62164 13.4312C6.62164 13.4312 7.17622 11.4303 10.5927 11.4303C10.9619 11.4303 12.0187 10.4324 12.0376 10.1431C12.033 10.0486 9.94202 9.24278 9.12673 8.46549C8.69118 8.04984 8.48441 7.84966 8.3012 7.69931C8.20219 7.61811 8.09871 7.54217 7.99121 7.47182C7.71748 6.54415 7.70581 5.56238 7.95742 4.62885C6.84913 5.14859 5.86437 5.8854 5.06545 6.79267H5.05987C4.58371 6.20835 4.61719 4.28162 4.64447 3.87917C4.50361 3.93398 4.36915 4.00309 4.24334 4.08535C3.82299 4.37578 3.43003 4.70168 3.06907 5.05922C2.65773 5.46296 2.28204 5.89935 1.94595 6.3638V6.36561V6.3635C1.1736 7.42339 0.625729 8.62087 0.33396 9.88682L0.31784 9.96365C0.295211 10.066 0.193842 10.5858 0.179272 10.6974C0.0865517 11.234 0.027338 11.7755 0.00195312 12.3189V12.379C0.00726287 15.2896 1.13952 18.0926 3.1752 20.2345C5.21088 22.3765 8.00206 23.7018 10.9977 23.9488C13.9934 24.1958 16.9759 23.3466 19.3564 21.5688C21.737 19.791 23.3426 17.2138 23.8563 14.3459C23.8764 14.1958 23.8928 14.0473 23.9108 13.8957C24.1583 11.9156 23.8904 9.90691 23.1315 8.05254L23.1321 8.05194ZM21.9402 8.64946L21.9423 8.66177L21.9402 8.64946Z" fill="url(#paint11_linear_17205_8693)"/>
</g>
</g>
<defs>
<linearGradient id="paint0_linear_17205_8693" x1="21.5419" y1="3.71709" x2="2.21954" y2="22.974" gradientUnits="userSpaceOnUse">
<stop offset="0.048" stop-color="#FFF44F"/>
<stop offset="0.111" stop-color="#FFE847"/>
<stop offset="0.225" stop-color="#FFC830"/>
<stop offset="0.368" stop-color="#FF980E"/>
<stop offset="0.401" stop-color="#FF8B16"/>
<stop offset="0.462" stop-color="#FF672A"/>
<stop offset="0.534" stop-color="#FF3647"/>
<stop offset="0.705" stop-color="#E31587"/>
</linearGradient>
<radialGradient id="paint1_radial_17205_8693" cx="0" cy="0" r="1" gradientUnits="userSpaceOnUse" gradientTransform="translate(20.7695 2.70101) scale(25.0478 24.2491)">
<stop offset="0.129" stop-color="#FFBD4F"/>
<stop offset="0.186" stop-color="#FFAC31"/>
<stop offset="0.247" stop-color="#FF9D17"/>
<stop offset="0.283" stop-color="#FF980E"/>
<stop offset="0.403" stop-color="#FF563B"/>
<stop offset="0.467" stop-color="#FF3750"/>
<stop offset="0.71" stop-color="#F5156C"/>
<stop offset="0.782" stop-color="#EB0878"/>
<stop offset="0.86" stop-color="#E50080"/>
</radialGradient>
<radialGradient id="paint2_radial_17205_8693" cx="0" cy="0" r="1" gradientUnits="userSpaceOnUse" gradientTransform="translate(11.4696 12.6047) scale(25.0478 24.2491)">
<stop offset="0.3" stop-color="#960E18"/>
<stop offset="0.351" stop-color="#B11927" stop-opacity="0.74"/>
<stop offset="0.435" stop-color="#DB293D" stop-opacity="0.343"/>
<stop offset="0.497" stop-color="#F5334B" stop-opacity="0.094"/>
<stop offset="0.53" stop-color="#FF3750" stop-opacity="0"/>
</radialGradient>
<radialGradient id="paint3_radial_17205_8693" cx="0" cy="0" r="1" gradientUnits="userSpaceOnUse" gradientTransform="translate(14.5697 -2.70101) scale(18.1441 17.5656)">
<stop offset="0.132" stop-color="#FFF44F"/>
<stop offset="0.252" stop-color="#FFDC3E"/>
<stop offset="0.506" stop-color="#FF9D12"/>
<stop offset="0.526" stop-color="#FF980E"/>
</radialGradient>
<radialGradient id="paint4_radial_17205_8693" cx="0" cy="0" r="1" gradientUnits="userSpaceOnUse" gradientTransform="translate(8.67996 18.9072) scale(11.9256 11.5453)">
<stop offset="0.353" stop-color="#3A8EE6"/>
<stop offset="0.472" stop-color="#5C79F0"/>
<stop offset="0.669" stop-color="#9059FF"/>
<stop offset="1" stop-color="#C139E6"/>
</radialGradient>
<radialGradient id="paint5_radial_17205_8693" cx="0" cy="0" r="1" gradientUnits="userSpaceOnUse" gradientTransform="translate(12.6814 10.5232) rotate(-13.1735) scale(6.31301 7.18017)">
<stop offset="0.206" stop-color="#9059FF" stop-opacity="0"/>
<stop offset="0.278" stop-color="#8C4FF3" stop-opacity="0.064"/>
<stop offset="0.747" stop-color="#7716A8" stop-opacity="0.45"/>
<stop offset="0.975" stop-color="#6E008B" stop-opacity="0.6"/>
</radialGradient>
<radialGradient id="paint6_radial_17205_8693" cx="0" cy="0" r="1" gradientUnits="userSpaceOnUse" gradientTransform="translate(11.1597 1.80074) scale(8.58073 8.30712)">
<stop stop-color="#FFE226"/>
<stop offset="0.121" stop-color="#FFDB27"/>
<stop offset="0.295" stop-color="#FFC82A"/>
<stop offset="0.502" stop-color="#FFA930"/>
<stop offset="0.732" stop-color="#FF7E37"/>
<stop offset="0.792" stop-color="#FF7139"/>
</radialGradient>
<radialGradient id="paint7_radial_17205_8693" cx="0" cy="0" r="1" gradientUnits="userSpaceOnUse" gradientTransform="translate(17.9799 -3.60136) scale(36.6107 35.4433)">
<stop offset="0.113" stop-color="#FFF44F"/>
<stop offset="0.456" stop-color="#FF980E"/>
<stop offset="0.622" stop-color="#FF5634"/>
<stop offset="0.716" stop-color="#FF3647"/>
<stop offset="0.904" stop-color="#E31587"/>
</radialGradient>
<radialGradient id="paint8_radial_17205_8693" cx="0" cy="0" r="1" gradientUnits="userSpaceOnUse" gradientTransform="translate(14.9369 -1.63621) rotate(83.7791) scale(25.9829 17.601)">
<stop stop-color="#FFF44F"/>
<stop offset="0.06" stop-color="#FFE847"/>
<stop offset="0.168" stop-color="#FFC830"/>
<stop offset="0.304" stop-color="#FF980E"/>
<stop offset="0.356" stop-color="#FF8B16"/>
<stop offset="0.455" stop-color="#FF672A"/>
<stop offset="0.57" stop-color="#FF3647"/>
<stop offset="0.737" stop-color="#E31587"/>
</radialGradient>
<radialGradient id="paint9_radial_17205_8693" cx="0" cy="0" r="1" gradientUnits="userSpaceOnUse" gradientTransform="translate(11.1597 4.80178) scale(22.853 22.1243)">
<stop offset="0.137" stop-color="#FFF44F"/>
<stop offset="0.48" stop-color="#FF980E"/>
<stop offset="0.592" stop-color="#FF5634"/>
<stop offset="0.655" stop-color="#FF3647"/>
<stop offset="0.904" stop-color="#E31587"/>
</radialGradient>
<radialGradient id="paint10_radial_17205_8693" cx="0" cy="0" r="1" gradientUnits="userSpaceOnUse" gradientTransform="translate(17.0498 6.00236) scale(25.0137 24.2161)">
<stop offset="0.094" stop-color="#FFF44F"/>
<stop offset="0.231" stop-color="#FFE141"/>
<stop offset="0.509" stop-color="#FFAF1E"/>
<stop offset="0.626" stop-color="#FF980E"/>
</radialGradient>
<linearGradient id="paint11_linear_17205_8693" x1="21.3" y1="3.61805" x2="4.88057" y2="20.5814" gradientUnits="userSpaceOnUse">
<stop offset="0.167" stop-color="#FFF44F" stop-opacity="0.8"/>
<stop offset="0.266" stop-color="#FFF44F" stop-opacity="0.634"/>
<stop offset="0.489" stop-color="#FFF44F" stop-opacity="0.217"/>
<stop offset="0.6" stop-color="#FFF44F" stop-opacity="0"/>
</linearGradient>
<clipPath id="clip0_17205_8693">
<rect width="24" height="24" fill="white"/>
</clipPath>
<clipPath id="clip1_17205_8693">
<rect width="24" height="24" fill="white"/>
</clipPath>
</defs>
</svg>
