<svg width="32" height="32" viewBox="0 0 32 32" fill="none" xmlns="http://www.w3.org/2000/svg">
<path d="M5.63636 25.0046H9.45455V15.7319L4 11.641V23.3683C4 24.2737 4.73364 25.0046 5.63636 25.0046Z" fill="#4285F4"/>
<path d="M22.5455 25.0046H26.3636C27.2691 25.0046 28 24.271 28 23.3683V11.641L22.5455 15.7319" fill="#34A853"/>
<path d="M22.5455 8.64101V15.7319L28 11.641V9.45919C28 7.43555 25.69 6.28191 24.0727 7.49555" fill="#FBBC04"/>
<path d="M9.45455 15.7319V8.64101L16 13.5501L22.5455 8.64101V15.7319L16 20.641" fill="#EA4335"/>
<path d="M4 9.45919V11.641L9.45455 15.7319V8.64101L7.92727 7.49555C6.30727 6.28191 4 7.43555 4 9.45919Z" fill="#C5221F"/>
</svg>
