<svg width="24" height="25" viewBox="0 0 24 25" fill="none" xmlns="http://www.w3.org/2000/svg">
<path fill-rule="evenodd" clip-rule="evenodd" d="M11.991 14.5608V11.2128H20.415C20.541 11.7798 20.64 12.3108 20.64 13.0578C20.64 18.1968 17.193 21.8508 12 21.8508C7.032 21.8508 3 17.8188 3 12.8508C3 7.88283 7.032 3.85083 12 3.85083C14.43 3.85083 16.464 4.74183 18.021 6.19983L15.465 8.68383C14.817 8.07183 13.683 7.35183 12 7.35183C9.021 7.35183 6.591 9.82683 6.591 12.8598C6.591 15.8928 9.021 18.3678 12 18.3678C15.447 18.3678 16.716 15.9828 16.95 14.5698H11.991V14.5608Z" fill="black" fill-opacity="0.4"/>
</svg>
