<svg width="24" height="24" viewBox="0 0 24 24" fill="none" xmlns="http://www.w3.org/2000/svg">
<mask id="mask0_23763_62282" style="mask-type:luminance" maskUnits="userSpaceOnUse" x="3" y="0" width="18" height="24">
<path d="M14.1195 0.343262H5.11201C4.23776 0.343262 3.52246 1.05856 3.52246 1.93281V22.0671C3.52246 22.9414 4.23776 23.6567 5.11201 23.6567H18.8881C19.7624 23.6567 20.4777 22.9414 20.4777 22.0671V6.70147L14.1195 0.343262Z" fill="white"/>
</mask>
<g mask="url(#mask0_23763_62282)">
<path d="M14.1195 0.343262H5.11201C4.23776 0.343262 3.52246 1.05856 3.52246 1.93281V22.0671C3.52246 22.9414 4.23776 23.6567 5.11201 23.6567H18.8881C19.7624 23.6567 20.4777 22.9414 20.4777 22.0671V6.70147L16.7687 4.05222L14.1195 0.343262Z" fill="#0F9D58"/>
</g>
<mask id="mask1_23763_62282" style="mask-type:luminance" maskUnits="userSpaceOnUse" x="3" y="0" width="18" height="24">
<path d="M14.1195 0.343262H5.11201C4.23776 0.343262 3.52246 1.05856 3.52246 1.93281V22.0671C3.52246 22.9414 4.23776 23.6567 5.11201 23.6567H18.8881C19.7624 23.6567 20.4777 22.9414 20.4777 22.0671V6.70147L14.1195 0.343262Z" fill="white"/>
</mask>
<g mask="url(#mask1_23763_62282)">
<path d="M7.76123 11.7351V19.4179H16.2388V11.7351H7.76123ZM11.4702 18.3582H8.82093V17.0336H11.4702V18.3582ZM11.4702 16.2388H8.82093V14.9142H11.4702V16.2388ZM11.4702 14.1194H8.82093V12.7948H11.4702V14.1194ZM15.1791 18.3582H12.5299V17.0336H15.1791V18.3582ZM15.1791 16.2388H12.5299V14.9142H15.1791V16.2388ZM15.1791 14.1194H12.5299V12.7948H15.1791V14.1194Z" fill="#F1F1F1"/>
</g>
<mask id="mask2_23763_62282" style="mask-type:luminance" maskUnits="userSpaceOnUse" x="3" y="0" width="18" height="24">
<path d="M14.1195 0.343262H5.11201C4.23776 0.343262 3.52246 1.05856 3.52246 1.93281V22.0671C3.52246 22.9414 4.23776 23.6567 5.11201 23.6567H18.8881C19.7624 23.6567 20.4777 22.9414 20.4777 22.0671V6.70147L14.1195 0.343262Z" fill="white"/>
</mask>
<g mask="url(#mask2_23763_62282)">
<path d="M14.5845 6.23657L20.4777 12.1285V6.70152L14.5845 6.23657Z" fill="url(#paint0_linear_23763_62282)"/>
</g>
<mask id="mask3_23763_62282" style="mask-type:luminance" maskUnits="userSpaceOnUse" x="3" y="0" width="18" height="24">
<path d="M14.1195 0.343262H5.11201C4.23776 0.343262 3.52246 1.05856 3.52246 1.93281V22.0671C3.52246 22.9414 4.23776 23.6567 5.11201 23.6567H18.8881C19.7624 23.6567 20.4777 22.9414 20.4777 22.0671V6.70147L14.1195 0.343262Z" fill="white"/>
</mask>
<g mask="url(#mask3_23763_62282)">
<path d="M14.1196 0.343262V5.11192C14.1196 5.99015 14.831 6.70147 15.7092 6.70147H20.4778L14.1196 0.343262Z" fill="#87CEAC"/>
</g>
<mask id="mask4_23763_62282" style="mask-type:luminance" maskUnits="userSpaceOnUse" x="3" y="0" width="18" height="24">
<path d="M14.1195 0.343262H5.11201C4.23776 0.343262 3.52246 1.05856 3.52246 1.93281V22.0671C3.52246 22.9414 4.23776 23.6567 5.11201 23.6567H18.8881C19.7624 23.6567 20.4777 22.9414 20.4777 22.0671V6.70147L14.1195 0.343262Z" fill="white"/>
</mask>
<g mask="url(#mask4_23763_62282)">
<path d="M5.11201 0.343262C4.23776 0.343262 3.52246 1.05856 3.52246 1.93281V2.06528C3.52246 1.19102 4.23776 0.475724 5.11201 0.475724H14.1195V0.343262H5.11201Z" fill="white" fill-opacity="0.2"/>
</g>
<mask id="mask5_23763_62282" style="mask-type:luminance" maskUnits="userSpaceOnUse" x="3" y="0" width="18" height="24">
<path d="M14.1195 0.343262H5.11201C4.23776 0.343262 3.52246 1.05856 3.52246 1.93281V22.0671C3.52246 22.9414 4.23776 23.6567 5.11201 23.6567H18.8881C19.7624 23.6567 20.4777 22.9414 20.4777 22.0671V6.70147L14.1195 0.343262Z" fill="white"/>
</mask>
<g mask="url(#mask5_23763_62282)">
<path d="M18.8881 23.5242H5.11201C4.23776 23.5242 3.52246 22.8089 3.52246 21.9347V22.0672C3.52246 22.9414 4.23776 23.6567 5.11201 23.6567H18.8881C19.7624 23.6567 20.4777 22.9414 20.4777 22.0672V21.9347C20.4777 22.8089 19.7624 23.5242 18.8881 23.5242Z" fill="#263238" fill-opacity="0.2"/>
</g>
<mask id="mask6_23763_62282" style="mask-type:luminance" maskUnits="userSpaceOnUse" x="3" y="0" width="18" height="24">
<path d="M14.1195 0.343262H5.11201C4.23776 0.343262 3.52246 1.05856 3.52246 1.93281V22.0671C3.52246 22.9414 4.23776 23.6567 5.11201 23.6567H18.8881C19.7624 23.6567 20.4777 22.9414 20.4777 22.0671V6.70147L14.1195 0.343262Z" fill="white"/>
</mask>
<g mask="url(#mask6_23763_62282)">
<path d="M15.7092 6.70149C14.831 6.70149 14.1196 5.99017 14.1196 5.11194V5.2444C14.1196 6.12263 14.831 6.83395 15.7092 6.83395H20.4778V6.70149H15.7092Z" fill="#263238" fill-opacity="0.1"/>
</g>
<path d="M14.1195 0.343262H5.11201C4.23776 0.343262 3.52246 1.05856 3.52246 1.93281V22.0671C3.52246 22.9414 4.23776 23.6567 5.11201 23.6567H18.8881C19.7624 23.6567 20.4777 22.9414 20.4777 22.0671V6.70147L14.1195 0.343262Z" fill="url(#paint1_radial_23763_62282)"/>
<defs>
<linearGradient id="paint0_linear_23763_62282" x1="309.28" y1="56.8254" x2="309.28" y2="595.513" gradientUnits="userSpaceOnUse">
<stop stop-color="#263238" stop-opacity="0.2"/>
<stop offset="1" stop-color="#263238" stop-opacity="0.02"/>
</linearGradient>
<radialGradient id="paint1_radial_23763_62282" cx="0" cy="0" r="1" gradientUnits="userSpaceOnUse" gradientTransform="translate(57.2375 46.4209) scale(2734 2734.01)">
<stop stop-color="white" stop-opacity="0.1"/>
<stop offset="1" stop-color="white" stop-opacity="0"/>
</radialGradient>
</defs>
</svg>
