<svg width="24" height="24" viewBox="0 0 24 24" fill="none" xmlns="http://www.w3.org/2000/svg">
<path d="M2 6C2 5.44772 2.44772 5 3 5H5C5.55228 5 6 5.44772 6 6C6 6.55228 5.55228 7 5 7V11H11V7C10.4477 7 10 6.55228 10 6C10 5.44772 10.4477 5 11 5H13C13.5523 5 14 5.44772 14 6C14 6.55228 13.5523 7 13 7V17C13.5523 17 14 17.4477 14 18C14 18.5523 13.5523 19 13 19H11C10.4477 19 10 18.5523 10 18C10 17.4477 10.4477 17 11 17V13H5V17C5.55228 17 6 17.4477 6 18C6 18.5523 5.55228 19 5 19H3C2.44772 19 2 18.5523 2 18C2 17.4477 2.44772 17 3 17V7C2.44772 7 2 6.55228 2 6Z" fill="currentcolor"/>
<path d="M17.8519 9.22836C18.4001 9.0013 19.0033 8.94189 19.5853 9.05764C20.1672 9.1734 20.7018 9.45912 21.1213 9.87868C21.5409 10.2982 21.8266 10.8328 21.9424 11.4147C22.0581 11.9967 21.9987 12.5999 21.7716 13.1481C21.6417 13.4618 21.4601 13.7495 21.2361 14C21.4601 14.2505 21.6417 14.5382 21.7716 14.8519C21.9987 15.4001 22.0581 16.0033 21.9424 16.5853C21.8266 17.1672 21.5409 17.7018 21.1213 18.1213C20.7018 18.5409 20.1672 18.8266 19.5853 18.9424C19.0033 19.0581 18.4001 18.9987 17.8519 18.7716C17.3038 18.5446 16.8352 18.1601 16.5056 17.6667C16.1759 17.1734 16 16.5933 16 16C16 15.4477 16.4477 15 17 15C17.5523 15 18 15.4477 18 16C18 16.1978 18.0586 16.3911 18.1685 16.5556C18.2784 16.72 18.4346 16.8482 18.6173 16.9239C18.8 16.9996 19.0011 17.0194 19.1951 16.9808C19.3891 16.9422 19.5673 16.847 19.7071 16.7071C19.847 16.5673 19.9422 16.3891 19.9808 16.1951C20.0194 16.0011 19.9996 15.8 19.9239 15.6173C19.8482 15.4346 19.72 15.2784 19.5556 15.1685C19.3911 15.0586 19.1978 15 19 15C18.4477 15 18 14.5523 18 14C18 13.4477 18.4477 13 19 13C19.1978 13 19.3911 12.9414 19.5556 12.8315C19.72 12.7216 19.8482 12.5654 19.9239 12.3827C19.9996 12.2 20.0194 11.9989 19.9808 11.8049C19.9422 11.6109 19.847 11.4327 19.7071 11.2929C19.5673 11.153 19.3891 11.0578 19.1951 11.0192C19.0011 10.9806 18.8 11.0004 18.6173 11.0761C18.4346 11.1518 18.2784 11.28 18.1685 11.4444C18.0586 11.6089 18 11.8022 18 12C18 12.5523 17.5523 13 17 13C16.4477 13 16 12.5523 16 12C16 11.4067 16.1759 10.8266 16.5056 10.3333C16.8352 9.83994 17.3038 9.45543 17.8519 9.22836Z" fill="currentcolor"/>
</svg>
