<svg width="24" height="24" viewBox="0 0 24 24" fill="none" xmlns="http://www.w3.org/2000/svg">
<path fill-rule="evenodd" clip-rule="evenodd" d="M5.71934 20.2154L2.51512 21.6001C2.40013 18.2012 2.21555 14.7966 2.1748 11.3961L2.18709 10.7503C2.21138 9.622 2.24833 8.61095 2.29283 7.90774C2.48959 5.56748 4.32599 3.829 6.55591 3.6284C8.10612 3.50683 9.81894 3.44052 11.4973 3.42947L12.0037 3.42798C13.8401 3.42798 15.7421 3.49485 17.4473 3.62858C17.734 3.65436 18.0141 3.70556 18.2851 3.78019L21.4841 2.40013L21.8227 11.0786L21.8248 11.1895L21.8248 12.8621L21.8116 13.5026C21.7874 14.5495 21.7522 15.4826 21.7104 16.1437C21.5136 18.484 19.6772 20.2225 17.4473 20.4231C15.8971 20.5446 14.1843 20.6109 12.5059 20.622L11.9995 20.6238C10.1631 20.6238 8.56021 20.5557 6.86837 20.4225C6.49759 20.3891 6.06263 20.3295 5.71934 20.2154ZM12.0016 17.3468L12.602 17.3441L13.1823 17.3363C14.5354 17.3123 15.8794 17.2491 17.1849 17.1467C17.9064 17.0798 18.4311 16.5449 18.4967 15.8763L18.5188 15.6363C18.5792 14.9216 18.6184 13.9191 18.6412 12.8176V11.234L18.6267 10.63C18.5996 9.64455 18.5576 8.77547 18.4967 8.17537C18.4311 7.50672 17.9064 6.97181 17.1849 6.90494C15.8794 6.80256 14.5354 6.73936 13.1823 6.71537L12.602 6.70748L11.9618 6.70481L11.4012 6.70731C9.85262 6.72194 8.31033 6.78776 6.81825 6.90477C6.09681 6.97164 5.57212 7.50655 5.50653 8.1752L5.48435 8.41517C5.4105 9.28999 5.36835 10.5961 5.34907 11.9871L5.36201 12.8178L5.3765 13.4218C5.40359 14.4073 5.44564 15.2763 5.50653 15.8764C5.57212 16.5451 6.09681 17.08 6.81825 17.1469C8.12382 17.2492 9.46783 17.3124 10.8209 17.3364L11.4012 17.3443L12.0016 17.3468Z" fill="#FFD000"/>
</svg>
