<svg width="24" height="24" viewBox="0 0 24 24" fill="none" xmlns="http://www.w3.org/2000/svg">
<path d="M6.52502 20.275C8.35002 20.425 10.175 20.5 12 20.5C13.825 20.5 15.65 20.425 17.475 20.3C19.825 20.1 21.675 18.05 21.85 15.45C21.8551 15.3786 21.8601 15.3093 21.8649 15.2417C21.955 13.9845 22 13.3563 22 12.0514V9.52832L18.75 12.3533C18.7274 13.5507 18.7774 13.8654 18.6995 14.8892C18.6912 14.9983 18.6822 15.1157 18.6726 15.2434C18.5976 16.2184 17.9976 17.0184 17.2726 17.0684C13.7726 17.3684 10.275 17.35 6.77502 17.05C6.05002 17 5.45 16.2 5.375 15.225C5.36727 15.1226 5.35985 15.0249 5.35272 14.9311C5.26758 13.8108 5.22504 13.2246 5.22504 12.025L5.22555 11.9983C5.25038 10.7069 5.27568 9.39093 5.375 8.075C5.45 7.125 6.02504 6.35 6.72504 6.25H17.0926L12.1533 10.5879L10.028 8.63453L7.60144 10.7655L12.124 14.9223L21.9995 6.25H22V3H6.52502C4.17502 3.2 2.32502 5.25 2.15002 7.85C2.05002 9.25 2 10.65 2 12.025C2 13.34 2.04575 13.9941 2.13721 15.2491C2.14139 15.3064 2.14566 15.365 2.15002 15.425C2.32502 18.025 4.17502 20.075 6.52502 20.275Z" fill="#2FC774"/>
</svg>
