<svg width="24" height="24" viewBox="0 0 24 24" fill="none" xmlns="http://www.w3.org/2000/svg">
<path d="M13.6668 4.56201L18.9998 8.71001C19.6498 9.21501 20.0298 9.99201 20.0298 10.815V18.015C20.0298 18.5454 19.8191 19.0542 19.444 19.4292C19.0689 19.8043 18.5602 20.015 18.0298 20.015H14.5012V15.0082C14.5012 14.4559 14.0535 14.0082 13.5012 14.0082H10.5541C10.0018 14.0082 9.55413 14.4559 9.55413 15.0082V20.015H6.02979C5.49935 20.015 4.99064 19.8043 4.61557 19.4292C4.2405 19.0542 4.02979 18.5454 4.02979 18.015V10.815C4.02959 10.4089 4.1222 10.0082 4.30054 9.64336C4.47888 9.27854 4.73823 8.9593 5.05879 8.71001L10.3928 4.56201C10.8608 4.19792 11.4368 4.00024 12.0298 4.00024C12.6227 4.00024 13.1988 4.19792 13.6668 4.56201Z" stroke="currentcolor" stroke-width="2" stroke-linecap="round" stroke-linejoin="round"/>
</svg>
