<svg width="24" height="24" viewBox="0 0 24 24" fill="none" xmlns="http://www.w3.org/2000/svg">
<path fill-rule="evenodd" clip-rule="evenodd" d="M9.74912 3.76504C10.3927 3.26446 11.1847 2.99268 12 2.99268C12.8153 2.99268 13.6074 3.26448 14.2509 3.7651L19.5835 7.91277C20.4775 8.60733 21 9.67587 21 10.8074V18.0074C21 18.8031 20.6839 19.5662 20.1213 20.1288C19.5587 20.6914 18.7956 21.0074 18 21.0074H15.4642C14.9119 21.0074 14.4642 20.5597 14.4642 20.0074V16.0007C14.4642 15.4484 14.0165 15.0007 13.4642 15.0007H10.42C9.86772 15.0007 9.42 15.4484 9.42 16.0007V20.0074C9.42 20.5597 8.97229 21.0074 8.42 21.0074H6C5.20435 21.0074 4.44129 20.6914 3.87868 20.1288C3.31607 19.5662 3 18.8031 3 18.0074V10.8076C2.99981 10.2494 3.12716 9.6982 3.37235 9.19662C3.61761 8.69491 3.97428 8.25587 4.41512 7.91305L9.74912 3.76504Z" fill="currentcolor"/>
</svg>
