<svg width="24" height="24" viewBox="0 0 24 24" fill="none" xmlns="http://www.w3.org/2000/svg">
<g clip-path="url(#clip0_23763_62186)">
<path d="M12 24C18.6274 24 24 18.6274 24 12C24 5.37258 18.6274 0 12 0C5.37258 0 0 5.37258 0 12C0 18.6274 5.37258 24 12 24Z" fill="#FF7A59"/>
<path fill-rule="evenodd" clip-rule="evenodd" d="M14.6204 14.647C13.7244 14.647 12.9976 13.9282 12.9976 13.0413C12.9976 12.1545 13.7242 11.4354 14.6204 11.4354C15.5167 11.4354 16.2437 12.1542 16.2437 13.0413C16.2437 13.9284 15.5171 14.647 14.6204 14.647ZM15.1065 9.94969V8.52C15.2966 8.43295 15.4579 8.29342 15.5713 8.11783C15.6848 7.94224 15.7458 7.7379 15.7471 7.52883V7.49579C15.7471 6.89157 15.2474 6.3975 14.6373 6.3975H14.6038C13.9944 6.3975 13.494 6.8918 13.494 7.49579V7.52883C13.4954 7.73788 13.5564 7.94221 13.6698 8.11779C13.7833 8.29337 13.9445 8.43291 14.1346 8.52V9.94969C13.5873 10.0322 13.0713 10.2568 12.6379 10.601L8.67457 7.55016C8.70231 7.44979 8.7172 7.34631 8.71887 7.24219C8.71887 6.55758 8.15895 6.00188 7.46731 6C6.77566 5.99813 6.21457 6.5529 6.21387 7.23774C6.21316 7.92258 6.77285 8.47711 7.46449 8.47829C7.68113 8.47735 7.89379 8.42009 8.0816 8.31211L11.9811 11.3145C11.6303 11.837 11.447 12.454 11.4557 13.0834C11.4644 13.7127 11.6646 14.3244 12.0296 14.8371L10.8432 16.0113C10.7029 15.9673 10.5546 15.9543 10.4088 15.9731C10.2629 15.9919 10.1228 16.0421 9.99816 16.1203C9.87354 16.1984 9.76735 16.3027 9.6869 16.4258C9.60644 16.549 9.55365 16.6881 9.53214 16.8336C9.51063 16.9791 9.52093 17.1276 9.56232 17.2687C9.60371 17.4099 9.67521 17.5404 9.77189 17.6513C9.86858 17.7621 9.98814 17.8507 10.1224 17.9109C10.2566 17.9711 10.4022 18.0015 10.5493 18C11.1175 18 11.5782 17.5439 11.5782 16.9816C11.5772 16.8828 11.5614 16.7847 11.5314 16.6906L12.7032 15.5299C13.2549 15.9481 13.9282 16.1742 14.6204 16.1738C16.3691 16.1738 17.7859 14.7715 17.7859 13.0413C17.7859 11.4752 16.6229 10.182 15.1063 9.94969" fill="white"/>
</g>
<defs>
<clipPath id="clip0_23763_62186">
<rect width="24" height="24" fill="white"/>
</clipPath>
</defs>
</svg>
