<svg width="24" height="24" viewBox="0 0 24 24" fill="none" xmlns="http://www.w3.org/2000/svg">
<path d="M8.66633 12.006C8.66309 10.1653 10.1528 8.67009 11.9931 8.66685C13.8338 8.66327 15.3293 10.1524 15.3329 11.9934C15.3365 13.8344 13.8467 15.3293 12.0058 15.3329C10.1655 15.3365 8.66989 13.847 8.66633 12.006ZM6.86525 12.0096C6.87075 14.8456 9.17404 17.1396 12.0093 17.134C14.845 17.1285 17.1401 14.8258 17.1347 11.9898C17.1291 9.15479 14.8255 6.85953 11.9896 6.86505C9.15427 6.87055 6.85973 9.17423 6.86525 12.0096ZM16.127 6.65445C16.1283 7.31671 16.6668 7.85295 17.3291 7.85165C17.9916 7.85035 18.5278 7.31217 18.5269 6.64991C18.5256 5.98765 17.9871 5.45109 17.3245 5.45239C16.6619 5.45369 16.1257 5.99217 16.127 6.65445ZM7.97494 20.1466C7.00001 20.1042 6.47061 19.9422 6.11778 19.8064C5.65056 19.6256 5.31718 19.4089 4.96629 19.0606C4.61605 18.711 4.39863 18.3785 4.21623 17.9123C4.07918 17.5595 3.91428 17.0307 3.86858 16.0558C3.819 15.0018 3.80768 14.6855 3.80282 12.0154C3.79764 9.34595 3.80734 9.02973 3.85336 7.97477C3.89514 7.00049 4.05814 6.47041 4.19355 6.11789C4.37433 5.65003 4.59045 5.31727 4.93939 4.96639C5.28898 4.61549 5.6214 4.39873 6.08796 4.21631C6.44047 4.07859 6.96925 3.91497 7.94384 3.86865C8.99843 3.81875 9.31432 3.80807 11.9838 3.80287C14.6538 3.79769 14.97 3.80709 16.025 3.85343C16.9992 3.89587 17.5293 4.05723 17.8815 4.19363C18.349 4.37441 18.6824 4.58989 19.033 4.93949C19.3835 5.28909 19.6009 5.62087 19.7833 6.08841C19.921 6.43995 20.0847 6.96937 20.1307 7.94365C20.1809 8.99829 20.1922 9.31453 20.1971 11.984C20.2023 14.6541 20.1925 14.9703 20.1462 16.0247C20.1038 16.9996 19.9421 17.5293 19.806 17.8825C19.6252 18.3494 19.4091 18.6828 19.0598 19.0337C18.7106 19.3833 18.3782 19.6013 17.9113 19.7838C17.5594 19.9211 17.03 20.0851 16.0561 20.1314C15.0015 20.181 14.6855 20.1923 12.0152 20.1972C9.34574 20.2024 9.02987 20.1923 7.97494 20.1466ZM7.85828 2.06913C6.79427 2.11935 6.06756 2.28977 5.4325 2.53861C4.77513 2.79489 4.21785 3.13835 3.6635 3.69499C3.10849 4.25195 2.76765 4.81019 2.51331 5.46825C2.26707 6.10493 2.1002 6.83199 2.05322 7.89667C2.00658 8.96331 1.99588 9.30351 2.00108 12.019C2.00626 14.7341 2.01824 15.075 2.0691 16.1419C2.11996 17.2056 2.28975 17.9321 2.53857 18.5674C2.79519 19.2248 3.13829 19.7818 3.69524 20.3365C4.25187 20.8912 4.81045 21.2317 5.4688 21.4864C6.10482 21.7323 6.83219 21.8998 7.89652 21.9465C8.96313 21.9935 9.30362 22.0038 12.0184 21.9987C14.7345 21.9935 15.075 21.9815 16.1416 21.9309C17.2056 21.8801 17.9317 21.7097 18.5674 21.4615C19.2248 21.2042 19.782 20.8617 20.3364 20.3048C20.8907 19.7481 21.2316 19.1895 21.4859 18.5312C21.7322 17.8951 21.8997 17.1677 21.946 16.104C21.9927 15.0368 22.0037 14.6959 21.9985 11.9807C21.9933 9.26527 21.981 8.92507 21.9305 7.85877C21.8799 6.79409 21.7095 6.06799 21.461 5.43229C21.2041 4.77489 20.8613 4.21825 20.3047 3.66323C19.748 3.10887 19.1894 2.76735 18.5311 2.51367C17.8948 2.26741 17.1677 2.09959 16.1034 2.05357C15.0367 2.00627 14.6962 1.99591 11.9805 2.00109C9.2654 2.00627 8.92489 2.01793 7.85828 2.06913Z" fill="currentcolor"/>
</svg>
