<svg width="24" height="24" viewBox="0 0 24 24" fill="none" xmlns="http://www.w3.org/2000/svg">
<path d="M12.0005 2C9.28477 2 8.94395 2.01188 7.87731 2.06042C6.81277 2.10917 6.08612 2.27771 5.45031 2.525C4.79262 2.78042 4.23472 3.12208 3.67891 3.67813C3.12267 4.23396 2.78102 4.79187 2.52477 5.44937C2.27687 6.08542 2.10812 6.81229 2.06021 7.87646C2.0125 8.94312 2 9.28417 2 12C2 14.7158 2.01208 15.0556 2.06041 16.1223C2.10937 17.1869 2.27791 17.9135 2.52498 18.5494C2.7806 19.2071 3.12226 19.765 3.67828 20.3208C4.23389 20.8771 4.79179 21.2196 5.44906 21.475C6.08529 21.7223 6.81214 21.8908 7.87648 21.9396C8.94311 21.9881 9.28373 22 11.9993 22C14.7152 22 15.055 21.9881 16.1216 21.9396C17.1862 21.8908 17.9137 21.7223 18.5499 21.475C19.2074 21.2196 19.7644 20.8771 20.32 20.3208C20.8763 19.765 21.2179 19.2071 21.4742 18.5496C21.72 17.9135 21.8887 17.1867 21.9387 16.1225C21.9867 15.0558 21.9992 14.7158 21.9992 12C21.9992 9.28417 21.9867 8.94333 21.9387 7.87667C21.8887 6.81208 21.72 6.08542 21.4742 5.44958C21.2179 4.79187 20.8763 4.23396 20.32 3.67813C19.7638 3.12188 19.2076 2.78021 18.5493 2.525C17.9118 2.27771 17.1847 2.10917 16.1202 2.06042C15.0535 2.01188 14.714 2 11.9974 2H12.0005ZM11.1035 3.80208C11.3697 3.80167 11.6668 3.80208 12.0005 3.80208C14.6704 3.80208 14.9869 3.81167 16.0412 3.85958C17.0162 3.90417 17.5453 4.06708 17.8978 4.20396C18.3645 4.38521 18.6972 4.60187 19.047 4.95187C19.397 5.30187 19.6136 5.63521 19.7953 6.10187C19.9321 6.45396 20.0953 6.98312 20.1396 7.95812C20.1876 9.01229 20.198 9.32896 20.198 11.9977C20.198 14.6665 20.1876 14.9831 20.1396 16.0373C20.0951 17.0123 19.9321 17.5415 19.7953 17.8935C19.614 18.3602 19.397 18.6925 19.047 19.0423C18.697 19.3923 18.3647 19.609 17.8978 19.7902C17.5458 19.9277 17.0162 20.0902 16.0412 20.1348C14.9871 20.1827 14.6704 20.1931 12.0005 20.1931C9.33039 20.1931 9.01395 20.1827 7.95981 20.1348C6.98484 20.0898 6.45569 19.9269 6.103 19.79C5.63634 19.6087 5.30302 19.3921 4.95303 19.0421C4.60304 18.6921 4.38638 18.3596 4.20472 17.8927C4.06785 17.5406 3.90473 17.0115 3.86036 16.0365C3.81244 14.9823 3.80286 14.6656 3.80286 11.9952C3.80286 9.32479 3.81244 9.00979 3.86036 7.95563C3.90494 6.98063 4.06785 6.45146 4.20472 6.09896C4.38597 5.63229 4.60304 5.29896 4.95303 4.94896C5.30302 4.59896 5.63634 4.38229 6.103 4.20062C6.45548 4.06312 6.98484 3.90063 7.95981 3.85583C8.88228 3.81417 9.23977 3.80167 11.1035 3.79958V3.80208ZM17.3383 5.4625C16.6758 5.4625 16.1383 5.99937 16.1383 6.66208C16.1383 7.32458 16.6758 7.86208 17.3383 7.86208C18.0007 7.86208 18.5382 7.32458 18.5382 6.66208C18.5382 5.99958 18.0007 5.46208 17.3383 5.46208V5.4625ZM12.0005 6.86458C9.16457 6.86458 6.86526 9.16396 6.86526 12C6.86526 14.836 9.16457 17.1344 12.0005 17.1344C14.8365 17.1344 17.1349 14.836 17.1349 12C17.1349 9.16396 14.8363 6.86458 12.0003 6.86458H12.0005ZM12.0005 8.66667C13.8413 8.66667 15.3337 10.159 15.3337 12C15.3337 13.8408 13.8413 15.3333 12.0005 15.3333C10.1595 15.3333 8.66729 13.8408 8.66729 12C8.66729 10.159 10.1595 8.66667 12.0005 8.66667V8.66667Z" fill="url(#paint0_radial_41_187)"/>
<path d="M12.0005 2C9.28477 2 8.94395 2.01188 7.87731 2.06042C6.81277 2.10917 6.08612 2.27771 5.45031 2.525C4.79262 2.78042 4.23472 3.12208 3.67891 3.67813C3.12267 4.23396 2.78102 4.79187 2.52477 5.44937C2.27687 6.08542 2.10812 6.81229 2.06021 7.87646C2.0125 8.94312 2 9.28417 2 12C2 14.7158 2.01208 15.0556 2.06041 16.1223C2.10937 17.1869 2.27791 17.9135 2.52498 18.5494C2.7806 19.2071 3.12226 19.765 3.67828 20.3208C4.23389 20.8771 4.79179 21.2196 5.44906 21.475C6.08529 21.7223 6.81214 21.8908 7.87648 21.9396C8.94311 21.9881 9.28373 22 11.9993 22C14.7152 22 15.055 21.9881 16.1216 21.9396C17.1862 21.8908 17.9137 21.7223 18.5499 21.475C19.2074 21.2196 19.7644 20.8771 20.32 20.3208C20.8763 19.765 21.2179 19.2071 21.4742 18.5496C21.72 17.9135 21.8887 17.1867 21.9387 16.1225C21.9867 15.0558 21.9992 14.7158 21.9992 12C21.9992 9.28417 21.9867 8.94333 21.9387 7.87667C21.8887 6.81208 21.72 6.08542 21.4742 5.44958C21.2179 4.79187 20.8763 4.23396 20.32 3.67813C19.7638 3.12188 19.2076 2.78021 18.5493 2.525C17.9118 2.27771 17.1847 2.10917 16.1202 2.06042C15.0535 2.01188 14.714 2 11.9974 2H12.0005ZM11.1035 3.80208C11.3697 3.80167 11.6668 3.80208 12.0005 3.80208C14.6704 3.80208 14.9869 3.81167 16.0412 3.85958C17.0162 3.90417 17.5453 4.06708 17.8978 4.20396C18.3645 4.38521 18.6972 4.60187 19.047 4.95187C19.397 5.30187 19.6136 5.63521 19.7953 6.10187C19.9321 6.45396 20.0953 6.98312 20.1396 7.95812C20.1876 9.01229 20.198 9.32896 20.198 11.9977C20.198 14.6665 20.1876 14.9831 20.1396 16.0373C20.0951 17.0123 19.9321 17.5415 19.7953 17.8935C19.614 18.3602 19.397 18.6925 19.047 19.0423C18.697 19.3923 18.3647 19.609 17.8978 19.7902C17.5458 19.9277 17.0162 20.0902 16.0412 20.1348C14.9871 20.1827 14.6704 20.1931 12.0005 20.1931C9.33039 20.1931 9.01395 20.1827 7.95981 20.1348C6.98484 20.0898 6.45569 19.9269 6.103 19.79C5.63634 19.6087 5.30302 19.3921 4.95303 19.0421C4.60304 18.6921 4.38638 18.3596 4.20472 17.8927C4.06785 17.5406 3.90473 17.0115 3.86036 16.0365C3.81244 14.9823 3.80286 14.6656 3.80286 11.9952C3.80286 9.32479 3.81244 9.00979 3.86036 7.95563C3.90494 6.98063 4.06785 6.45146 4.20472 6.09896C4.38597 5.63229 4.60304 5.29896 4.95303 4.94896C5.30302 4.59896 5.63634 4.38229 6.103 4.20062C6.45548 4.06312 6.98484 3.90063 7.95981 3.85583C8.88228 3.81417 9.23977 3.80167 11.1035 3.79958V3.80208ZM17.3383 5.4625C16.6758 5.4625 16.1383 5.99937 16.1383 6.66208C16.1383 7.32458 16.6758 7.86208 17.3383 7.86208C18.0007 7.86208 18.5382 7.32458 18.5382 6.66208C18.5382 5.99958 18.0007 5.46208 17.3383 5.46208V5.4625ZM12.0005 6.86458C9.16457 6.86458 6.86526 9.16396 6.86526 12C6.86526 14.836 9.16457 17.1344 12.0005 17.1344C14.8365 17.1344 17.1349 14.836 17.1349 12C17.1349 9.16396 14.8363 6.86458 12.0003 6.86458H12.0005ZM12.0005 8.66667C13.8413 8.66667 15.3337 10.159 15.3337 12C15.3337 13.8408 13.8413 15.3333 12.0005 15.3333C10.1595 15.3333 8.66729 13.8408 8.66729 12C8.66729 10.159 10.1595 8.66667 12.0005 8.66667V8.66667Z" fill="url(#paint1_radial_41_187)"/>
<defs>
<radialGradient id="paint0_radial_41_187" cx="0" cy="0" r="1" gradientUnits="userSpaceOnUse" gradientTransform="translate(7.3123 23.5404) rotate(-90) scale(19.8215 18.4348)">
<stop stop-color="#FFDD55"/>
<stop offset="0.1" stop-color="#FFDD55"/>
<stop offset="0.5" stop-color="#FF543E"/>
<stop offset="1" stop-color="#C837AB"/>
</radialGradient>
<radialGradient id="paint1_radial_41_187" cx="0" cy="0" r="1" gradientUnits="userSpaceOnUse" gradientTransform="translate(-1.34997 3.44077) rotate(78.6811) scale(8.86027 36.521)">
<stop stop-color="#3771C8"/>
<stop offset="0.128" stop-color="#3771C8"/>
<stop offset="1" stop-color="#6600FF" stop-opacity="0"/>
</radialGradient>
</defs>
</svg>
