<svg width="24" height="24" viewBox="0 0 24 24" fill="none" xmlns="http://www.w3.org/2000/svg">
<path d="M21.9178 6.25004H18.7178V3C15.8427 3 13.4177 4.90002 11.9927 6.32504C10.5677 4.90002 8.19264 3 5.3176 3V6.25004H2.06756C1.96756 8.77507 1.96758 13.5255 2.14258 15.5505C2.34258 17.8756 4.19261 19.6256 6.46764 19.8006C8.24266 19.9256 10.1427 20.0006 12.0177 20.0006C13.8927 20.0006 15.7928 19.9506 17.5678 19.8006C19.8428 19.6256 21.6928 17.8756 21.8928 15.5505C22.0178 13.5255 22.0428 8.77507 21.9178 6.25004ZM18.6178 15.2755C18.5678 15.9506 18.0178 16.5006 17.3178 16.5506C15.6178 16.6756 13.7927 16.7256 11.9927 16.7256C10.1927 16.7256 8.39266 16.6756 6.66764 16.5506C5.94263 16.5006 5.41762 15.9506 5.36762 15.2755C5.21762 13.3755 5.1926 8.60007 5.3176 6.25004C7.64263 6.27504 9.96766 8.77507 10.6677 9.75009L11.9927 11.5751L13.3177 9.75009C14.0177 8.77507 16.3927 6.27504 18.7178 6.25004C18.8178 8.60007 18.7678 13.3755 18.6178 15.2755Z" fill="currentcolor"/>
</svg>
