<svg width="24" height="24" viewBox="0 0 24 24" fill="none" xmlns="http://www.w3.org/2000/svg">
<path d="M22 10.5897C22 6.11475 17.5141 2.47412 12 2.47412C6.48594 2.47412 2 6.11506 2 10.5897C2 14.6013 5.5575 17.961 10.3631 18.596C10.6887 18.6663 11.1319 18.811 11.2444 19.0891C11.345 19.3422 11.31 19.7379 11.2766 19.9935L11.1338 20.8497C11.09 21.1029 10.9328 21.8385 12 21.3888C13.0672 20.9391 17.7588 17.9976 19.8572 15.5826H19.8569C21.3062 13.9938 22 12.3807 22 10.5897Z" fill="#00B900"/>
<path d="M9.26647 8.42752H9.96803V8.43033C10.0752 8.43033 10.1627 8.51783 10.1627 8.62502V12.9794C10.1627 13.0049 10.1577 13.0302 10.1479 13.0538C10.1381 13.0773 10.1237 13.0987 10.1056 13.1167C10.0875 13.1347 10.0661 13.149 10.0425 13.1587C10.0188 13.1683 9.99355 13.1733 9.96803 13.1731H9.26647C9.24094 13.1733 9.21565 13.1683 9.19203 13.1587C9.16842 13.149 9.14695 13.1347 9.12886 13.1167C9.11077 13.0987 9.09641 13.0773 9.08662 13.0538C9.07682 13.0302 9.07178 13.0049 9.07178 12.9794V8.62221C9.07178 8.51502 9.15897 8.42752 9.26647 8.42752Z" fill="white"/>
<path d="M14.0949 8.42721H14.7962L14.7924 8.43033C14.8996 8.43033 14.9871 8.51783 14.9871 8.62502V12.98C14.9871 13.0055 14.982 13.0308 14.9723 13.0544C14.9625 13.078 14.9481 13.0994 14.93 13.1174C14.9119 13.1354 14.8905 13.1496 14.8668 13.1593C14.8432 13.169 14.8179 13.1739 14.7924 13.1738H14.0912C14.0734 13.1739 14.0558 13.1716 14.0387 13.1669L14.0199 13.16C14.0168 13.1581 14.0137 13.1569 14.0105 13.1556C14.009 13.155 14.0071 13.1541 14.0054 13.1532C14.0037 13.1524 14.0021 13.1516 14.0012 13.1513C13.9993 13.1506 13.9974 13.1494 13.9955 13.1481C13.9915 13.1456 13.9871 13.1431 13.9815 13.1388C13.9623 13.1258 13.9456 13.1095 13.9321 13.0906L11.933 10.3906V12.9781C11.933 13.085 11.8455 13.1719 11.738 13.1719H11.0368C11.0113 13.172 10.986 13.1671 10.9623 13.1574C10.9387 13.1477 10.9173 13.1335 10.8992 13.1155C10.8811 13.0975 10.8667 13.0761 10.8569 13.0525C10.8471 13.0289 10.8421 13.0037 10.8421 12.9781V8.62096C10.8421 8.51377 10.9293 8.42627 11.0368 8.42627H11.738C11.7393 8.42627 11.7404 8.42635 11.7415 8.42643C11.7426 8.4265 11.7437 8.42658 11.7449 8.42658L11.7549 8.42721C11.7583 8.42721 11.7627 8.42783 11.7652 8.42846L11.7733 8.42971C11.7752 8.43002 11.777 8.43049 11.7788 8.43096C11.7806 8.43143 11.7824 8.43189 11.7843 8.43221L11.7912 8.43408C11.7925 8.43452 11.7938 8.43487 11.7951 8.43524C11.7977 8.43592 11.8003 8.43661 11.8027 8.43783C11.8038 8.43783 11.8044 8.43805 11.8055 8.43849C11.8063 8.4388 11.8073 8.4392 11.809 8.43971C11.8124 8.44078 11.8155 8.44231 11.8186 8.4439C11.8191 8.44417 11.8197 8.44444 11.8202 8.44471C11.8221 8.44596 11.8246 8.44721 11.8265 8.44783L11.8368 8.45408L11.843 8.45783L11.853 8.46471C11.854 8.46533 11.8547 8.46596 11.8555 8.46658C11.8563 8.46721 11.8571 8.46783 11.858 8.46846L11.8718 8.48096C11.876 8.48465 11.88 8.48861 11.8837 8.49283L11.8849 8.49408C11.8905 8.50033 11.8955 8.50689 11.8999 8.51377L13.8999 11.2106V8.62189C13.8999 8.51471 13.9871 8.42721 14.0949 8.42721Z" fill="white"/>
<path d="M6.3709 12.0826H8.27715L8.27652 12.0857C8.38434 12.0857 8.47121 12.1729 8.47121 12.2804V12.982C8.47121 13.0892 8.38402 13.1767 8.27652 13.1767H5.47402C5.42215 13.1767 5.37496 13.1557 5.33965 13.1223C5.33947 13.1221 5.33991 13.1226 5.33965 13.1223C5.33902 13.1215 5.33731 13.1193 5.33465 13.1167C5.29974 13.0805 5.28025 13.0322 5.28027 12.982V8.62511C5.28027 8.51792 5.36746 8.43042 5.47496 8.43042H6.17621C6.2834 8.43042 6.3709 8.51761 6.3709 8.62511V12.0826Z" fill="white"/>
<path d="M18.8643 9.32417C18.8643 9.43136 18.7771 9.51886 18.6696 9.51886H16.7634V10.2551H18.669C18.7768 10.2551 18.8637 10.3426 18.8637 10.4501V11.1542C18.8638 11.1798 18.8589 11.2051 18.8491 11.2288C18.8394 11.2525 18.8251 11.274 18.807 11.2921C18.7889 11.3102 18.7674 11.3246 18.7437 11.3343C18.72 11.344 18.6946 11.349 18.669 11.3489H16.7634V12.0854H18.669C18.7768 12.0854 18.8637 12.1726 18.8637 12.2801V12.982C18.8637 13.0892 18.7765 13.1767 18.669 13.1767H15.8665C15.8163 13.1767 15.768 13.1572 15.7318 13.1223L15.7268 13.1173C15.6919 13.0811 15.6724 13.0329 15.6725 12.9826V8.62542C15.6725 8.57292 15.6931 8.5223 15.7265 8.49105C15.7271 8.4898 15.7284 8.48855 15.7321 8.48542C15.7671 8.45136 15.8146 8.43042 15.8671 8.43042H18.6696C18.7775 8.43042 18.8643 8.51761 18.8643 8.62511V9.32417Z" fill="white"/>
</svg>
