<svg width="24" height="24" viewBox="0 0 24 24" fill="none" xmlns="http://www.w3.org/2000/svg">
<path fill-rule="evenodd" clip-rule="evenodd" d="M12 2.47412C17.5141 2.47412 22 6.11475 22 10.5897C22 12.3807 21.3062 13.9938 19.8569 15.5826C17.7584 17.9976 13.0672 20.9391 12 21.3888C10.962 21.8262 11.0823 21.1422 11.1299 20.8716C11.1313 20.8639 11.1326 20.8567 11.1337 20.8497L11.2766 19.9935C11.31 19.7379 11.345 19.3422 11.2444 19.0891C11.1319 18.811 10.6887 18.6663 10.3631 18.596C5.5575 17.961 2 14.6013 2 10.5897C2 6.11506 6.48594 2.47412 12 2.47412ZM14.7962 8.42721H14.0949C13.9871 8.42721 13.8999 8.51471 13.8999 8.62189V11.2106L11.8999 8.51377C11.8955 8.50689 11.8905 8.50033 11.8849 8.49408L11.8837 8.49283C11.88 8.48861 11.876 8.48464 11.8718 8.48096L11.858 8.46846L11.853 8.46471L11.843 8.45783L11.8368 8.45408L11.8265 8.44783C11.8246 8.44721 11.8221 8.44596 11.8202 8.44471L11.8186 8.4439C11.8155 8.44231 11.8124 8.44078 11.809 8.43971L11.8055 8.43849C11.8044 8.43805 11.8038 8.43783 11.8027 8.43783C11.8003 8.43661 11.7977 8.43592 11.7951 8.43524L11.7912 8.43408L11.7843 8.43221C11.7824 8.43189 11.7806 8.43143 11.7788 8.43096C11.777 8.43049 11.7752 8.43002 11.7733 8.42971L11.7652 8.42846C11.7627 8.42783 11.7583 8.42721 11.7549 8.42721L11.7449 8.42658L11.738 8.42627H11.0368C10.9293 8.42627 10.8421 8.51377 10.8421 8.62096V12.9781C10.8421 13.0037 10.8471 13.0289 10.8569 13.0525C10.8667 13.0761 10.8811 13.0975 10.8992 13.1155C10.9173 13.1335 10.9387 13.1477 10.9623 13.1574C10.986 13.1671 11.0113 13.172 11.0368 13.1719H11.738C11.8455 13.1719 11.933 13.085 11.933 12.9781V10.3906L13.9321 13.0906C13.9456 13.1095 13.9623 13.1258 13.9815 13.1388C13.9871 13.1431 13.9915 13.1456 13.9955 13.1481C13.9974 13.1494 13.9993 13.1506 14.0012 13.1513C14.0021 13.1516 14.0037 13.1524 14.0054 13.1532L14.0105 13.1556C14.0137 13.1569 14.0168 13.1581 14.0199 13.16L14.0387 13.1669C14.0558 13.1716 14.0734 13.1739 14.0912 13.1738H14.7924C14.8179 13.1739 14.8432 13.169 14.8668 13.1593C14.8905 13.1496 14.9119 13.1354 14.93 13.1174C14.9481 13.0993 14.9625 13.0779 14.9723 13.0544C14.982 13.0308 14.9871 13.0055 14.9871 12.98V8.62502C14.9871 8.51783 14.8996 8.43033 14.7924 8.43033L14.7962 8.42721ZM9.96803 8.42752H9.26647C9.15897 8.42752 9.07178 8.51502 9.07178 8.62221V12.9794C9.07178 13.0049 9.07682 13.0302 9.08662 13.0538C9.09641 13.0773 9.11077 13.0987 9.12886 13.1167C9.14695 13.1347 9.16842 13.149 9.19203 13.1587C9.21565 13.1683 9.24094 13.1733 9.26647 13.1731H9.96803C9.99355 13.1733 10.0188 13.1683 10.0425 13.1587C10.0661 13.149 10.0875 13.1347 10.1056 13.1167C10.1237 13.0987 10.1381 13.0773 10.1479 13.0538C10.1577 13.0302 10.1627 13.0049 10.1627 12.9794V8.62502C10.1627 8.51783 10.0752 8.43033 9.96803 8.43033V8.42752ZM6.3709 12.0826H8.27715L8.27652 12.0857C8.38434 12.0857 8.47121 12.1729 8.47121 12.2804V12.982C8.47121 13.0892 8.38402 13.1767 8.27652 13.1767H5.47402C5.42215 13.1767 5.37496 13.1557 5.33965 13.1223C5.33902 13.1215 5.33731 13.1193 5.33465 13.1167C5.29974 13.0805 5.28025 13.0322 5.28027 12.982V8.62511C5.28027 8.51792 5.36746 8.43042 5.47496 8.43042H6.17621C6.2834 8.43042 6.3709 8.51761 6.3709 8.62511V12.0826ZM18.6696 9.51886C18.7771 9.51886 18.8643 9.43136 18.8643 9.32417V8.62511C18.8643 8.51761 18.7775 8.43042 18.6696 8.43042H15.8671C15.8146 8.43042 15.7671 8.45136 15.7321 8.48542C15.7284 8.48854 15.7271 8.4898 15.7265 8.49104C15.6931 8.52229 15.6725 8.57292 15.6725 8.62542V12.9826C15.6724 13.0329 15.6919 13.0812 15.7268 13.1173L15.7318 13.1223C15.768 13.1572 15.8163 13.1767 15.8665 13.1767H18.669C18.7765 13.1767 18.8637 13.0892 18.8637 12.982V12.2801C18.8637 12.1726 18.7768 12.0854 18.669 12.0854H16.7634V11.3489H18.669C18.6946 11.349 18.72 11.344 18.7437 11.3343C18.7674 11.3246 18.7889 11.3102 18.807 11.2921C18.8251 11.274 18.8394 11.2525 18.8491 11.2288C18.8589 11.2051 18.8638 11.1798 18.8637 11.1542V10.4501C18.8637 10.3426 18.7768 10.2551 18.669 10.2551H16.7634V9.51886H18.6696Z" fill="currentcolor"/>
</svg>
