<svg width="24" height="24" viewBox="0 0 24 24" fill="none" xmlns="http://www.w3.org/2000/svg">
<g clip-path="url(#clip0_245_22120)">
<path d="M9 15L12 12M14 10L15 9" stroke="currentcolor" stroke-width="2" stroke-linecap="round" stroke-linejoin="round"/>
<path d="M11 6L11.463 5.464C12.4008 4.52633 13.6727 3.9996 14.9989 3.99969C16.325 3.99979 17.5968 4.52669 18.5345 5.4645C19.4722 6.40231 19.9989 7.67419 19.9988 9.00035C19.9987 10.3265 19.4718 11.5983 18.534 12.536L18 13" stroke="currentcolor" stroke-width="2" stroke-linecap="round" stroke-linejoin="round"/>
<path d="M3 3L21 21" stroke="currentcolor" stroke-width="2" stroke-linecap="round" stroke-linejoin="round"/>
<path d="M13 18L12.603 18.534C11.6543 19.4722 10.3738 19.9984 9.03952 19.9984C7.70523 19.9984 6.42477 19.4722 5.47602 18.534C5.00838 18.0716 4.63711 17.521 4.38373 16.9141C4.13035 16.3073 3.99988 15.6561 3.99988 14.9985C3.99988 14.3408 4.13035 13.6897 4.38373 13.0829C4.63711 12.476 5.00838 11.9254 5.47602 11.463L6.00002 11" stroke="currentcolor" stroke-width="2" stroke-linecap="round" stroke-linejoin="round"/>
</g>
<defs>
<clipPath id="clip0_245_22120">
<rect width="24" height="24" fill="white"/>
</clipPath>
</defs>
</svg>
