<svg width="25" height="24" viewBox="0 0 25 24" fill="none" xmlns="http://www.w3.org/2000/svg">
<path d="M20.7696 17.3507C20.6707 17.1529 20.5718 16.955 20.5718 16.7572C20.5718 16.3615 20.374 16.0647 20.0772 15.768C19.9783 15.669 19.7804 15.5701 19.6815 15.5701C20.275 13.7895 19.3847 12.009 18.3955 10.723C17.6042 9.53593 16.4171 8.64564 16.516 7.0629C16.516 5.18339 16.7139 1.72115 13.2516 2.01791C9.69046 2.21576 10.6797 5.87584 10.5807 7.16182C10.5807 8.24995 10.0861 9.33808 9.29477 10.2284C9.09693 10.4262 8.89909 10.723 8.80017 10.9208C7.81095 12.1079 7.31635 13.6906 7.31635 15.1744C7.11851 15.3723 6.92066 15.5701 6.82174 15.768C6.72282 15.8669 6.6239 15.9658 6.6239 16.0647C6.52498 16.1636 6.32714 16.2626 6.12929 16.3615C5.73361 16.4604 5.43684 16.6583 5.239 17.0539C5.14008 17.3507 5.04116 17.7464 5.14008 18.1421C5.239 18.3399 5.239 18.5378 5.14008 18.8345C4.94224 19.2302 4.94224 19.7248 5.14008 20.2194C5.43684 20.6151 5.93145 20.714 6.6239 20.8129C7.11851 20.8129 7.71203 21.0108 8.20664 21.2086C8.70125 21.5054 9.29477 21.7032 9.8883 21.7032C10.1851 21.7032 10.5807 21.6043 10.8775 21.5054C11.1743 21.3076 11.3721 21.1097 11.471 20.8129C11.8667 20.8129 12.4603 20.6151 13.1527 20.6151C13.7462 20.6151 14.3398 20.8129 15.1311 20.714C15.1311 20.8129 15.1311 20.9119 15.23 21.0108C15.4279 21.5054 15.9225 21.9011 16.516 22H16.7139C17.5052 21.9011 18.2966 21.5054 18.7912 20.9119C19.1869 20.5162 19.6815 20.2194 20.1761 20.0216C20.7696 19.7248 21.1653 19.527 21.2642 19.0324C21.3632 18.3399 21.1653 17.9442 20.7696 17.3507ZM13.9441 4.68879C14.5376 4.78771 15.0322 5.28231 14.9333 5.87584C14.9333 6.17261 14.8344 6.46937 14.6365 6.76613H14.5376C14.3398 6.66721 14.2408 6.66721 14.1419 6.56829C14.2408 6.46937 14.2408 6.27153 14.3398 6.07368C14.3398 5.678 14.1419 5.38124 13.9441 5.38124C13.6473 5.38124 13.4495 5.678 13.4495 6.07368V6.17261C13.3505 6.07369 13.1527 6.07369 13.0538 5.97476V5.87584C12.9549 5.38124 13.3505 4.78771 13.9441 4.68879ZM13.6473 6.66721C13.7462 6.76613 13.9441 6.86506 14.043 6.86506C14.1419 6.86506 14.3398 6.96398 14.4387 7.0629C14.6365 7.16182 14.8344 7.26074 14.8344 7.5575C14.8344 7.85427 14.5376 8.15103 13.9441 8.34887C13.7462 8.44779 13.6473 8.44779 13.5484 8.54672C13.2516 8.74456 12.9549 8.84348 12.5592 8.84348C12.2624 8.84348 11.9656 8.64564 11.7678 8.44779C11.6689 8.34887 11.57 8.24995 11.3721 8.15103C11.2732 8.05211 11.0754 7.85427 10.9764 7.5575C10.9764 7.45858 11.0754 7.35966 11.1743 7.26074C11.471 7.0629 11.57 6.96398 11.6689 6.86506L11.7678 6.76613C11.9656 6.46937 12.3613 6.27153 12.757 6.27153C13.0538 6.37045 13.3505 6.46937 13.6473 6.66721ZM11.57 4.88663C11.9656 4.88663 12.2624 5.28232 12.3613 5.97476V6.17261C12.2624 6.17261 12.0646 6.27153 11.9656 6.37045V6.17261C11.9656 5.87584 11.7678 5.57908 11.57 5.678C11.3721 5.678 11.2732 5.97476 11.2732 6.27153C11.2732 6.46937 11.3721 6.56829 11.471 6.66721C11.471 6.66721 11.3721 6.76613 11.2732 6.76613C11.0754 6.56829 10.8775 6.27153 10.8775 5.97476C10.8775 5.38124 11.1743 4.88663 11.57 4.88663ZM10.5807 20.8129C9.8883 21.1097 8.99801 21.0108 8.40448 20.6151C7.81095 20.3183 7.31635 20.2194 6.6239 20.2194C6.12929 20.1205 5.63469 20.1205 5.53577 19.9227C5.43684 19.7248 5.43684 19.4281 5.63469 18.9334C5.73361 18.6367 5.73361 18.3399 5.63469 18.0432C5.53577 17.7464 5.53577 17.5485 5.63469 17.2518C5.73361 16.955 5.93145 16.8561 6.22821 16.7572C6.52498 16.6583 6.72282 16.5593 6.92066 16.3615C7.01958 16.2626 7.11851 16.1637 7.21743 15.9658C7.51419 15.5701 7.71203 15.3723 8.0088 15.3723C8.60232 15.4712 9.09693 16.3615 9.49262 17.2518C9.69046 17.5485 9.8883 17.9442 10.1851 18.241C10.5807 18.7356 11.0754 19.428 11.0754 19.8237C11.0754 20.3183 10.8775 20.6151 10.5807 20.8129ZM15.4279 18.6367C15.4279 18.7356 15.4279 18.7356 15.329 18.8345C14.1419 19.7248 12.5592 19.8237 11.2732 19.1313L10.6797 18.241C11.57 18.1421 11.3721 16.955 9.49262 15.768C7.51419 14.482 8.89909 12.1079 9.59154 11.0197C9.69046 10.9208 9.69046 11.0197 9.29477 11.8111C8.99801 12.4046 8.40448 13.8885 9.19585 14.9766C9.19585 14.1852 9.39369 13.3939 9.69046 12.6025C10.3829 11.3165 10.8775 9.83269 11.1743 8.34887C11.2732 8.44779 11.2732 8.44779 11.3721 8.44779C11.471 8.54672 11.57 8.64564 11.6689 8.64564C11.8667 8.9424 12.2624 9.04132 12.5592 9.04132H12.6581C13.0538 9.04132 13.4495 8.9424 13.7462 8.64564C13.8452 8.54672 13.9441 8.44779 14.1419 8.44779C14.4387 8.34887 14.7354 8.15103 15.0322 7.85427C15.4279 9.14024 15.8236 10.3273 16.4171 11.4154C16.8128 12.2068 17.1096 12.9982 17.3074 13.8885C17.6042 13.8885 17.9998 13.9874 18.2966 14.1852C19.088 14.5809 19.3847 14.8777 19.2858 15.3723H19.088C19.088 15.0755 18.8901 14.7788 18.1977 14.482C17.5052 14.1852 16.9117 14.1852 16.7139 14.8777C16.6149 14.8777 16.516 14.9766 16.4171 14.9766C15.6257 15.3723 15.6257 16.4604 15.5268 17.5485C15.6257 17.9442 15.5268 18.241 15.4279 18.6367ZM19.9783 19.2302C19.3847 19.428 18.8901 19.8237 18.4944 20.3183C18.0988 20.9119 17.4063 21.3076 16.6149 21.2086C16.2193 21.2086 15.8236 20.9119 15.7247 20.5162C15.6257 19.9227 15.6257 19.3291 15.9225 18.7356C16.0214 18.3399 16.1203 18.0432 16.2193 17.6475C16.3182 16.4604 16.3182 15.768 16.8128 15.4712C16.8128 15.9658 17.1095 16.2626 17.5052 16.4604C17.9998 16.4604 18.4944 16.3615 18.8901 15.9658H19.088C19.3847 15.9658 19.5826 15.9658 19.7804 16.1636C19.9783 16.3615 20.0772 16.6583 20.0772 16.8561C20.0772 17.1529 20.275 17.4496 20.374 17.7464C20.8686 18.241 20.8686 18.5378 20.8686 18.6367C20.7696 18.8345 20.374 19.0324 19.9783 19.2302ZM11.0754 7.35966C10.9764 7.35966 10.9764 7.35966 10.9764 7.45858C10.9764 7.45858 10.9764 7.5575 11.0754 7.5575C11.1743 7.5575 11.1743 7.65642 11.1743 7.65642C11.471 8.05211 11.9656 8.24995 12.5592 8.34887C13.0538 8.24995 13.5484 8.15103 14.043 7.75535L14.6365 7.45858C14.7354 7.45858 14.7354 7.35966 14.7354 7.35966C14.7354 7.26074 14.7354 7.26074 14.6365 7.26074C14.4387 7.35966 14.1419 7.45858 13.9441 7.5575C13.5484 7.85427 13.0538 8.05211 12.5592 8.05211C12.0646 8.05211 11.6689 7.75535 11.3721 7.45858C11.2732 7.45858 11.1743 7.35966 11.0754 7.35966Z" fill="currentcolor"/>
</svg>
