<svg width="24" height="24" viewBox="0 0 24 24" fill="none" xmlns="http://www.w3.org/2000/svg">
<path d="M17.3158 5.66358C13.9069 5.41872 10.1099 5.41872 6.70103 5.66358C5.98745 5.71483 5.44678 6.26123 5.39312 6.9291C5.22105 9.07096 5.19816 12.2799 5.35594 14.4196C5.40806 15.1263 6.02857 15.7329 6.86803 15.7329H9.49962V18.9792L6.8734 18.9774C4.46419 18.9774 2.30171 17.1917 2.11491 14.6586C1.94485 12.3524 1.96834 8.97656 2.15373 6.66886C2.33952 4.35612 4.19925 2.58507 6.4682 2.42209C10.0321 2.16611 13.9847 2.1661 17.5486 2.42209C19.8176 2.58507 21.6773 4.35612 21.8631 6.66886C22.0485 8.97656 22.0404 12.3524 21.8703 14.6586C21.6835 17.1917 19.526 18.9846 17.1168 18.9846L14.5178 18.9828L9.49962 22.2291L9.49962 18.9792L14.5177 15.7329H17.1172C17.9567 15.7329 18.5772 15.1263 18.6293 14.4196C18.7871 12.2799 18.7958 9.07096 18.6237 6.9291C18.57 6.26123 18.0294 5.71483 17.3158 5.66358Z" fill="currentcolor"/>
</svg>
