<svg width="24" height="24" viewBox="0 0 24 24" fill="none" xmlns="http://www.w3.org/2000/svg">
<g clip-path="url(#clip0_23782_5509)">
<path d="M12 0C5.38125 0 0 5.38125 0 12C0 18.6188 5.38125 24 12 24C18.6188 24 24 18.6188 24 12C24 5.38125 18.6188 0 12 0Z" fill="#FFE01B"/>
<path fill-rule="evenodd" clip-rule="evenodd" d="M20.2959 14.5099C20.2985 14.5194 20.2947 14.506 20.2959 14.5099C20.5698 14.5099 21 14.8207 21 15.5716C21 16.3187 20.6859 17.165 20.6118 17.3529C19.4805 20.029 16.7805 21.5188 13.5641 21.4245C10.5657 21.3366 8.00846 19.7748 6.88939 17.2288C6.21274 17.2295 5.51508 16.9357 4.98477 16.4718C4.4258 15.9831 4.08118 15.3506 4.01393 14.6909C3.96159 14.1773 4.02539 13.6995 4.18853 13.2827L3.56003 12.757C0.683804 10.3599 9.67963 0.490088 12.5566 2.96715C12.5711 2.9796 13.5355 3.9134 13.5378 3.91566C14.925 3.33426 18.6419 2.2273 18.646 4.80421C18.6476 5.65995 18.0951 6.65786 17.2099 7.56336C18.233 8.49988 17.9631 9.83025 18.1261 11.0508L18.4814 11.1481C19.1588 11.3356 19.6406 11.5856 19.8764 11.83C20.1121 12.074 20.229 12.3105 20.2714 12.5877C20.3111 12.8113 20.3058 13.2062 20.007 13.6478C20.1146 13.9327 20.2128 14.2168 20.2959 14.5099ZM6.83858 16.5345C6.93906 16.5367 7.03878 16.5303 7.13659 16.5137C8.18769 16.3368 8.46274 15.2099 8.28969 14.1034C8.09409 12.8539 7.23784 12.4134 6.65671 12.3821C6.4951 12.3738 6.34494 12.3881 6.22115 12.4126C5.18383 12.619 4.59812 13.4902 4.7135 14.6216C4.8178 15.6455 5.86697 16.5088 6.83858 16.5345ZM4.48923 12.7197C4.8373 12.2207 5.40619 11.8598 6.05189 11.7357C6.87372 9.5581 8.24614 7.5517 10.0625 6.17097C11.4105 5.06104 12.8642 4.26489 12.8642 4.26489C12.8642 4.26489 12.0813 3.36881 11.8449 3.30281C10.3903 2.91511 7.24892 5.0535 5.24305 7.87905C4.43153 9.02213 3.26966 11.0466 3.82519 12.088C3.89358 12.217 4.28138 12.5484 4.48923 12.7197ZM16.2819 16.0343C16.2841 16.0577 16.2696 16.0819 16.2486 16.0906C16.2486 16.0906 15.0798 16.6272 13.2233 16.0604C13.2901 16.6168 13.9649 16.8277 14.4364 16.9041C16.7368 17.2948 18.8876 15.9963 19.3716 15.6693C19.4547 15.6131 19.3706 15.7575 19.3556 15.7786C18.7629 16.5333 17.1698 17.4071 15.097 17.4068C14.193 17.4064 13.2895 17.0922 12.9578 16.6091C12.4431 15.8597 12.9322 14.7657 13.79 14.8795C15.2398 15.0412 16.7262 14.9197 18.0684 14.3048C19.2387 13.7685 19.6807 13.1787 19.6143 12.7008C19.5111 11.9602 18.4132 11.8444 17.8582 11.6644C17.6168 11.5856 17.4975 11.5226 17.4705 11.0742C17.4586 10.8784 17.4242 10.1955 17.4116 9.91296C17.3895 9.41856 17.329 8.74236 16.9042 8.46328C16.7934 8.39042 16.6704 8.35536 16.5409 8.34859C16.4376 8.34362 16.3763 8.35785 16.3434 8.36547C16.336 8.36719 16.33 8.36856 16.3254 8.36933C16.0959 8.40782 15.9554 8.52388 15.7896 8.66076C15.7801 8.66865 15.7704 8.67662 15.7607 8.68459C15.2307 9.12062 14.7833 9.19185 14.2855 9.17076C14.1304 9.16425 13.9707 9.14882 13.8021 9.13245C13.647 9.11745 13.4846 9.10167 13.3116 9.09156L13.1003 9.07948C12.2667 9.03722 11.3726 9.74779 11.2239 10.757C11.0579 11.8835 11.6876 12.5735 12.097 13.0222C12.1983 13.1332 12.286 13.2292 12.345 13.3137C12.3828 13.3646 12.4268 13.4362 12.4268 13.5045C12.4268 13.586 12.3732 13.6504 12.3209 13.7055C11.4704 14.5688 11.1984 15.9405 11.519 17.0836C11.5591 17.2261 11.6098 17.3626 11.6698 17.4931C12.4218 19.2276 14.7547 20.0355 17.0333 19.3007C18.6303 18.7858 20.0414 17.5415 20.3287 15.825C20.3971 15.3778 20.2966 15.205 20.1598 15.1216C20.0151 15.0338 19.8416 15.0643 19.8416 15.0643C19.8416 15.0643 19.7625 14.53 19.5386 14.0442C18.8742 14.5616 18.0191 14.9252 17.368 15.1096C16.325 15.405 15.1982 15.52 14.1203 15.3807C13.6831 15.3242 13.3893 15.2862 13.2634 15.69C14.7012 16.2097 16.223 15.9872 16.223 15.9872C16.2524 15.9842 16.2788 16.0053 16.2819 16.0343ZM12.1337 5.94921C11.3474 6.34634 10.4694 7.05345 9.75643 7.86696C9.73123 7.89602 9.76869 7.93596 9.79963 7.91376C10.4155 7.47139 11.2599 7.0603 12.366 6.79401C13.605 6.49569 14.7979 6.6209 15.5265 6.78571C15.5631 6.79401 15.586 6.73178 15.5536 6.71368C15.0722 6.44704 14.3332 6.26601 13.8091 6.26224C13.7835 6.26186 13.769 6.23244 13.7842 6.21207C13.8747 6.09177 13.9989 5.97297 14.1124 5.88698C14.1376 5.86737 14.1224 5.82702 14.0902 5.8289C13.4382 5.86843 11.9487 6.54755 11.9541 6.52284C11.9923 6.34181 12.1126 6.1027 12.1749 5.99107C12.1899 5.96467 12.1608 5.93563 12.1337 5.94921Z" fill="#241C15"/>
<path d="M14.2557 11.8494L14.2857 11.8626C14.4573 11.9381 14.5638 11.985 14.6068 11.9394C14.6362 11.9094 14.6274 11.8521 14.5821 11.7783C14.4887 11.6259 14.2965 11.4711 14.0925 11.3842C13.6755 11.2047 13.178 11.2643 12.7943 11.54C12.6677 11.6329 12.5476 11.7614 12.5647 11.8394C12.5702 11.8646 12.5892 11.8836 12.6336 11.89C12.6747 11.8946 12.7559 11.869 12.865 11.8345C13.0334 11.7814 13.2682 11.7073 13.5235 11.6916C13.8201 11.6735 14.0662 11.7663 14.2557 11.8494Z" fill="#241C15"/>
<path d="M13.4051 12.2624C13.4924 12.187 13.6283 12.1056 13.8751 12.0667C14.2146 12.0263 14.4639 12.1846 14.5216 12.2783C14.5464 12.3185 14.5366 12.3449 14.5286 12.3572C14.5021 12.3988 14.4452 12.3924 14.3266 12.379L14.3189 12.3781C14.0945 12.3527 13.8681 12.3377 13.525 12.4606C13.525 12.4606 13.4 12.5107 13.3444 12.5107C13.3283 12.5107 13.315 12.5052 13.3038 12.4952C13.2956 12.4883 13.2852 12.4743 13.285 12.4502C13.2846 12.3997 13.3307 12.3276 13.4051 12.2624Z" fill="#241C15"/>
<path d="M16.9352 11.4822C16.8127 11.4653 16.6788 11.4656 16.5394 11.4822C16.4336 11.3487 16.3388 11.1325 16.2853 10.8803C16.1902 10.4315 16.2001 10.1064 16.4657 10.0641C16.7312 10.0219 16.8595 10.2935 16.9547 10.7423C17.0185 11.044 17.0063 11.3212 16.9352 11.4822Z" fill="#241C15"/>
<path d="M15.7696 12.8433C15.9377 12.9247 16.1226 12.8927 16.183 12.7717C16.2433 12.6505 16.1559 12.4865 15.9877 12.4051C15.8196 12.3236 15.6348 12.3557 15.5743 12.4767C15.514 12.5977 15.6015 12.7618 15.7696 12.8433Z" fill="#241C15"/>
<path d="M16.5972 12.2422C16.6002 12.057 16.7136 11.9092 16.8501 11.9114C16.9865 11.9141 17.0946 12.0657 17.0916 12.2505C17.0885 12.4353 16.975 12.5831 16.8386 12.5808C16.7022 12.5786 16.5941 12.427 16.5972 12.2422Z" fill="#241C15"/>
<path d="M7.17361 15.1286C6.91122 14.7313 7.5712 14.1301 7.30275 13.6252C7.14801 13.3341 6.89508 13.1527 6.59134 13.1146C6.29981 13.078 5.9995 13.1847 5.80809 13.3933C5.50588 13.7222 5.45888 14.1699 5.51734 14.3283C5.53873 14.3863 5.57236 14.4021 5.59642 14.4056C5.76103 14.4273 5.85365 14.0048 5.91048 13.9167C6.06761 13.6743 6.4244 13.6009 6.6708 13.7602C7.13801 14.0625 6.73289 14.5509 6.76785 14.9633C6.80186 15.365 7.05211 15.5265 7.27677 15.5434C7.49535 15.5517 7.64818 15.4303 7.68675 15.3417C7.77923 15.13 7.38949 15.4554 7.17361 15.1286Z" fill="#241C15"/>
</g>
<defs>
<clipPath id="clip0_23782_5509">
<rect width="24" height="24" fill="white"/>
</clipPath>
</defs>
</svg>
