<svg width="32" height="32" viewBox="0 0 32 32" fill="none" xmlns="http://www.w3.org/2000/svg">
<g clip-path="url(#clip0_21861_5039)">
<path d="M13.7732 4.55957L13.6506 4.6337C13.4557 4.75163 13.272 4.88348 13.1007 5.02755L13.4542 4.7789H16.4545L17 8.90909L14.2727 11.6364L11.5455 13.532V15.7179C11.5455 17.2447 12.3434 18.6604 13.6495 19.451L16.5206 21.1889L10.4545 24.7274H9.2846L7.10402 23.4075C5.79792 22.6169 5 21.2012 5 19.6745V12.324C5 10.7967 5.79843 9.38064 7.10519 8.59022L13.6506 4.63102C13.6912 4.60648 13.7321 4.58267 13.7732 4.55957Z" fill="url(#paint0_radial_21861_5039)"/>
<path d="M13.7732 4.55957L13.6506 4.6337C13.4557 4.75163 13.272 4.88348 13.1007 5.02755L13.4542 4.7789H16.4545L17 8.90909L14.2727 11.6364L11.5455 13.532V15.7179C11.5455 17.2447 12.3434 18.6604 13.6495 19.451L16.5206 21.1889L10.4545 24.7274H9.2846L7.10402 23.4075C5.79792 22.6169 5 21.2012 5 19.6745V12.324C5 10.7967 5.79843 9.38064 7.10519 8.59022L13.6506 4.63102C13.6912 4.60648 13.7321 4.58267 13.7732 4.55957Z" fill="url(#paint1_linear_21861_5039)"/>
<path d="M20.2726 13.2727V15.7165C20.2726 17.2432 19.4747 18.659 18.1686 19.4495L11.6231 23.4115C10.2841 24.222 8.61816 24.2512 7.25562 23.4993L13.6493 27.3694C15.0384 28.2103 16.7795 28.2103 18.1686 27.3694L24.714 23.4074C26.0201 22.6168 26.818 21.2011 26.818 19.6744V17.9091L26.2726 17.0909L20.2726 13.2727Z" fill="url(#paint2_radial_21861_5039)"/>
<path d="M20.2726 13.2727V15.7165C20.2726 17.2432 19.4747 18.659 18.1686 19.4495L11.6231 23.4115C10.2841 24.222 8.61816 24.2512 7.25562 23.4993L13.6493 27.3694C15.0384 28.2103 16.7795 28.2103 18.1686 27.3694L24.714 23.4074C26.0201 22.6168 26.818 21.2011 26.818 19.6744V17.9091L26.2726 17.0909L20.2726 13.2727Z" fill="url(#paint3_linear_21861_5039)"/>
<path d="M24.713 8.59008L18.1675 4.63088C16.822 3.81703 15.1466 3.79181 13.7806 4.55524L13.6506 4.6339C12.3438 5.42433 11.5454 6.8404 11.5454 8.36764V13.5407L13.6506 12.2673C15.0391 11.4274 16.779 11.4274 18.1675 12.2673L24.713 16.2264C25.9788 16.9922 26.7677 18.345 26.8158 19.8173C26.8174 19.7697 26.8181 19.7221 26.8181 19.6743V12.3238C26.8181 10.7966 26.0197 9.38049 24.713 8.59008Z" fill="url(#paint4_radial_21861_5039)"/>
<path d="M24.713 8.59008L18.1675 4.63088C16.822 3.81703 15.1466 3.79181 13.7806 4.55524L13.6506 4.6339C12.3438 5.42433 11.5454 6.8404 11.5454 8.36764V13.5407L13.6506 12.2673C15.0391 11.4274 16.779 11.4274 18.1675 12.2673L24.713 16.2264C25.9788 16.9922 26.7677 18.345 26.8158 19.8173C26.8174 19.7697 26.8181 19.7221 26.8181 19.6743V12.3238C26.8181 10.7966 26.0197 9.38049 24.713 8.59008Z" fill="url(#paint5_linear_21861_5039)"/>
</g>
<defs>
<radialGradient id="paint0_radial_21861_5039" cx="0" cy="0" r="1" gradientUnits="userSpaceOnUse" gradientTransform="translate(12.3192 8.7118) rotate(110.528) scale(18.1995 31.7436)">
<stop offset="0.06441" stop-color="#AE7FE2"/>
<stop offset="1" stop-color="#0078D4"/>
</radialGradient>
<linearGradient id="paint1_linear_21861_5039" x1="12.3701" y1="23.5646" x2="9.77344" y2="19.0735" gradientUnits="userSpaceOnUse">
<stop stop-color="#114A8B"/>
<stop offset="1" stop-color="#0078D4" stop-opacity="0"/>
</linearGradient>
<radialGradient id="paint2_radial_21861_5039" cx="0" cy="0" r="1" gradientUnits="userSpaceOnUse" gradientTransform="translate(8.50711 22.7369) rotate(-8.36717) scale(16.9365 11.1877)">
<stop offset="0.133928" stop-color="#D59DFF"/>
<stop offset="1" stop-color="#5E438F"/>
</radialGradient>
<linearGradient id="paint3_linear_21861_5039" x1="24.8308" y1="16.751" x2="22.0482" y2="20.7409" gradientUnits="userSpaceOnUse">
<stop stop-color="#493474"/>
<stop offset="1" stop-color="#8C66BA" stop-opacity="0"/>
</linearGradient>
<radialGradient id="paint4_radial_21861_5039" cx="0" cy="0" r="1" gradientUnits="userSpaceOnUse" gradientTransform="translate(25.2119 17.3657) rotate(-165.772) scale(13.5943 22.8847)">
<stop offset="0.0584996" stop-color="#50E6FF"/>
<stop offset="1" stop-color="#436DCD"/>
</radialGradient>
<linearGradient id="paint5_linear_21861_5039" x1="12.0777" y1="4.57621" x2="16.1746" y2="4.57621" gradientUnits="userSpaceOnUse">
<stop stop-color="#2D3F80"/>
<stop offset="1" stop-color="#436DCD" stop-opacity="0"/>
</linearGradient>
<clipPath id="clip0_21861_5039">
<rect width="21.8182" height="24" fill="white" transform="translate(5 4)"/>
</clipPath>
</defs>
</svg>
