<svg width="24" height="24" viewBox="0 0 24 24" fill="none" xmlns="http://www.w3.org/2000/svg">
<g id="icon/multi-choice">
<path id="Union" d="M11 9L13 11L17 7M16.737 18.988C16.5626 19.295 16.31 19.5504 16.0049 19.7281C15.6998 19.9058 15.3531 19.9997 15 20H5C3.9 20 3 19.1 3 18L3 8C3 7.25 3.385 6.842 4 6.5M7 4.667C7 3.95967 7.28099 3.28131 7.78115 2.78115C8.28131 2.28099 8.95967 2 9.667 2H18.333C18.6832 2 19.03 2.06898 19.3536 2.20301C19.6772 2.33704 19.9712 2.53349 20.2189 2.78115C20.4665 3.0288 20.663 3.32281 20.797 3.64638C20.931 3.96996 21 4.31676 21 4.667V13.333C21 13.6832 20.931 14.03 20.797 14.3536C20.663 14.6772 20.4665 14.9712 20.2189 15.2189C19.9712 15.4665 19.6772 15.663 19.3536 15.797C19.03 15.931 18.6832 16 18.333 16H9.667C9.31676 16 8.96996 15.931 8.64638 15.797C8.32281 15.663 8.0288 15.4665 7.78115 15.2189C7.53349 14.9712 7.33704 14.6772 7.20301 14.3536C7.06898 14.03 7 13.6832 7 13.333V4.667Z" stroke="currentcolor" stroke-width="2" stroke-linecap="round" stroke-linejoin="round"/>
</g>
</svg>
