<svg width="24" height="24" viewBox="0 0 24 24" fill="none" xmlns="http://www.w3.org/2000/svg">
<g id="icon/multi-choice_filled">
<g id="Union">
<path fill-rule="evenodd" clip-rule="evenodd" d="M4.87396 6.01393C5.14237 6.49661 4.96868 7.10548 4.486 7.37389C4.23877 7.51138 4.13032 7.61318 4.07864 7.68438C4.04268 7.73392 4 7.81234 4 7.99994L4 17.9999C4 18.5477 4.45229 18.9999 5 18.9999H14.999C15.1756 18.9998 15.3489 18.9529 15.5015 18.864C15.654 18.7751 15.7803 18.6474 15.8675 18.4939C16.1404 18.0137 16.7508 17.8456 17.231 18.1185C17.7112 18.3913 17.8793 19.0017 17.6065 19.4819C17.3448 19.9424 16.9659 20.3255 16.5083 20.5921C16.0507 20.8587 15.5306 20.9994 15.001 20.9999H5C3.34772 20.9999 2 19.6522 2 17.9999L2 7.99994C2 7.43754 2.14982 6.93696 2.46011 6.5095C2.75468 6.10369 3.14623 5.8305 3.514 5.62598C3.99667 5.35757 4.60554 5.53126 4.87396 6.01393Z" fill="currentcolor"/>
<path fill-rule="evenodd" clip-rule="evenodd" d="M18.333 1C19.3055 1 20.2383 1.38634 20.926 2.07404C21.6137 2.76174 22 3.69445 22 4.667V13.333C22 14.3055 21.6137 15.2383 20.926 15.926C20.2383 16.6137 19.3055 17 18.333 17H9.667C8.69445 17 7.76174 16.6137 7.07404 15.926C6.38634 15.2383 6 14.3055 6 13.333V4.667C6 3.69445 6.38634 2.76174 7.07404 2.07404C7.76174 1.38634 8.69445 1 9.667 1H18.333ZM16.2929 6.29292L12.9999 9.58492L11.7069 8.29292C11.5183 8.11076 11.2657 8.00997 11.0035 8.01225C10.7413 8.01452 10.4905 8.11969 10.3051 8.3051C10.1197 8.49051 10.0145 8.74132 10.0122 9.00352C10.01 9.26571 10.1108 9.51832 10.2929 9.70692L12.2929 11.7069C12.4804 11.8944 12.7348 11.9997 12.9999 11.9997C13.2651 11.9997 13.5194 11.8944 13.7069 11.7069L17.7069 7.70692C17.8891 7.51832 17.9899 7.26571 17.9876 7.00352C17.9853 6.74132 17.8801 6.49051 17.6947 6.3051C17.5093 6.11969 17.2585 6.01452 16.9963 6.01224C16.7341 6.00997 16.4815 6.11076 16.2929 6.29292Z" fill="currentcolor"/>
</g>
</g>
</svg>
