<svg width="24" height="24" viewBox="0 0 24 24" fill="none" xmlns="http://www.w3.org/2000/svg">
<path d="M12.0005 3C13.8686 3 15.8053 3.06954 17.5412 3.20966C19.81 3.41933 21.6791 5.23988 21.8799 7.68942L21.9031 8.11187L21.9273 8.64848C21.9516 9.23803 21.9758 10.5749 22 12.6591L21.9869 13.3348C21.9697 14.3273 21.934 15.3194 21.8799 16.3106C21.6791 18.7601 19.811 20.5796 17.5402 20.7903C15.9628 20.917 14.2198 20.9875 12.5112 20.9979L11.9965 21C10.1264 21 8.19165 20.9294 6.45577 20.7893C4.18499 20.5796 2.31589 18.7601 2.11606 16.3106L2.09285 15.8871L2.07569 15.528C2.03947 14.644 2.01424 13.7596 2 12.875V11.124L2.01312 10.4535C2.03734 9.35844 2.07367 8.38173 2.11606 7.68942C2.31589 5.23988 4.18499 3.41933 6.45577 3.20966C8.0332 3.08304 9.77615 3.01246 11.4848 3.00208L12.0005 3ZM11.9975 6.4304L11.3869 6.43248L10.7965 6.44078C9.41888 6.46569 8.05137 6.53212 6.72221 6.63903C5.98749 6.70961 5.4536 7.26906 5.38699 7.96967L5.36479 8.22085C5.30322 8.96817 5.26386 10.0175 5.23964 11.1707V12.8283L5.25478 13.4614C5.28203 14.4921 5.32543 15.4024 5.38699 16.0303C5.4536 16.7299 5.98749 17.2904 6.72221 17.3599C8.05137 17.4679 9.41888 17.5333 10.7965 17.5592L11.3869 17.5665L12.0378 17.5696L12.6091 17.5675C14.1658 17.5528 15.7216 17.4835 17.2738 17.3599C18.0075 17.2904 18.5424 16.7309 18.609 16.0314L18.6312 15.7791C18.7069 14.8637 18.7493 13.4957 18.7694 12.0405L18.7553 11.1707L18.7412 10.5375C18.7129 9.50686 18.6705 8.59659 18.609 7.96863C18.5424 7.26906 18.0075 6.70961 17.2738 6.64006C15.9179 6.53117 14.5592 6.46436 13.1995 6.43974L12.6091 6.43144L11.9975 6.4304Z" fill="white"/>
<path d="M20.1882 4.33184C19.454 3.70325 18.536 3.3016 17.5412 3.20966C15.8206 3.07077 13.9026 3.00123 12.0498 3.00002V6.43049L12.6091 6.43144L13.1995 6.43974C14.5592 6.46436 15.9179 6.53117 17.2738 6.64006C17.4022 6.65224 17.5246 6.67944 17.6395 6.71979L20.1882 4.33184Z" fill="url(#paint0_linear_25533_17925)"/>
<path d="M19.9066 4.10837C20.9998 4.91044 21.7564 6.18061 21.8801 7.68942L21.9033 8.11187L21.9276 8.64848C21.9508 9.21337 21.974 10.4644 21.9972 12.4015L18.7665 12.2571C18.7676 12.1852 18.7687 12.1129 18.7697 12.0405L18.7555 11.1707L18.7414 10.5375C18.7131 9.50686 18.6708 8.59659 18.6092 7.96863C18.5453 7.29713 18.0499 6.75473 17.3613 6.65078L19.9066 4.10837Z" fill="url(#paint1_linear_25533_17925)"/>
<path d="M21.9913 11.9568C21.9942 12.1806 21.997 12.4147 21.9999 12.6591L21.9867 13.3348C21.9695 14.3273 21.9339 15.3194 21.8798 16.3106C21.7562 17.8178 21.0014 19.0865 19.9099 19.8887L17.3892 17.3447C18.063 17.2304 18.5458 16.6937 18.6088 16.0314L18.631 15.7791C18.7067 14.8637 18.7491 13.4957 18.7693 12.0405L18.7679 11.9565L21.9913 11.9568Z" fill="url(#paint2_linear_25533_17925)"/>
<path d="M20.0805 19.7573C19.365 20.3344 18.4876 20.7024 17.54 20.7903C15.9626 20.917 14.2196 20.9875 12.511 20.9979L11.9963 21C11.8151 21 11.6333 20.9993 11.4512 20.998L11.6783 17.5679L12.0377 17.5696L12.6089 17.5675C14.1656 17.5528 15.7214 17.4835 17.2736 17.3599C17.3719 17.3506 17.4667 17.3325 17.5572 17.3064L20.0805 19.7573Z" fill="url(#paint3_linear_25533_17925)"/>
<path d="M12.05 20.9998L11.9966 21C10.1265 21 8.19179 20.9294 6.45591 20.7893C5.37759 20.6897 4.38985 20.2271 3.62842 19.5065L6.19011 17.2101C6.35048 17.2896 6.52949 17.3417 6.72235 17.3599C8.05151 17.4679 9.41902 17.5333 10.7966 17.5592L11.387 17.5665L12.038 17.5696L12.05 17.5696V20.9998Z" fill="url(#paint4_linear_25533_17925)"/>
<path d="M4.09991 19.8989C3.00056 19.0976 2.23955 17.8244 2.11606 16.3106L2.09285 15.8871L2.07569 15.528C2.03947 14.644 2.01424 13.7596 2 12.875V11.4825L5.23964 11.6351V12.8283L5.25478 13.4614C5.28203 14.4921 5.32543 15.4024 5.38699 16.0303C5.45138 16.7066 5.95243 17.2529 6.64945 17.3514L4.09991 19.8989Z" fill="url(#paint5_linear_25533_17925)"/>
<path d="M2 11.957V11.124L2.01312 10.4535C2.03734 9.35844 2.07367 8.38173 2.11606 7.68942C2.25067 6.0394 3.1427 4.67477 4.40472 3.89566L6.98682 6.61832C6.89845 6.62504 6.81025 6.63195 6.72221 6.63903C5.98749 6.70961 5.4536 7.26906 5.38699 7.96967L5.36479 8.22085C5.30323 8.96817 5.26386 10.0175 5.23964 11.1707V11.957H2Z" fill="url(#paint6_linear_25533_17925)"/>
<path d="M12.2132 3.0003C12.1422 3.0001 12.0714 3 12.0006 3L11.4849 3.00208C9.77625 3.01246 8.0333 3.08304 6.45587 3.20966C5.55496 3.29285 4.71727 3.62959 4.02197 4.15857L6.59358 6.6567C6.63574 6.64914 6.67867 6.64322 6.72231 6.63903C8.05147 6.53212 9.41898 6.46569 10.7966 6.44078L11.387 6.43248L11.9976 6.4304L12.1506 6.43066L12.2132 3.0003Z" fill="url(#paint7_linear_25533_17925)"/>
<defs>
<linearGradient id="paint0_linear_25533_17925" x1="12.2608" y1="5.345" x2="17.2768" y2="5.607" gradientUnits="userSpaceOnUse">
<stop stop-color="#B349D9"/>
<stop offset="1" stop-color="#F53547"/>
</linearGradient>
<linearGradient id="paint1_linear_25533_17925" x1="18.2898" y1="5.293" x2="18.5908" y2="11.501" gradientUnits="userSpaceOnUse">
<stop stop-color="#F13354"/>
<stop offset="1" stop-color="#FF4200"/>
</linearGradient>
<linearGradient id="paint2_linear_25533_17925" x1="20.5448" y1="12.371" x2="19.4638" y2="17.468" gradientUnits="userSpaceOnUse">
<stop stop-color="#FF4200"/>
<stop offset="1" stop-color="#FFD000"/>
</linearGradient>
<linearGradient id="paint3_linear_25533_17925" x1="17.347" y1="17.77" x2="12.495" y2="17.62" gradientUnits="userSpaceOnUse">
<stop stop-color="#FFD000"/>
<stop offset="1" stop-color="#72CE3A"/>
</linearGradient>
<linearGradient id="paint4_linear_25533_17925" x1="6.54689" y1="18.19" x2="12.0099" y2="18.307" gradientUnits="userSpaceOnUse">
<stop stop-color="#02B296"/>
<stop offset="1" stop-color="#72CE3A"/>
</linearGradient>
<linearGradient id="paint5_linear_25533_17925" x1="3.61112" y1="12.003" x2="5.12012" y2="17.641" gradientUnits="userSpaceOnUse">
<stop stop-color="#2173DA"/>
<stop offset="1" stop-color="#02B195"/>
</linearGradient>
<linearGradient id="paint6_linear_25533_17925" x1="6.7169" y1="7.492" x2="4.9399" y2="10.074" gradientUnits="userSpaceOnUse">
<stop stop-color="#3750FF"/>
<stop offset="1" stop-color="#2172D9"/>
</linearGradient>
<linearGradient id="paint7_linear_25533_17925" x1="11.5797" y1="4.978" x2="6.29367" y2="4.209" gradientUnits="userSpaceOnUse">
<stop stop-color="#B44ADA"/>
<stop offset="1" stop-color="#364FFE"/>
</linearGradient>
</defs>
</svg>
