<svg width="24" height="24" viewBox="0 0 24 24" fill="none" xmlns="http://www.w3.org/2000/svg">
<path d="M12.0517 3.28571C13.9038 3.28571 15.8219 3.35314 17.5417 3.48801C19.7906 3.69031 21.6426 5.44358 21.841 7.80376L21.8643 8.2112L21.8883 8.7285C21.9121 9.29587 21.936 10.5837 21.9601 12.592L21.9477 13.2433C21.9232 14.3812 21.8859 15.4008 21.841 16.11C21.6426 18.4702 19.7906 20.2234 17.5417 20.4257C15.9783 20.5484 14.2509 20.6152 12.5583 20.6264L12.0476 20.6279C10.1955 20.6279 8.27736 20.5604 6.55761 20.4256C4.30872 20.2233 2.45669 18.47 2.25826 16.1098L2.23503 15.7024L2.21841 15.3563C2.18617 14.6356 2.16006 13.749 2.14285 12.8003V11.1135L2.15616 10.4675C2.18061 9.41174 2.21607 8.47065 2.25826 7.80393C2.45669 5.44375 4.30872 3.69048 6.55761 3.48818C8.12102 3.36557 9.84841 3.2987 11.541 3.28755L12.0517 3.28571ZM12.0496 6.59059L11.4441 6.59329L10.8589 6.60124C9.49432 6.62544 8.13887 6.68917 6.82219 6.79243C6.09461 6.85986 5.56546 7.39933 5.49931 8.07367L5.47694 8.31568C5.41609 9.03643 5.37659 10.0475 5.35356 11.1583V12.7554L5.36817 13.3646C5.3955 14.3584 5.4379 15.2349 5.49931 15.8401C5.56546 16.5144 6.09461 17.0539 6.82219 17.1213C8.13887 17.2246 9.49432 17.2883 10.8589 17.3125L11.4441 17.3205L12.0897 17.3232L12.6552 17.3206C14.2169 17.3059 15.7723 17.2395 17.2771 17.1215C18.0047 17.0541 18.5338 16.5146 18.6 15.8403L18.6223 15.5982C18.6968 14.716 18.7393 13.3987 18.7588 11.9959L18.7457 11.1581L18.7311 10.549C18.7038 9.55517 18.6614 8.6787 18.6 8.07349C18.5338 7.39916 18.0047 6.85969 17.2771 6.79225C15.9604 6.689 14.605 6.62527 13.2404 6.60107L12.6552 6.59311L12.0496 6.59059Z" fill="currentcolor"/>
</svg>
