<svg width="32" height="32" viewBox="0 0 32 32" fill="none" xmlns="http://www.w3.org/2000/svg">
<g clip-path="url(#clip0_21861_5062)">
<path d="M27.9999 16.7208C28.0013 16.5332 27.9043 16.3585 27.7443 16.2604H27.7415L27.7315 16.2548L19.4152 11.332C19.3793 11.3078 19.342 11.2856 19.3036 11.2656C18.9825 11.0999 18.601 11.0999 18.2799 11.2656C18.2415 11.2856 18.2042 11.3078 18.1683 11.332L9.85206 16.2548L9.84202 16.2604C9.58784 16.4184 9.50992 16.7526 9.66798 17.0068C9.71455 17.0817 9.7787 17.1441 9.85485 17.1886L18.1711 22.1114C18.2072 22.1354 18.2444 22.1576 18.2828 22.1778C18.6039 22.3434 18.9853 22.3434 19.3064 22.1778C19.3447 22.1576 19.382 22.1354 19.418 22.1114L27.7343 17.1886C27.9004 17.0917 28.0018 16.9132 27.9999 16.7208Z" fill="#0A2767"/>
<path d="M10.8217 13.434H16.2792V18.4366H10.8217V13.434ZM26.8838 8.34883V6.06046C26.8969 5.48831 26.4441 5.01371 25.8719 5H11.7097C11.1376 5.01371 10.6847 5.48831 10.6978 6.06046V8.34883L19.0699 10.5814L26.8838 8.34883Z" fill="#0364B8"/>
<path d="M10.6978 8.34888H16.2791V13.3721H10.6978V8.34888Z" fill="#0078D4"/>
<path d="M21.8605 8.34888H16.2791V13.3721L21.8605 18.3954H26.8837V13.3721L21.8605 8.34888Z" fill="#28A8EA"/>
<path d="M16.2791 13.3721H21.8604V18.3953H16.2791V13.3721Z" fill="#0078D4"/>
<path d="M16.2791 18.3953H21.8604V23.4185H16.2791V18.3953Z" fill="#0364B8"/>
<path d="M10.8215 18.4365H16.279V22.9842H10.8215V18.4365Z" fill="#14447D"/>
<path d="M21.8604 18.3953H26.8836V23.4185H21.8604V18.3953Z" fill="#0078D4"/>
<path d="M27.7443 17.158L27.7337 17.1636L19.4174 21.8408C19.3811 21.8631 19.3443 21.8843 19.3057 21.9033C19.1645 21.9705 19.0111 22.0085 18.8548 22.0149L18.4005 21.7492C18.3621 21.73 18.3248 21.7085 18.2888 21.685L9.86092 16.875H9.85702L9.5813 16.7209V26.1892C9.5856 26.8209 10.101 27.3296 10.7327 27.3256H26.8663C26.8758 27.3256 26.8842 27.3211 26.8942 27.3211C27.0276 27.3126 27.1592 27.2851 27.2849 27.2396C27.3392 27.2166 27.3917 27.1894 27.4417 27.1582C27.4791 27.1369 27.5433 27.0906 27.5433 27.0906C27.8292 26.8791 27.9985 26.5449 27.9999 26.1892V16.7209C27.9997 16.902 27.902 17.069 27.7443 17.158Z" fill="url(#paint0_linear_21861_5062)"/>
<path opacity="0.5" d="M27.5534 16.6836V17.264L18.8576 23.2512L9.85482 16.8789C9.85482 16.8758 9.85232 16.8733 9.84923 16.8733L9.02319 16.3766V15.958L9.36366 15.9524L10.0837 16.3654L10.1004 16.371L10.1618 16.4101C10.1618 16.4101 18.6232 21.238 18.6455 21.2491L18.9692 21.4389C18.9971 21.4277 19.025 21.4166 19.0585 21.4054C19.0753 21.3942 27.4585 16.678 27.4585 16.678L27.5534 16.6836Z" fill="#0A2767"/>
<path d="M27.7442 17.158L27.7336 17.1641L19.4174 21.8413C19.3811 21.8636 19.3443 21.8848 19.3057 21.9038C18.9828 22.0616 18.6051 22.0616 18.2821 21.9038C18.2439 21.8849 18.2066 21.864 18.1705 21.8413L9.85423 17.1641L9.84419 17.158C9.68362 17.0709 9.58296 16.9036 9.5813 16.7209V26.1892C9.5853 26.8208 10.1005 27.3296 10.7321 27.3256C10.7321 27.3256 10.7322 27.3256 10.7322 27.3256H26.849C27.4806 27.3296 27.9959 26.8209 27.9999 26.1893C27.9999 26.1893 27.9999 26.1892 27.9999 26.1892V16.7209C27.9997 16.902 27.902 17.069 27.7442 17.158Z" fill="#1490DF"/>
<path opacity="0.1" d="M19.5386 21.772L19.4141 21.8417C19.378 21.8647 19.3408 21.8858 19.3025 21.9048C19.1653 21.9721 19.0162 22.0116 18.8638 22.0209L22.0279 25.7627L27.5473 27.0927C27.6985 26.9785 27.8188 26.8282 27.8973 26.6557L19.5386 21.772Z" fill="black"/>
<path opacity="0.05" d="M20.1023 21.4551L19.4141 21.8419C19.378 21.8648 19.3408 21.8859 19.3025 21.9049C19.1653 21.9722 19.0162 22.0117 18.8638 22.021L20.3462 26.1083L27.549 27.0912C27.8327 26.8781 27.9998 26.544 27.9999 26.1892V26.067L20.1023 21.4551Z" fill="black"/>
<path d="M10.7478 27.3256H26.8473C27.0951 27.3268 27.3367 27.2486 27.5366 27.1023L18.3999 21.7503C18.3615 21.7311 18.3242 21.7096 18.2883 21.6862L9.86036 16.8761H9.85645L9.5813 16.7209V26.1568C9.58067 26.8017 10.1029 27.325 10.7478 27.3256V27.3256Z" fill="#28A8EA"/>
<path opacity="0.1" d="M17.3953 10.4882V22.3933C17.3943 22.8107 17.1405 23.1859 16.7534 23.3421C16.6335 23.3936 16.5044 23.4202 16.3738 23.4203H9.5813V10.0232H10.6976V9.46509H16.3739C16.9377 9.46722 17.394 9.92429 17.3953 10.4882Z" fill="black"/>
<path opacity="0.2" d="M16.8371 11.0463V22.9514C16.8385 23.0862 16.8099 23.2197 16.7534 23.3421C16.5984 23.7242 16.228 23.9748 15.8157 23.9767H9.5813V10.0232H15.8157C15.9777 10.0216 16.1373 10.062 16.279 10.1405C16.6211 10.3128 16.837 10.6632 16.8371 11.0463Z" fill="black"/>
<path opacity="0.2" d="M16.8371 11.0463V21.8351C16.8344 22.3987 16.3793 22.8556 15.8157 22.8604H9.5813V10.0232H15.8157C15.9777 10.0216 16.1373 10.062 16.279 10.1405C16.6211 10.3128 16.837 10.6632 16.8371 11.0463Z" fill="black"/>
<path opacity="0.2" d="M16.279 11.0463V21.8351C16.2784 22.3996 15.822 22.8576 15.2576 22.8604H9.5813V10.0232H15.2576C15.822 10.0235 16.2793 10.4813 16.279 11.0457C16.279 11.0459 16.279 11.0461 16.279 11.0463Z" fill="black"/>
<path d="M5.02307 10.0232H15.256C15.821 10.0232 16.2791 10.4812 16.2791 11.0463V21.2792C16.2791 21.8442 15.821 22.3022 15.256 22.3022H5.02307C4.45804 22.3022 4 21.8442 4 21.2792V11.0463C4 10.4812 4.45805 10.0232 5.02307 10.0232Z" fill="url(#paint1_linear_21861_5062)"/>
<path d="M7.19755 14.3143C7.4497 13.7771 7.8567 13.3275 8.3663 13.0233C8.93065 12.7002 9.5732 12.5392 10.2232 12.5579C10.8257 12.5448 11.4202 12.6975 11.9417 12.9993C12.4321 13.2918 12.8271 13.7203 13.0787 14.2328C13.3527 14.7976 13.4892 15.4192 13.4772 16.0468C13.4905 16.7027 13.35 17.3526 13.0669 17.9444C12.8094 18.4753 12.4019 18.9191 11.8949 19.2209C11.3532 19.532 10.7366 19.6887 10.1122 19.6741C9.49683 19.689 8.88924 19.5345 8.35569 19.2276C7.86106 18.9348 7.46116 18.5058 7.2037 17.9919C6.92808 17.4353 6.78991 16.8207 6.80072 16.1997C6.78924 15.5494 6.9249 14.9049 7.19755 14.3143ZM8.44331 17.345C8.57775 17.6846 8.80574 17.9792 9.1008 18.1945C9.40134 18.4046 9.76122 18.5129 10.1278 18.5037C10.5181 18.5191 10.9029 18.4071 11.224 18.1844C11.5153 17.9698 11.7373 17.6745 11.8625 17.335C12.0024 16.9558 12.0715 16.5541 12.0662 16.15C12.0705 15.7421 12.0056 15.3363 11.8742 14.95C11.7581 14.6013 11.5433 14.2938 11.2558 14.0648C10.9428 13.8317 10.559 13.7134 10.1691 13.7299C9.79458 13.7202 9.42664 13.8295 9.1181 14.0419C8.81804 14.2582 8.58574 14.5553 8.44833 14.8987C8.14353 15.6857 8.14195 16.558 8.44387 17.3461L8.44331 17.345Z" fill="white"/>
<path d="M21.8604 8.34888H26.8836V13.3721H21.8604V8.34888Z" fill="#50D9FF"/>
</g>
<defs>
<linearGradient id="paint0_linear_21861_5062" x1="18.7906" y1="16.7209" x2="18.7906" y2="27.3256" gradientUnits="userSpaceOnUse">
<stop stop-color="#35B8F1"/>
<stop offset="1" stop-color="#28A8EA"/>
</linearGradient>
<linearGradient id="paint1_linear_21861_5062" x1="6.13312" y1="9.22379" x2="14.1459" y2="23.1017" gradientUnits="userSpaceOnUse">
<stop stop-color="#1784D9"/>
<stop offset="0.5" stop-color="#107AD5"/>
<stop offset="1" stop-color="#0A63C9"/>
</linearGradient>
<clipPath id="clip0_21861_5062">
<rect width="24" height="22.3256" fill="white" transform="translate(4 5)"/>
</clipPath>
</defs>
</svg>
