<svg width="24" height="24" viewBox="0 0 24 24" fill="none" xmlns="http://www.w3.org/2000/svg">
<path d="M5.68982 12.918C6.50582 12.566 6.74382 11.199 6.22582 9.866C5.78982 8.742 4.95482 8 4.21682 8C4.07682 8 3.93982 8.027 3.80982 8.082C2.99382 8.434 2.75582 9.801 3.27382 11.134C3.70982 12.258 4.54482 13 5.28282 13C5.42282 13 5.55982 12.973 5.68982 12.918Z" stroke="currentcolor" stroke-width="2" stroke-linecap="round" stroke-linejoin="round"/>
<path d="M14.6998 13.5C13.5998 11.5 13.2588 11 11.9998 11C10.7408 11 10.2638 11.755 9.16377 13.747C8.22177 15.45 6.31777 15.592 5.84277 17.038C5.74577 17.303 5.69777 17.715 5.69977 18C5.69977 19.176 6.48677 20 7.49977 20C8.75877 20 10.4998 19 11.9998 19C13.4998 19 15.2408 20 16.4998 20C17.5128 20 18.2998 19.177 18.2998 18C18.2998 17.715 18.2508 17.303 18.1538 17.038C17.6788 15.587 15.6418 15.203 14.6998 13.5Z" stroke="currentcolor" stroke-width="2" stroke-linecap="round" stroke-linejoin="round"/>
<path d="M9.47407 9C9.52907 9 9.58307 9 9.63707 8.989C10.5811 8.861 11.1701 7.643 10.9571 6.267C10.7541 4.97 9.91007 4 9.02507 4C8.97007 4 8.91607 4 8.86207 4.011C7.91807 4.139 7.32907 5.357 7.54207 6.733C7.74607 8.026 8.59007 9 9.47507 9H9.47407Z" stroke="currentcolor" stroke-width="2" stroke-linecap="round" stroke-linejoin="round"/>
<path d="M16.4559 6.733C16.6699 5.357 16.0809 4.139 15.1359 4.011C15.0822 4.00357 15.0281 3.99989 14.9739 4C14.0889 4 13.2459 4.97 13.0439 6.267C12.8299 7.643 13.4189 8.861 14.3639 8.989C14.4179 8.996 14.4719 9 14.5259 9C15.4109 9 16.2559 8.026 16.4559 6.733Z" stroke="currentcolor" stroke-width="2" stroke-linecap="round" stroke-linejoin="round"/>
<path d="M20.1882 8.082C20.0597 8.0277 19.9216 7.99981 19.7822 8H19.7672C19.0322 8.012 18.2072 8.75 17.7742 9.866C17.2552 11.201 17.4942 12.566 18.3122 12.918C18.4412 12.973 18.5792 13 18.7182 13C19.4572 13 20.2932 12.258 20.7292 11.134C21.2452 9.799 21.0012 8.434 20.1882 8.082Z" stroke="currentcolor" stroke-width="2" stroke-linecap="round" stroke-linejoin="round"/>
</svg>
