<svg width="24" height="24" viewBox="0 0 24 24" fill="none" xmlns="http://www.w3.org/2000/svg">
<path fill-rule="evenodd" clip-rule="evenodd" d="M5.97879 10.1819C5.13487 9.33796 4.66077 8.19337 4.66077 6.99989C4.66077 5.80642 5.13487 4.66183 5.97879 3.81791C6.8227 2.974 7.96729 2.49989 9.16077 2.49989C10.3542 2.49989 11.4988 2.974 12.3427 3.81791C13.1867 4.66183 13.6608 5.80642 13.6608 6.99989C13.6608 8.19337 13.1867 9.33796 12.3427 10.1819C11.4988 11.0258 10.3542 11.4999 9.16077 11.4999C7.96729 11.4999 6.8227 11.0258 5.97879 10.1819ZM15.4295 3.1269C15.1222 3.04754 14.797 3.15739 14.6007 3.40687C14.4047 3.656 14.3744 3.99731 14.5231 4.2771L14.5233 4.27734L14.5235 4.27771L14.5236 4.27799L14.5274 4.2853C14.5314 4.29313 14.5382 4.30631 14.5472 4.32451C14.5653 4.36095 14.5925 4.41729 14.6258 4.49087C14.6927 4.63841 14.7832 4.85305 14.8739 5.11366C15.0582 5.64306 15.2295 6.32327 15.2295 6.99987C15.2295 7.67647 15.0582 8.35669 14.8739 8.8861C14.7832 9.14671 14.6927 9.36135 14.6258 9.50889C14.5925 9.58247 14.5653 9.63882 14.5472 9.67525C14.5382 9.69345 14.5314 9.70663 14.5274 9.71446L14.5235 9.72198L14.5235 9.72203L14.5234 9.72225L14.5233 9.72241L14.5233 9.72245L14.5231 9.72277C14.3744 10.0025 14.4048 10.3438 14.6007 10.5929C14.797 10.8424 15.1222 10.9522 15.4295 10.8729C16.1155 10.6957 16.7484 10.3379 17.2579 9.8283C18.0081 9.07816 18.4295 8.06075 18.4295 6.99988C18.4295 5.93902 18.0081 4.9216 17.2579 4.17146C16.7484 3.6619 16.1155 3.30403 15.4295 3.1269ZM2.66077 18.0161V19.5006C2.66077 20.6052 3.5562 21.4999 4.66077 21.4999H13.6608C14.7653 21.4999 15.6608 20.6052 15.6608 19.5006V18.0161C15.6608 15.4507 13.5811 13.371 11.0157 13.371H7.30586C4.74044 13.371 2.66077 15.4507 2.66077 18.0161ZM18.0753 13.6055C17.6903 13.413 17.2253 13.4885 16.921 13.7928C16.6166 14.0972 16.5412 14.5622 16.7337 14.9471C17.664 17.1497 17.9587 20.6243 16.7337 21.4999H19.3389C20.4435 21.4999 21.3389 20.6045 21.3389 19.5L21.3389 18.4999L21.3389 18.4942C21.3326 17.3906 21.0049 16.2063 20.14 15.1553C19.4026 14.2592 18.0753 13.6055 18.0753 13.6055Z" fill="currentcolor"/>
</svg>
