<svg width="24" height="24" viewBox="0 0 80 80" fill="none" xmlns="http://www.w3.org/2000/svg">
<path id="Vector" fill-rule="evenodd" clip-rule="evenodd" d="M50.48 61.4673L18.2324 61.3193C16.1553 61.3193 13.5327 58.9503 13.5327 56.8563L13.0921 23.7553C13.0921 22.6131 12.1689 21.6825 11.0359 21.6825C10.4904 21.6825 9.9659 21.894 9.58826 22.2959L0.608444 31.3697C0.23079 31.7503 0 32.2791 0 32.8291V55.2489C0 65.9725 8.62314 74.6655 19.2604 74.6655H41.5212C42.0666 74.6655 42.5912 74.4539 42.9688 74.0521L51.9486 64.9995C52.3262 64.6187 52.557 64.0899 52.557 63.5401C52.557 62.3767 51.6338 61.4461 50.501 61.4461L50.48 61.4673Z" fill="#52F6BB"/>
<path id="Vector_2" fill-rule="evenodd" clip-rule="evenodd" d="M60.7387 6.66638H38.4781C37.9325 6.66638 37.4081 6.87789 37.0303 7.27976L28.0505 16.3323C27.6729 16.713 27.4421 17.2418 27.4421 17.7917C27.4421 18.955 28.3653 19.8857 29.4983 19.8857L61.7459 20.0337C63.8229 20.0337 66.4455 22.4026 66.4455 24.4965L66.8861 57.5976C66.8861 58.7398 67.8093 59.6704 68.9423 59.6704C69.4877 59.6704 70.0123 59.459 70.3899 59.057L79.3907 49.9834C79.7683 49.6026 79.9991 49.0738 79.9991 48.524V26.104C79.9991 15.3805 71.3761 6.68753 60.7387 6.68753V6.66638Z" fill="#52F6BB"/>
</svg>
