<svg width="24" height="24" viewBox="0 0 24 24" fill="none" xmlns="http://www.w3.org/2000/svg">
<path d="M11.9999 7C12.9796 6.99994 13.9377 7.28769 14.7552 7.8275C15.5727 8.36731 16.2137 9.1354 16.5984 10.0364C16.9832 10.9373 17.0948 11.9315 16.9194 12.8953C16.7439 13.8592 16.2892 14.7502 15.6117 15.4579C14.9342 16.1655 14.0637 16.6585 13.1084 16.8756C12.1531 17.0928 11.155 17.0245 10.2382 16.6793C9.32138 16.334 8.52616 15.7271 7.95134 14.9338C7.37651 14.1405 7.0474 13.1958 7.00488 12.217L6.99988 12L7.00488 11.783C7.0608 10.4958 7.61149 9.27978 8.5421 8.38866C9.47272 7.49754 10.7114 7.00007 11.9999 7Z" fill="currentcolor"/>
</svg>
