<svg width="24" height="24" viewBox="0 0 24 24" fill="none" xmlns="http://www.w3.org/2000/svg">
<path d="M6.99999 14C5.95922 14.5876 5.11765 15.4726 4.58315 16.5416C4.04865 17.6106 3.84559 18.8148 3.99999 20C5.18515 20.1544 6.38942 19.9513 7.45841 19.4168C8.52741 18.8823 9.41242 18.0408 9.99999 17M16 9C16 9.55228 15.5523 10 15 10C14.4477 10 14 9.55228 14 9C14 8.44772 14.4477 8 15 8C15.5523 8 16 8.44772 16 9ZM4 13C5.78309 13.2119 7.44305 14.0175 8.71276 15.2872C9.98247 16.557 10.7881 18.2169 11 20C11.8839 19.4904 12.6233 18.7638 13.1482 17.8889C13.6732 17.014 13.9663 16.0197 14 15C15.6791 14.4093 17.1454 13.334 18.2133 11.91C19.2813 10.486 19.9031 8.77734 20 7C20 6.20435 19.6839 5.44129 19.1213 4.87868C18.5587 4.31607 17.7956 4 17 4C15.2227 4.09691 13.514 4.71867 12.09 5.78665C10.666 6.85464 9.59069 8.32089 9 10C7.98026 10.0337 6.98596 10.3268 6.11106 10.8518C5.23617 11.3767 4.50959 12.1161 4 13Z" stroke="currentcolor" stroke-width="2" stroke-linecap="round" stroke-linejoin="round"/>
</svg>
