<svg width="24" height="24" viewBox="0 0 24 24" fill="none" xmlns="http://www.w3.org/2000/svg">
<g clip-path="url(#clip0_22321_80558)">
<path d="M12.0002 2.00122C12.7779 2.00127 13.5291 2.28459 14.1132 2.79822L14.2672 2.94322L14.9652 3.64122C15.1567 3.83153 15.4069 3.95167 15.6752 3.98222L15.8102 3.99022H16.8102C17.6274 3.99017 18.4136 4.30279 19.0077 4.86396C19.6018 5.42513 19.9587 6.19233 20.0052 7.00822L20.0102 7.19022V8.19022C20.0102 8.46022 20.1022 8.72322 20.2682 8.93322L20.3582 9.03322L21.0552 9.73122C21.6329 10.3057 21.9697 11.0788 21.9971 11.8931C22.0244 12.7073 21.7401 13.5013 21.2022 14.1132L21.0572 14.2672L20.3592 14.9652C20.1688 15.1568 20.0487 15.4069 20.0182 15.6752L20.0102 15.8102V16.8102C20.0102 17.6274 19.6976 18.4137 19.1364 19.0078C18.5752 19.6019 17.8081 19.9587 16.9922 20.0052L16.8102 20.0102H15.8102C15.5405 20.0103 15.2788 20.1012 15.0672 20.2682L14.9672 20.3582L14.2692 21.0552C13.6947 21.6329 12.9215 21.9698 12.1073 21.9971C11.293 22.0244 10.499 21.7401 9.88716 21.2022L9.73316 21.0572L9.03516 20.3592C8.8436 20.1689 8.59345 20.0488 8.32516 20.0182L8.19016 20.0102H7.19016C6.37294 20.0103 5.58667 19.6977 4.99259 19.1365C4.39851 18.5753 4.04164 17.8081 3.99516 16.9922L3.99016 16.8102V15.8102C3.99007 15.5406 3.89919 15.2789 3.73216 15.0672L3.64216 14.9672L2.94516 14.2692C2.36744 13.6948 2.03058 12.9216 2.00327 12.1074C1.97595 11.2931 2.26024 10.4991 2.79816 9.88722L2.94316 9.73322L3.64116 9.03522C3.83147 8.84366 3.95161 8.59351 3.98216 8.32522L3.99016 8.19022V7.19022L3.99516 7.00822C4.03981 6.22367 4.37158 5.48297 4.92725 4.92731C5.48291 4.37165 6.2236 4.03987 7.00816 3.99522L7.19016 3.99022H8.19016C8.45978 3.99013 8.72151 3.89925 8.93316 3.73222L9.03316 3.64222L9.73116 2.94522C10.0285 2.64611 10.382 2.40873 10.7714 2.24672C11.1608 2.08471 11.5784 2.00128 12.0002 2.00122ZM15.6972 9.28322C15.5096 9.09575 15.2553 8.99043 14.9902 8.99043C14.725 8.99043 14.4707 9.09575 14.2832 9.28322L10.9902 12.5752L9.69716 11.2832L9.60316 11.2002C9.40217 11.0448 9.14955 10.9717 8.89663 10.9958C8.64371 11.0199 8.40944 11.1394 8.24141 11.3299C8.07337 11.5205 7.98417 11.7679 7.99193 12.0218C7.99968 12.2758 8.10381 12.5173 8.28316 12.6972L10.2832 14.6972L10.3772 14.7802C10.5696 14.9295 10.8098 15.0034 11.0528 14.9881C11.2959 14.9728 11.525 14.8694 11.6972 14.6972L15.6972 10.6972L15.7802 10.6032C15.9294 10.4108 16.0033 10.1706 15.988 9.92754C15.9728 9.68451 15.8693 9.45541 15.6972 9.28322Z" fill="currentcolor"/>
</g>
<defs>
<clipPath id="clip0_22321_80558">
<rect width="24" height="24" fill="white"/>
</clipPath>
</defs>
</svg>
