<svg width="24" height="24" viewBox="0 0 24 24" fill="none" xmlns="http://www.w3.org/2000/svg">
<g clip-path="url(#clip0_22321_80561)">
<path d="M8.99023 11.99L10.9902 13.99L14.9902 9.98999M4.99021 7.18996C4.99021 6.60649 5.22199 6.04691 5.63457 5.63433C6.04715 5.22175 6.60673 4.98996 7.19021 4.98996H8.19021C8.77111 4.98963 9.3283 4.75956 9.74021 4.34996L10.4402 3.64996C10.6447 3.44436 10.8877 3.28121 11.1554 3.16987C11.4232 3.05854 11.7103 3.00122 12.0002 3.00122C12.2902 3.00122 12.5772 3.05854 12.845 3.16987C13.1127 3.28121 13.3558 3.44436 13.5602 3.64996L14.2602 4.34996C14.6722 4.75996 15.2302 4.98996 15.8102 4.98996H16.8102C17.3937 4.98996 17.9533 5.22175 18.3658 5.63433C18.7784 6.04691 19.0102 6.60649 19.0102 7.18996V8.18996C19.0102 8.76996 19.2402 9.32796 19.6502 9.73996L20.3502 10.44C20.5558 10.6444 20.719 10.8875 20.8303 11.1552C20.9416 11.4229 20.999 11.71 20.999 12C20.999 12.2899 20.9416 12.577 20.8303 12.8447C20.719 13.1124 20.5558 13.3555 20.3502 13.56L19.6502 14.26C19.2406 14.6719 19.0105 15.2291 19.0102 15.81V16.81C19.0102 17.3934 18.7784 17.953 18.3658 18.3656C17.9533 18.7782 17.3937 19.01 16.8102 19.01H15.8102C15.2293 19.0103 14.6721 19.2404 14.2602 19.65L13.5602 20.35C13.3558 20.5556 13.1127 20.7187 12.845 20.8301C12.5772 20.9414 12.2902 20.9987 12.0002 20.9987C11.7103 20.9987 11.4232 20.9414 11.1554 20.8301C10.8877 20.7187 10.6447 20.5556 10.4402 20.35L9.74021 19.65C9.3283 19.2404 8.77111 19.0103 8.19021 19.01H7.19021C6.60673 19.01 6.04715 18.7782 5.63457 18.3656C5.22199 17.953 4.99021 17.3934 4.99021 16.81V15.81C4.98988 15.2291 4.75981 14.6719 4.35021 14.26L3.65021 13.56C3.44461 13.3555 3.28145 13.1124 3.17011 12.8447C3.05878 12.577 3.00146 12.2899 3.00146 12C3.00146 11.71 3.05878 11.4229 3.17011 11.1552C3.28145 10.8875 3.44461 10.6444 3.65021 10.44L4.35021 9.73996C4.75981 9.32805 4.98988 8.77086 4.99021 8.18996V7.18996Z" stroke="black" stroke-width="2" stroke-linecap="round" stroke-linejoin="round"/>
</g>
<defs>
<clipPath id="clip0_22321_80561">
<rect width="24" height="24" fill="white"/>
</clipPath>
</defs>
</svg>
