<svg width="24" height="24" viewBox="0 0 24 24" fill="none" xmlns="http://www.w3.org/2000/svg">
<g clip-path="url(#clip0_17205_8696)">
<path d="M24 12C24 13.5759 23.6896 15.1363 23.0866 16.5922C22.4835 18.0481 21.5996 19.371 20.4853 20.4853C19.371 21.5996 18.0481 22.4835 16.5922 23.0866C15.1363 23.6896 13.5759 24 12 24C8.8174 24 5.76515 22.7357 3.51472 20.4853C1.26428 18.2348 -2.03197e-07 15.1826 0 12C-2.03197e-07 8.81741 1.26428 5.76516 3.51472 3.51472C5.76515 1.26428 8.8174 8.12789e-07 12 0C13.5759 -1.00613e-07 15.1363 0.31039 16.5922 0.913447C18.0481 1.5165 19.371 2.40042 20.4853 3.51472C21.5996 4.62902 22.4835 5.95189 23.0866 7.4078C23.6896 8.86371 24 10.4241 24 12V12Z" fill="url(#paint0_linear_17205_8696)"/>
<path d="M23.0598 12.0001C23.0598 14.9333 21.8946 17.7464 19.8205 19.8205C17.7464 21.8946 14.9333 23.0598 12.0001 23.0598C9.06691 23.0598 6.25383 21.8946 4.17974 19.8205C2.10564 17.7464 0.94043 14.9333 0.94043 12.0001C0.94043 9.06691 2.10564 6.25383 4.17974 4.17974C6.25383 2.10564 9.06691 0.94043 12.0001 0.94043C14.9333 0.94043 17.7464 2.10564 19.8205 4.17974C21.8946 6.25383 23.0598 9.06691 23.0598 12.0001Z" fill="url(#paint1_radial_17205_8696)"/>
<path d="M12.0001 1.51636C11.9108 1.51636 11.8389 1.58827 11.8389 1.6776V3.53751C11.8389 3.62685 11.9108 3.69876 12.0001 3.69876C12.0895 3.69876 12.1614 3.62685 12.1614 3.53751V1.6776C12.1614 1.58827 12.0895 1.51636 12.0001 1.51636ZM10.9453 1.58303C10.9346 1.58188 10.9236 1.58188 10.9125 1.58316C10.8236 1.59243 10.7596 1.67142 10.7689 1.76027L10.8501 2.53837C10.8594 2.62723 10.9384 2.6913 11.0272 2.68202C11.1161 2.67275 11.1802 2.59376 11.1709 2.5049L11.0897 1.72681C11.0815 1.64906 11.02 1.59029 10.9453 1.58303H10.9453ZM13.0624 1.58379C12.9876 1.591 12.9261 1.64976 12.9179 1.7275L12.8361 2.50554C12.8267 2.59438 12.8908 2.67345 12.9797 2.68279C13.0685 2.69214 13.1475 2.62813 13.1568 2.53929L13.2387 1.76118C13.248 1.67234 13.1839 1.59334 13.0951 1.584C13.084 1.58285 13.0731 1.58285 13.0624 1.5838V1.58379ZM9.86166 1.74016C9.85093 1.74025 9.84002 1.74131 9.8291 1.74361C9.74171 1.76211 9.68623 1.84739 9.70474 1.93478L10.0899 3.75433C10.1084 3.84172 10.1937 3.89719 10.2811 3.87869C10.3685 3.86019 10.424 3.77499 10.4055 3.68759L10.0203 1.86798C10.0041 1.7915 9.93679 1.73948 9.86167 1.74006L9.86166 1.74016ZM14.1459 1.7417C14.0708 1.74093 14.0035 1.79301 13.9873 1.86947L13.6008 3.6888C13.5822 3.77619 13.6376 3.86148 13.725 3.88004C13.8124 3.89862 13.8977 3.84319 13.9162 3.75582L14.3027 1.93648C14.3213 1.8491 14.2659 1.7638 14.1785 1.74524C14.1676 1.74294 14.1567 1.74179 14.1459 1.74179L14.1459 1.7417ZM8.82752 2.03175C8.80664 2.02983 8.78508 2.03214 8.76384 2.03919C8.67888 2.06681 8.63269 2.15736 8.6603 2.24232L8.90206 2.9864C8.92968 3.07136 9.02031 3.11755 9.10527 3.08995C9.19023 3.06233 9.23636 2.9717 9.20875 2.88674L8.96699 2.14267C8.9463 2.07895 8.89015 2.03706 8.82752 2.03174V2.03175ZM15.1742 2.03214C15.1116 2.03746 15.0555 2.07935 15.0348 2.14306L14.7929 2.88707C14.7652 2.97203 14.8114 3.06266 14.8963 3.09028C14.9813 3.1179 15.0719 3.07174 15.0996 2.9868L15.3415 2.24272C15.3691 2.15776 15.3229 2.06713 15.238 2.03951C15.2168 2.03262 15.1951 2.03036 15.1742 2.03212V2.03214ZM7.80487 2.40598C7.78392 2.40637 7.76272 2.41096 7.74231 2.42004C7.66073 2.45632 7.62418 2.55122 7.66047 2.63285L8.41589 4.33242C8.45217 4.41405 8.54707 4.45055 8.6287 4.41426C8.71028 4.37799 8.7469 4.28308 8.71061 4.20145L7.95512 2.50188C7.92792 2.44066 7.86771 2.40477 7.80487 2.40598V2.40598ZM16.2084 2.41169C16.1456 2.41054 16.0853 2.4462 16.0581 2.50738L15.3003 4.20591C15.2639 4.28749 15.3003 4.38246 15.3819 4.41886C15.4635 4.45525 15.5584 4.41888 15.5948 4.3373L16.3526 2.63877C16.389 2.55719 16.3526 2.46221 16.271 2.42582C16.2506 2.41674 16.2294 2.41214 16.2084 2.41168V2.41169ZM6.85564 2.90823C6.82469 2.90593 6.79278 2.91282 6.76377 2.9296C6.68641 2.97427 6.6601 3.0725 6.70476 3.14986L7.09594 3.82741C7.14061 3.90478 7.23884 3.93109 7.3162 3.88642C7.39356 3.84175 7.41988 3.74353 7.37522 3.66616L6.98404 2.98862C6.95611 2.94027 6.90724 2.91185 6.85564 2.90824V2.90823ZM17.1447 2.90823C17.0931 2.91168 17.0442 2.94025 17.0163 2.98861L16.6251 3.66615C16.5804 3.74352 16.6068 3.84174 16.6842 3.88641C16.7615 3.93108 16.8598 3.90476 16.9044 3.8274L17.2956 3.14985C17.3403 3.07249 17.314 2.97426 17.2366 2.92959C17.2076 2.91285 17.1756 2.90607 17.1447 2.90822V2.90823ZM5.93389 3.48312C5.90286 3.48427 5.8718 3.49424 5.84468 3.51389C5.77237 3.56634 5.75639 3.66678 5.80886 3.73909L6.90096 5.24457C6.95342 5.31688 7.05392 5.33286 7.12623 5.28042C7.19854 5.22797 7.21453 5.12753 7.16205 5.05522L6.06988 3.54974C6.03708 3.50455 5.98558 3.48137 5.93389 3.48314V3.48312ZM18.0779 3.49132C18.0263 3.48941 17.9747 3.51258 17.9419 3.55772L16.8477 5.06173C16.7952 5.13397 16.811 5.23445 16.8833 5.287C16.9555 5.33955 17.056 5.32374 17.1085 5.25153L18.2027 3.74751C18.2552 3.67527 18.2393 3.57479 18.1671 3.52224C18.14 3.50255 18.109 3.49244 18.0779 3.49132V3.49132ZM5.10999 4.17409C5.06884 4.17179 5.02683 4.18554 4.99364 4.21542C4.92724 4.27519 4.92191 4.37674 4.98169 4.44313L5.50516 5.02464C5.56492 5.09104 5.66646 5.09637 5.73286 5.03659C5.79925 4.97682 5.8046 4.87521 5.74482 4.80882L5.22142 4.22738C5.19154 4.19416 5.15116 4.17623 5.10999 4.17407V4.17409ZM18.8915 4.17524C18.8503 4.17754 18.81 4.19535 18.7801 4.22854L18.2566 4.80992C18.1968 4.8763 18.2021 4.97791 18.2685 5.03769C18.3349 5.09747 18.4364 5.0921 18.4962 5.02574L19.0198 4.44437C19.0795 4.37798 19.0742 4.27636 19.0078 4.21659C18.9746 4.18671 18.9327 4.1731 18.8915 4.17525L18.8915 4.17524ZM4.32034 4.9326C4.27918 4.9349 4.23887 4.95271 4.20899 4.98591C4.14922 5.05231 4.15457 5.15385 4.22095 5.21362L5.60325 6.45798C5.66964 6.51776 5.77118 6.51241 5.83094 6.44604C5.89072 6.37964 5.88544 6.27809 5.81903 6.21833L4.43666 4.97396C4.40345 4.94408 4.36147 4.93046 4.3203 4.93262L4.32034 4.9326ZM19.685 4.93804C19.6438 4.93574 19.6018 4.94946 19.5685 4.97931L18.1854 6.22271C18.119 6.28243 18.1135 6.38398 18.1732 6.45041C18.2329 6.51685 18.3346 6.52225 18.401 6.46252L19.7842 5.21912C19.8506 5.1594 19.856 5.05786 19.7963 4.99142C19.7664 4.95821 19.7261 4.94023 19.685 4.93804H19.685ZM3.66367 5.77698C3.61197 5.77506 3.56044 5.79835 3.52762 5.84351C3.47511 5.91578 3.49104 6.01619 3.56332 6.0687L4.19625 6.52857C4.26853 6.58108 4.36894 6.56523 4.42145 6.49294C4.47396 6.42067 4.45808 6.32018 4.38583 6.26767L3.75289 5.80781C3.7258 5.78812 3.69469 5.77808 3.66368 5.77697L3.66367 5.77698ZM20.341 5.78284C20.31 5.78399 20.2789 5.79391 20.2518 5.8136L19.6186 6.27305C19.5463 6.32551 19.5303 6.42601 19.5827 6.49832C19.6352 6.57062 19.7356 6.58654 19.8079 6.5341L20.4412 6.07465C20.5135 6.02219 20.5294 5.92176 20.477 5.84945C20.4442 5.80426 20.3927 5.78108 20.341 5.78285V5.78284ZM3.05001 6.67765C2.99842 6.6811 2.9496 6.70968 2.92168 6.75803C2.87702 6.83539 2.90334 6.93362 2.9807 6.97829L4.5914 7.90824C4.66876 7.95291 4.76699 7.92659 4.81166 7.84923C4.85633 7.77186 4.83001 7.67364 4.75265 7.62897L3.14194 6.69901C3.11294 6.68227 3.08097 6.67549 3.05001 6.67763V6.67765ZM20.9503 6.67765C20.9193 6.67535 20.8874 6.68225 20.8584 6.69903L19.2477 7.62898C19.1703 7.67365 19.144 7.77188 19.1886 7.84924C19.2333 7.92661 19.3315 7.95292 19.4089 7.90825L21.0197 6.9783C21.097 6.93364 21.1233 6.8354 21.0787 6.75804C21.0507 6.70969 21.0019 6.68127 20.9503 6.67767V6.67765ZM2.58604 7.63767C2.5232 7.63613 2.46294 7.67211 2.43565 7.73328C2.39925 7.81487 2.43562 7.90985 2.51721 7.94623L3.23178 8.26497C3.31337 8.30136 3.40835 8.26499 3.44473 8.18341C3.48113 8.10182 3.44468 8.00685 3.3631 7.97046L2.6486 7.65172C2.62822 7.64261 2.60698 7.63809 2.58604 7.63767V7.63767ZM21.4174 7.6443C21.3964 7.64468 21.3752 7.64927 21.3547 7.65835L20.64 7.97653C20.5584 8.01288 20.5219 8.10779 20.5583 8.18941C20.5946 8.27102 20.6896 8.30751 20.7712 8.27118L21.4859 7.95293C21.5675 7.91662 21.604 7.82166 21.5676 7.74005C21.5404 7.67884 21.4802 7.64305 21.4174 7.6443V7.6443ZM2.17253 8.64106C2.1099 8.64631 2.05375 8.68815 2.033 8.75185C2.00534 8.83679 2.05138 8.92745 2.13633 8.95513L3.90474 9.53135C3.98967 9.55901 4.08034 9.51292 4.10801 9.428C4.13567 9.34307 4.08962 9.2524 4.00467 9.22473L2.23627 8.6485C2.21505 8.64157 2.1934 8.63931 2.17253 8.64107V8.64106ZM21.8301 8.64796C21.8093 8.64604 21.7877 8.64834 21.7665 8.65539L19.9976 9.23036C19.9127 9.25798 19.8665 9.34861 19.8942 9.43356C19.9218 9.51852 20.0124 9.56466 20.0974 9.53705L21.8661 8.96208C21.9511 8.93446 21.9973 8.84383 21.9697 8.75887C21.9489 8.69516 21.8928 8.65326 21.8301 8.64795V8.64796ZM1.9149 9.69434C1.83978 9.69357 1.7724 9.74572 1.75615 9.82218C1.73757 9.90956 1.79301 9.99484 1.88038 10.0134L2.64568 10.1761C2.73306 10.1946 2.81834 10.1392 2.83692 10.0518C2.8555 9.96445 2.80007 9.87916 2.7127 9.86059L1.94747 9.69796C1.93655 9.69566 1.92563 9.69451 1.9149 9.69451V9.69434ZM22.0857 9.69588C22.075 9.69596 22.0642 9.6974 22.0533 9.69932L21.288 9.86189C21.2006 9.88047 21.1452 9.96568 21.1637 10.0531C21.1823 10.1404 21.2676 10.1959 21.355 10.1773L22.1202 10.0148C22.2076 9.99621 22.2631 9.91093 22.2445 9.82354C22.2283 9.74709 22.1609 9.69507 22.0858 9.69571L22.0857 9.69588ZM1.7199 10.7538C1.64512 10.761 1.58357 10.8196 1.57536 10.8974C1.56597 10.9862 1.62988 11.0653 1.71872 11.0747L3.56833 11.2702C3.65716 11.2796 3.73627 11.2157 3.74565 11.1268C3.75504 11.038 3.69106 10.9589 3.60222 10.9495L1.75261 10.7539C1.7415 10.7528 1.73059 10.7528 1.7199 10.7538V10.7538ZM22.2821 10.7677C22.2714 10.7666 22.2604 10.7666 22.2493 10.7678L20.3995 10.9609C20.3107 10.9702 20.2466 11.0492 20.2559 11.138C20.2651 11.2269 20.3441 11.2909 20.433 11.2816L22.2828 11.0886C22.3717 11.0793 22.4357 11.0003 22.4265 10.9115C22.4183 10.8337 22.3569 10.775 22.2821 10.7677L22.2821 10.7677ZM1.68858 11.8383C1.59925 11.8383 1.52734 11.9102 1.52734 11.9996C1.52734 12.0889 1.59925 12.1608 1.68858 12.1608H2.47094C2.56027 12.1608 2.63225 12.0889 2.63225 11.9996C2.63225 11.9102 2.56027 11.8383 2.47094 11.8383H1.68858ZM21.5294 11.8383C21.44 11.8383 21.3681 11.9102 21.3681 11.9996C21.3681 12.0889 21.44 12.1608 21.5294 12.1608H22.3117C22.401 12.1608 22.473 12.0889 22.473 11.9996C22.473 11.9102 22.401 11.8383 22.3117 11.8383H21.5294ZM3.60007 12.7173C3.58938 12.7162 3.57846 12.7162 3.56735 12.7175L1.71746 12.9105C1.62861 12.9198 1.56456 12.9988 1.57383 13.0876C1.5831 13.1765 1.66208 13.2405 1.75093 13.2313L3.60083 13.0382C3.68968 13.0289 3.75372 12.95 3.74446 12.8611C3.73634 12.7834 3.67483 12.7246 3.60006 12.7173H3.60007ZM20.3993 12.7287C20.3245 12.7359 20.2629 12.7946 20.2547 12.8723C20.2453 12.9612 20.3092 13.0403 20.3981 13.0496L22.2477 13.2452C22.3365 13.2546 22.4156 13.1906 22.425 13.1018C22.4344 13.0129 22.3704 12.9338 22.2816 12.9244L20.432 12.7289C20.4209 12.7277 20.4099 12.7277 20.3992 12.7288L20.3993 12.7287ZM2.67797 13.8181C2.66724 13.8182 2.65633 13.8192 2.64541 13.8215L1.88011 13.9841C1.79272 14.0027 1.73733 14.0879 1.75588 14.1753C1.77446 14.2627 1.85975 14.3181 1.94713 14.2995L2.71243 14.137C2.79981 14.1185 2.85521 14.0332 2.83665 13.9458C2.8204 13.8693 2.7531 13.8173 2.67798 13.818L2.67797 13.8181ZM21.3221 13.8196C21.247 13.8188 21.1797 13.8709 21.1634 13.9474C21.1449 14.0348 21.2002 14.12 21.2876 14.1386L22.0529 14.3012C22.1403 14.3198 22.2256 14.2645 22.2441 14.1771C22.2627 14.0897 22.2073 14.0044 22.1199 13.9858L21.3547 13.8231C21.3438 13.8208 21.3328 13.8197 21.3221 13.8197L21.3221 13.8196ZM3.96667 14.4547C3.9458 14.4528 3.92424 14.4551 3.903 14.4621L2.13418 15.0371C2.04922 15.0647 2.00308 15.1553 2.0307 15.2403C2.05832 15.3253 2.14894 15.3714 2.2339 15.3438L4.00266 14.7688C4.08762 14.7412 4.13382 14.6506 4.1062 14.5656C4.08548 14.5019 4.0293 14.46 3.96667 14.4547V14.4547ZM20.0319 14.4604C19.9693 14.4656 19.9131 14.5075 19.8923 14.5712C19.8647 14.6561 19.9107 14.7468 19.9957 14.7745L21.7641 15.3507C21.849 15.3784 21.9397 15.3323 21.9674 15.2473C21.9951 15.1624 21.949 15.0717 21.864 15.0441L20.0956 14.4678C20.0744 14.4609 20.0528 14.4587 20.0319 14.4604V14.4604ZM3.2917 15.714C3.27075 15.7144 3.24954 15.7189 3.22914 15.728L2.51436 16.0463C2.43275 16.0826 2.39632 16.1775 2.43265 16.2591C2.46901 16.3407 2.56393 16.3772 2.64554 16.3408L3.36032 16.0227C3.44192 15.9863 3.47835 15.8914 3.44202 15.8098C3.41479 15.7486 3.35454 15.7128 3.2917 15.714V15.714ZM20.706 15.7202C20.6432 15.7186 20.5829 15.7546 20.5556 15.8158C20.5192 15.8974 20.5556 15.9923 20.6372 16.0287L21.3517 16.3475C21.4333 16.3839 21.5283 16.3475 21.5646 16.2659C21.601 16.1843 21.5647 16.0893 21.4831 16.053L20.7686 15.7342C20.7482 15.7251 20.727 15.7206 20.706 15.7202V15.7202ZM4.68333 16.0696C4.65238 16.0673 4.62041 16.0742 4.5914 16.091L2.9807 17.0209C2.90334 17.0656 2.87702 17.1638 2.92168 17.2412C2.96635 17.3185 3.06457 17.3448 3.14194 17.3002L4.75265 16.3703C4.83001 16.3256 4.85632 16.2273 4.81166 16.15C4.78373 16.1016 4.73493 16.0732 4.68333 16.0696V16.0696ZM19.317 16.0696C19.2654 16.073 19.2166 16.1016 19.1886 16.15C19.144 16.2273 19.1703 16.3256 19.2477 16.3703L20.8584 17.3002C20.9357 17.3448 21.034 17.3185 21.0787 17.2412C21.1233 17.1638 21.097 17.0656 21.0197 17.0209L19.4089 16.0909C19.3799 16.0742 19.348 16.0674 19.317 16.0696V16.0696ZM4.28157 17.4343C4.25054 17.4354 4.21948 17.4454 4.19236 17.4651L3.55914 17.9246C3.48683 17.977 3.47084 18.0775 3.52328 18.1498C3.57575 18.2221 3.67619 18.2381 3.74849 18.1856L4.38177 17.7261C4.45409 17.6737 4.47008 17.5732 4.41763 17.5009C4.38484 17.4557 4.33327 17.4325 4.28157 17.4343V17.4343ZM19.7149 17.4397C19.6632 17.4378 19.6117 17.4611 19.5788 17.5062C19.5263 17.5785 19.5423 17.679 19.6145 17.7315L20.2475 18.1914C20.3198 18.2439 20.4202 18.228 20.4727 18.1557C20.5252 18.0834 20.5093 17.983 20.4371 17.9305L19.8041 17.4706C19.777 17.4509 19.7459 17.4408 19.7149 17.4397L19.7149 17.4397ZM5.71572 17.4954C5.67457 17.4931 5.63258 17.5068 5.59936 17.5367L4.21616 18.7801C4.14973 18.8398 4.14433 18.9413 4.20405 19.0078C4.26377 19.0742 4.36533 19.0796 4.43176 19.0199L5.81496 17.7765C5.8814 17.7167 5.8868 17.6152 5.82707 17.5488C5.79723 17.5155 5.75688 17.4976 5.71572 17.4954ZM18.2807 17.4998C18.2396 17.5021 18.1992 17.5199 18.1693 17.5531C18.1096 17.6195 18.1149 17.7211 18.1813 17.7808L19.5636 19.0252C19.63 19.085 19.7316 19.0796 19.7913 19.0133C19.8511 18.9469 19.8458 18.8453 19.7794 18.7856L18.397 17.5412C18.3638 17.5113 18.3219 17.4977 18.2807 17.4998V17.4998ZM7.02795 18.6811C6.97626 18.6792 6.92467 18.7023 6.89182 18.7475L5.79771 20.2515C5.74515 20.3237 5.76097 20.4242 5.83318 20.4768C5.90541 20.5293 6.00589 20.5135 6.05844 20.4412L7.15257 18.9372C7.20512 18.865 7.18931 18.7645 7.1171 18.712C7.09002 18.6923 7.05896 18.6822 7.02795 18.6811ZM16.9634 18.6878C16.9323 18.689 16.9013 18.6989 16.8742 18.7186C16.8018 18.771 16.7859 18.8715 16.8383 18.9438L17.9304 20.4493C17.9828 20.5216 18.0833 20.5376 18.1556 20.4851C18.2279 20.4327 18.2439 20.3322 18.1915 20.2599L17.0993 18.7544C17.0666 18.7093 17.0151 18.6861 16.9634 18.6878V18.6878ZM5.61551 18.9201C5.57435 18.9224 5.53398 18.9402 5.5041 18.9734L4.98063 19.5548C4.92085 19.6212 4.92614 19.7228 4.99254 19.7826C5.05893 19.8424 5.16047 19.837 5.22024 19.7706L5.74378 19.1892C5.80356 19.1228 5.7982 19.0212 5.73183 18.9614C5.69862 18.9316 5.6567 18.9179 5.61553 18.9201L5.61551 18.9201ZM18.3838 18.9209C18.3426 18.9186 18.3007 18.9323 18.2675 18.9622C18.2011 19.022 18.1958 19.1235 18.2555 19.1899L18.7789 19.7714C18.8387 19.8378 18.9402 19.8432 19.0066 19.7834C19.073 19.7236 19.0784 19.622 19.0186 19.5556L18.4952 18.9742C18.4653 18.941 18.4249 18.923 18.3838 18.9209L18.3838 18.9209ZM8.55584 19.5659C8.493 19.5643 8.43282 19.6003 8.40552 19.6615L7.64774 21.36C7.61134 21.4416 7.64772 21.5366 7.7293 21.573C7.81088 21.6094 7.90585 21.573 7.94225 21.4914L8.70003 19.7929C8.73643 19.7113 8.70005 19.6163 8.61847 19.5799C8.59809 19.5708 8.57679 19.5663 8.55584 19.5659ZM15.4342 19.5705C15.4133 19.5709 15.392 19.5754 15.3716 19.5845C15.29 19.6208 15.2535 19.7157 15.2898 19.7973L16.0452 21.4969C16.0814 21.5785 16.1764 21.615 16.258 21.5787C16.3396 21.5425 16.3762 21.4476 16.3399 21.3659L15.5845 19.6664C15.5573 19.6052 15.4971 19.5693 15.4342 19.5705V19.5705ZM7.22427 20.091C7.17267 20.0945 7.12385 20.123 7.09594 20.1714L6.70476 20.8489C6.6601 20.9263 6.68641 21.0245 6.76377 21.0692C6.84114 21.1139 6.93937 21.0875 6.98404 21.0102L7.37522 20.3326C7.41988 20.2553 7.39357 20.157 7.3162 20.1124C7.2872 20.0956 7.25523 20.0889 7.22427 20.091V20.091ZM16.776 20.091C16.7451 20.0887 16.7132 20.0956 16.6842 20.1124C16.6068 20.1571 16.5805 20.2553 16.6252 20.3326L17.0163 21.0102C17.061 21.0876 17.1592 21.1139 17.2366 21.0692C17.314 21.0245 17.3403 20.9263 17.2956 20.849L16.9044 20.1714C16.8765 20.1231 16.8276 20.0946 16.776 20.091V20.091ZM10.2428 20.1153C10.1677 20.1145 10.1004 20.1666 10.0841 20.2431L9.69763 22.0624C9.67905 22.1498 9.73449 22.2351 9.82185 22.2537C9.90924 22.2722 9.99453 22.2168 10.0131 22.1294L10.3996 20.3101C10.4182 20.2227 10.3627 20.1374 10.2754 20.1189C10.2645 20.1166 10.2535 20.1154 10.2428 20.1154L10.2428 20.1153ZM13.7518 20.1165C13.741 20.1165 13.7302 20.1176 13.7193 20.1199C13.6319 20.1384 13.5764 20.2236 13.5949 20.311L13.9801 22.1306C13.9986 22.218 14.0839 22.2735 14.1713 22.255C14.2587 22.2365 14.3141 22.1512 14.2956 22.0638L13.9104 20.2443C13.8942 20.1679 13.8269 20.1158 13.7518 20.1164L13.7518 20.1165ZM12.0001 20.3C11.9108 20.3 11.8389 20.3719 11.8389 20.4612V22.3211C11.8389 22.4105 11.9108 22.4824 12.0001 22.4824C12.0895 22.4824 12.1614 22.4105 12.1614 22.3211V20.4612C12.1614 20.3719 12.0895 20.3 12.0001 20.3ZM9.04027 20.901C8.97764 20.9063 8.92145 20.9482 8.90074 21.0119L8.65891 21.756C8.63129 21.8409 8.67745 21.9316 8.76239 21.9592C8.84735 21.9868 8.93798 21.9406 8.9656 21.8556L9.20743 21.1116C9.23505 21.0267 9.18888 20.936 9.10394 20.9084C9.08272 20.9015 9.06114 20.8992 9.04027 20.901V20.901ZM14.9588 20.9013C14.9379 20.8994 14.9163 20.9017 14.8951 20.9087C14.8101 20.9364 14.7639 21.027 14.7915 21.112L15.0333 21.856C15.0609 21.941 15.1516 21.9871 15.2365 21.9595C15.3215 21.9319 15.3677 21.8413 15.3401 21.7564L15.0982 21.0123C15.0775 20.9486 15.0214 20.9067 14.9588 20.9014V20.9013ZM10.988 21.3158C10.9132 21.323 10.8516 21.3817 10.8435 21.4594L10.7617 22.2375C10.7523 22.3263 10.8163 22.4053 10.9052 22.4147C10.994 22.424 11.0731 22.36 11.0824 22.2712L11.1642 21.4932C11.1736 21.4043 11.1096 21.3252 11.0207 21.3159C11.0096 21.3147 10.9987 21.3147 10.988 21.3158L10.988 21.3158ZM13.0058 21.3165C12.9951 21.3154 12.9841 21.3154 12.973 21.3167C12.8842 21.3259 12.8201 21.4049 12.8294 21.4938L12.9107 22.2719C12.9199 22.3608 12.9989 22.4248 13.0878 22.4155C13.1766 22.4062 13.2407 22.3273 13.2314 22.2384L13.1502 21.4603C13.1421 21.3826 13.0806 21.3238 13.0058 21.3165L13.0058 21.3165Z" fill="#F4F2F3"/>
<g opacity="0.409" filter="url(#filter0_f_17205_8696)">
<path d="M19.5577 5.55005L10.7357 10.6757L5.15771 19.457L13.3178 13.4129L19.5577 5.55005Z" fill="currentcolor"/>
</g>
<path d="M13.2644 13.324L10.7357 10.6759L19.7059 4.64161L13.2644 13.324Z" fill="#FF5150"/>
<path d="M13.2644 13.3241L10.7358 10.676L4.29424 19.3583L13.2644 13.3241Z" fill="#F1F1F1"/>
<path opacity="0.243" d="M4.29395 19.358L13.2641 13.3237L19.7057 4.64136L4.29395 19.358Z" fill="currentcolor"/>
</g>
<defs>
<filter id="filter0_f_17205_8696" x="4.48439" y="4.87672" width="15.7466" height="15.2536" filterUnits="userSpaceOnUse" color-interpolation-filters="sRGB">
<feFlood flood-opacity="0" result="BackgroundImageFix"/>
<feBlend mode="normal" in="SourceGraphic" in2="BackgroundImageFix" result="shape"/>
<feGaussianBlur stdDeviation="0.336663" result="effect1_foregroundBlur_17205_8696"/>
</filter>
<linearGradient id="paint0_linear_17205_8696" x1="12" y1="24" x2="12" y2="0" gradientUnits="userSpaceOnUse">
<stop stop-color="#BDBDBD"/>
<stop offset="1" stop-color="white"/>
</linearGradient>
<radialGradient id="paint1_radial_17205_8696" cx="0" cy="0" r="1" gradientUnits="userSpaceOnUse" gradientTransform="translate(12.0505 10.3876) scale(12.0001 12)">
<stop stop-color="#06C2E7"/>
<stop offset="0.25" stop-color="#0DB8EC"/>
<stop offset="0.5" stop-color="#12AEF1"/>
<stop offset="0.75" stop-color="#1F86F9"/>
<stop offset="1" stop-color="#107DDD"/>
</radialGradient>
<clipPath id="clip0_17205_8696">
<rect width="24" height="24" fill="white"/>
</clipPath>
</defs>
</svg>
