<svg width="24" height="25" viewBox="0 0 24 25" fill="none" xmlns="http://www.w3.org/2000/svg">
<g clip-path="url(#clip0_17205_8776)">
<mask id="mask0_17205_8776" style="mask-type:alpha" maskUnits="userSpaceOnUse" x="0" y="14" width="23" height="11">
<path d="M22.7041 24.1128H0V14.7649H22.7041V24.1128Z" fill="white"/>
</mask>
<g mask="url(#mask0_17205_8776)">
<path fill-rule="evenodd" clip-rule="evenodd" d="M14.9607 17.0703H1.15246C0.515726 17.0703 0 16.5546 0 15.9178C0 15.2811 0.515726 14.7654 1.15246 14.7654H14.9607C15.5974 14.7654 16.1131 15.2811 16.1131 15.9178C16.1131 16.5546 15.5974 17.0703 14.9607 17.0703Z" fill="#93C8A2"/>
<path fill-rule="evenodd" clip-rule="evenodd" d="M11.9999 24.1299C10.8751 24.1299 9.76408 23.9627 8.69806 23.6323C8.40614 23.5418 8.1621 23.3391 8.01963 23.0687C7.87715 22.7984 7.84789 22.4825 7.9383 22.1905C8.12672 21.5797 8.77383 21.2398 9.38031 21.4299C10.2251 21.6921 11.1061 21.8246 11.9999 21.8246C15.9104 21.8246 19.3059 19.3152 20.4494 15.5783C20.4937 15.4336 20.566 15.2991 20.6623 15.1823C20.7586 15.0656 20.877 14.9691 21.0107 14.8981C21.1443 14.8272 21.2907 14.7834 21.4413 14.7691C21.5919 14.7548 21.7439 14.7703 21.8885 14.8148C22.497 14.9992 22.8393 15.6446 22.6532 16.2525C21.2115 20.9635 16.9301 24.1299 11.9999 24.1299Z" fill="#43AF79"/>
</g>
<path fill-rule="evenodd" clip-rule="evenodd" d="M22.8478 11.2153H9.04016C8.40342 11.2153 7.8877 10.6996 7.8877 10.0629C7.8877 9.42613 8.40342 8.9104 9.04016 8.9104H22.8478C23.4845 8.9104 24.0003 9.42613 24.0003 10.0629C24.0003 10.6996 23.4845 11.2153 22.8478 11.2153Z" fill="#93C8A2"/>
<path fill-rule="evenodd" clip-rule="evenodd" d="M2.44901 11.2157C2.26876 11.2158 2.09102 11.1735 1.93006 11.0924C1.76911 11.0112 1.62943 10.8935 1.52226 10.7485C1.41508 10.6036 1.34339 10.4356 1.31294 10.2579C1.2825 10.0803 1.29415 9.89793 1.34697 9.72559C2.78898 5.01491 7.07037 1.85083 12 1.85083C13.1257 1.85083 14.2367 2.01794 15.3018 2.34869C15.4464 2.39348 15.5807 2.46631 15.6972 2.56302C15.8136 2.65973 15.9098 2.77843 15.9804 2.91234C16.0509 3.04624 16.0944 3.19273 16.1084 3.34345C16.1223 3.49416 16.1064 3.64614 16.0616 3.79071C16.0169 3.93537 15.9442 4.06979 15.8475 4.18629C15.7508 4.30279 15.6321 4.39907 15.4981 4.46962C15.3642 4.54016 15.2176 4.58359 15.0669 4.59742C14.9161 4.61124 14.7641 4.59519 14.6196 4.55018C13.7754 4.29088 12.8938 4.15834 12 4.15834C8.0903 4.15834 4.69429 6.66783 3.55076 10.4047C3.47848 10.6405 3.33251 10.8469 3.13426 10.9937C2.93602 11.1405 2.69595 11.2198 2.44929 11.22" fill="#43AF79"/>
<path fill-rule="evenodd" clip-rule="evenodd" d="M19.9929 5.67126C19.9929 5.97691 19.8715 6.27004 19.6554 6.48617C19.4392 6.7023 19.1461 6.82372 18.8404 6.82372C18.5348 6.82372 18.2417 6.7023 18.0255 6.48617C17.8094 6.27004 17.688 5.97691 17.688 5.67126C17.688 5.36561 17.8094 5.07248 18.0255 4.85635C18.2417 4.64022 18.5348 4.5188 18.8404 4.5188C19.1461 4.5188 19.4392 4.64022 19.6554 4.85635C19.8715 5.07248 19.9929 5.36561 19.9929 5.67126V5.67126ZM6.31176 20.3115C6.31176 20.6172 6.19034 20.9103 5.97421 21.1265C5.75808 21.3426 5.46495 21.464 5.1593 21.464C4.85365 21.464 4.56051 21.3426 4.34438 21.1265C4.12826 20.9103 4.00684 20.6172 4.00684 20.3115C4.00684 20.0059 4.12826 19.7128 4.34438 19.4966C4.56051 19.2805 4.85365 19.1591 5.1593 19.1591C5.46495 19.1591 5.75808 19.2805 5.97421 19.4966C6.19034 19.7128 6.31176 20.0059 6.31176 20.3115Z" fill="#93C8A2"/>
</g>
<defs>
<clipPath id="clip0_17205_8776">
<rect width="24" height="24" fill="white" transform="translate(0 0.85083)"/>
</clipPath>
</defs>
</svg>
