<svg width="24" height="24" viewBox="0 0 24 24" fill="none" xmlns="http://www.w3.org/2000/svg">
<path fill-rule="evenodd" clip-rule="evenodd" d="M21.4998 12.9298C21.8508 12.765 22.0749 12.4123 22.0749 12.0246C22.0749 11.6368 21.8508 11.2841 21.4998 11.1193L4.17572 2.98759C4.15062 2.97581 4.12505 2.96508 4.09906 2.95542C3.82084 2.85206 3.51879 2.83076 3.22882 2.89404C2.93884 2.95731 2.67313 3.10252 2.46326 3.31238C2.25339 3.52225 2.10819 3.78796 2.04491 4.07794C1.98315 4.36098 2.00197 4.65553 2.09903 4.92819L4.161 11.1141H13.4166C13.9689 11.1141 14.4166 11.5618 14.4166 12.1141C14.4166 12.6664 13.9689 13.1141 13.4166 13.1141H4.10131L2.09902 19.1209C2.00197 19.3936 1.98315 19.6881 2.04492 19.9712C2.10819 20.2611 2.25339 20.5269 2.46326 20.7367C2.67313 20.9466 2.93885 21.0918 3.22882 21.1551C3.51879 21.2183 3.82083 21.197 4.09906 21.0937C4.12505 21.084 4.15062 21.0733 4.17572 21.0615L21.4998 12.9298Z" fill="currentcolor"/>
</svg>
