<svg width="24" height="24" viewBox="0 0 24 24" fill="none" xmlns="http://www.w3.org/2000/svg">
<g clip-path="url(#clip0_26476_11295)">
<path d="M5.51951 11.9999H21.0759M5.51951 11.9999L3.04468 19.4246C3.00801 19.5233 3.00045 19.6305 3.0229 19.7334C3.04535 19.8363 3.09688 19.9306 3.17135 20.005C3.24582 20.0795 3.3401 20.131 3.443 20.1535C3.54589 20.1759 3.65307 20.1684 3.75179 20.1317L21.0759 11.9999M5.51951 11.9999L3.04468 4.57536C3.00801 4.47663 3.00045 4.36946 3.0229 4.26656C3.04535 4.16367 3.09688 4.06938 3.17135 3.99491C3.24582 3.92044 3.3401 3.86892 3.44299 3.84647C3.54589 3.82401 3.65307 3.83157 3.75179 3.86825L21.0759 11.9999" stroke="currentcolor" stroke-width="2" stroke-linecap="round" stroke-linejoin="round"/>
</g>
<defs>
<clipPath id="clip0_26476_11295">
<rect width="24" height="24" fill="white"/>
</clipPath>
</defs>
</svg>
