<svg width="24" height="24" viewBox="0 0 24 24" fill="none" xmlns="http://www.w3.org/2000/svg">
<path fill-rule="evenodd" clip-rule="evenodd" d="M12.75 2.99194C13.5785 2.99194 14.25 3.66352 14.25 4.49194V5.90186C14.9372 6.15543 15.5805 6.52472 16.1503 6.99751L17.37 6.29332C18.0875 5.8791 19.0049 6.12492 19.4191 6.84235L20.1691 8.14139C20.5833 8.85883 20.3375 9.77622 19.62 10.1904L18.4049 10.892C18.4678 11.2555 18.5 11.6261 18.5 12C18.5 12.3688 18.4687 12.7344 18.4074 13.0932L19.62 13.7933C20.3375 14.2075 20.5833 15.1249 20.1691 15.8424L19.4191 17.1414C19.0049 17.8588 18.0875 18.1046 17.37 17.6904L16.1619 16.9929C15.5892 17.4703 14.9419 17.8429 14.25 18.0981V19.4919C14.25 20.3204 13.5785 20.9919 12.75 20.9919H11.25C10.4216 20.9919 9.75004 20.3204 9.75004 19.4919V18.0982C9.05812 17.8429 8.41072 17.4702 7.838 16.9928L6.62965 17.6904C5.91221 18.1046 4.99482 17.8588 4.58061 17.1414L3.83061 15.8424C3.41639 15.1249 3.66221 14.2075 4.37965 13.7933L5.59254 13.0931C5.53134 12.7343 5.5 12.3688 5.5 12C5.5 11.6262 5.5322 11.2556 5.59508 10.8922L4.37965 10.1904C3.66221 9.77622 3.41639 8.85883 3.83061 8.14139L4.58061 6.84235C4.99482 6.12491 5.91221 5.8791 6.62964 6.29332L7.84953 6.99762C8.41941 6.52476 9.06276 6.15542 9.75004 5.90183V4.49194C9.75004 3.66352 10.4216 2.99194 11.25 2.99194H12.75ZM11.9998 15.9919C14.2089 15.9919 15.9998 14.2011 15.9998 11.9919C15.9998 9.7828 14.2089 7.99194 11.9998 7.99194C9.79062 7.99194 7.99976 9.7828 7.99976 11.9919C7.99976 14.2011 9.79062 15.9919 11.9998 15.9919Z" fill="currentcolor" stroke="currentcolor" stroke-width="2" stroke-linecap="round" stroke-linejoin="round"/>
</svg>
