<svg width="24" height="24" viewBox="0 0 24 24" fill="none" xmlns="http://www.w3.org/2000/svg">
<path d="M14.6468 4.08101C14.6736 4.19174 14.7262 4.29457 14.8002 4.38115C14.8743 4.46773 14.9678 4.53561 15.073 4.57926C15.1782 4.62292 15.2923 4.64112 15.4059 4.63239C15.5195 4.62365 15.6294 4.58823 15.7268 4.52901C18.1658 3.04401 20.9568 5.83401 19.4718 8.27301C19.4125 8.37027 19.3771 8.48014 19.3683 8.59368C19.3595 8.70722 19.3776 8.82123 19.4212 8.92646C19.4647 9.03168 19.5325 9.12515 19.6189 9.19926C19.7054 9.27338 19.8081 9.32605 19.9188 9.35301C22.6938 10.026 22.6938 13.973 19.9188 14.647C19.808 14.6738 19.7052 14.7264 19.6186 14.8005C19.532 14.8745 19.4642 14.968 19.4205 15.0732C19.3768 15.1785 19.3586 15.2925 19.3674 15.4061C19.3761 15.5197 19.4115 15.6297 19.4708 15.727C20.9558 18.166 18.1658 20.957 15.7268 19.472C15.6295 19.4128 15.5196 19.3773 15.4061 19.3685C15.2926 19.3597 15.1785 19.3778 15.0733 19.4214C14.9681 19.465 14.8746 19.5327 14.8005 19.6192C14.7264 19.7056 14.6737 19.8084 14.6468 19.919C13.9738 22.694 10.0268 22.694 9.35276 19.919C9.32593 19.8083 9.27335 19.7054 9.19928 19.6189C9.12522 19.5323 9.03177 19.4644 8.92653 19.4207C8.82129 19.3771 8.70723 19.3589 8.59363 19.3676C8.48003 19.3764 8.37009 19.4118 8.27276 19.471C5.83376 20.956 3.04276 18.166 4.52776 15.727C4.58699 15.6297 4.62245 15.5199 4.63124 15.4063C4.64003 15.2928 4.62192 15.1788 4.57837 15.0736C4.53482 14.9683 4.46706 14.8749 4.3806 14.8007C4.29413 14.7266 4.19141 14.674 4.08076 14.647C1.30576 13.974 1.30576 10.027 4.08076 9.35301C4.19149 9.32618 4.29433 9.27359 4.38091 9.19953C4.46749 9.12546 4.53536 9.03201 4.57902 8.92677C4.62267 8.82153 4.64088 8.70747 4.63214 8.59387C4.62341 8.48027 4.58799 8.37034 4.52876 8.27301C3.04376 5.83401 5.83376 3.04301 8.27276 4.52801C8.36993 4.58769 8.47985 4.6235 8.59352 4.63252C8.70719 4.64154 8.82138 4.62351 8.92674 4.5799C9.03211 4.53629 9.12564 4.46835 9.19969 4.38163C9.27374 4.29492 9.32619 4.1919 9.35276 4.08101C10.0258 1.30601 13.9728 1.30601 14.6468 4.08101ZM11.9998 9.00001C11.2041 9.00001 10.4411 9.31608 9.87844 9.87869C9.31583 10.4413 8.99976 11.2044 8.99976 12C8.99976 12.7957 9.31583 13.5587 9.87844 14.1213C10.4411 14.6839 11.2041 15 11.9998 15C12.7954 15 13.5585 14.6839 14.1211 14.1213C14.6837 13.5587 14.9998 12.7957 14.9998 12C14.9998 11.2044 14.6837 10.4413 14.1211 9.87869C13.5585 9.31608 12.7954 9.00001 11.9998 9.00001Z" fill="currentcolor"/>
</svg>
