<svg width="24" height="24" viewBox="0 0 24 24" fill="none" xmlns="http://www.w3.org/2000/svg">
<path fill-rule="evenodd" clip-rule="evenodd" d="M12.6752 3C13.6693 3 14.4752 3.80589 14.4752 4.8V6.20652C14.9369 6.40376 15.3752 6.65623 15.7799 6.95973L16.9978 6.25661C17.8587 5.75955 18.9596 6.05453 19.4567 6.91545L20.1317 8.08459C20.6288 8.94551 20.3338 10.0464 19.4728 10.5434L18.2551 11.2465C18.285 11.4953 18.3003 11.7469 18.3003 12C18.3003 12.2532 18.285 12.5048 18.2551 12.7535L19.4728 13.4566C20.3338 13.9537 20.6287 15.0545 20.1317 15.9155L19.4567 17.0846C18.9596 17.9455 17.8587 18.2405 16.9978 17.7434L15.7799 17.0403C15.3752 17.3438 14.9369 17.5962 14.4752 17.7935V19.2C14.4752 20.1941 13.6693 21 12.6752 21H11.3251C10.331 21 9.52511 20.1941 9.52511 19.2V17.7935C9.0633 17.5962 8.62493 17.3437 8.22013 17.0401L7.00183 17.7434C6.14089 18.2405 5.04 17.9455 4.54294 17.0846L3.86792 15.9155C3.37086 15.0545 3.66584 13.9537 4.52678 13.4566L5.7452 12.7532C5.71526 12.5045 5.70004 12.253 5.70004 12C5.70004 11.747 5.71526 11.4955 5.74519 11.2469L4.52678 10.5434C3.66584 10.0464 3.37086 8.94551 3.86792 8.08459L4.54294 6.91545C5.04 6.05453 6.14089 5.75955 7.00183 6.25661L8.2201 6.95996C8.6249 6.65636 9.06329 6.40381 9.52511 6.20652V4.8C9.52511 3.80589 10.331 3 11.3251 3H12.6752Z" stroke="currentcolor" stroke-width="2" stroke-linecap="round" stroke-linejoin="round"/>
<path d="M14.6958 12C14.6958 13.489 13.4887 14.696 11.9998 14.696C10.5108 14.696 9.30371 13.489 9.30371 12C9.30371 10.511 10.5108 9.30396 11.9998 9.30396C13.4887 9.30396 14.6958 10.511 14.6958 12Z" stroke="currentcolor" stroke-width="2" stroke-linecap="round" stroke-linejoin="round"/>
</svg>
