<svg width="24" height="24" viewBox="0 0 24 24" fill="none" xmlns="http://www.w3.org/2000/svg">
<path d="M12.0002 12V14.5M12.0002 12C11.735 12 11.4807 11.8946 11.2931 11.7071C11.1056 11.5196 11.0002 11.2652 11.0002 11C11.0002 10.7348 11.1056 10.4804 11.2931 10.2929C11.4807 10.1054 11.735 10 12.0002 10C12.2655 10 12.5198 10.1054 12.7074 10.2929C12.8949 10.4804 13.0002 10.7348 13.0002 11C13.0002 11.2652 12.8949 11.5196 12.7074 11.7071C12.5198 11.8946 12.2655 12 12.0002 12ZM12.0001 3C14.3359 5.06658 17.3846 6.14257 20.5001 6C20.9537 7.54302 21.0925 9.16147 20.9082 10.7592C20.7239 12.3569 20.2204 13.9013 19.4275 15.3005C18.6346 16.6998 17.5685 17.9254 16.2925 18.9045C15.0166 19.8836 13.5569 20.5962 12.0001 21C10.4433 20.5962 8.98356 19.8836 7.70762 18.9045C6.43169 17.9254 5.36559 16.6998 4.57267 15.3005C3.77976 13.9013 3.27621 12.3569 3.09195 10.7592C2.9077 9.16147 3.04649 7.54302 3.50008 6C6.61561 6.14257 9.66425 5.06658 12.0001 3Z" stroke="currentcolor" stroke-width="2" stroke-linecap="round" stroke-linejoin="round"/>
</svg>
