<svg width="24" height="24" viewBox="0 0 24 24" fill="none" xmlns="http://www.w3.org/2000/svg">
<path d="M11.9984 2L12.1164 2.007L12.1754 2.015L12.2364 2.028L12.3474 2.062C12.424 2.09026 12.4969 2.12788 12.5644 2.174L12.6684 2.256L12.9234 2.474C14.9407 4.14956 17.4902 5.0493 20.1124 5.011L20.4544 5.001C20.678 4.9908 20.8985 5.05591 21.0807 5.1859C21.2629 5.31589 21.3963 5.50326 21.4594 5.718C21.9508 7.38958 22.1011 9.14288 21.9016 10.8737C21.702 12.6046 21.1565 14.2776 20.2975 15.7935C19.4386 17.3093 18.2837 18.6371 16.9014 19.6978C15.5192 20.7585 13.9379 21.5305 12.2514 21.968C12.0868 22.0107 11.914 22.0107 11.7494 21.968C10.0628 21.5306 8.48135 20.7587 7.09902 19.698C5.71668 18.6374 4.56166 17.3096 3.70261 15.7938C2.84355 14.2779 2.29798 12.6048 2.09833 10.8739C1.89867 9.14301 2.049 7.38964 2.54038 5.718C2.60349 5.50326 2.73682 5.31589 2.91903 5.1859C3.10124 5.05591 3.32179 4.9908 3.54538 5.001C6.28285 5.12613 8.96845 4.22499 11.0764 2.474L11.3394 2.249L11.4354 2.174C11.5028 2.12788 11.5757 2.09026 11.6524 2.062L11.7644 2.028C11.8036 2.01853 11.8433 2.01152 11.8834 2.007L11.9984 2ZM12.0004 9C11.4958 8.99984 11.0098 9.19041 10.6398 9.5335C10.2699 9.87659 10.0432 10.3468 10.0054 10.85L10.0004 11L10.0054 11.15C10.03 11.4746 10.1336 11.7883 10.307 12.0638C10.4804 12.3393 10.7184 12.5684 11.0004 12.731V14.5L11.0074 14.617C11.0375 14.8701 11.1631 15.1021 11.3586 15.2657C11.554 15.4293 11.8045 15.5121 12.059 15.4972C12.3134 15.4822 12.5526 15.3707 12.7275 15.1854C12.9025 15 13.0001 14.7549 13.0004 14.5L13.0014 12.732C13.3827 12.5118 13.6807 12.1719 13.8492 11.7651C14.0176 11.3582 14.0471 10.9072 13.933 10.4819C13.8189 10.0566 13.5677 9.6808 13.2183 9.41286C12.8688 9.14492 12.4407 8.9998 12.0004 9Z" fill="currentcolor"/>
</svg>
