<svg width="24" height="24" viewBox="0 0 24 24" fill="none" xmlns="http://www.w3.org/2000/svg">
<path d="M7.11915 9.33742C6.68032 9.33742 6.25135 9.20729 5.88647 8.96349C5.5216 8.71969 5.23722 8.37317 5.06928 7.96774C4.90135 7.56232 4.85741 7.1162 4.94302 6.6858C5.02864 6.25541 5.23995 5.86006 5.55025 5.54976C5.86055 5.23946 6.25589 5.02815 6.68629 4.94254C7.11669 4.85692 7.56281 4.90086 7.96823 5.0688C8.37366 5.23673 8.72018 5.52111 8.96398 5.88599C9.20778 6.25086 9.33791 6.67983 9.33791 7.11866V16.8812C9.33791 17.32 9.20778 17.749 8.96398 18.1139C8.72018 18.4787 8.37366 18.7631 7.96823 18.9311C7.56281 19.099 7.11669 19.1429 6.68629 19.0573C6.25589 18.9717 5.86055 18.7604 5.55025 18.4501C5.23995 18.1398 5.02864 17.7444 4.94302 17.3141C4.85741 16.8837 4.90135 16.4375 5.06928 16.0321C5.23722 15.6267 5.5216 15.2802 5.88647 15.0364C6.25135 14.7926 6.68032 14.6624 7.11915 14.6624H16.8817C17.3205 14.6624 17.7495 14.7926 18.1144 15.0364C18.4792 15.2802 18.7636 15.6267 18.9315 16.0321C19.0995 16.4375 19.1434 16.8837 19.0578 17.3141C18.9722 17.7444 18.7609 18.1398 18.4506 18.4501C18.1403 18.7604 17.7449 18.9717 17.3145 19.0573C16.8841 19.1429 16.438 19.099 16.0326 18.9311C15.6272 18.7631 15.2807 18.4787 15.0369 18.1139C14.7931 17.749 14.6629 17.32 14.6629 16.8812V7.11866C14.6629 6.67983 14.7931 6.25086 15.0369 5.88599C15.2807 5.52111 15.6272 5.23673 16.0326 5.0688C16.438 4.90086 16.8841 4.85692 17.3145 4.94254C17.7449 5.02815 18.1403 5.23946 18.4506 5.54976C18.7609 5.86006 18.9722 6.25541 19.0578 6.6858C19.1434 7.1162 19.0995 7.56232 18.9315 7.96774C18.7636 8.37317 18.4792 8.71969 18.1144 8.96349C17.7495 9.20729 17.3205 9.33742 16.8817 9.33742H7.11915Z" stroke="black" stroke-width="1.5" stroke-linecap="round" stroke-linejoin="round"/>
</svg>
