<svg width="24" height="25" viewBox="0 0 24 25" fill="none" xmlns="http://www.w3.org/2000/svg">
<path d="M11.1546 9.97873L15.9973 14.8214M15.9973 9.97873L11.1546 14.8214M19.1679 6.80811C19.4151 6.80811 19.6521 6.9063 19.8269 7.08108C20.0017 7.25587 20.0999 7.49292 20.0999 7.74011V17.0601C20.0999 17.3073 20.0017 17.5444 19.8269 17.7191C19.6521 17.8939 19.4151 17.9921 19.1679 17.9921H9.41295C9.09469 17.9921 8.78947 17.8657 8.56443 17.6406L4.25589 13.3321C4.02664 13.0758 3.8999 12.744 3.8999 12.4001C3.8999 12.0562 4.02664 11.7244 4.25589 11.4681L8.56443 7.15958C8.78947 6.93453 9.09469 6.80811 9.41295 6.80811H19.1679Z" stroke="black" stroke-width="1.5" stroke-linecap="round" stroke-linejoin="round"/>
</svg>
