<svg width="24" height="24" viewBox="0 0 64 64" fill="none" xmlns="http://www.w3.org/2000/svg">
<path d="M42.6667 16.0002C44.0812 16.0002 45.4377 15.4383 46.4379 14.4381C47.4381 13.4379 48 12.0813 48 10.6668C48 12.0813 48.5619 13.4379 49.5621 14.4381C50.5623 15.4383 51.9188 16.0002 53.3333 16.0002C51.9188 16.0002 50.5623 16.5621 49.5621 17.5623C48.5619 18.5625 48 19.919 48 21.3335C48 19.919 47.4381 18.5625 46.4379 17.5623C45.4377 16.5621 44.0812 16.0002 42.6667 16.0002ZM42.6667 48.0002C44.0812 48.0002 45.4377 47.4383 46.4379 46.4381C47.4381 45.4379 48 44.0813 48 42.6668C48 44.0813 48.5619 45.4379 49.5621 46.4381C50.5623 47.4383 51.9188 48.0002 53.3333 48.0002C51.9188 48.0002 50.5623 48.5621 49.5621 49.5623C48.5619 50.5625 48 51.919 48 53.3335C48 51.919 47.4381 50.5625 46.4379 49.5623C45.4377 48.5621 44.0812 48.0002 42.6667 48.0002ZM24 16.0002C24 20.2436 25.6857 24.3133 28.6863 27.3139C31.6869 30.3145 35.7565 32.0002 40 32.0002C35.7565 32.0002 31.6869 33.6859 28.6863 36.6865C25.6857 39.687 24 43.7567 24 48.0002C24 43.7567 22.3143 39.687 19.3137 36.6865C16.3131 33.6859 12.2435 32.0002 8 32.0002C12.2435 32.0002 16.3131 30.3145 19.3137 27.3139C22.3143 24.3133 24 20.2436 24 16.0002Z" stroke="currentcolor" stroke-width="5.33333" stroke-linecap="round" stroke-linejoin="round" />
</svg>