<svg width="24" height="24" viewBox="0 0 24 24" fill="none" xmlns="http://www.w3.org/2000/svg">
<path d="M12 2L12.324 2.001L12.642 2.005L13.258 2.022L13.557 2.035L14.136 2.069L14.689 2.115C19.474 2.579 21.421 4.526 21.885 9.311L21.931 9.864L21.965 10.443C21.97 10.541 21.975 10.641 21.978 10.742L21.995 11.358L22 12L21.995 12.642L21.978 13.258L21.965 13.557L21.931 14.136L21.885 14.689C21.421 19.474 19.474 21.421 14.689 21.885L14.136 21.931L13.557 21.965C13.459 21.97 13.359 21.975 13.258 21.978L12.642 21.995L12 22L11.358 21.995L10.742 21.978L10.443 21.965L9.864 21.931L9.311 21.885C4.526 21.421 2.579 19.474 2.115 14.689L2.069 14.136L2.035 13.557C2.03014 13.4574 2.0258 13.3577 2.022 13.258L2.005 12.642C2.002 12.432 2 12.218 2 12L2.001 11.676L2.005 11.358L2.022 10.742L2.035 10.443L2.069 9.864L2.115 9.311C2.579 4.526 4.526 2.579 9.311 2.115L9.864 2.069L10.443 2.035C10.541 2.03 10.641 2.025 10.742 2.022L11.358 2.005C11.568 2.002 11.782 2 12 2ZM12 8C11.7348 8 11.4804 8.10536 11.2929 8.29289C11.1054 8.48043 11 8.73478 11 9V11H9L8.883 11.007C8.6299 11.0371 8.39785 11.1627 8.23426 11.3582C8.07067 11.5536 7.98789 11.8042 8.00283 12.0586C8.01776 12.313 8.1293 12.5522 8.31463 12.7272C8.49997 12.9021 8.74512 12.9997 9 13H11V15L11.007 15.117C11.0371 15.3701 11.1627 15.6021 11.3582 15.7657C11.5536 15.9293 11.8042 16.0121 12.0586 15.9972C12.313 15.9822 12.5522 15.8707 12.7272 15.6854C12.9021 15.5 12.9997 15.2549 13 15V13H15L15.117 12.993C15.3701 12.9629 15.6021 12.8373 15.7657 12.6418C15.9293 12.4464 16.0121 12.1958 15.9972 11.9414C15.9822 11.687 15.8707 11.4478 15.6854 11.2728C15.5 11.0979 15.2549 11.0003 15 11H13V9L12.993 8.883C12.9643 8.63975 12.8474 8.41547 12.6644 8.25272C12.4813 8.08996 12.2449 8.00003 12 8Z" fill="currentcolor"/>
</svg>
