<svg width="24" height="24" viewBox="0 0 24 24" fill="none" xmlns="http://www.w3.org/2000/svg">
<g clip-path="url(#clip0_22321_80565)">
<path d="M8.25058 7.84114L1.87058 8.76614L1.75758 8.78914C1.58652 8.83455 1.43057 8.92455 1.30567 9.04994C1.18077 9.17534 1.09138 9.33163 1.04664 9.50287C1.0019 9.67411 1.00341 9.85415 1.05101 10.0246C1.09861 10.1951 1.19059 10.3499 1.31758 10.4731L5.93958 14.9721L4.84958 21.3271L4.83658 21.4371C4.82611 21.6141 4.86284 21.7906 4.94303 21.9486C5.02321 22.1067 5.14396 22.2406 5.29291 22.3367C5.44187 22.4327 5.61367 22.4874 5.79073 22.4953C5.96779 22.5031 6.14374 22.4637 6.30058 22.3811L12.0066 19.3811L17.6996 22.3811L17.7996 22.4271C17.9646 22.4922 18.144 22.5121 18.3193 22.4849C18.4946 22.4577 18.6596 22.3844 18.7972 22.2724C18.9348 22.1604 19.0401 22.0139 19.1024 21.8478C19.1647 21.6817 19.1817 21.502 19.1516 21.3271L18.0606 14.9721L22.6846 10.4721L22.7626 10.3871C22.874 10.2499 22.9471 10.0856 22.9743 9.91094C23.0015 9.73628 22.982 9.55752 22.9177 9.39287C22.8533 9.22823 22.7465 9.08358 22.6081 8.97366C22.4696 8.86374 22.3045 8.79248 22.1296 8.76714L15.7496 7.84114L12.8976 2.06114C12.8151 1.89368 12.6873 1.75266 12.5288 1.65405C12.3702 1.55544 12.1873 1.50317 12.0006 1.50317C11.8139 1.50317 11.6309 1.55544 11.4724 1.65405C11.3139 1.75266 11.1861 1.89368 11.1036 2.06114L8.25058 7.84114Z" fill="currentcolor"/>
</g>
<defs>
<clipPath id="clip0_22321_80565">
<rect width="24" height="24" fill="white"/>
</clipPath>
</defs>
</svg>
