<svg width="24" height="24" viewBox="0 0 24 24" fill="none" xmlns="http://www.w3.org/2000/svg">
<g clip-path="url(#clip0_23763_62181)">
<path d="M18.6131 0H5.38691C2.4118 0 0 2.4118 0 5.38691V18.6131C0 21.5882 2.4118 24 5.38691 24H18.6131C21.5882 24 24 21.5882 24 18.6131V5.38691C24 2.4118 21.5882 0 18.6131 0Z" fill="#6772E5"/>
<path fill-rule="evenodd" clip-rule="evenodd" d="M11.0563 9.31076C11.0563 8.73715 11.5301 8.47945 12.2949 8.47945C13.5623 8.50685 14.806 8.82844 15.9278 9.41883V6.01876C14.7736 5.56615 13.5429 5.34034 12.3032 5.35371C9.34376 5.35371 7.36523 6.89995 7.36523 9.51027C7.36523 13.5505 12.9184 12.8937 12.9184 14.6395C12.9184 15.3128 12.3282 15.529 11.5218 15.529C10.1012 15.4506 8.71823 15.0437 7.48162 14.3402V17.8234C8.74169 18.3679 10.0992 18.6507 11.4719 18.6547C14.5062 18.6547 16.6011 17.1584 16.6011 14.4982C16.6261 10.167 11.0563 10.9484 11.0563 9.31076Z" fill="white"/>
</g>
<defs>
<clipPath id="clip0_23763_62181">
<rect width="24" height="24" fill="white"/>
</clipPath>
</defs>
</svg>
