<svg width="24" height="24" viewBox="0 0 24 24" fill="none" xmlns="http://www.w3.org/2000/svg">
<path d="M12 22C17.5228 22 22 17.5228 22 12C22 6.47715 17.5228 2 12 2C6.47715 2 2 6.47715 2 12C2 17.5228 6.47715 22 12 22Z" fill="url(#paint0_linear_43_193)"/>
<path fill-rule="evenodd" clip-rule="evenodd" d="M6.52635 11.8945C9.44156 10.6244 11.3855 9.78702 12.3581 9.38246C15.1352 8.22737 15.7123 8.02672 16.0884 8.02009C16.1711 8.01863 16.3561 8.03913 16.4759 8.13635C16.5771 8.21844 16.6049 8.32934 16.6182 8.40717C16.6316 8.485 16.6481 8.6623 16.635 8.80083C16.4845 10.3821 15.8333 14.2193 15.502 15.9903C15.3618 16.7397 15.0858 16.991 14.8186 17.0156C14.2379 17.069 13.7969 16.6318 13.2345 16.2631C12.3543 15.6861 11.8571 15.327 11.0028 14.764C10.0155 14.1134 10.6555 13.7558 11.2182 13.1714C11.3654 13.0184 13.9241 10.6911 13.9736 10.48C13.9798 10.4536 13.9856 10.3552 13.9271 10.3032C13.8686 10.2513 13.7823 10.269 13.72 10.2832C13.6318 10.3032 12.2257 11.2325 9.50198 13.0711C9.10288 13.3452 8.7414 13.4787 8.41752 13.4717C8.06046 13.464 7.37364 13.2698 6.86306 13.1039C6.23681 12.9003 5.73907 12.7927 5.78242 12.4469C5.80499 12.2669 6.05297 12.0827 6.52635 11.8945Z" fill="white"/>
<defs>
<linearGradient id="paint0_linear_43_193" x1="1002" y1="2" x2="1002" y2="1987.17" gradientUnits="userSpaceOnUse">
<stop stop-color="#2AABEE"/>
<stop offset="1" stop-color="#229ED9"/>
</linearGradient>
</defs>
</svg>
