<svg width="24" height="24" viewBox="0 0 24 24" fill="none" xmlns="http://www.w3.org/2000/svg">
<path fill-rule="evenodd" clip-rule="evenodd" d="M22 12C22 17.5228 17.5228 22 12 22C6.47715 22 2 17.5228 2 12C2 6.47715 6.47715 2 12 2C17.5228 2 22 6.47715 22 12ZM12.3581 9.38246C11.3855 9.78702 9.44156 10.6244 6.52635 11.8945C6.05297 12.0827 5.80499 12.2669 5.78242 12.4469C5.74426 12.7513 6.12537 12.8711 6.64434 13.0343C6.71493 13.0565 6.78807 13.0795 6.86306 13.1039C7.37364 13.2698 8.06046 13.464 8.41752 13.4717C8.7414 13.4787 9.10288 13.3452 9.50198 13.0711C12.2257 11.2325 13.6318 10.3032 13.72 10.2832C13.7823 10.269 13.8686 10.2513 13.9271 10.3032C13.9856 10.3552 13.9798 10.4536 13.9736 10.48C13.9359 10.641 12.4399 12.0318 11.6657 12.7515C11.4244 12.9759 11.2532 13.135 11.2182 13.1714C11.1398 13.2528 11.0599 13.3298 10.9831 13.4039C10.5087 13.8611 10.153 14.204 11.0028 14.764C11.4111 15.0331 11.7379 15.2556 12.0639 15.4776C12.4199 15.7201 12.775 15.9619 13.2345 16.2631C13.3515 16.3398 13.4633 16.4195 13.5722 16.4971C13.9865 16.7925 14.3587 17.0579 14.8186 17.0156C15.0858 16.991 15.3618 16.7397 15.502 15.9903C15.8333 14.2193 16.4845 10.3821 16.635 8.80083C16.6481 8.6623 16.6316 8.485 16.6182 8.40717C16.6049 8.32934 16.5771 8.21844 16.4759 8.13635C16.3561 8.03913 16.1711 8.01863 16.0884 8.02009C15.7123 8.02672 15.1352 8.22737 12.3581 9.38246Z" fill="currentcolor"/>
</svg>
