<svg width="34" height="24" viewBox="0 0 34 24" fill="none" xmlns="http://www.w3.org/2000/svg">
<path d="M30.189 19.4157V4.58425H32V19.4157H30.189Z" fill="black"/>
<path d="M26.8863 17.0739C25.3251 17.0739 24.5913 16.1997 24.5913 14.7633V10.673H23.436V8.95564H24.5913V6.73872H26.7302V8.95564H28.4631V10.673H26.7302V14.6072C26.7302 15.138 26.9331 15.3566 27.4952 15.3566H28.3538V17.0739H26.8863Z" fill="black"/>
<path d="M20.4402 12.9523L23.2816 17.0739H21.0491L19.363 14.5448L17.6769 17.0739H15.4443L18.2857 12.9523L15.5536 8.95564H17.7549L19.363 11.3599L20.971 8.95564H23.1723L20.4402 12.9523Z" fill="black"/>
<path d="M11.5477 17.2613C9.25268 17.2613 7.76953 15.9186 7.76953 13.6393V12.5308C7.76953 10.3295 9.08095 8.7683 11.5164 8.7683C13.9207 8.7683 15.1384 10.3763 15.1384 12.3279V13.7486H9.83033V13.9515C9.83033 14.9039 10.3143 15.7313 11.5477 15.7313C12.4532 15.7313 13.0152 15.2629 13.2182 14.7009H15.076C14.795 16.184 13.3431 17.2613 11.5477 17.2613ZM9.83033 12.1717V12.2498H13.1869V12.0468C13.1869 11.0321 12.6561 10.2671 11.5164 10.2671C10.2987 10.2671 9.83033 11.0789 9.83033 12.1717Z" fill="black"/>
<path d="M5.45028 17.0739C3.88906 17.0739 3.1553 16.1997 3.1553 14.7633V10.673H2V8.95564H3.1553V6.73872H5.29415V8.95564H7.0271V10.673H5.29415V14.6072C5.29415 15.138 5.49711 15.3566 6.05915 15.3566H6.91781V17.0739H5.45028Z" fill="black"/>
</svg>
