<svg width="24" height="24" viewBox="0 0 24 24" fill="none" xmlns="http://www.w3.org/2000/svg">
<path d="M17.4272 22.5V1.5H19.9912V22.5H17.4272Z" fill="#131317"/>
<path d="M8.36359 19.4498C5.77753 19.4498 4.00928 18.1014 4.00928 15.8687C4.00928 13.3708 5.88804 12.2214 8.65093 12.2214C10.0213 12.2214 11.0381 12.7519 11.5685 13.194V11.6245C11.5685 10.5635 10.817 9.76767 9.57926 9.76767C8.54042 9.76767 7.89943 10.2319 7.58998 10.8508H4.80499C5.46808 8.6182 7.25844 7.42451 9.73398 7.42451C12.6074 7.42451 14.5746 9.17083 14.5746 11.8456V19.1845H11.6791V18.1235C11.1486 18.8971 9.68978 19.4498 8.36359 19.4498ZM9.1372 17.4603C10.4634 17.4603 11.5685 16.7308 11.5685 15.7582C11.5685 14.7414 10.5739 14.1445 9.22561 14.1445C7.81101 14.1445 6.92689 14.7192 6.92689 15.7803C6.92689 16.8414 7.87732 17.4603 9.1372 17.4603Z" fill="#131317"/>
</svg>
