<svg width="24" height="24" viewBox="0 0 24 24" fill="none" xmlns="http://www.w3.org/2000/svg">
<path fill-rule="evenodd" clip-rule="evenodd" d="M2 5C2 3.34315 3.34315 2 5 2H19C20.6569 2 22 3.34315 22 5V19C22 20.6569 20.6569 22 19 22H5C3.34315 22 2 20.6569 2 19V5ZM14.4074 19.9143H16.3457V4.04036H14.4074V19.9143ZM10.4119 17.4079H11.9826V15.5699H11.0636C10.4621 15.5699 10.2448 15.3359 10.2448 14.7678V10.557H12.0996V8.719H10.2448V6.34626H7.95565V8.719H6.71915V10.557H7.95565V14.9349C7.95565 16.4722 8.74099 17.4079 10.4119 17.4079Z" fill="currentcolor"/>
</svg>
