<svg width="187" height="80" viewBox="0 0 187 80" fill="none" xmlns="http://www.w3.org/2000/svg">
<path d="M0 17.5H7.1C7.1 25.8 13.8 32.5 22.1 32.5H43.7V41H6.7C11.2 56.2 32.7 57.6 37.3 44.1H43.7V61.5H0V17.5ZM46.8 17.5H90.4V41H53.4C57.8 56.2 79.4 57.6 83.9 44.1H90.3V61.5H46.8V17.5ZM83.1 32.5C78 20 58.5 20 54.9 32.5H83.1ZM93.1 56.1L107.1 39.5L93.1 22.9V17.5H108.4V26.9C108.4 31.9 112 35.3 116.9 35.3C121.8 35.3 125.2 31.8 125.2 26.9V17.5H140.6V22.9L126.6 39.5L140.6 56.1V61.5H125.2V52.1C125.2 47.1 121.7 43.7 116.8 43.7C111.9 43.7 108.4 47.2 108.4 52.1V61.5H93.1V56.1ZM143.3 17.5H150.5C150.5 25.8 157.2 32.5 165.5 32.5H187V41H150C154.4 56.2 176 57.6 180.5 44.1H186.8V61.5H143.3V17.5Z" fill="black"/>
</svg>
