<svg width="24" height="24" viewBox="0 0 24 24" fill="none" xmlns="http://www.w3.org/2000/svg">
<path fill-rule="evenodd" clip-rule="evenodd" d="M14.6198 17.4002L6.55769 17.3632C6.03841 17.3632 5.38274 16.7709 5.38274 16.2474L5.27259 7.97201C5.27259 7.68647 5.0418 7.45381 4.75855 7.45381C4.62217 7.45381 4.49104 7.50669 4.39662 7.60716L2.15163 9.87565C2.05721 9.9708 1.99951 10.103 1.99951 10.2405V15.8456C1.99951 18.5265 4.15534 20.6998 6.81471 20.6998H12.38C12.5164 20.6998 12.6475 20.6469 12.7419 20.5465L14.9869 18.2833C15.0813 18.1881 15.139 18.0559 15.139 17.9184C15.139 17.6276 14.9082 17.3949 14.625 17.3949L14.6198 17.4002Z" fill="#131317"/>
<path fill-rule="evenodd" clip-rule="evenodd" d="M17.1842 3.69987H11.6189C11.4825 3.69987 11.3514 3.75275 11.257 3.85321L9.01197 6.1164C8.91756 6.21158 8.85986 6.34377 8.85986 6.48126C8.85986 6.77209 9.09067 7.00475 9.37392 7.00475L17.436 7.04177C17.9552 7.04177 18.6109 7.63401 18.6109 8.1575L18.7211 16.4329C18.7211 16.7185 18.9519 16.9511 19.2351 16.9511C19.3715 16.9511 19.5026 16.8983 19.597 16.7978L21.8473 14.5293C21.9417 14.4341 21.9994 14.3019 21.9994 14.1645V8.55937C21.9994 5.87845 19.8436 3.70516 17.1842 3.70516V3.69987Z" fill="#131317"/>
</svg>
