<svg width="24" height="24" viewBox="0 0 24 24" fill="none" xmlns="http://www.w3.org/2000/svg">
<path d="M10.2694 2.01488C8.84264 1.77009 7.37513 1.97364 6.06889 2.59749C5.77595 2.73739 5.56915 3.01079 5.51426 3.33075C5.45936 3.65071 5.5632 3.97741 5.79275 4.20696L8.99986 7.41407V8.99986H7.41407L4.20696 5.79275C3.97741 5.5632 3.65071 5.45936 3.33075 5.51426C3.01079 5.56915 2.73739 5.77595 2.59749 6.06889C1.97364 7.37513 1.77009 8.84264 2.01488 10.2694C2.25966 11.6961 2.94074 13.0118 3.96432 14.0354C4.9879 15.059 6.30364 15.74 7.73035 15.9848C8.91918 16.1888 10.1363 16.0815 11.2649 15.6791L16.7927 21.207C17.3781 21.7923 18.172 22.1212 18.9999 22.1212C19.8277 22.1212 20.6216 21.7923 21.207 21.207C21.7923 20.6216 22.1212 19.8277 22.1212 18.9999C22.1212 18.172 21.7923 17.3781 21.207 16.7927L15.6791 11.2649C16.0815 10.1363 16.1888 8.91918 15.9848 7.73035C15.74 6.30364 15.059 4.9879 14.0354 3.96432C13.0118 2.94074 11.6961 2.25966 10.2694 2.01488Z" fill="currentcolor"/>
</svg>
