<svg width="24" height="24" viewBox="0 0 24 24" fill="none" xmlns="http://www.w3.org/2000/svg">
<path fill-rule="evenodd" clip-rule="evenodd" d="M18.95 1.99951C18.1441 1.99951 17.371 2.31844 16.7995 2.88642L14.241 5.35968L7.31625 3.05144C6.95691 2.93166 6.56075 3.02518 6.29291 3.29301L3.79291 5.79301C3.56939 6.01654 3.46472 6.33258 3.51062 6.64533C3.55652 6.95809 3.7476 7.23073 4.02592 7.38059L9.34254 10.2434L7.58581 12.0001H5.00002C4.7348 12.0001 4.48045 12.1055 4.29291 12.293L2.29291 14.293C2.04785 14.5381 1.94714 14.8926 2.02677 15.2299C2.1064 15.5672 2.355 15.8392 2.68379 15.9488L6.70945 17.2907L8.05134 21.3163C8.16093 21.6451 8.43296 21.8937 8.77027 21.9734C9.10757 22.053 9.46206 21.9523 9.70713 21.7072L11.7071 19.7072C11.8947 19.5197 12 19.2653 12 19.0001V16.4143L13.7536 14.6608L16.618 20.0214C16.7681 20.3022 17.0429 20.4948 17.3581 20.54C17.6733 20.5852 17.9912 20.4776 18.2141 20.2502L20.7141 17.7002C20.9768 17.4323 21.0674 17.0398 20.9487 16.6839L18.6405 9.75916L21.1137 7.20067C21.6817 6.62921 22.0006 5.85611 22.0006 5.05012C22.0006 4.24105 21.6792 3.46511 21.1071 2.89301C20.535 2.32091 19.7591 1.99951 18.95 1.99951Z" fill="currentcolor"/>
</svg>
