<svg width="24" height="24" viewBox="0 0 24 24" fill="none" xmlns="http://www.w3.org/2000/svg">
<path d="M9 12L11 14L15 10" stroke="currentcolor" stroke-width="2" stroke-linecap="round" stroke-linejoin="round"/>
<path d="M11.9998 3C14.3357 5.06658 17.3843 6.14257 20.4998 6C20.9534 7.54302 21.0922 9.16147 20.908 10.7592C20.7237 12.3569 20.2202 13.9013 19.4272 15.3005C18.6343 16.6998 17.5682 17.9254 16.2923 18.9045C15.0164 19.8836 13.5566 20.5962 11.9998 21C10.443 20.5962 8.98331 19.8836 7.70738 18.9045C6.43144 17.9254 5.36534 16.6998 4.57243 15.3005C3.77952 13.9013 3.27597 12.3569 3.09171 10.7592C2.90745 9.16147 3.04624 7.54302 3.49983 6C6.61536 6.14257 9.664 5.06658 11.9998 3Z" stroke="currentcolor" stroke-width="2" stroke-linecap="round" stroke-linejoin="round"/>
</svg>
