<svg width="24" height="24" viewBox="0 0 24 24" fill="none" xmlns="http://www.w3.org/2000/svg">
<path d="M10 3C10 2.44772 9.55228 2 9 2C8.44772 2 8 2.44772 8 3C8 3.26522 7.89464 3.51957 7.70711 3.70711C7.51957 3.89464 7.26522 4 7 4C6.44772 4 6 4.44772 6 5C6 5.55228 6.44772 6 7 6C7.26522 6 7.51957 6.10536 7.70711 6.29289C7.89464 6.48043 8 6.73478 8 7C8 7.55228 8.44772 8 9 8C9.55228 8 10 7.55228 10 7C10 6.73478 10.1054 6.48043 10.2929 6.29289C10.4804 6.10536 10.7348 6 11 6C11.5523 6 12 5.55228 12 5C12 4.44772 11.5523 4 11 4C10.7348 4 10.4804 3.89464 10.2929 3.70711C10.1054 3.51957 10 3.26522 10 3Z" fill="currentcolor"/>
<path fill-rule="evenodd" clip-rule="evenodd" d="M18.7071 2.29289C18.3166 1.90237 17.6834 1.90237 17.2929 2.29289L2.29289 17.2929C1.90237 17.6834 1.90237 18.3166 2.29289 18.7071L5.29289 21.7071C5.68342 22.0976 6.31658 22.0976 6.70711 21.7071L21.7071 6.70711C22.0976 6.31658 22.0976 5.68342 21.7071 5.29289L18.7071 2.29289ZM16.4142 6L18 7.58579L19.5858 6L18 4.41421L16.4142 6Z" fill="currentcolor"/>
<path d="M20 13C20 12.4477 19.5523 12 19 12C18.4477 12 18 12.4477 18 13C18 13.2652 17.8946 13.5196 17.7071 13.7071C17.5196 13.8946 17.2652 14 17 14C16.4477 14 16 14.4477 16 15C16 15.5523 16.4477 16 17 16C17.2652 16 17.5196 16.1054 17.7071 16.2929C17.8946 16.4804 18 16.7348 18 17C18 17.5523 18.4477 18 19 18C19.5523 18 20 17.5523 20 17C20 16.7348 20.1054 16.4804 20.2929 16.2929C20.4804 16.1054 20.7348 16 21 16C21.5523 16 22 15.5523 22 15C22 14.4477 21.5523 14 21 14C20.7348 14 20.4804 13.8946 20.2929 13.7071C20.1054 13.5196 20 13.2652 20 13Z" fill="currentcolor"/>
</svg>
