<svg width="24" height="24" viewBox="0 0 24 24" fill="none" xmlns="http://www.w3.org/2000/svg">
<path d="M15.066 20.502C15.6003 20.7969 16.1949 20.9656 16.8045 20.9953C17.414 21.0249 18.0222 20.9147 18.5826 20.6731C19.143 20.4315 19.6406 20.0649 20.0375 19.6013C20.4344 19.1377 20.7199 18.5895 20.8722 17.9985C21.0246 17.4076 21.0397 16.7897 20.9164 16.192C20.7931 15.5943 20.5348 15.0328 20.161 14.5504C19.7873 14.0679 19.3082 13.6774 18.7603 13.4087C18.2124 13.14 17.6102 13.0002 17 13C16.294 13 15.576 13.179 15 13.5L12 8M16 8C16 6.93913 15.5786 5.92172 14.8284 5.17157C14.0783 4.42143 13.0609 4 12 4C10.9391 4 9.92172 4.42143 9.17157 5.17157C8.42143 5.92172 8 6.93913 8 8C8 9.506 8.77 10.818 10 11.5L7 17M4.876 13.6099C4.28624 13.9794 3.80311 14.4965 3.47436 15.1099C3.14561 15.7234 2.98261 16.412 3.00147 17.1078C3.02033 17.8035 3.2204 18.4823 3.58191 19.077C3.94341 19.6717 4.45385 20.1619 5.06277 20.4989C5.67169 20.836 6.35802 21.0084 7.05395 20.999C7.74988 20.9896 8.43131 20.7988 9.03092 20.4454C9.63053 20.092 10.1276 19.5883 10.4729 18.9841C10.8182 18.3798 10.9999 17.6959 11 16.9999H17" stroke="currentcolor" stroke-width="2" stroke-linecap="round" stroke-linejoin="round"/>
</svg>
