<svg width="24" height="24" viewBox="0 0 24 24" fill="none" xmlns="http://www.w3.org/2000/svg">
<rect x="2" y="2" width="20" height="20" rx="5" fill="url(#paint0_linear_28410_47032)"/>
<g filter="url(#filter0_d_28410_47032)">
<path fill-rule="evenodd" clip-rule="evenodd" d="M17.2891 6.67972C15.8859 5.27481 14.0198 4.50071 12.0315 4.5C7.93437 4.5 4.59993 7.83409 4.5985 11.9323C4.59779 13.2424 4.94029 14.5211 5.59071 15.6481L4.53613 19.5L8.47645 18.4664C9.56202 19.0588 10.7845 19.3706 12.0283 19.371H12.0315C16.1279 19.371 19.4627 16.0365 19.4641 11.9383C19.4649 9.95217 18.6925 8.08499 17.2891 6.68007V6.67972ZM12.0315 18.1158H12.029C10.9206 18.1154 9.83326 17.8174 8.88454 17.2547L8.65893 17.1207L6.32061 17.7341L6.94466 15.4542L6.79782 15.2204C6.17948 14.2368 5.85266 13.0998 5.85337 11.9327C5.8548 8.52657 8.62614 5.75523 12.034 5.75523C13.6841 5.75594 15.2352 6.39924 16.4016 7.56715C17.5681 8.7347 18.21 10.2872 18.2093 11.9376C18.2078 15.3441 15.4365 18.1154 12.0315 18.1154V18.1158ZM15.4201 13.489C15.2344 13.396 14.3214 12.9469 14.151 12.8849C13.9806 12.8229 13.857 12.7919 13.7333 12.978C13.6096 13.164 13.2536 13.5824 13.1452 13.7061C13.0369 13.8301 12.9285 13.8454 12.7429 13.7524C12.5572 13.6594 11.9588 13.4634 11.2492 12.8307C10.6972 12.3382 10.3243 11.7302 10.216 11.5442C10.1077 11.3581 10.2046 11.2576 10.2973 11.1653C10.3807 11.0819 10.483 10.9483 10.576 10.8399C10.669 10.7316 10.6997 10.6539 10.7617 10.5302C10.8237 10.4062 10.7927 10.2979 10.7464 10.2048C10.7 10.1118 10.3287 9.19764 10.1736 8.82593C10.0228 8.46384 9.86962 8.51302 9.75592 8.50696C9.64757 8.50162 9.52391 8.50055 9.39989 8.50055C9.27586 8.50055 9.07483 8.54688 8.90448 8.73292C8.73414 8.91894 8.25442 9.36836 8.25442 10.2822C8.25442 11.196 8.91983 12.0795 9.01284 12.2035C9.10585 12.3275 10.3226 14.2033 12.1855 15.008C12.6285 15.1994 12.9745 15.3138 13.2443 15.3993C13.6891 15.5408 14.094 15.5209 14.414 15.4731C14.7708 15.4196 15.5128 15.0237 15.6675 14.5899C15.8221 14.1562 15.8221 13.7841 15.7758 13.7068C15.7295 13.6294 15.6055 13.5827 15.4198 13.4897L15.4201 13.489Z" fill="white"/>
</g>
<defs>
<filter id="filter0_d_28410_47032" x="4.00559" y="3.96946" width="15.9893" height="16.0611" filterUnits="userSpaceOnUse" color-interpolation-filters="sRGB">
<feFlood flood-opacity="0" result="BackgroundImageFix"/>
<feColorMatrix in="SourceAlpha" type="matrix" values="0 0 0 0 0 0 0 0 0 0 0 0 0 0 0 0 0 0 127 0" result="hardAlpha"/>
<feOffset/>
<feGaussianBlur stdDeviation="0.26527"/>
<feComposite in2="hardAlpha" operator="out"/>
<feColorMatrix type="matrix" values="0 0 0 0 0 0 0 0 0 0 0 0 0 0 0 0 0 0 0.3 0"/>
<feBlend mode="normal" in2="BackgroundImageFix" result="effect1_dropShadow_28410_47032"/>
<feBlend mode="normal" in="SourceGraphic" in2="effect1_dropShadow_28410_47032" result="shape"/>
</filter>
<linearGradient id="paint0_linear_28410_47032" x1="12" y1="2" x2="12" y2="22" gradientUnits="userSpaceOnUse">
<stop stop-color="#00FF6B"/>
<stop offset="0.218295" stop-color="#01F255"/>
<stop offset="0.49" stop-color="#00E12D"/>
<stop offset="0.745" stop-color="#02CC04"/>
<stop offset="0.945" stop-color="#00BD00"/>
<stop offset="1" stop-color="#0EAE06"/>
</linearGradient>
</defs>
</svg>
