<svg width="24" height="24" viewBox="0 0 24 24" fill="none" xmlns="http://www.w3.org/2000/svg">
<path d="M9.17188 15.1721C9.92199 14.4222 10.9392 14.001 11.9999 14.001C13.0605 14.001 14.0778 14.4222 14.8279 15.1721M3 3L21 21M12 18H12.01M6.34277 12.3429C7.4032 11.2795 8.74274 10.5376 10.2068 10.2029M14.3698 10.3579C15.6124 10.7459 16.741 11.4326 17.6568 12.3579M3.51514 9.515C4.53858 8.48943 5.73928 7.65767 7.05914 7.06M10.1601 6.14C12.0252 5.8508 13.9322 6.00562 15.7263 6.59187C17.5203 7.17811 19.1507 8.17927 20.4851 9.514" stroke="currentcolor" stroke-width="2" stroke-linecap="round" stroke-linejoin="round"/>
</svg>
