<svg width="48" height="49" viewBox="0 0 48 49" fill="none" xmlns="http://www.w3.org/2000/svg">
<path d="M13.312 29.1016C13.312 29.9522 13.5418 30.6862 13.312 35.7711C13.2945 36.1588 13.312 37.3649 13.312 39.0838C13.312 41.2324 15.1886 41.1876 15.8721 41.1876H17.9122H27.1924C28.9124 41.1876 33.0326 41.2772 35.2326 41.1876C37.4327 41.0981 37.0327 39.5061 37.0327 39.0838V36.9351C37.0327 35.6817 37.0859 32.9904 37.0327 32.3644C36.7127 28.602 36.8916 26.0499 36.3572 25.5366C35.8228 25.0234 14.3065 24.9008 13.7789 25.4144C13.2513 25.928 13.312 28.251 13.312 29.1016Z" fill="#FFD000"/>
<path d="M11.0962 23.7109C11.0962 24.1119 11.0962 26.7852 11.0962 27.6318C11.0962 28.4785 11.3407 29.2091 11.0962 34.2702C11.0775 34.6561 11.0962 35.8565 11.0962 37.5674C11.0962 39.706 13.0929 39.6615 13.8201 39.6615C14.6661 39.6615 14.8416 39.6615 15.9908 39.6615C17.1399 39.6615 24.0348 39.6615 25.865 39.6615C27.6951 39.6615 32.0789 39.7506 34.4198 39.6615C36.7607 39.5723 36.335 37.9877 36.335 37.5674C36.335 36.8541 36.335 36.6763 36.335 35.4288C36.335 34.1813 36.3917 31.5025 36.335 30.8794C35.9946 27.1346 36.0371 25.5377 35.9946 23.7109" stroke="#1B1B20" stroke-width="2.5" stroke-linecap="round" stroke-linejoin="round"/>
<path d="M9.22772 17.0402C9.22772 17.2075 9.02246 18.7702 9.02246 19.8289C9.02246 20.8875 9.22772 21.4393 9.22772 22.821C9.22772 23.7132 11.519 23.6946 12.3536 23.6946H14.8444H26.1754C28.2755 23.6946 33.306 23.7318 35.9923 23.6946C38.6785 23.6574 38.1901 22.9963 38.1901 22.821V21.9288V20.0796C38.1901 18.3732 38.2389 17.8023 38.1901 17.0402C38.1412 16.2781 36.1379 16.148 35.6495 16.148H31.3036C27.9649 16.148 25.0651 16.0808 20.3902 16.1481C17.7562 16.1861 13.1838 16.1108 11.0836 16.148C8.9835 16.1852 9.22772 16.8729 9.22772 17.0402Z" stroke="#1B1B20" stroke-width="2.5" stroke-linecap="round" stroke-linejoin="round"/>
<path d="M23.6724 23.9746C23.6724 24.8705 23.6724 25.1913 23.6724 26.3271C23.6724 27.7469 23.7671 35.0488 23.8145 36.2151C23.8524 37.1481 23.8303 38.1588 23.8145 38.5476" stroke="#1B1B20" stroke-width="2.5" stroke-linecap="round" stroke-linejoin="round"/>
<path d="M31.6287 10.5747C30.4625 13.3492 23.9339 15.6942 23.5638 15.8563C23.5791 14.3801 25.1488 10.9104 25.8488 9.82061C28.5095 5.67823 33.1012 7.07181 31.6287 10.5747Z" stroke="#1B1B20" stroke-width="2.5" stroke-linecap="round" stroke-linejoin="round"/>
<path d="M14.8361 11.0947C16.1261 13.8138 22.7537 15.8626 23.1307 16.0078C23.0489 14.5338 21.3246 11.1383 20.5763 10.0811C17.7318 6.06273 13.2075 7.66157 14.8361 11.0947Z" stroke="#1B1B20" stroke-width="2.5" stroke-linecap="round" stroke-linejoin="round"/>
</svg>
