<svg width="24" height="24" viewBox="0 0 24 24" fill="none" xmlns="http://www.w3.org/2000/svg">
<path d="M12.7199 2.03007C6.62995 1.60007 1.59995 6.63007 2.02995 12.7201C2.38995 18.0101 7.00995 22.0001 12.3099 22.0001H15.9999C16.5499 22.0001 16.9999 21.5501 16.9999 21.0001C16.9999 20.4501 16.5499 20.0001 15.9999 20.0001H12.3299C8.59995 20.0001 5.17995 17.5801 4.24995 13.9701C2.75995 8.17007 8.15995 2.76007 13.9599 4.26007C17.5799 5.18007 19.9999 8.60007 19.9999 12.3301V13.4301C19.9999 14.2201 19.2899 15.0001 18.4999 15.0001C17.7099 15.0001 16.9999 14.2201 16.9999 13.4301V12.1801C16.9999 9.67007 15.2199 7.41007 12.7399 7.06007C9.33995 6.57007 6.46995 9.51007 7.07995 12.9301C7.41995 14.8401 8.90995 16.4201 10.7999 16.8701C12.6399 17.3001 14.3899 16.7101 15.5399 15.5401C16.4299 16.7601 18.2099 17.4001 19.8399 16.7501C21.1799 16.2201 21.9999 14.8501 21.9999 13.4101V12.3201C21.9999 7.01007 18.0099 2.39007 12.7199 2.03007ZM11.9999 15.0001C10.3399 15.0001 8.99995 13.6601 8.99995 12.0001C8.99995 10.3401 10.3399 9.00007 11.9999 9.00007C13.6599 9.00007 14.9999 10.3401 14.9999 12.0001C14.9999 13.6601 13.6599 15.0001 11.9999 15.0001Z" fill="#424D57"/>
</svg>
