<svg viewBox="0 0 24 24" fill="none" xmlns="http://www.w3.org/2000/svg">
<g clip-path="url(#clip0_7176_30852)">
<path d="M23.132 8.05218C22.61 6.83613 21.551 5.52313 20.7218 5.10808C21.3131 6.21666 21.7235 7.40721 21.9385 8.6374L21.9407 8.65691C20.5823 5.37968 18.2796 4.05618 16.3979 1.1781C16.3027 1.03255 16.2076 0.886695 16.1149 0.732737C16.0619 0.644804 16.0194 0.565575 15.9825 0.492647C15.9045 0.346358 15.8444 0.191756 15.8033 0.0319744C15.8034 0.0246013 15.8006 0.0174666 15.7956 0.0119314C15.7906 0.00639616 15.7836 0.00284779 15.7761 0.00196318C15.7687 -3.35323e-06 15.7608 -3.35323e-06 15.7534 0.00196318C15.7519 0.00196318 15.7494 0.0046642 15.7475 0.00526442C15.7457 0.00586465 15.7416 0.00856566 15.7389 0.00976611L15.7435 0.00196318C12.7257 1.7126 11.7011 4.87879 11.6081 6.46339C10.4025 6.5434 9.24986 6.97336 8.30047 7.69715C8.20146 7.61596 8.09797 7.54002 7.99047 7.46966C7.71674 6.54199 7.70507 5.56022 7.95668 4.6267C6.8484 5.14643 5.86363 5.88325 5.06472 6.79051H5.05914C4.58298 6.20619 4.61646 4.27947 4.64374 3.87702C4.50288 3.93182 4.36841 4.00094 4.24261 4.08319C3.82226 4.37362 3.4293 4.69952 3.06834 5.05706C2.657 5.4608 2.28131 5.89719 1.94521 6.36165V6.36345V6.36135C1.17287 7.42123 0.624996 8.61871 0.333228 9.88467L0.317108 9.9615C0.294478 10.0638 0.212949 10.5764 0.198999 10.6878C0.198999 10.6965 0.197139 10.7046 0.196209 10.7133C0.0910419 11.2425 0.025873 11.7784 0.0012207 12.3168V12.3768C0.00653045 15.2875 1.13878 18.0904 3.17447 20.2324C5.21015 22.3743 8.00133 23.6996 10.997 23.9467C13.9927 24.1937 16.9752 23.3444 19.3557 21.5666C21.7362 19.7888 23.3418 17.2116 23.8555 14.3437C23.8757 14.1937 23.8921 14.0451 23.9101 13.8936C24.1576 11.9134 23.8897 9.90475 23.1307 8.05038L23.132 8.05218ZM9.2844 17.1576C9.34051 17.1837 9.39321 17.2119 9.45087 17.2368L9.45924 17.2419C9.40096 17.2149 9.34268 17.1868 9.2844 17.1576ZM21.941 8.66021V8.64911L21.9431 8.66141L21.941 8.66021Z" fill="url(#paint0_linear_7176_30852)"/>
<path d="M23.1318 8.05201C22.6098 6.83596 21.5508 5.52297 20.7216 5.10791C21.3129 6.2165 21.7234 7.40704 21.9383 8.63723V8.64834L21.9405 8.66064C22.8667 11.2263 22.7328 14.0393 21.5666 16.5116C20.1896 19.372 16.8578 22.3038 11.6405 22.1597C6.00478 22.0051 1.03862 17.9551 0.111729 12.6521C-0.0572195 11.8157 0.111729 11.3917 0.196668 10.7119C0.0808071 11.2399 0.01615 11.7773 0.00354004 12.3169V12.3769C0.00884978 15.2876 1.1411 18.0906 3.17678 20.2325C5.21247 22.3745 8.00364 23.6998 10.9993 23.9468C13.995 24.1938 16.9775 23.3446 19.358 21.5668C21.7386 19.7889 23.3442 17.2117 23.8578 14.3439C23.878 14.1938 23.8944 14.0453 23.9124 13.8937C24.1599 11.9135 23.892 9.90488 23.1331 8.05051L23.1318 8.05201Z" fill="url(#paint1_radial_7176_30852)"/>
<path d="M23.1318 8.05201C22.6098 6.83596 21.5508 5.52297 20.7216 5.10791C21.3129 6.2165 21.7234 7.40704 21.9383 8.63723V8.64834L21.9405 8.66064C22.8667 11.2263 22.7328 14.0393 21.5666 16.5116C20.1896 19.372 16.8578 22.3038 11.6405 22.1597C6.00478 22.0051 1.03862 17.9551 0.111729 12.6521C-0.0572195 11.8157 0.111729 11.3917 0.196668 10.7119C0.0808071 11.2399 0.01615 11.7773 0.00354004 12.3169V12.3769C0.00884978 15.2876 1.1411 18.0906 3.17678 20.2325C5.21247 22.3745 8.00364 23.6998 10.9993 23.9468C13.995 24.1938 16.9775 23.3446 19.358 21.5668C21.7386 19.7889 23.3442 17.2117 23.8578 14.3439C23.878 14.1938 23.8944 14.0453 23.9124 13.8937C24.1599 11.9135 23.892 9.90488 23.1331 8.05051L23.1318 8.05201Z" fill="url(#paint2_radial_7176_30852)"/>
<path d="M17.2917 9.41753C17.3177 9.43524 17.3419 9.45294 17.3664 9.47065C17.0646 8.95257 16.6889 8.47823 16.2504 8.06162C12.5149 4.44527 15.2717 0.222684 15.7364 0.00660248L15.7411 0C12.7233 1.71064 11.6987 4.87683 11.6057 6.46142C11.7458 6.45212 11.8847 6.44072 12.0279 6.44072C13.0986 6.44272 14.1497 6.71915 15.0742 7.24191C15.9988 7.76467 16.7638 8.5151 17.2917 9.41693V9.41753Z" fill="url(#paint3_radial_7176_30852)"/>
<path d="M12.0341 10.1406C12.0143 10.4299 10.9584 11.4278 10.5892 11.4278C7.17306 11.4278 6.61816 13.4287 6.61816 13.4287C6.76944 15.1135 7.98215 16.5018 9.44813 17.2341C9.51509 17.2677 9.58298 17.298 9.65087 17.3277C9.76846 17.3781 9.88605 17.4248 10.0036 17.4676C10.5068 17.6399 11.0337 17.7384 11.567 17.7596C17.5561 18.0315 18.7155 10.827 14.3938 8.7352C15.4133 8.60679 16.4457 8.84946 17.2908 9.41616C16.7629 8.51433 15.9978 7.76389 15.0733 7.24114C14.1487 6.71838 13.0977 6.44195 12.027 6.43994C11.8844 6.43994 11.7449 6.45135 11.6048 6.46065C10.3992 6.54067 9.2465 6.97062 8.29711 7.69441C8.48032 7.84447 8.68709 8.04494 9.12263 8.4606C9.93793 9.23819 12.0289 10.0437 12.0335 10.1382L12.0341 10.1406Z" fill="url(#paint4_radial_7176_30852)"/>
<path d="M12.0341 10.1406C12.0143 10.4299 10.9584 11.4278 10.5892 11.4278C7.17306 11.4278 6.61816 13.4287 6.61816 13.4287C6.76944 15.1135 7.98215 16.5018 9.44813 17.2341C9.51509 17.2677 9.58298 17.298 9.65087 17.3277C9.76846 17.3781 9.88605 17.4248 10.0036 17.4676C10.5068 17.6399 11.0337 17.7384 11.567 17.7596C17.5561 18.0315 18.7155 10.827 14.3938 8.7352C15.4133 8.60679 16.4457 8.84946 17.2908 9.41616C16.7629 8.51433 15.9978 7.76389 15.0733 7.24114C14.1487 6.71838 13.0977 6.44195 12.027 6.43994C11.8844 6.43994 11.7449 6.45135 11.6048 6.46065C10.3992 6.54067 9.2465 6.97062 8.29711 7.69441C8.48032 7.84447 8.68709 8.04494 9.12263 8.4606C9.93793 9.23819 12.0289 10.0437 12.0335 10.1382L12.0341 10.1406Z" fill="url(#paint5_radial_7176_30852)"/>
<path d="M7.73757 7.31056C7.83491 7.37058 7.9152 7.4228 7.98557 7.46992C7.71184 6.54225 7.70017 5.56048 7.95178 4.62695C6.8435 5.14669 5.85873 5.8835 5.05981 6.79076C5.1184 6.78926 6.86121 6.75895 7.73757 7.31056Z" fill="url(#paint6_radial_7176_30852)"/>
<path d="M0.109771 12.6527C1.03697 17.9557 6.00282 22.0072 11.6386 22.1603C16.8558 22.3032 20.1883 19.3711 21.5647 16.5122C22.7308 14.0399 22.8648 11.2269 21.9386 8.66124V8.65014C21.9386 8.64143 21.9367 8.63633 21.9386 8.63903L21.9407 8.65854C22.367 11.3526 20.9515 13.9615 18.7384 15.7292L18.7316 15.7442C14.4196 19.1445 10.2935 17.7952 9.4596 17.2448C9.40132 17.2177 9.34305 17.1896 9.28477 17.1604C6.771 15.9972 5.73219 13.7812 5.95539 11.8784C5.35868 11.887 4.77222 11.7278 4.26707 11.4202C3.76192 11.1125 3.35975 10.6697 3.10931 10.1453C3.76923 9.75393 4.52168 9.53269 5.29495 9.50264C6.06823 9.47259 6.83657 9.63474 7.52677 9.97363C8.94943 10.5988 10.5683 10.6604 12.0372 10.1453C12.0326 10.0508 9.94165 9.24496 9.12636 8.46767C8.69081 8.05201 8.48404 7.85184 8.30083 7.70148C8.20182 7.62029 8.09834 7.54435 7.99084 7.47399C7.91954 7.42688 7.83925 7.37586 7.74284 7.31464C6.86648 6.76303 5.12367 6.79334 5.06601 6.79484H5.06043C4.58427 6.21052 4.61775 4.2838 4.64503 3.88135C4.50417 3.93615 4.36971 4.00527 4.2439 4.08753C3.82355 4.37796 3.43059 4.70385 3.06963 5.06139C2.65681 5.464 2.27957 5.89938 1.94186 6.36298V6.36478V6.36268C1.16951 7.42256 0.621638 8.62004 0.32987 9.886C0.32398 9.90971 -0.102887 11.7164 0.107601 12.6533L0.109771 12.6527Z" fill="url(#paint7_radial_7176_30852)"/>
<path d="M16.2501 8.06103C16.6887 8.47809 17.0644 8.95294 17.3661 9.47156C17.4321 9.51987 17.4938 9.56789 17.5462 9.61441C20.2701 12.0453 18.8429 15.4816 18.7366 15.7247C20.9493 13.9597 22.3636 11.3491 21.9389 8.65405C20.5798 5.37382 18.2747 4.05032 16.3961 1.17224C16.3009 1.02669 16.2058 0.880836 16.1131 0.726878C16.0601 0.638945 16.0176 0.559715 15.9807 0.486788C15.9027 0.340499 15.8425 0.185896 15.8015 0.0261151C15.8016 0.018742 15.7988 0.0116073 15.7938 0.00607202C15.7888 0.000536785 15.7818 -0.00301159 15.7742 -0.00389619C15.7668 -0.00586273 15.759 -0.00586273 15.7516 -0.00389619C15.7501 -0.00389619 15.7476 -0.00119518 15.7457 -0.000594952C15.7439 5.27315e-06 15.7398 0.00270629 15.737 0.00390674C15.2724 0.217287 12.5162 4.44257 16.2516 8.05593L16.2501 8.06103Z" fill="url(#paint8_radial_7176_30852)"/>
<path d="M17.5458 9.61558C17.4934 9.56907 17.4317 9.52105 17.3657 9.47273C17.3412 9.45502 17.317 9.43732 17.291 9.41961C16.4459 8.85291 15.4135 8.61024 14.3941 8.73866C18.7154 10.8304 17.556 18.0331 11.5672 17.763C11.034 17.7418 10.507 17.6434 10.0039 17.471C9.88629 17.4284 9.76869 17.3818 9.6511 17.3312C9.58321 17.3012 9.51532 17.2712 9.44836 17.2375L9.45673 17.2426C10.2919 17.7945 14.4167 19.143 18.7288 15.7421L18.7356 15.7271C18.8431 15.484 20.2704 12.0477 17.5452 9.61678L17.5458 9.61558Z" fill="url(#paint9_radial_7176_30852)"/>
<path d="M6.61841 13.4269C6.61841 13.4269 7.17299 11.426 10.5895 11.426C10.9587 11.426 12.0155 10.4282 12.0344 10.1389C10.5654 10.654 8.94657 10.5924 7.52391 9.9672C6.83371 9.62831 6.06536 9.46616 5.29209 9.49621C4.51881 9.52626 3.76637 9.7475 3.10645 10.1389C3.35689 10.6633 3.75905 11.1061 4.26421 11.4137C4.76936 11.7214 5.35582 11.8805 5.95253 11.872C5.72995 13.7738 6.76844 15.9896 9.2819 17.154C9.33801 17.1801 9.39071 17.2083 9.44837 17.2332C7.98115 16.4995 6.76968 15.1117 6.61841 13.4278V13.4269Z" fill="url(#paint10_radial_7176_30852)"/>
<path d="M23.132 8.05218C22.6099 6.83613 21.551 5.52313 20.7218 5.10808C21.3131 6.21666 21.7235 7.40721 21.9385 8.6374L21.9407 8.65691C20.5823 5.37968 18.2796 4.05618 16.3979 1.1781C16.3027 1.03255 16.2076 0.886695 16.1149 0.732737C16.0619 0.644804 16.0194 0.565574 15.9825 0.492647C15.9045 0.346358 15.8443 0.191756 15.8033 0.0319744C15.8034 0.0246013 15.8006 0.0174666 15.7956 0.0119314C15.7906 0.00639616 15.7836 0.00284779 15.776 0.00196318C15.7686 -3.35317e-06 15.7608 -3.35317e-06 15.7534 0.00196318C15.7519 0.00196318 15.7494 0.0046642 15.7475 0.00526442C15.7457 0.00586465 15.7416 0.00856566 15.7388 0.00976611L15.7435 0.00196318C12.7257 1.7126 11.7011 4.87879 11.6081 6.46339C11.7483 6.45408 11.8871 6.44268 12.0303 6.44268C13.101 6.44468 14.1521 6.72112 15.0766 7.24387C16.0012 7.76663 16.7663 8.51707 17.2941 9.41889C16.449 8.85219 15.4166 8.60952 14.3972 8.73794C18.7185 10.8297 17.5592 18.0324 11.5703 17.7623C11.0371 17.7411 10.5101 17.6427 10.007 17.4703C9.8894 17.4277 9.77181 17.3811 9.65422 17.3305C9.58633 17.3004 9.51844 17.2704 9.45148 17.2368L9.45985 17.2419C9.40157 17.2149 9.34329 17.1868 9.28501 17.1576C9.34112 17.1837 9.39382 17.2119 9.45148 17.2368C7.98426 16.5027 6.77279 15.115 6.62152 13.4314C6.62152 13.4314 7.1761 11.4305 10.5926 11.4305C10.9618 11.4305 12.0186 10.4327 12.0375 10.1434C12.0328 10.0488 9.9419 9.24303 9.12661 8.46574C8.69106 8.05008 8.48429 7.84991 8.30108 7.69955C8.20207 7.61836 8.09858 7.54242 7.99108 7.47206C7.71735 6.54439 7.70568 5.56262 7.95729 4.6291C6.84901 5.14883 5.86424 5.88565 5.06533 6.79291H5.05975C4.58359 6.20859 4.61707 4.28187 4.64435 3.87942C4.50349 3.93422 4.36902 4.00334 4.24322 4.08559C3.82287 4.37603 3.42991 4.70192 3.06895 5.05946C2.65761 5.4632 2.28192 5.89959 1.94582 6.36405V6.36585V6.36375C1.17348 7.42363 0.625607 8.62111 0.333838 9.88707L0.317718 9.9639C0.295089 10.0662 0.193719 10.586 0.17915 10.6977C0.0864296 11.2342 0.027216 11.7757 0.00183105 12.3192V12.3792C0.0071408 15.2899 1.13939 18.0928 3.17508 20.2348C5.21076 22.3767 8.00194 23.702 10.9976 23.9491C13.9933 24.1961 16.9758 23.3468 19.3563 21.569C21.7369 19.7912 23.3424 17.214 23.8561 14.3461C23.8763 14.1961 23.8927 14.0475 23.9107 13.896C24.1582 11.9158 23.8903 9.90715 23.1314 8.05278L23.132 8.05218ZM21.94 8.6497L21.9422 8.66201L21.94 8.6497Z" fill="url(#paint11_linear_7176_30852)"/>
</g>
<defs>
<linearGradient id="paint0_linear_7176_30852" x1="21.5417" y1="3.71733" x2="2.21929" y2="22.9742" gradientUnits="userSpaceOnUse">
<stop offset="0.048" stop-color="#FFF44F"/>
<stop offset="0.111" stop-color="#FFE847"/>
<stop offset="0.225" stop-color="#FFC830"/>
<stop offset="0.368" stop-color="#FF980E"/>
<stop offset="0.401" stop-color="#FF8B16"/>
<stop offset="0.462" stop-color="#FF672A"/>
<stop offset="0.534" stop-color="#FF3647"/>
<stop offset="0.705" stop-color="#E31587"/>
</linearGradient>
<radialGradient id="paint1_radial_7176_30852" cx="0" cy="0" r="1" gradientUnits="userSpaceOnUse" gradientTransform="translate(20.7696 2.70101) scale(25.0478 24.2491)">
<stop offset="0.129" stop-color="#FFBD4F"/>
<stop offset="0.186" stop-color="#FFAC31"/>
<stop offset="0.247" stop-color="#FF9D17"/>
<stop offset="0.283" stop-color="#FF980E"/>
<stop offset="0.403" stop-color="#FF563B"/>
<stop offset="0.467" stop-color="#FF3750"/>
<stop offset="0.71" stop-color="#F5156C"/>
<stop offset="0.782" stop-color="#EB0878"/>
<stop offset="0.86" stop-color="#E50080"/>
</radialGradient>
<radialGradient id="paint2_radial_7176_30852" cx="0" cy="0" r="1" gradientUnits="userSpaceOnUse" gradientTransform="translate(11.4697 12.6047) scale(25.0478 24.2491)">
<stop offset="0.3" stop-color="#960E18"/>
<stop offset="0.351" stop-color="#B11927" stop-opacity="0.74"/>
<stop offset="0.435" stop-color="#DB293D" stop-opacity="0.343"/>
<stop offset="0.497" stop-color="#F5334B" stop-opacity="0.094"/>
<stop offset="0.53" stop-color="#FF3750" stop-opacity="0"/>
</radialGradient>
<radialGradient id="paint3_radial_7176_30852" cx="0" cy="0" r="1" gradientUnits="userSpaceOnUse" gradientTransform="translate(14.5699 -2.70101) scale(18.1441 17.5656)">
<stop offset="0.132" stop-color="#FFF44F"/>
<stop offset="0.252" stop-color="#FFDC3E"/>
<stop offset="0.506" stop-color="#FF9D12"/>
<stop offset="0.526" stop-color="#FF980E"/>
</radialGradient>
<radialGradient id="paint4_radial_7176_30852" cx="0" cy="0" r="1" gradientUnits="userSpaceOnUse" gradientTransform="translate(8.67996 18.9069) scale(11.9256 11.5453)">
<stop offset="0.353" stop-color="#3A8EE6"/>
<stop offset="0.472" stop-color="#5C79F0"/>
<stop offset="0.669" stop-color="#9059FF"/>
<stop offset="1" stop-color="#C139E6"/>
</radialGradient>
<radialGradient id="paint5_radial_7176_30852" cx="0" cy="0" r="1" gradientUnits="userSpaceOnUse" gradientTransform="translate(12.6814 10.523) rotate(-13.1735) scale(6.31301 7.18017)">
<stop offset="0.206" stop-color="#9059FF" stop-opacity="0"/>
<stop offset="0.278" stop-color="#8C4FF3" stop-opacity="0.064"/>
<stop offset="0.747" stop-color="#7716A8" stop-opacity="0.45"/>
<stop offset="0.975" stop-color="#6E008B" stop-opacity="0.6"/>
</radialGradient>
<radialGradient id="paint6_radial_7176_30852" cx="0" cy="0" r="1" gradientUnits="userSpaceOnUse" gradientTransform="translate(11.1599 1.80049) scale(8.58073 8.30712)">
<stop stop-color="#FFE226"/>
<stop offset="0.121" stop-color="#FFDB27"/>
<stop offset="0.295" stop-color="#FFC82A"/>
<stop offset="0.502" stop-color="#FFA930"/>
<stop offset="0.732" stop-color="#FF7E37"/>
<stop offset="0.792" stop-color="#FF7139"/>
</radialGradient>
<radialGradient id="paint7_radial_7176_30852" cx="0" cy="0" r="1" gradientUnits="userSpaceOnUse" gradientTransform="translate(17.9799 -3.60136) scale(36.6107 35.4433)">
<stop offset="0.113" stop-color="#FFF44F"/>
<stop offset="0.456" stop-color="#FF980E"/>
<stop offset="0.622" stop-color="#FF5634"/>
<stop offset="0.716" stop-color="#FF3647"/>
<stop offset="0.904" stop-color="#E31587"/>
</radialGradient>
<radialGradient id="paint8_radial_7176_30852" cx="0" cy="0" r="1" gradientUnits="userSpaceOnUse" gradientTransform="translate(14.9369 -1.63621) rotate(83.7791) scale(25.9829 17.601)">
<stop stop-color="#FFF44F"/>
<stop offset="0.06" stop-color="#FFE847"/>
<stop offset="0.168" stop-color="#FFC830"/>
<stop offset="0.304" stop-color="#FF980E"/>
<stop offset="0.356" stop-color="#FF8B16"/>
<stop offset="0.455" stop-color="#FF672A"/>
<stop offset="0.57" stop-color="#FF3647"/>
<stop offset="0.737" stop-color="#E31587"/>
</radialGradient>
<radialGradient id="paint9_radial_7176_30852" cx="0" cy="0" r="1" gradientUnits="userSpaceOnUse" gradientTransform="translate(11.1599 4.80178) scale(22.853 22.1243)">
<stop offset="0.137" stop-color="#FFF44F"/>
<stop offset="0.48" stop-color="#FF980E"/>
<stop offset="0.592" stop-color="#FF5634"/>
<stop offset="0.655" stop-color="#FF3647"/>
<stop offset="0.904" stop-color="#E31587"/>
</radialGradient>
<radialGradient id="paint10_radial_7176_30852" cx="0" cy="0" r="1" gradientUnits="userSpaceOnUse" gradientTransform="translate(17.0498 6.00211) scale(25.0137 24.2161)">
<stop offset="0.094" stop-color="#FFF44F"/>
<stop offset="0.231" stop-color="#FFE141"/>
<stop offset="0.509" stop-color="#FFAF1E"/>
<stop offset="0.626" stop-color="#FF980E"/>
</radialGradient>
<linearGradient id="paint11_linear_7176_30852" x1="21.2999" y1="3.61829" x2="4.88045" y2="20.5816" gradientUnits="userSpaceOnUse">
<stop offset="0.167" stop-color="#FFF44F" stop-opacity="0.8"/>
<stop offset="0.266" stop-color="#FFF44F" stop-opacity="0.634"/>
<stop offset="0.489" stop-color="#FFF44F" stop-opacity="0.217"/>
<stop offset="0.6" stop-color="#FFF44F" stop-opacity="0"/>
</linearGradient>
<clipPath id="clip0_7176_30852">
<rect width="24" height="24" fill="white"/>
</clipPath>
</defs>
</svg>
