<svg width="24" height="24" viewBox="0 0 24 24" fill="none" xmlns="http://www.w3.org/2000/svg">
<path d="M20 6H12L10.59 4.59C10.21 4.21 9.7 4 9.17 4H4C2.9 4 2.01 4.9 2.01 6L2 18C2 19.1 2.9 20 4 20H20C21.1 20 22 19.1 22 18V8C22 6.9 21.1 6 20 6ZM19 18H5C4.45 18 4 17.55 4 17V9C4 8.45 4.45 8 5 8H19C19.55 8 20 8.45 20 9V17C20 17.55 19.55 18 19 18Z" fill="#424D57"/>
<path d="M11.9997 16.0915L11.9997 14.2915L8.99973 14.2915C8.44973 14.2915 7.99973 13.8415 7.99973 13.2915C7.99973 12.7415 8.44973 12.2915 8.99973 12.2915L11.9997 12.2915L11.9997 10.5015C11.9997 10.0515 12.5397 9.83153 12.8497 10.1515L15.6397 12.9515C15.8297 13.1515 15.8297 13.4615 15.6397 13.6615L12.8497 16.4515C12.5397 16.7515 11.9997 16.5315 11.9997 16.0915Z" fill="#424D57"/>
</svg>
