<svg viewBox="0 0 24 24" fill="none" xmlns="http://www.w3.org/2000/svg">
<path d="M8.0496 18.7632C6.7224 17.196 5.8632 14.8824 5.8056 12.2832C5.8056 12.276 5.8056 11.724 5.8056 11.7168C5.8632 9.1176 6.7224 6.804 8.0496 5.2368C9.7728 3.0024 12.3312 1.584 15.1872 1.584C16.944 1.584 18.5904 2.1216 19.9968 3.0552C17.8848 1.164 15.1008 0.012 12.0456 0C12.0312 0 12.0144 0 12 0C5.3736 0 0 5.3736 0 12C0 18.4368 5.0664 23.688 11.4288 23.9856C11.6184 23.9952 11.808 24 12 24C15.072 24 17.8752 22.8456 19.9968 20.9472C18.5904 21.8784 16.9464 22.416 15.1872 22.416C12.3312 22.416 9.7728 20.9976 8.0496 18.7632Z" fill="url(#paint0_linear_7177_30765)"/>
<path d="M8.04956 5.23678C9.15116 3.93598 10.572 3.15358 12.1272 3.15358C15.6216 3.15358 18.4512 7.11358 18.4512 12C18.4512 16.8864 15.6192 20.8464 12.1272 20.8464C10.5744 20.8464 9.15116 20.0616 8.04956 18.7632C9.77276 20.9976 12.3312 22.416 15.1872 22.416C16.944 22.416 18.5904 21.8784 19.9968 20.9472C22.4544 18.7488 24 15.5544 24 12C24 8.44558 22.4544 5.25118 19.9968 3.05518C18.5904 2.12158 16.9464 1.58398 15.1872 1.58398C12.3312 1.58398 9.77276 3.00238 8.04956 5.23678Z" fill="url(#paint1_linear_7177_30765)"/>
<defs>
<linearGradient id="paint0_linear_7177_30765" x1="9.99895" y1="0.391296" x2="9.99895" y2="23.6507" gradientUnits="userSpaceOnUse">
<stop offset="0.3" stop-color="#FF1B2D"/>
<stop offset="0.4381" stop-color="#FA1A2C"/>
<stop offset="0.5939" stop-color="#ED1528"/>
<stop offset="0.7581" stop-color="#D60E21"/>
<stop offset="0.9272" stop-color="#B70519"/>
<stop offset="1" stop-color="#A70014"/>
</linearGradient>
<linearGradient id="paint1_linear_7177_30765" x1="16.025" y1="1.7622" x2="16.025" y2="22.334" gradientUnits="userSpaceOnUse">
<stop stop-color="#9C0000"/>
<stop offset="0.7" stop-color="#FF4B4B"/>
</linearGradient>
</defs>
</svg>
