<svg viewBox="0 0 24 24" fill="none" xmlns="http://www.w3.org/2000/svg">
<path d="M24 12C24 13.5759 23.6896 15.1363 23.0866 16.5922C22.4835 18.0481 21.5996 19.371 20.4853 20.4853C19.371 21.5996 18.0481 22.4835 16.5922 23.0866C15.1363 23.6896 13.5759 24 12 24C8.8174 24 5.76515 22.7357 3.51472 20.4853C1.26428 18.2348 -2.03197e-07 15.1826 0 12C-2.03197e-07 8.8174 1.26428 5.76516 3.51472 3.51472C5.76515 1.26428 8.8174 8.12789e-07 12 0C13.5759 -1.00613e-07 15.1363 0.31039 16.5922 0.913447C18.0481 1.5165 19.371 2.40042 20.4853 3.51472C21.5996 4.62902 22.4835 5.95189 23.0866 7.4078C23.6896 8.8637 24 10.4241 24 12Z" fill="url(#paint0_linear_7177_30769)"/>
<path d="M23.0597 12.0001C23.0597 14.9333 21.8945 17.7464 19.8204 19.8205C17.7463 21.8946 14.9332 23.0598 12 23.0598C9.06679 23.0598 6.25371 21.8946 4.17962 19.8205C2.10552 17.7464 0.940308 14.9333 0.940308 12.0001C0.940308 9.06691 2.10552 6.25383 4.17962 4.17974C6.25371 2.10564 9.06679 0.94043 12 0.94043C14.9332 0.94043 17.7463 2.10564 19.8204 4.17974C21.8945 6.25383 23.0597 9.06691 23.0597 12.0001Z" fill="url(#paint1_radial_7177_30769)"/>
<path d="M11.9999 1.5166C11.9106 1.5166 11.8387 1.58851 11.8387 1.67784V3.53776C11.8387 3.62709 11.9106 3.699 11.9999 3.699C12.0892 3.699 12.1611 3.62709 12.1611 3.53776V1.67784C12.1611 1.58851 12.0892 1.5166 11.9999 1.5166ZM10.945 1.58327C10.9343 1.58212 10.9233 1.58212 10.9122 1.58341C10.8234 1.59268 10.7593 1.67166 10.7686 1.76051L10.8499 2.53862C10.8592 2.62747 10.9382 2.69154 11.027 2.68226C11.1158 2.67299 11.1799 2.594 11.1706 2.50515L11.0894 1.72705C11.0813 1.6493 11.0198 1.59053 10.945 1.58327H10.945ZM13.0621 1.58404C12.9874 1.59124 12.9259 1.65001 12.9177 1.72774L12.8358 2.50578C12.8265 2.59462 12.8906 2.67369 12.9794 2.68303C13.0683 2.69238 13.1472 2.62837 13.1566 2.53953L13.2384 1.76143C13.2478 1.67258 13.1837 1.59358 13.0949 1.58424C13.0837 1.58309 13.0728 1.58309 13.0621 1.58404V1.58404ZM9.86142 1.74041C9.85069 1.74049 9.83978 1.74156 9.82886 1.74386C9.74146 1.76236 9.68599 1.84763 9.70449 1.93503L10.0897 3.75457C10.1082 3.84197 10.1935 3.89744 10.2809 3.87894C10.3682 3.86043 10.4237 3.77523 10.4052 3.68784L10.02 1.86822C10.0038 1.79175 9.93655 1.73972 9.86143 1.74031L9.86142 1.74041ZM14.1457 1.74194C14.0706 1.74118 14.0033 1.79325 13.987 1.86971L13.6005 3.68905C13.5819 3.77643 13.6374 3.86172 13.7247 3.88029C13.8121 3.89887 13.8974 3.84344 13.916 3.75606L14.3025 1.93672C14.3211 1.84934 14.2656 1.76405 14.1783 1.74549C14.1673 1.74319 14.1564 1.74204 14.1457 1.74204L14.1457 1.74194ZM8.82728 2.03199C8.8064 2.03008 8.78484 2.03238 8.7636 2.03943C8.67864 2.06705 8.63244 2.15761 8.66005 2.24257L8.90181 2.98664C8.92943 3.07161 9.02006 3.1178 9.10502 3.09019C9.18998 3.06257 9.23611 2.97195 9.20851 2.88699L8.96674 2.14291C8.94606 2.07919 8.8899 2.03731 8.82728 2.03198V2.03199ZM15.174 2.03238C15.1114 2.0377 15.0552 2.07959 15.0345 2.14331L14.7926 2.88732C14.765 2.97227 14.8112 3.06291 14.8961 3.09052C14.9811 3.11814 15.0717 3.07198 15.0993 2.98704L15.3412 2.24296C15.3688 2.158 15.3227 2.06737 15.2377 2.03976C15.2165 2.03286 15.1949 2.0306 15.174 2.03236V2.03238ZM7.80463 2.40623C7.78367 2.40661 7.76248 2.41121 7.74207 2.42029C7.66048 2.45656 7.62394 2.55147 7.66022 2.6331L8.41565 4.33267C8.45193 4.41429 8.54682 4.45079 8.62845 4.41451C8.71004 4.37823 8.74665 4.28333 8.71037 4.2017L7.95487 2.50213C7.92768 2.4409 7.86747 2.40501 7.80463 2.40623ZM16.2082 2.41193C16.1454 2.41078 16.0851 2.44645 16.0578 2.50762L15.3001 4.20615C15.2637 4.28773 15.3001 4.38271 15.3816 4.4191C15.4632 4.45549 15.5582 4.41912 15.5946 4.33754L16.3523 2.63902C16.3887 2.55743 16.3523 2.46246 16.2708 2.42606C16.2504 2.41698 16.2291 2.41239 16.2082 2.41193V2.41193ZM6.85539 2.90848C6.82444 2.90618 6.79254 2.91307 6.76353 2.92985C6.68616 2.97451 6.65985 3.07275 6.70451 3.15011L7.0957 3.82766C7.14036 3.90502 7.23859 3.93133 7.31596 3.88666C7.39332 3.842 7.41964 3.74377 7.37497 3.66641L6.98379 2.98887C6.95587 2.94051 6.90699 2.91209 6.85539 2.90848V2.90848ZM17.1444 2.90848C17.0928 2.91192 17.044 2.9405 17.0161 2.98885L16.6248 3.6664C16.5802 3.74376 16.6066 3.84199 16.6839 3.88665C16.7613 3.93132 16.8595 3.90501 16.9042 3.82764L17.2954 3.1501C17.34 3.07273 17.3137 2.9745 17.2363 2.92983C17.2073 2.91309 17.1754 2.90632 17.1444 2.90846V2.90848ZM5.93365 3.48337C5.90262 3.48452 5.87155 3.49448 5.84444 3.51413C5.77213 3.56659 5.75614 3.66702 5.80862 3.73933L6.90072 5.24481C6.95317 5.31712 7.05368 5.33311 7.12599 5.28067C7.1983 5.22821 7.21428 5.12777 7.16181 5.05546L6.06963 3.54999C6.03684 3.50479 5.98534 3.48162 5.93365 3.48339V3.48337ZM18.0777 3.49157C18.026 3.48965 17.9745 3.51283 17.9416 3.55796L16.8475 5.06198C16.7949 5.13421 16.8108 5.23469 16.883 5.28725C16.9553 5.3398 17.0557 5.32398 17.1083 5.25177L18.2024 3.74776C18.255 3.67552 18.2391 3.57504 18.1669 3.52248C18.1398 3.50279 18.1087 3.49268 18.0777 3.49157ZM5.10975 4.17433C5.06859 4.17203 5.02659 4.18578 4.99339 4.21567C4.927 4.27544 4.92167 4.37698 4.98145 4.44338L5.50492 5.02489C5.56468 5.09128 5.66622 5.09662 5.73261 5.03683C5.79901 4.97707 5.80436 4.87546 5.74457 4.80906L5.22117 4.22762C5.19129 4.19441 5.15092 4.17648 5.10975 4.17431V4.17433ZM18.8912 4.17548C18.8501 4.17778 18.8097 4.19559 18.7798 4.22879L18.2563 4.81016C18.1966 4.87655 18.2019 4.97816 18.2683 5.03793C18.3346 5.09771 18.4362 5.09235 18.496 5.02598L19.0195 4.44461C19.0793 4.37822 19.0739 4.27661 19.0076 4.21684C18.9743 4.18696 18.9324 4.17334 18.8913 4.1755L18.8912 4.17548ZM4.3201 4.93285C4.27893 4.93515 4.23863 4.95296 4.20874 4.98616C4.14897 5.05255 4.15433 5.15409 4.2207 5.21386L5.603 6.45823C5.6694 6.518 5.77094 6.51266 5.8307 6.44628C5.89047 6.37989 5.8852 6.27834 5.81879 6.21857L4.43642 4.9742C4.4032 4.94432 4.36123 4.9307 4.32006 4.93286L4.3201 4.93285ZM19.6847 4.93828C19.6436 4.93598 19.6015 4.9497 19.5683 4.97956L18.1852 6.22295C18.1187 6.28267 18.1133 6.38422 18.173 6.45066C18.2327 6.51709 18.3343 6.52249 18.4008 6.46276L19.784 5.21937C19.8504 5.15964 19.8558 5.0581 19.7961 4.99166C19.7662 4.95845 19.7259 4.94047 19.6847 4.93828H19.6847ZM3.66342 5.77722C3.61173 5.7753 3.56019 5.7986 3.52738 5.84375C3.47487 5.91602 3.49079 6.01644 3.56308 6.06895L4.19601 6.52881C4.26828 6.58132 4.3687 6.56547 4.42121 6.49318C4.47372 6.42091 4.45783 6.32042 4.38559 6.26792L3.75264 5.80805C3.72556 5.78836 3.69445 5.77832 3.66343 5.77721L3.66342 5.77722ZM20.3408 5.78308C20.3097 5.78423 20.2787 5.79415 20.2516 5.81384L19.6183 6.27329C19.546 6.32575 19.53 6.42625 19.5825 6.49856C19.6349 6.57087 19.7354 6.58679 19.8077 6.53434L20.441 6.07489C20.5133 6.02243 20.5292 5.922 20.4767 5.8497C20.444 5.8045 20.3925 5.78132 20.3408 5.78309V5.78308ZM3.04977 6.67789C2.99817 6.68134 2.94936 6.70992 2.92144 6.75827C2.87677 6.83564 2.90309 6.93386 2.98045 6.97853L4.59115 7.90848C4.66852 7.95315 4.76675 7.92683 4.81142 7.84947C4.85608 7.77211 4.82977 7.67388 4.7524 7.62921L3.14169 6.69925C3.11269 6.68251 3.08072 6.67573 3.04977 6.67788V6.67789ZM20.95 6.67789C20.9191 6.6756 20.8871 6.68249 20.8581 6.69927L19.2474 7.62922C19.17 7.67389 19.1437 7.77212 19.1884 7.84949C19.2331 7.92685 19.3313 7.95316 19.4086 7.9085L21.0194 6.97855C21.0968 6.93388 21.1231 6.83565 21.0784 6.75829C21.0505 6.70993 21.0016 6.68152 20.95 6.67791V6.67789ZM2.58579 7.63791C2.52295 7.63638 2.4627 7.67235 2.4354 7.73353C2.39901 7.81512 2.43538 7.91009 2.51697 7.94648L3.23153 8.26521C3.31312 8.3016 3.4081 8.26524 3.44449 8.18365C3.48088 8.10206 3.44444 8.00709 3.36286 7.9707L2.64836 7.65197C2.62798 7.64285 2.60673 7.63833 2.58579 7.63791ZM21.4171 7.64454C21.3962 7.64492 21.3749 7.64952 21.3545 7.6586L20.6398 7.97677C20.5582 8.01312 20.5217 8.10804 20.558 8.18965C20.5944 8.27126 20.6894 8.30776 20.771 8.27143L21.4857 7.95318C21.5673 7.91686 21.6037 7.82191 21.5674 7.7403C21.5402 7.67909 21.48 7.64329 21.4171 7.64454ZM2.17228 8.6413C2.10965 8.64655 2.05351 8.68839 2.03275 8.7521C2.0051 8.83703 2.05113 8.9277 2.13609 8.95537L3.90449 9.53159C3.98943 9.55925 4.08009 9.51316 4.10777 9.42825C4.13543 9.34331 4.08938 9.25264 4.00442 9.22497L2.23603 8.64875C2.21481 8.64181 2.19316 8.63955 2.17228 8.64132V8.6413ZM21.8299 8.6482C21.809 8.64629 21.7875 8.64858 21.7662 8.65563L19.9974 9.2306C19.9124 9.25822 19.8663 9.34885 19.8939 9.43381C19.9215 9.51876 20.0122 9.56491 20.0971 9.53729L21.8659 8.96232C21.9508 8.9347 21.997 8.84407 21.9694 8.75912C21.9487 8.6954 21.8925 8.6535 21.8299 8.64819V8.6482ZM1.91466 9.69458C1.83953 9.69382 1.77216 9.74596 1.75591 9.82242C1.73733 9.9098 1.79276 9.99509 1.88013 10.0137L2.64544 10.1763C2.73282 10.1949 2.8181 10.1394 2.83667 10.0521C2.85525 9.96469 2.79983 9.87941 2.71246 9.86084L1.94723 9.6982C1.93631 9.6959 1.92538 9.69475 1.91466 9.69475V9.69458ZM22.0855 9.69612C22.0748 9.69621 22.0639 9.69765 22.053 9.69956L21.2877 9.86213C21.2003 9.88071 21.1449 9.96592 21.1635 10.0533C21.1821 10.1407 21.2673 10.1962 21.3547 10.1776L22.12 10.015C22.2073 9.99645 22.2628 9.91117 22.2443 9.82379C22.228 9.74733 22.1606 9.69532 22.0855 9.69595L22.0855 9.69612ZM1.71966 10.7541C1.64488 10.7612 1.58333 10.8199 1.57511 10.8976C1.56573 10.9865 1.62964 11.0656 1.71848 11.0749L3.56808 11.2705C3.65692 11.2799 3.73602 11.2159 3.74541 11.1271C3.75479 11.0382 3.69081 10.9591 3.60198 10.9497L1.75237 10.7542C1.74126 10.753 1.73034 10.753 1.71966 10.7541V10.7541ZM22.2819 10.768C22.2712 10.7668 22.2602 10.7668 22.2491 10.7681L20.3993 10.9611C20.3104 10.9704 20.2464 11.0494 20.2556 11.1383C20.2649 11.2271 20.3439 11.2912 20.4327 11.2819L22.2826 11.0888C22.3714 11.0796 22.4355 11.0006 22.4262 10.9117C22.4181 10.834 22.3566 10.7752 22.2819 10.768L22.2819 10.768ZM1.68834 11.8386C1.599 11.8386 1.5271 11.9105 1.5271 11.9998C1.5271 12.0891 1.599 12.161 1.68834 12.161H2.4707C2.56003 12.161 2.632 12.0891 2.632 11.9998C2.632 11.9105 2.56003 11.8386 2.4707 11.8386H1.68834ZM21.5291 11.8386C21.4398 11.8386 21.3679 11.9105 21.3679 11.9998C21.3679 12.0891 21.4398 12.161 21.5291 12.161H22.3115C22.4008 12.161 22.4727 12.0891 22.4727 11.9998C22.4727 11.9105 22.4008 11.8386 22.3115 11.8386H21.5291ZM3.59982 12.7176C3.58914 12.7164 3.57821 12.7164 3.5671 12.7177L1.71721 12.9108C1.62836 12.92 1.56432 12.999 1.57358 13.0879C1.58285 13.1767 1.66184 13.2408 1.75068 13.2315L3.60058 13.0385C3.68944 13.0292 3.75348 12.9502 3.74422 12.8613C3.73609 12.7836 3.67458 12.7248 3.59981 12.7176H3.59982ZM20.399 12.729C20.3242 12.7362 20.2627 12.7948 20.2545 12.8726C20.2451 12.9614 20.309 13.0405 20.3978 13.0499L22.2474 13.2454C22.3363 13.2548 22.4154 13.1908 22.4248 13.102C22.4341 13.0132 22.3702 12.9341 22.2813 12.9247L20.4318 12.7291C20.4207 12.728 20.4097 12.728 20.399 12.729L20.399 12.729ZM2.67773 13.8183C2.667 13.8184 2.65609 13.8195 2.64517 13.8218L1.87986 13.9843C1.79248 14.0029 1.73708 14.0882 1.75564 14.1756C1.77422 14.2629 1.8595 14.3183 1.94689 14.2998L2.71219 14.1373C2.79957 14.1187 2.85496 14.0334 2.8364 13.946C2.82016 13.8696 2.75286 13.8176 2.67774 13.8182L2.67773 13.8183ZM21.3219 13.8198C21.2467 13.8191 21.1794 13.8712 21.1632 13.9476C21.1446 14.035 21.2 14.1203 21.2874 14.1389L22.0527 14.3015C22.14 14.3201 22.2253 14.2647 22.2439 14.1773C22.2625 14.09 22.207 14.0046 22.1197 13.986L21.3544 13.8234C21.3435 13.8211 21.3326 13.8199 21.3219 13.8199L21.3219 13.8198ZM3.96643 14.4549C3.94555 14.453 3.92399 14.4553 3.90275 14.4624L2.13394 15.0373C2.04898 15.065 2.00284 15.1556 2.03045 15.2405C2.05807 15.3255 2.1487 15.3716 2.23366 15.344L4.00241 14.7691C4.08737 14.7414 4.13357 14.6508 4.10596 14.5658C4.08523 14.5021 4.02906 14.4602 3.96643 14.4549V14.4549ZM20.0316 14.4606C19.969 14.4659 19.9129 14.5077 19.8921 14.5714C19.8644 14.6564 19.9105 14.747 19.9954 14.7747L21.7639 15.3509C21.8488 15.3786 21.9395 15.3325 21.9671 15.2476C21.9948 15.1627 21.9487 15.072 21.8638 15.0443L20.0954 14.4681C20.0742 14.4612 20.0525 14.4589 20.0316 14.4607V14.4606ZM3.29146 15.7143C3.27051 15.7147 3.24929 15.7192 3.22889 15.7283L2.51412 16.0465C2.4325 16.0828 2.39608 16.1778 2.43241 16.2594C2.46876 16.341 2.56369 16.3774 2.6453 16.3411L3.36007 16.0229C3.44168 15.9866 3.47811 15.8916 3.44178 15.81C3.41454 15.7488 3.3543 15.713 3.29146 15.7143V15.7143ZM20.7058 15.7204C20.6429 15.7189 20.5827 15.7548 20.5554 15.816C20.519 15.8976 20.5554 15.9926 20.6369 16.029L21.3514 16.3477C21.433 16.3841 21.528 16.3477 21.5644 16.2661C21.6008 16.1846 21.5644 16.0896 21.4828 16.0532L20.7683 15.7345C20.748 15.7253 20.7267 15.7208 20.7058 15.7204V15.7204ZM4.68309 16.0698C4.65214 16.0675 4.62017 16.0744 4.59115 16.0912L2.98045 17.0212C2.90309 17.0658 2.87677 17.164 2.92144 17.2414C2.96611 17.3188 3.06433 17.3451 3.14169 17.3004L4.7524 16.3705C4.82977 16.3259 4.85608 16.2276 4.81142 16.1502C4.78349 16.1019 4.73469 16.0734 4.68309 16.0698V16.0698ZM19.3168 16.0698C19.2652 16.0733 19.2163 16.1019 19.1884 16.1502C19.1437 16.2276 19.17 16.3259 19.2474 16.3705L20.8581 17.3004C20.9355 17.3451 21.0338 17.3188 21.0784 17.2414C21.1231 17.164 21.0968 17.0658 21.0194 17.0211L19.4086 16.0912C19.3796 16.0744 19.3477 16.0677 19.3168 16.0698V16.0698ZM4.28133 17.4345C4.2503 17.4357 4.21924 17.4457 4.19212 17.4654L3.5589 17.9248C3.48659 17.9773 3.4706 18.0777 3.52304 18.15C3.5755 18.2223 3.67594 18.2383 3.74825 18.1858L4.38153 17.7264C4.45384 17.6739 4.46983 17.5735 4.41738 17.5012C4.38459 17.456 4.33302 17.4327 4.28133 17.4345V17.4345ZM19.7146 17.44C19.663 17.438 19.6114 17.4613 19.5786 17.5065C19.5261 17.5788 19.542 17.6792 19.6143 17.7318L20.2472 18.1916C20.3195 18.2441 20.4199 18.2282 20.4724 18.1559C20.5249 18.0836 20.5091 17.9832 20.4368 17.9307L19.8039 17.4709C19.7768 17.4512 19.7457 17.441 19.7147 17.4399L19.7146 17.44ZM5.71548 17.4956C5.67432 17.4933 5.63234 17.507 5.59912 17.5369L4.21592 18.7803C4.14949 18.84 4.14408 18.9416 4.20381 19.008C4.26353 19.0744 4.36508 19.0798 4.43152 19.0201L5.81472 17.7767C5.88115 17.717 5.88656 17.6154 5.82683 17.549C5.79699 17.5158 5.75664 17.4978 5.71548 17.4956ZM18.2805 17.5001C18.2393 17.5024 18.199 17.5202 18.1691 17.5534C18.1093 17.6198 18.1147 17.7213 18.181 17.7811L19.5633 19.0255C19.6297 19.0852 19.7313 19.0799 19.7911 19.0135C19.8509 18.9471 19.8455 18.8456 19.7792 18.7858L18.3968 17.5414C18.3636 17.5115 18.3217 17.4979 18.2805 17.5001V17.5001ZM7.0277 18.6813C6.97601 18.6794 6.92442 18.7025 6.89158 18.7477L5.79746 20.2517C5.74491 20.324 5.76072 20.4245 5.83293 20.477C5.90517 20.5296 6.00565 20.5137 6.0582 20.4415L7.15232 18.9375C7.20487 18.8652 7.18907 18.7648 7.11686 18.7122C7.08977 18.6925 7.05872 18.6824 7.0277 18.6813ZM16.9631 18.6881C16.9321 18.6892 16.901 18.6991 16.8739 18.7188C16.8016 18.7713 16.7856 18.8717 16.838 18.944L17.9301 20.4495C17.9826 20.5218 18.083 20.5378 18.1554 20.4854C18.2277 20.4329 18.2436 20.3325 18.1912 20.2602L17.0991 18.7547C17.0663 18.7095 17.0148 18.6863 16.9631 18.6881V18.6881ZM5.61526 18.9204C5.5741 18.9227 5.53374 18.9405 5.50385 18.9737L4.98038 19.555C4.9206 19.6214 4.9259 19.723 4.99229 19.7828C5.05868 19.8426 5.16022 19.8372 5.21999 19.7708L5.74353 19.1895C5.80332 19.1231 5.79796 19.0215 5.73159 18.9617C5.69837 18.9318 5.65645 18.9182 5.61529 18.9203L5.61526 18.9204ZM18.3836 18.9211C18.3424 18.9188 18.3005 18.9326 18.2673 18.9625C18.2009 19.0222 18.1955 19.1238 18.2553 19.1902L18.7787 19.7717C18.8385 19.8381 18.94 19.8434 19.0064 19.7836C19.0728 19.7239 19.0781 19.6223 19.0183 19.5559L18.4949 18.9744C18.4651 18.9412 18.4247 18.9233 18.3835 18.9211L18.3836 18.9211ZM8.5556 19.5661C8.49276 19.5646 8.43257 19.6005 8.40528 19.6617L7.64749 21.3603C7.6111 21.4418 7.64747 21.5368 7.72906 21.5732C7.81064 21.6096 7.90561 21.5732 7.942 21.4916L8.69979 19.7931C8.73618 19.7115 8.69981 19.6166 8.61822 19.5802C8.59784 19.5711 8.57654 19.5665 8.5556 19.5661ZM15.434 19.5708C15.413 19.5712 15.3918 19.5757 15.3713 19.5848C15.2898 19.621 15.2532 19.7159 15.2895 19.7976L16.0449 21.4971C16.0812 21.5787 16.1762 21.6153 16.2578 21.579C16.3394 21.5427 16.3759 21.4478 16.3396 21.3662L15.5842 19.6666C15.557 19.6054 15.4968 19.5696 15.434 19.5708ZM7.22402 20.0913C7.17243 20.0947 7.12361 20.1233 7.0957 20.1716L6.70451 20.8492C6.65985 20.9265 6.68616 21.0248 6.76353 21.0694C6.84089 21.1141 6.93913 21.0878 6.98379 21.0104L7.37497 20.3329C7.41964 20.2555 7.39332 20.1573 7.31596 20.1126C7.28696 20.0959 7.25498 20.0891 7.22402 20.0912V20.0913ZM16.7758 20.0913C16.7448 20.089 16.7129 20.0959 16.6839 20.1126C16.6066 20.1573 16.5802 20.2555 16.6249 20.3329L17.0161 21.0104C17.0607 21.0878 17.159 21.1141 17.2363 21.0695C17.3137 21.0248 17.34 20.9266 17.2954 20.8492L16.9042 20.1716C16.8762 20.1233 16.8274 20.0949 16.7758 20.0913V20.0913ZM10.2426 20.1155C10.1674 20.1148 10.1001 20.1669 10.0839 20.2433L9.69738 22.0627C9.67881 22.15 9.73424 22.2353 9.82161 22.2539C9.90899 22.2725 9.99428 22.217 10.0128 22.1297L10.3994 20.3103C10.4179 20.223 10.3625 20.1377 10.2751 20.1191C10.2642 20.1168 10.2533 20.1157 10.2426 20.1157L10.2426 20.1155ZM13.7515 20.1167C13.7408 20.1168 13.73 20.1178 13.719 20.1201C13.6316 20.1386 13.5762 20.2238 13.5947 20.3112L13.9799 22.1309C13.9984 22.2183 14.0836 22.2737 14.171 22.2552C14.2584 22.2367 14.3139 22.1515 14.2954 22.0641L13.9101 20.2446C13.8939 20.1681 13.8267 20.1161 13.7515 20.1166L13.7515 20.1167ZM11.9999 20.3002C11.9106 20.3002 11.8387 20.3721 11.8387 20.4615V22.3214C11.8387 22.4107 11.9106 22.4826 11.9999 22.4826C12.0892 22.4826 12.1611 22.4107 12.1611 22.3214V20.4615C12.1611 20.3721 12.0892 20.3002 11.9999 20.3002ZM9.04002 20.9012C8.9774 20.9065 8.9212 20.9484 8.90049 21.0121L8.65866 21.7562C8.63104 21.8412 8.6772 21.9318 8.76215 21.9594C8.8471 21.987 8.93773 21.9408 8.96535 21.8559L9.20719 21.1119C9.23481 21.0269 9.18864 20.9363 9.1037 20.9086C9.08248 20.9018 9.0609 20.8995 9.04002 20.9012V20.9012ZM14.9585 20.9016C14.9377 20.8997 14.9161 20.902 14.8949 20.909C14.8099 20.9366 14.7637 21.0272 14.7913 21.1122L15.0331 21.8563C15.0607 21.9412 15.1513 21.9874 15.2363 21.9597C15.3212 21.9321 15.3674 21.8416 15.3398 21.7566L15.098 21.0125C15.0773 20.9488 15.0212 20.9069 14.9585 20.9016V20.9016ZM10.9878 21.316C10.913 21.3232 10.8514 21.3819 10.8432 21.4596L10.7614 22.2377C10.7521 22.3266 10.8161 22.4056 10.9049 22.4149C10.9938 22.4243 11.0729 22.3603 11.0822 22.2714L11.164 21.4934C11.1733 21.4046 11.1093 21.3255 11.0205 21.3161C11.0094 21.315 10.9984 21.315 10.9877 21.316L10.9878 21.316ZM13.0056 21.3168C12.9949 21.3156 12.9839 21.3156 12.9728 21.3169C12.8839 21.3262 12.8199 21.4052 12.8291 21.494L12.9104 22.2722C12.9197 22.361 12.9987 22.425 13.0875 22.4158C13.1764 22.4065 13.2405 22.3275 13.2312 22.2386L13.15 21.4605C13.1418 21.3828 13.0803 21.324 13.0056 21.3168L13.0056 21.3168Z" fill="#F4F2F3"/>
<g opacity="0.409" filter="url(#filter0_f_7177_30769)">
<path d="M19.5577 5.5498L10.7357 10.6755L5.15771 19.4567L13.3178 13.4126L19.5577 5.5498Z" fill="black"/>
</g>
<path d="M13.2644 13.324L10.7357 10.6759L19.7059 4.64161L13.2644 13.324Z" fill="#FF5150"/>
<path d="M13.2646 13.3239L10.7359 10.6757L4.29436 19.3581L13.2646 13.3239Z" fill="#F1F1F1"/>
<path opacity="0.243" d="M4.29419 19.3577L13.2644 13.3235L19.7059 4.64111L4.29419 19.3577Z" fill="black"/>
<defs>
<filter id="filter0_f_7177_30769" x="4.48439" y="4.87648" width="15.7467" height="15.2534" filterUnits="userSpaceOnUse" color-interpolation-filters="sRGB">
<feFlood flood-opacity="0" result="BackgroundImageFix"/>
<feBlend mode="normal" in="SourceGraphic" in2="BackgroundImageFix" result="shape"/>
<feGaussianBlur stdDeviation="0.336663" result="effect1_foregroundBlur_7177_30769"/>
</filter>
<linearGradient id="paint0_linear_7177_30769" x1="12" y1="24" x2="12" y2="0" gradientUnits="userSpaceOnUse">
<stop stop-color="#BDBDBD"/>
<stop offset="1" stop-color="white"/>
</linearGradient>
<radialGradient id="paint1_radial_7177_30769" cx="0" cy="0" r="1" gradientUnits="userSpaceOnUse" gradientTransform="translate(12.0503 10.3876) scale(12.0001)">
<stop stop-color="#06C2E7"/>
<stop offset="0.25" stop-color="#0DB8EC"/>
<stop offset="0.5" stop-color="#12AEF1"/>
<stop offset="0.75" stop-color="#1F86F9"/>
<stop offset="1" stop-color="#107DDD"/>
</radialGradient>
</defs>
</svg>
