<svg width="24" height="24" viewBox="0 0 24 24" fill="none" xmlns="http://www.w3.org/2000/svg">
<path d="M13 5C13 7.20914 11.2091 9 9 9C6.79086 9 5 7.20914 5 5C5 2.79086 6.79086 1 9 1C11.2091 1 13 2.79086 13 5Z" fill="#424D57"/>
<path d="M17.5 13.5C17.5 13.2239 17.2761 13 17 13C16.7239 13 16.5 13.2239 16.5 13.5V16C16.5 16.1326 16.5527 16.2598 16.6464 16.3536L18.1464 17.8536C18.3417 18.0488 18.6583 18.0488 18.8536 17.8536C19.0488 17.6583 19.0488 17.3417 18.8536 17.1464L17.5 15.7929V13.5Z" fill="#424D57"/>
<path fill-rule="evenodd" clip-rule="evenodd" d="M17 10C13.6863 10 11 12.6863 11 16C11 19.3137 13.6863 22 17 22C20.3137 22 23 19.3137 23 16C23 12.6863 20.3137 10 17 10ZM13 16C13 13.7909 14.7909 12 17 12C19.2091 12 21 13.7909 21 16C21 18.2091 19.2091 20 17 20C14.7909 20 13 18.2091 13 16Z" fill="#424D57"/>
<path d="M10.6526 11.13C9.61616 12.4788 9 14.1675 9 16C9 16.3387 9.02104 16.6724 9.06189 17H2C1.45 17 1 16.55 1 16V15C1 12.34 6.33 11 9 11C9.4803 11 10.0467 11.0434 10.6526 11.13Z" fill="#424D57"/>
</svg>
