<svg width="24" height="24" viewBox="0 0 24 24" fill="none" xmlns="http://www.w3.org/2000/svg">
<path d="M21 6C21 6.24493 20.91 6.48134 20.7473 6.66437C20.5845 6.84741 20.3603 6.96434 20.117 6.993L20 7L16.829 7C16.622 7.58484 16.2388 8.09115 15.7322 8.44925C15.2256 8.80734 14.6204 8.99962 14 8.99962C13.3796 8.99962 12.7744 8.80734 12.2678 8.44925C11.7612 8.09115 11.378 7.58484 11.171 7L4 7C3.74512 6.99972 3.49997 6.90212 3.31463 6.72715C3.1293 6.55218 3.01777 6.31305 3.00283 6.0586C2.98789 5.80416 3.07067 5.55362 3.23426 5.35817C3.39785 5.16271 3.6299 5.0371 3.883 5.007L4 5L11.17 5C11.3671 4.44328 11.724 3.95706 12.1961 3.6022C12.6682 3.24734 13.2344 3.0396 13.824 3.005L14 3L14.176 3.005C14.7656 3.0396 15.3318 3.24734 15.8039 3.6022C16.276 3.95706 16.6329 4.44328 16.83 5L20 5C20.2652 5 20.5196 5.10536 20.7071 5.29289C20.8946 5.48043 21 5.73478 21 6Z" fill="currentcolor"/>
<path d="M21 12C21 12.2449 20.91 12.4813 20.7473 12.6644C20.5845 12.8474 20.3603 12.9643 20.117 12.993L20 13L10.829 13C10.622 13.5848 10.2388 14.0912 9.73217 14.4492C9.22555 14.8073 8.6204 14.9996 8 14.9996C7.3796 14.9996 6.77445 14.8073 6.26782 14.4492C5.7612 14.0912 5.37802 13.5848 5.171 13L4 13C3.74512 12.9997 3.49997 12.9021 3.31463 12.7272C3.1293 12.5522 3.01777 12.313 3.00283 12.0586C2.98789 11.8042 3.07067 11.5536 3.23426 11.3582C3.39785 11.1627 3.6299 11.0371 3.883 11.007L4 11L5.17 11C5.36709 10.4433 5.72402 9.95706 6.19609 9.6022C6.66817 9.24734 7.23443 9.0396 7.824 9.005L8 9L8.176 9.005C8.76556 9.0396 9.33183 9.24734 9.80391 9.6022C10.276 9.95706 10.6329 10.4433 10.83 11L20 11C20.2652 11 20.5196 11.1054 20.7071 11.2929C20.8946 11.4804 21 11.7348 21 12Z" fill="currentcolor"/>
<path d="M21 18C21 18.2449 20.91 18.4813 20.7473 18.6644C20.5845 18.8474 20.3603 18.9643 20.117 18.993L20 19L19.829 19C19.622 19.5848 19.2388 20.0912 18.7322 20.4492C18.2256 20.8073 17.6204 20.9996 17 20.9996C16.3796 20.9996 15.7744 20.8073 15.2678 20.4492C14.7612 20.0912 14.378 19.5848 14.171 19L4 19C3.74512 18.9997 3.49997 18.9021 3.31463 18.7272C3.1293 18.5522 3.01777 18.313 3.00283 18.0586C2.98789 17.8042 3.07067 17.5536 3.23426 17.3582C3.39785 17.1627 3.6299 17.0371 3.883 17.007L4 17L14.17 17C14.3671 16.4433 14.724 15.9571 15.1961 15.6022C15.6682 15.2473 16.2344 15.0396 16.824 15.005L17 15L17.176 15.005C17.7656 15.0396 18.3318 15.2473 18.8039 15.6022C19.276 15.9571 19.6329 16.4433 19.83 17L20 17C20.2652 17 20.5196 17.1054 20.7071 17.2929C20.8946 17.4804 21 17.7348 21 18Z" fill="currentcolor"/>
</svg>
