<svg width="24" height="24" viewBox="0 0 24 24" fill="none" xmlns="http://www.w3.org/2000/svg">
<path d="M21 6C21 6.24493 20.91 6.48134 20.7473 6.66437C20.5845 6.84741 20.3603 6.96434 20.117 6.993L20 7H16.829C16.622 7.58484 16.2388 8.09115 15.7322 8.44925C15.2256 8.80734 14.6204 8.99962 14 8.99962C13.3796 8.99962 12.7745 8.80734 12.2678 8.44925C11.7612 8.09115 11.378 7.58484 11.171 7L4.00001 7C3.74513 6.99972 3.49997 6.90212 3.31464 6.72715C3.1293 6.55218 3.01777 6.31305 3.00283 6.0586C2.9879 5.80416 3.07068 5.55362 3.23427 5.35817C3.39786 5.16271 3.62991 5.0371 3.883 5.007L4.00001 5L11.17 5C11.3671 4.44328 11.724 3.95706 12.1961 3.6022C12.6682 3.24734 13.2344 3.0396 13.824 3.005L14 3L14.176 3.005C14.7656 3.0396 15.3318 3.24734 15.8039 3.6022C16.276 3.95706 16.6329 4.44328 16.83 5L20 5C20.2652 5 20.5196 5.10536 20.7071 5.29289C20.8946 5.48043 21 5.73478 21 6Z" fill="black"/>
<path d="M21 12C21 12.2449 20.91 12.4813 20.7473 12.6644C20.5845 12.8474 20.3603 12.9643 20.117 12.993L20 13H10.829C10.622 13.5848 10.2388 14.0912 9.73218 14.4492C9.22556 14.8073 8.62041 14.9996 8 14.9996C7.3796 14.9996 6.77445 14.8073 6.26783 14.4492C5.76121 14.0912 5.37802 13.5848 5.171 13H4.00001C3.74513 12.9997 3.49997 12.9021 3.31464 12.7272C3.1293 12.5522 3.01777 12.313 3.00283 12.0586C2.9879 11.8042 3.07068 11.5536 3.23427 11.3582C3.39786 11.1627 3.62991 11.0371 3.883 11.007L4.00001 11L5.17001 11C5.3671 10.4433 5.72402 9.95706 6.1961 9.6022C6.66818 9.24734 7.23444 9.0396 7.824 9.005L8.00001 9L8.176 9.005C8.76557 9.0396 9.33183 9.24734 9.80391 9.6022C10.276 9.95706 10.6329 10.4433 10.83 11L20 11C20.2652 11 20.5196 11.1054 20.7071 11.2929C20.8946 11.4804 21 11.7348 21 12Z" fill="black"/>
<path d="M20.7473 18.6644C20.91 18.4813 21 18.2449 21 18C21 17.7348 20.8946 17.4804 20.7071 17.2929C20.5196 17.1054 20.2652 17 20 17H19.83C19.6329 16.4433 19.276 15.9571 18.8039 15.6022C18.3318 15.2473 17.7656 15.0396 17.176 15.005L17 15L16.824 15.005C16.2344 15.0396 15.6682 15.2473 15.1961 15.6022C14.724 15.9571 14.3671 16.4433 14.17 17L4.00001 17L3.883 17.007C3.62991 17.0371 3.39786 17.1627 3.23427 17.3582C3.07068 17.5536 2.9879 17.8042 3.00283 18.0586C3.01777 18.313 3.1293 18.5522 3.31464 18.7272C3.49997 18.9021 3.74513 18.9997 4.00001 19L14.171 19C14.378 19.5848 14.7612 20.0912 15.2678 20.4492C15.7745 20.8073 16.3796 20.9996 17 20.9996C17.6204 20.9996 18.2256 20.8073 18.7322 20.4492C19.2388 20.0912 19.622 19.5848 19.829 19H20L20.117 18.993C20.3603 18.9643 20.5845 18.8474 20.7473 18.6644Z" fill="black"/>
</svg>
