<svg width="24" height="24" viewBox="0 0 24 24" fill="none" xmlns="http://www.w3.org/2000/svg">
<path d="M12 8V12M12 16H12.01M9.103 2H14.897C15.2911 1.99995 15.6814 2.07756 16.0455 2.22838C16.4096 2.3792 16.7404 2.60029 17.019 2.879L21.12 6.979C21.3993 7.25791 21.6207 7.58917 21.7717 7.95382C21.9227 8.31846 22.0003 8.70932 22 9.104V14.898C22 15.2921 21.9224 15.6824 21.7716 16.0465C21.6208 16.4106 21.3997 16.7414 21.121 17.02L17.021 21.121C16.7423 21.4 16.4114 21.6214 16.0471 21.7724C15.6828 21.9233 15.2923 22.001 14.898 22.001H9.103C8.70883 22.0009 8.31854 21.9232 7.95443 21.7722C7.59033 21.6212 7.25955 21.3999 6.981 21.121L2.88 17.021C2.60087 16.7422 2.37946 16.4111 2.22846 16.0466C2.07746 15.6822 1.99982 15.2915 2 14.897V9.103C1.99995 8.7089 2.07756 8.31865 2.22838 7.95455C2.3792 7.59045 2.60029 7.25963 2.879 6.981L6.979 2.88C7.25791 2.60075 7.58917 2.37927 7.95382 2.22827C8.31846 2.07726 8.70932 1.99969 9.104 2H9.103Z" stroke="currentcolor" stroke-width="2" stroke-linecap="round" stroke-linejoin="round"/>
</svg>
