<svg width="25" height="24" viewBox="0 0 25 24" fill="none" xmlns="http://www.w3.org/2000/svg">
<path fill-rule="evenodd" clip-rule="evenodd" d="M9.88613 2.55276C9.63914 2.05878 9.03847 1.85856 8.54449 2.10555C8.05051 2.35254 7.85028 2.95321 8.09727 3.44719L8.75126 4.75516L8.74906 4.75736C7.86237 5.64405 7.28186 6.77969 7.07559 8H18.9078C18.7015 6.77969 18.121 5.64405 17.2343 4.75736L17.2321 4.75516L17.8861 3.44719C18.1331 2.95321 17.9329 2.35254 17.4389 2.10555C16.9449 1.85856 16.3443 2.05878 16.0973 2.55276L15.5801 3.58705C14.7795 3.20419 13.8961 3 12.9917 3C12.0873 3 11.2039 3.20419 10.4033 3.58705L9.88613 2.55276ZM10.4348 5.22093C10.7709 5.22093 11.0432 5.49332 11.0432 5.82933V5.83541C11.0432 6.17142 10.7709 6.44381 10.4348 6.44381C10.0988 6.44381 9.82645 6.17142 9.82645 5.83541V5.82933C9.82645 5.49332 10.0988 5.22093 10.4348 5.22093ZM16.0432 5.82933C16.0432 5.49332 15.7709 5.22093 15.4348 5.22093C15.0988 5.22093 14.8264 5.49332 14.8264 5.82933V5.83541C14.8264 6.17142 15.0988 6.44381 15.4348 6.44381C15.7709 6.44381 16.0432 6.17142 16.0432 5.83541V5.82933Z" fill="currentcolor"/>
<path d="M6.9917 9V17C6.9917 17.5304 7.20241 18.0391 7.57749 18.4142C7.95256 18.7893 8.46127 19 8.9917 19H9.9917V21C9.9917 21.5523 10.4394 22 10.9917 22C11.544 22 11.9917 21.5523 11.9917 21V19H13.9917V21C13.9917 21.5523 14.4394 22 14.9917 22C15.544 22 15.9917 21.5523 15.9917 21V19H16.9917C17.5221 19 18.0308 18.7893 18.4059 18.4142C18.781 18.0391 18.9917 17.5304 18.9917 17V9H6.9917Z" fill="currentcolor"/>
<path d="M4.9917 9C5.54398 9 5.9917 9.44772 5.9917 10V16C5.9917 16.5523 5.54398 17 4.9917 17C4.43941 17 3.9917 16.5523 3.9917 16V10C3.9917 9.44772 4.43941 9 4.9917 9Z" fill="currentcolor"/>
<path d="M20.9917 9C21.544 9 21.9917 9.44772 21.9917 10V16C21.9917 16.5523 21.544 17 20.9917 17C20.4394 17 19.9917 16.5523 19.9917 16V10C19.9917 9.44772 20.4394 9 20.9917 9Z" fill="currentcolor"/>
</svg>
