<svg width="24" height="24" viewBox="0 0 24 24" fill="none" xmlns="http://www.w3.org/2000/svg">
<path fill-rule="evenodd" clip-rule="evenodd" d="M7.55279 2.10555C8.04677 1.85856 8.64744 2.05878 8.89443 2.55276L9.41157 3.58705C10.2122 3.20419 11.0956 3 12 3C12.9044 3 13.7878 3.20419 14.5884 3.58705L15.1056 2.55276C15.3526 2.05878 15.9532 1.85856 16.4472 2.10555C16.9412 2.35254 17.1414 2.95321 16.8944 3.44719L16.2404 4.75516L16.2426 4.75736C17.1293 5.64405 17.7098 6.77969 17.9161 8L6.08389 8C6.29016 6.77969 6.87067 5.64405 7.75736 4.75736L7.75956 4.75516L7.10557 3.44719C6.85859 2.95321 7.05881 2.35254 7.55279 2.10555ZM6 10V17C6 17.5304 6.21071 18.0391 6.58579 18.4142C6.96086 18.7893 7.46957 19 8 19V21C8 21.5523 8.44772 22 9 22C9.55228 22 10 21.5523 10 21V19H14V21C14 21.5523 14.4477 22 15 22C15.5523 22 16 21.5523 16 21V19C16.5304 19 17.0391 18.7893 17.4142 18.4142C17.7893 18.0391 18 17.5304 18 17V10L6 10ZM4 9C4.55228 9 5 9.44772 5 10V16C5 16.5523 4.55228 17 4 17C3.44772 17 3 16.5523 3 16V10C3 9.44772 3.44772 9 4 9ZM20 9C20.5523 9 21 9.44772 21 10V16C21 16.5523 20.5523 17 20 17C19.4477 17 19 16.5523 19 16V10C19 9.44772 19.4477 9 20 9Z" fill="black"/>
</svg>
