<svg width="24" height="24" viewBox="0 0 24 24" fill="none" xmlns="http://www.w3.org/2000/svg">
<path d="M8.16792 2.44541C8.47427 1.98588 9.09514 1.8617 9.55467 2.16806L12 3.79826L14.4453 2.16806C14.9048 1.8617 15.5257 1.98588 15.832 2.44541C16.1384 2.90493 16.0142 3.5258 15.5547 3.83216L12.5547 5.83216C12.2188 6.05609 11.7812 6.05609 11.4453 5.83216L8.44527 3.83216C7.98574 3.5258 7.86157 2.90493 8.16792 2.44541Z" fill="black"/>
<path d="M8.50497 6.00011L8.50324 6.00011C7.20506 6.00235 5.94949 6.46356 4.95852 7.30217C3.96756 8.14078 3.30504 9.30277 3.08811 10.5827C2.87119 11.8626 3.11382 13.178 3.77311 14.2963C4.20244 15.0246 4.79044 15.6387 5.48666 16.0972C5.40511 16.248 5.3331 16.4043 5.27125 16.5653C5.03439 17.1818 4.95387 17.8473 5.03685 18.5025C5.11984 19.1577 5.36376 19.7821 5.74684 20.3201C6.12992 20.8581 6.64023 21.2928 7.23224 21.5855C7.82424 21.8782 8.47951 22.0198 9.13956 21.9976C9.7996 21.9754 10.4439 21.7902 11.0149 21.4583C11.3875 21.2418 11.7213 20.9673 12.0044 20.6464C12.2461 20.9206 12.5252 21.1614 12.8346 21.3612C13.3962 21.724 14.0397 21.9402 14.7065 21.9901C15.3732 22.04 16.0417 21.922 16.6511 21.6469C17.2604 21.3717 17.7911 20.9482 18.1945 20.4151C18.598 19.882 18.8614 19.2563 18.9606 18.5951C19.0599 17.9339 18.9918 17.2584 18.7627 16.6304C18.6958 16.4469 18.6157 16.2692 18.5234 16.0985C18.8549 15.8807 19.163 15.6268 19.4417 15.3409C20.0354 14.7316 20.4797 13.993 20.7397 13.183C20.9996 12.373 21.0681 11.5137 20.9398 10.6727C20.8115 9.83179 20.4899 9.03205 20.0002 8.33642C19.5106 7.64079 18.8662 7.06823 18.1179 6.66375C17.3695 6.25927 16.5375 6.0339 15.6873 6.00536C14.8371 5.97682 13.9918 6.14589 13.218 6.49928C12.781 6.69883 12.3736 6.95408 12.0053 7.25755C11.055 6.47298 9.83528 6.00011 8.50497 6.00011Z" fill="black"/>
</svg>
