<svg width="24" height="24" viewBox="0 0 24 24" fill="none" xmlns="http://www.w3.org/2000/svg">
<path d="M12 18.176C11.9709 18.6705 11.8198 19.15 11.5602 19.5719C11.3007 19.9937 10.9407 20.3448 10.5125 20.5936C10.0842 20.8425 9.60099 20.9814 9.10595 20.9981C8.61092 21.0147 8.11947 20.9085 7.67546 20.689C7.23146 20.4695 6.84872 20.1434 6.56141 19.7399C6.2741 19.3365 6.09116 18.8681 6.02892 18.3768C5.96668 17.8854 6.02708 17.3862 6.20472 16.9239C6.38236 16.4615 6.67172 16.0503 7.04697 15.727L7.02197 15.75C6.01966 15.3983 5.17401 14.7034 4.63455 13.7884C4.09508 12.8733 3.89655 11.797 4.07405 10.7497C4.25155 9.7024 4.79366 8.7516 5.60451 8.0654C6.41536 7.37921 7.44273 7.00184 8.50497 7C9.91897 7 11.18 7.652 12.005 8.671C12.4429 8.12999 13.0003 7.69794 13.6334 7.40881C14.2665 7.11967 14.9581 6.98134 15.6537 7.00469C16.3493 7.02804 17.0301 7.21243 17.6424 7.54337C18.2547 7.87431 18.7819 8.34277 19.1825 8.91192C19.5832 9.48108 19.8463 10.1354 19.9513 10.8235C20.0563 11.5115 20.0002 12.2145 19.7875 12.8773C19.5748 13.54 19.2113 14.1444 18.7255 14.6428C18.2398 15.1413 17.645 15.5203 16.988 15.75C17.3642 16.0814 17.6514 16.5019 17.8233 16.973C17.9951 17.444 18.0462 17.9507 17.9717 18.4465C17.8973 18.9424 17.6997 19.4117 17.3971 19.8116C17.0945 20.2114 16.6966 20.529 16.2395 20.7353C15.7825 20.9417 15.2811 21.0302 14.7811 20.9928C14.281 20.9554 13.7984 20.7932 13.3772 20.5211C12.956 20.2491 12.6097 19.8758 12.37 19.4353C12.1303 18.9949 12.0048 18.5014 12.005 18L12 18.176Z" stroke="currentcolor" stroke-width="2" stroke-linecap="round" stroke-linejoin="round"/>
<path d="M12 19V9" stroke="currentcolor" stroke-width="2" stroke-linecap="round" stroke-linejoin="round"/>
<path d="M9 3L12 5L15 3" stroke="currentcolor" stroke-width="2" stroke-linecap="round" stroke-linejoin="round"/>
</svg>
