<svg width="24" height="24" viewBox="0 0 24 24" fill="none" xmlns="http://www.w3.org/2000/svg">
<path d="M12 18.176C11.9709 18.6705 11.8198 19.15 11.5603 19.5719C11.3007 19.9937 10.9407 20.3448 10.5125 20.5936C10.0842 20.8425 9.60102 20.9814 9.10598 20.9981C8.61095 21.0147 8.1195 20.9085 7.67549 20.689C7.23149 20.4695 6.84875 20.1434 6.56144 19.7399C6.27413 19.3365 6.0912 18.8681 6.02896 18.3768C5.96672 17.8854 6.02711 17.3862 6.20475 16.9239C6.38239 16.4615 6.67175 16.0503 7.047 15.727L7.022 15.75C6.01969 15.3983 5.17404 14.7034 4.63458 13.7884C4.09511 12.8733 3.89658 11.797 4.07408 10.7497C4.25158 9.7024 4.79369 8.7516 5.60454 8.0654C6.41539 7.37921 7.44276 7.00184 8.505 7C9.919 7 11.18 7.652 12.005 8.671C12.4429 8.12999 13.0003 7.69794 13.6334 7.40881C14.2666 7.11967 14.9581 6.98134 15.6537 7.00469C16.3494 7.02804 17.0301 7.21243 17.6424 7.54337C18.2547 7.87431 18.7819 8.34277 19.1826 8.91192C19.5832 9.48108 19.8463 10.1354 19.9513 10.8235C20.0563 11.5115 20.0002 12.2145 19.7875 12.8773C19.5748 13.54 19.2113 14.1444 18.7256 14.6428C18.2398 15.1413 17.645 15.5203 16.988 15.75C17.3643 16.0814 17.6514 16.5019 17.8233 16.973C17.9952 17.444 18.0462 17.9507 17.9718 18.4465C17.8973 18.9424 17.6998 19.4117 17.3972 19.8116C17.0946 20.2114 16.6966 20.529 16.2396 20.7353C15.7826 20.9417 15.2811 21.0302 14.7811 20.9928C14.2811 20.9554 13.7984 20.7932 13.3772 20.5211C12.956 20.2491 12.6097 19.8758 12.37 19.4353C12.1303 18.9949 12.0048 18.5014 12.005 18L12 18.176Z" stroke="#424D57" stroke-width="2" stroke-linecap="round" stroke-linejoin="round"/>
<path d="M12 19V9" stroke="#424D57" stroke-width="2" stroke-linecap="round" stroke-linejoin="round"/>
<path d="M9 3L12 5L15 3" stroke="#424D57" stroke-width="2" stroke-linecap="round" stroke-linejoin="round"/>
</svg>
