<svg width="24" height="24" viewBox="0 0 24 24" fill="none" xmlns="http://www.w3.org/2000/svg">
<path d="M12 19V9" stroke="black" stroke-width="2" stroke-linecap="round" stroke-linejoin="round"/>
<path fill-rule="evenodd" clip-rule="evenodd" d="M9.55467 2.16806C9.09514 1.8617 8.47427 1.98588 8.16792 2.44541C7.86157 2.90493 7.98574 3.5258 8.44527 3.83216L11.4453 5.83216C11.7812 6.05609 12.2188 6.05609 12.5547 5.83216L15.5547 3.83216C16.0142 3.5258 16.1384 2.90493 15.832 2.44541C15.5257 1.98588 14.9048 1.8617 14.4453 2.16806L12 3.79826L9.55467 2.16806ZM8.50324 6.00011L8.50497 6.00011C9.83528 6.00011 11.055 6.47298 12.0053 7.25755C12.3736 6.95408 12.781 6.69883 13.218 6.49928C13.9918 6.14589 14.8371 5.97682 15.6873 6.00536C16.5375 6.0339 17.3695 6.25927 18.1179 6.66375C18.8662 7.06823 19.5106 7.64079 20.0002 8.33642C20.4899 9.03205 20.8115 9.83179 20.9398 10.6727C21.0681 11.5137 20.9996 12.373 20.7397 13.183C20.4797 13.993 20.0354 14.7316 19.4417 15.3409C19.163 15.6268 18.8549 15.8807 18.5234 16.0985C18.6157 16.2692 18.6958 16.4469 18.7627 16.6304C18.9918 17.2584 19.0599 17.9339 18.9606 18.5951C18.8614 19.2563 18.598 19.882 18.1945 20.4151C17.7911 20.9482 17.2604 21.3717 16.6511 21.6469C16.0417 21.922 15.3732 22.04 14.7065 21.9901C14.0397 21.9402 13.3962 21.724 12.8346 21.3612C12.5252 21.1614 12.2461 20.9206 12.0044 20.6464C11.7213 20.9673 11.3875 21.2418 11.0149 21.4583C10.4439 21.7902 9.7996 21.9754 9.13956 21.9976C8.47951 22.0198 7.82424 21.8782 7.23224 21.5855C6.64023 21.2928 6.12992 20.8581 5.74684 20.3201C5.36376 19.7821 5.11984 19.1577 5.03685 18.5025C4.95387 17.8473 5.03439 17.1818 5.27125 16.5653C5.3331 16.4043 5.40511 16.248 5.48666 16.0972C4.79044 15.6387 4.20244 15.0246 3.77311 14.2963C3.11382 13.178 2.87119 11.8626 3.08811 10.5827C3.30504 9.30277 3.96756 8.14078 4.95852 7.30217C5.94949 6.46356 7.20506 6.00235 8.50324 6.00011Z" fill="black"/>
</svg>
