<svg width="24" height="24" viewBox="0 0 24 24" fill="none" xmlns="http://www.w3.org/2000/svg">
<path fill-rule="evenodd" clip-rule="evenodd" d="M15.308 14.4764C15.3069 14.4766 15.3057 14.4768 15.3046 14.477C15.2053 14.4921 15.1036 14.5 15 14.5C13.8954 14.5 13 13.6046 13 12.5V12.4647L12.9694 12.4824C12.0127 13.0343 10.7896 12.7062 10.2376 11.7494C9.68565 10.7927 10.0138 9.56961 10.9706 9.01763L11 9.00064V9V8.99936L10.9706 8.98237C10.0138 8.43039 9.68565 7.20732 10.2376 6.25056C10.3335 6.08439 10.4496 5.93718 10.581 5.81025L9.8779 4.52115C9.70266 4.19989 9.36594 4 9 4H6C5.46957 4 4.96086 4.21071 4.58579 4.58579C4.21071 4.96086 4 5.46957 4 6V20C4 20.5304 4.21071 21.0391 4.58579 21.4142C4.96086 21.7893 5.46957 22 6 22H14C14.5304 22 15.0391 21.7893 15.4142 21.4142C15.7893 21.0391 16 20.5304 16 20V16C16 15.8327 15.958 15.668 15.8779 15.5211L15.308 14.4764ZM10 17C10.5523 17 11 17.4477 11 18V18.01C11 18.5623 10.5523 19.01 10 19.01C9.44772 19.01 9 18.5623 9 18.01V18C9 17.4477 9.44772 17 10 17Z" fill="black"/>
<path fill-rule="evenodd" clip-rule="evenodd" d="M14.9999 4.5C15.5522 4.5 15.9999 4.94772 15.9999 5.5V6.17157C16.3455 6.29376 16.6679 6.479 16.9498 6.72008L17.5319 6.38398C18.0102 6.10783 18.6218 6.2717 18.8979 6.74999C19.1741 7.22828 19.0102 7.83987 18.5319 8.11602L17.9495 8.45229C17.9828 8.63169 17.9999 8.81496 17.9999 9C17.9999 9.18494 17.9828 9.36811 17.9495 9.54742L18.5326 9.88381C19.011 10.1598 19.1751 10.7713 18.8991 11.2497C18.6231 11.7281 18.0116 11.8922 17.5332 11.6162L16.95 11.2797C16.6681 11.5209 16.3456 11.7062 15.9999 11.8284V12.5C15.9999 13.0523 15.5522 13.5 14.9999 13.5C14.4476 13.5 13.9999 13.0523 13.9999 12.5V11.8284C13.6547 11.7064 13.3326 11.5214 13.051 11.2808L12.4696 11.6162C11.9912 11.8922 11.3797 11.7281 11.1037 11.2497C10.8277 10.7713 10.9918 10.1598 11.4702 9.88381L12.0505 9.54899C12.0171 9.36918 11.9999 9.18548 11.9999 9C11.9999 8.81452 12.0171 8.63082 12.0505 8.45101L11.4702 8.11619C10.9918 7.8402 10.8277 7.22866 11.1037 6.75028C11.3797 6.2719 11.9912 6.10783 12.4696 6.38381L13.051 6.71923C13.3326 6.47857 13.6547 6.29362 13.9999 6.17157V5.5C13.9999 4.94772 14.4476 4.5 14.9999 4.5ZM13.9999 9C13.9999 8.83715 14.0396 8.67839 14.1137 8.53668C14.1214 8.52458 14.1288 8.51226 14.1361 8.49972C14.143 8.48767 14.1497 8.47553 14.1561 8.46332C14.195 8.40216 14.2407 8.34495 14.2928 8.29289C14.4803 8.10536 14.7347 8 14.9999 8C15.2651 8 15.5195 8.10536 15.707 8.29289C15.8945 8.48043 15.9999 8.73478 15.9999 9C15.9999 9.26522 15.8945 9.51957 15.707 9.70711C15.5195 9.89464 15.2651 10 14.9999 10C14.7347 10 14.4803 9.89464 14.2928 9.70711C14.2407 9.65505 14.195 9.59784 14.1561 9.53668C14.1497 9.52447 14.143 9.51233 14.1361 9.50028C14.1288 9.48774 14.1214 9.47542 14.1137 9.46332C14.0396 9.32161 13.9999 9.16285 13.9999 9Z" fill="black"/>
</svg>
