<svg width="24" height="24" viewBox="0 0 24 24" fill="none" xmlns="http://www.w3.org/2000/svg">
<path fill-rule="evenodd" clip-rule="evenodd" d="M15.3046 14.477L15.308 14.4764L15.8779 15.5211C15.958 15.668 16 15.8327 16 16V20C16 20.5304 15.7893 21.0391 15.4142 21.4142C15.0391 21.7893 14.5304 22 14 22H6C5.46957 22 4.96086 21.7893 4.58579 21.4142C4.21071 21.0391 4 20.5304 4 20V6C4 5.46957 4.21071 4.96086 4.58579 4.58579C4.96086 4.21071 5.46957 4 6 4H9C9.36594 4 9.70266 4.19989 9.8779 4.52115L10.581 5.81025C10.4496 5.93718 10.3335 6.08439 10.2376 6.25056C9.68565 7.20732 10.0138 8.43039 10.9706 8.98237L11 8.99936V9.00064L10.9706 9.01763C10.0138 9.56961 9.68565 10.7927 10.2376 11.7494C10.7896 12.7062 12.0127 13.0343 12.9694 12.4824L13 12.4647V12.5C13 13.6046 13.8954 14.5 15 14.5C15.1036 14.5 15.2053 14.4921 15.3046 14.477ZM11 18C11 17.4477 10.5523 17 10 17C9.44772 17 9 17.4477 9 18V18.01C9 18.5623 9.44772 19.01 10 19.01C10.5523 19.01 11 18.5623 11 18.01V18Z" fill="black"/>
<path fill-rule="evenodd" clip-rule="evenodd" d="M15.9999 5.5C15.9999 4.94772 15.5522 4.5 14.9999 4.5C14.4476 4.5 13.9999 4.94772 13.9999 5.5V6.17157C13.6547 6.29362 13.3326 6.47857 13.051 6.71923L12.4696 6.38381C11.9912 6.10783 11.3797 6.2719 11.1037 6.75028C10.8277 7.22866 10.9918 7.8402 11.4702 8.11619L12.0505 8.45101C12.0171 8.63082 11.9999 8.81452 11.9999 9C11.9999 9.18548 12.0171 9.36918 12.0505 9.54899L11.4702 9.88381C10.9918 10.1598 10.8277 10.7713 11.1037 11.2497C11.3797 11.7281 11.9912 11.8922 12.4696 11.6162L13.051 11.2808C13.3326 11.5214 13.6547 11.7064 13.9999 11.8284V12.5C13.9999 13.0523 14.4476 13.5 14.9999 13.5C15.5522 13.5 15.9999 13.0523 15.9999 12.5V11.8284C16.3456 11.7062 16.6681 11.5209 16.95 11.2797L17.5332 11.6162C18.0116 11.8922 18.6231 11.7281 18.8991 11.2497C19.1751 10.7713 19.011 10.1598 18.5326 9.88381L17.9495 9.54742C17.9828 9.36811 17.9999 9.18494 17.9999 9C17.9999 8.81496 17.9828 8.63169 17.9495 8.45229L18.5319 8.11602C19.0102 7.83987 19.1741 7.22828 18.8979 6.74999C18.6218 6.2717 18.0102 6.10783 17.5319 6.38398L16.9498 6.72008C16.6679 6.479 16.3455 6.29376 15.9999 6.17157V5.5ZM14.1137 8.53668C14.0396 8.67839 13.9999 8.83715 13.9999 9C13.9999 9.16285 14.0396 9.32161 14.1137 9.46332C14.1214 9.47542 14.1288 9.48774 14.1361 9.50028C14.143 9.51233 14.1497 9.52447 14.1561 9.53668C14.195 9.59784 14.2407 9.65505 14.2928 9.70711C14.4803 9.89464 14.7347 10 14.9999 10C15.2651 10 15.5195 9.89464 15.707 9.70711C15.8945 9.51957 15.9999 9.26522 15.9999 9C15.9999 8.73478 15.8945 8.48043 15.707 8.29289C15.5195 8.10536 15.2651 8 14.9999 8C14.7347 8 14.4803 8.10536 14.2928 8.29289C14.2407 8.34495 14.195 8.40216 14.1561 8.46332C14.1497 8.47553 14.143 8.48767 14.1361 8.49972C14.1288 8.51226 14.1214 8.52458 14.1137 8.53668Z" fill="black"/>
</svg>
