<svg width="24" height="24" viewBox="0 0 24 24" fill="none" xmlns="http://www.w3.org/2000/svg">
<path fill-rule="evenodd" clip-rule="evenodd" d="M14 1C13.2044 1 12.4413 1.31607 11.8787 1.87868C11.3161 2.44129 11 3.20435 11 4C11 4.26522 11.1054 4.51957 11.2929 4.70711C11.4804 4.89464 11.7348 5 12 5C12.7956 5 13.5587 4.68393 14.1213 4.12132C14.6839 3.55871 15 2.79565 15 2C15 1.73478 14.8946 1.48043 14.7071 1.29289C14.5196 1.10536 14.2652 1 14 1ZM15.5725 6.0026C15.9839 6.03129 16.7173 6.19401 17.4866 6.54421C18.2678 6.89987 19.1773 7.49016 19.8248 8.43447C19.9846 8.66754 20.0383 8.95734 19.9727 9.23221C19.907 9.50707 19.7282 9.74133 19.4803 9.87707C19.3889 9.92711 19.2957 9.9646 19.1937 10.0057L19.1937 10.0057C18.97 10.0957 18.7036 10.2028 18.3199 10.497C17.8434 10.8624 17.4945 11.3357 17.5 11.9903C17.5175 13.5633 18.7354 13.8929 19.2036 14.0196C19.2598 14.0348 19.3051 14.0471 19.3363 14.0582C19.7343 14.2004 20 14.5774 20 15C20 16.3392 19.2071 17.8116 18.3386 18.8806C17.8874 19.4359 17.3686 19.9421 16.8322 20.3185C16.3207 20.6775 15.6774 21 15 21C14.1077 21 13.5769 20.8442 13.1302 20.7041L13.0953 20.6932C12.7329 20.5793 12.4802 20.5 12 20.5C11.4682 20.5 11.0882 20.5879 10.6694 20.6992C10.6294 20.7098 10.5883 20.7209 10.5462 20.7323L10.5462 20.7323C10.1466 20.84 9.65262 20.9733 9.04224 20.9991C9.02817 20.9997 9.01409 21 9 21C8.11938 21 7.37897 20.5119 6.82414 19.9571C6.25494 19.3879 5.76025 18.6315 5.35557 17.8222C4.55015 16.2113 4 14.1838 4 12.5C4 11.1425 4.26748 9.57295 5.01307 8.30545C5.78855 6.98713 7.09161 5.99997 9 5.99997C9.80582 5.99997 10.5789 6.35611 11.0858 6.59632C11.1616 6.63226 11.2317 6.66589 11.2975 6.69739L11.2975 6.6974C11.4845 6.78708 11.6357 6.85958 11.7805 6.91933C11.8987 6.9681 11.9658 6.9875 11.9948 6.99515C12.0243 6.98661 12.1013 6.96383 12.2457 6.90406C12.3834 6.84713 12.4971 6.7954 12.6288 6.73549L12.6288 6.73546C12.7495 6.68059 12.8851 6.61887 13.068 6.54004C13.6978 6.26854 14.5974 5.92837 15.5725 6.0026Z" fill="currentcolor"/>
</svg>
