<svg width="25" height="24" viewBox="0 0 25 24" fill="none" xmlns="http://www.w3.org/2000/svg">
<path d="M20.4826 7.69313C20.3686 7.78148 18.3558 8.91435 18.3558 11.4333C18.3558 14.347 20.917 15.3778 20.9937 15.4033C20.9819 15.4661 20.5868 16.8149 19.6433 18.1893C18.802 19.3987 17.9234 20.6062 16.5868 20.6062C15.2502 20.6062 14.9062 19.8307 13.3632 19.8307C11.8595 19.8307 11.3249 20.6317 10.1023 20.6317C8.87966 20.6317 8.02659 19.5126 7.04575 18.1383C5.90964 16.5244 4.9917 14.0171 4.9917 11.6375C4.9917 7.82075 7.47622 5.79651 9.92143 5.79651C11.2207 5.79651 12.3037 6.64862 13.1195 6.64862C13.8959 6.64862 15.1067 5.74546 16.5848 5.74546C17.145 5.74546 19.1578 5.79651 20.4826 7.69313ZM15.8831 4.12961C16.4944 3.40513 16.9268 2.39988 16.9268 1.39464C16.9268 1.25524 16.915 1.11388 16.8895 1C15.8949 1.0373 14.7116 1.66166 13.9981 2.48823C13.4379 3.12437 12.915 4.12961 12.915 5.1486C12.915 5.30174 12.9406 5.45489 12.9524 5.50397C13.0153 5.51575 13.1175 5.52949 13.2197 5.52949C14.1121 5.52949 15.2345 4.93263 15.8831 4.12961Z" fill="currentcolor"/>
</svg>
