<svg width="24" height="24" viewBox="0 0 24 24" fill="none" xmlns="http://www.w3.org/2000/svg">
<path d="M9 6.99998C6 6.99998 5 9.99998 5 12.5C5 15.5 7 20 9 20C10.088 19.954 10.679 19.5 12 19.5C13.312 19.5 13.5 20 15 20C16.5 20 19 17 19 15C18.972 14.99 16.528 14.597 16.5 12C16.481 9.82998 18.916 9.04598 19 8.99998C17.977 7.50798 16.049 7.03698 15.5 6.99998C14.067 6.88898 12.67 7.99998 12 7.99998C11.32 7.99998 10.1 6.99998 9 6.99998Z" stroke="currentcolor" stroke-width="2" stroke-linecap="round" stroke-linejoin="round"/>
<path d="M12 4C12.5304 4 13.0391 3.78929 13.4142 3.41421C13.7893 3.03914 14 2.53043 14 2C13.4696 2 12.9609 2.21071 12.5858 2.58579C12.2107 2.96086 12 3.46957 12 4Z" stroke="currentcolor" stroke-width="2" stroke-linecap="round" stroke-linejoin="round"/>
</svg>
