<svg width="24" height="24" viewBox="0 0 24 24" fill="none" xmlns="http://www.w3.org/2000/svg">
<path d="M9 3H5C4.46957 3 3.96086 3.21071 3.58579 3.58579C3.21071 3.96086 3 4.46957 3 5V9C3 9.53043 3.21071 10.0391 3.58579 10.4142C3.96086 10.7893 4.46957 11 5 11H9C9.53043 11 10.0391 10.7893 10.4142 10.4142C10.7893 10.0391 11 9.53043 11 9V5C11 4.46957 10.7893 3.96086 10.4142 3.58579C10.0391 3.21071 9.53043 3 9 3Z" fill="currentcolor"/>
<path d="M9 13H5C4.46957 13 3.96086 13.2107 3.58579 13.5858C3.21071 13.9609 3 14.4696 3 15V19C3 19.5304 3.21071 20.0391 3.58579 20.4142C3.96086 20.7893 4.46957 21 5 21H9C9.53043 21 10.0391 20.7893 10.4142 20.4142C10.7893 20.0391 11 19.5304 11 19V15C11 14.4696 10.7893 13.9609 10.4142 13.5858C10.0391 13.2107 9.53043 13 9 13Z" fill="currentcolor"/>
<path d="M19 13H15C14.4696 13 13.9609 13.2107 13.5858 13.5858C13.2107 13.9609 13 14.4696 13 15V19C13 19.5304 13.2107 20.0391 13.5858 20.4142C13.9609 20.7893 14.4696 21 15 21H19C19.5304 21 20.0391 20.7893 20.4142 20.4142C20.7893 20.0391 21 19.5304 21 19V15C21 14.4696 20.7893 13.9609 20.4142 13.5858C20.0391 13.2107 19.5304 13 19 13Z" fill="currentcolor"/>
<path d="M16.9999 3C17.2448 3.00003 17.4812 3.08996 17.6642 3.25272C17.8473 3.41547 17.9642 3.63975 17.9929 3.883L17.9999 4V6H19.9999C20.2547 6.00028 20.4999 6.09788 20.6852 6.27285C20.8706 6.44782 20.9821 6.68695 20.997 6.94139C21.012 7.19584 20.9292 7.44638 20.7656 7.64183C20.602 7.83729 20.37 7.9629 20.1169 7.993L19.9999 8H17.9999V10C17.9996 10.2549 17.902 10.5 17.727 10.6854C17.5521 10.8707 17.3129 10.9822 17.0585 10.9972C16.804 11.0121 16.5535 10.9293 16.358 10.7657C16.1626 10.6021 16.037 10.3701 16.0069 10.117L15.9999 10V8H13.9999C13.745 7.99972 13.4998 7.90212 13.3145 7.72715C13.1292 7.55218 13.0176 7.31305 13.0027 7.05861C12.9878 6.80416 13.0705 6.55362 13.2341 6.35817C13.3977 6.16271 13.6298 6.0371 13.8829 6.007L13.9999 6H15.9999V4C15.9999 3.73478 16.1052 3.48043 16.2928 3.29289C16.4803 3.10536 16.7347 3 16.9999 3Z" fill="currentcolor"/>
</svg>
