<svg width="24" height="24" viewBox="0 0 24 24" fill="none" xmlns="http://www.w3.org/2000/svg">
<path d="M5 3H9C9.53043 3 10.0391 3.21071 10.4142 3.58579C10.7893 3.96086 11 4.46957 11 5V9C11 9.53043 10.7893 10.0391 10.4142 10.4142C10.0391 10.7893 9.53043 11 9 11H5C4.46957 11 3.96086 10.7893 3.58579 10.4142C3.21071 10.0391 3 9.53043 3 9V5C3 4.46957 3.21071 3.96086 3.58579 3.58579C3.96086 3.21071 4.46957 3 5 3Z" fill="currentcolor"/>
<path d="M5 13H9C9.53043 13 10.0391 13.2107 10.4142 13.5858C10.7893 13.9609 11 14.4696 11 15V19C11 19.5304 10.7893 20.0391 10.4142 20.4142C10.0391 20.7893 9.53043 21 9 21H5C4.46957 21 3.96086 20.7893 3.58579 20.4142C3.21071 20.0391 3 19.5304 3 19V15C3 14.4696 3.21071 13.9609 3.58579 13.5858C3.96086 13.2107 4.46957 13 5 13Z" fill="currentcolor"/>
<path d="M19 13H15C14.4696 13 13.9609 13.2107 13.5858 13.5858C13.2107 13.9609 13 14.4696 13 15V19C13 19.5304 13.2107 20.0391 13.5858 20.4142C13.9609 20.7893 14.4696 21 15 21H19C19.5304 21 20.0391 20.7893 20.4142 20.4142C20.7893 20.0391 21 19.5304 21 19V15C21 14.4696 20.7893 13.9609 20.4142 13.5858C20.0391 13.2107 19.5304 13 19 13Z" fill="currentcolor"/>
<path d="M17.6645 3.25272C17.4814 3.08996 17.245 3.00003 17.0001 3C16.7349 3 16.4805 3.10536 16.293 3.29289C16.1055 3.48043 16.0001 3.73478 16.0001 4V6H14.0001L13.8831 6.007C13.63 6.0371 13.398 6.16271 13.2344 6.35817C13.0708 6.55362 12.988 6.80416 13.0029 7.05861C13.0179 7.31305 13.1294 7.55218 13.3147 7.72715C13.5001 7.90212 13.7452 7.99972 14.0001 8H16.0001V10L16.0071 10.117C16.0372 10.3701 16.1628 10.6021 16.3583 10.7657C16.5537 10.9293 16.8043 11.0121 17.0587 10.9972C17.3132 10.9822 17.5523 10.8707 17.7273 10.6854C17.9022 10.5 17.9998 10.2549 18.0001 10V8H20.0001L20.1171 7.993C20.3702 7.9629 20.6023 7.83729 20.7658 7.64183C20.9294 7.44638 21.0122 7.19584 20.9973 6.94139C20.9823 6.68695 20.8708 6.44782 20.6855 6.27285C20.5001 6.09788 20.255 6.00028 20.0001 6H18.0001V4L17.9931 3.883C17.9645 3.63975 17.8475 3.41547 17.6645 3.25272Z" fill="currentcolor"/>
</svg>
