<svg width="24" height="24" viewBox="0 0 24 24" fill="none" xmlns="http://www.w3.org/2000/svg">
<path fill-rule="evenodd" clip-rule="evenodd" d="M3.87868 3.87868C4.44129 3.31607 5.20435 3 6 3H18C18.7956 3 19.5587 3.31607 20.1213 3.87868C20.6839 4.44129 21 5.20435 21 6V18C21 18.7957 20.6839 19.5587 20.1213 20.1213C19.5587 20.6839 18.7957 21 18 21H6C5.20435 21 4.44129 20.6839 3.87868 20.1213C3.31607 19.5587 3 18.7956 3 18V6C3 5.20435 3.31607 4.44129 3.87868 3.87868ZM15.7071 9.29289C15.3166 8.90237 14.6834 8.90237 14.2929 9.29289L12 11.5858L10.7071 10.2929C10.3166 9.90237 9.68342 9.90237 9.29289 10.2929L6.29289 13.2929C5.90237 13.6834 5.90237 14.3166 6.29289 14.7071C6.68342 15.0976 7.31658 15.0976 7.70711 14.7071L10 12.4142L11.2929 13.7071C11.6834 14.0976 12.3166 14.0976 12.7071 13.7071L15 11.4142L16.2929 12.7071C16.6834 13.0976 17.3166 13.0976 17.7071 12.7071C18.0976 12.3166 18.0976 11.6834 17.7071 11.2929L15.7071 9.29289Z" fill="currentcolor"/>
</svg>
