<svg width="24" height="24" viewBox="0 0 24 24" fill="none" xmlns="http://www.w3.org/2000/svg">
<path fill-rule="evenodd" clip-rule="evenodd" d="M8 3C7.20435 3 6.44129 3.31607 5.87868 3.87868C5.31607 4.44129 5 5.20435 5 6V18C5 18.7956 5.31607 19.5587 5.87868 20.1213C6.44129 20.6839 7.20435 21 8 21H18C18.7957 21 19.5587 20.6839 20.1213 20.1213C20.6839 19.5587 21 18.7957 21 18V6C21 5.20435 20.6839 4.44129 20.1213 3.87868C19.5587 3.31607 18.7956 3 18 3H8ZM13 7C12.2043 7 11.4413 7.31607 10.8787 7.87868C10.3161 8.44129 10 9.20435 10 10C10 10.7957 10.3161 11.5587 10.8787 12.1213C11.4413 12.6839 12.2043 13 13 13C13.7957 13 14.5587 12.6839 15.1213 12.1213C15.6839 11.5587 16 10.7957 16 10C16 9.20435 15.6839 8.44129 15.1213 7.87868C14.5587 7.31607 13.7957 7 13 7ZM10 15C9.44772 15 9 15.4477 9 16C9 16.5523 9.44772 17 10 17H16C16.5523 17 17 16.5523 17 16C17 15.4477 16.5523 15 16 15H10Z" fill="currentcolor"/>
<path fill-rule="evenodd" clip-rule="evenodd" d="M3 8C3 7.44772 3.44772 7 4 7H6C6.55228 7 7 7.44772 7 8C7 8.55228 6.55228 9 6 9H4C3.44772 9 3 8.55228 3 8Z" fill="currentcolor"/>
<path fill-rule="evenodd" clip-rule="evenodd" d="M3 12C3 11.4477 3.44772 11 4 11H6C6.55228 11 7 11.4477 7 12C7 12.5523 6.55228 13 6 13H4C3.44772 13 3 12.5523 3 12Z" fill="currentcolor"/>
<path fill-rule="evenodd" clip-rule="evenodd" d="M3 16C3 15.4477 3.44772 15 4 15H6C6.55228 15 7 15.4477 7 16C7 16.5523 6.55228 17 6 17H4C3.44772 17 3 16.5523 3 16Z" fill="currentcolor"/>
</svg>
