<svg width="24" height="24" viewBox="0 0 24 24" fill="none" xmlns="http://www.w3.org/2000/svg">
<path fill-rule="evenodd" clip-rule="evenodd" d="M5.87868 3.87868C6.44129 3.31607 7.20435 3 8 3H18C18.7956 3 19.5587 3.31607 20.1213 3.87868C20.6839 4.44129 21 5.20435 21 6V18C21 18.7957 20.6839 19.5587 20.1213 20.1213C19.5587 20.6839 18.7957 21 18 21H8C7.20435 21 6.44129 20.6839 5.87868 20.1213C5.31607 19.5587 5 18.7956 5 18V17H4C3.44772 17 3 16.5523 3 16C3 15.4477 3.44772 15 4 15H5V13H4C3.44772 13 3 12.5523 3 12C3 11.4477 3.44772 11 4 11H5V9H4C3.44772 9 3 8.55228 3 8C3 7.44772 3.44772 7 4 7H5V6C5 5.20435 5.31607 4.44129 5.87868 3.87868ZM10.8787 7.87868C11.4413 7.31607 12.2043 7 13 7C13.7957 7 14.5587 7.31607 15.1213 7.87868C15.6839 8.44129 16 9.20435 16 10C16 10.7957 15.6839 11.5587 15.1213 12.1213C14.5587 12.6839 13.7957 13 13 13C12.2043 13 11.4413 12.6839 10.8787 12.1213C10.3161 11.5587 10 10.7957 10 10C10 9.20435 10.3161 8.44129 10.8787 7.87868ZM9 16C9 15.4477 9.44772 15 10 15H16C16.5523 15 17 15.4477 17 16C17 16.5523 16.5523 17 16 17H10C9.44772 17 9 16.5523 9 16Z" fill="black"/>
</svg>
