<svg width="24" height="24" viewBox="0 0 24 24" fill="none" xmlns="http://www.w3.org/2000/svg">
<path fill-rule="evenodd" clip-rule="evenodd" d="M8 4C8 3.44772 8.44772 3 9 3H19C19.5523 3 20 3.44772 20 4V17C20 18.0609 19.5786 19.0783 18.8284 19.8284C18.0783 20.5786 17.0609 21 16 21C14.9391 21 13.9217 20.5786 13.1716 19.8284C12.4214 19.0783 12 18.0609 12 17C12 15.9391 12.4214 14.9217 13.1716 14.1716C13.9217 13.4214 14.9391 13 16 13C16.7082 13 17.3971 13.1878 18 13.5359V9H10V17C10 18.0609 9.57857 19.0783 8.82843 19.8284C8.07828 20.5786 7.06087 21 6 21C4.93913 21 3.92172 20.5786 3.17157 19.8284C2.42143 19.0783 2 18.0609 2 17C2 15.9391 2.42143 14.9217 3.17157 14.1716C3.92172 13.4214 4.93913 13 6 13C6.70823 13 7.39709 13.1878 8 13.5359V4ZM10 7H18V5H10V7Z" fill="black"/>
</svg>
