<svg width="24" height="24" viewBox="0 0 24 24" fill="none" xmlns="http://www.w3.org/2000/svg">
<path fill-rule="evenodd" clip-rule="evenodd" d="M14 3.00007C14 2.56693 13.7212 2.18303 13.3092 2.04909C12.8973 1.91514 12.446 2.0616 12.1913 2.4119L4.19127 13.4119C3.97004 13.7161 3.93821 14.1187 4.10889 14.4538C4.27957 14.789 4.62388 15.0001 5 15.0001H10V21.0001C10 21.4332 10.2789 21.8171 10.6908 21.9511C11.1027 22.085 11.554 21.9385 11.8087 21.5882L19.8087 10.5882C20.03 10.2841 20.0618 9.88146 19.8911 9.54629C19.7204 9.21112 19.3761 9.00007 19 9.00007H14V3.00007Z" fill="currentcolor"/>
</svg>
