<svg width="24" height="24" viewBox="0 0 24 24" fill="none" xmlns="http://www.w3.org/2000/svg">
<path d="M14 3.00001C14 2.56687 13.7212 2.18297 13.3092 2.04902C12.8973 1.91508 12.446 2.06154 12.1913 2.41184L4.19127 13.4118C3.97004 13.716 3.93821 14.1186 4.10889 14.4538C4.27957 14.789 4.62388 15 5 15H10V21C10 21.4331 10.2789 21.817 10.6908 21.951C11.1027 22.0849 11.554 21.9385 11.8087 21.5882L19.8087 10.5882C20.03 10.284 20.0618 9.8814 19.8911 9.54623C19.7204 9.21106 19.3761 9.00001 19 9.00001H14V3.00001Z" fill="black"/>
</svg>
