<svg width="24" height="24" viewBox="0 0 24 24" fill="none" xmlns="http://www.w3.org/2000/svg">
<path d="M16.8279 3C17.5552 2.99984 18.2577 3.26388 18.8049 3.743L18.9499 3.879L20.1209 5.049C20.6599 5.58739 20.9739 6.31069 20.9992 7.07212C21.0244 7.83355 20.759 8.57607 20.2569 9.149L20.1209 9.293L18.4149 11L20.7069 13.293C20.8791 13.4652 20.9825 13.6943 20.9978 13.9373C21.0131 14.1803 20.9391 14.4206 20.7899 14.613L20.7069 14.707L16.7069 18.707C16.5269 18.8863 16.2855 18.9905 16.0315 18.9982C15.7776 19.006 15.5302 18.9168 15.3396 18.7488C15.149 18.5807 15.0296 18.3464 15.0055 18.0935C14.9814 17.8406 15.0545 17.588 15.2099 17.387L15.2929 17.293L18.5849 14L16.9989 12.415L9.53488 19.879C8.87389 20.5399 7.9939 20.9362 7.06088 20.993L6.82788 21.001C6.15388 21.001 5.49788 20.823 4.92288 20.493L3.70688 21.707C3.52693 21.8863 3.28545 21.9905 3.0315 21.9982C2.77755 22.006 2.53017 21.9168 2.33961 21.7488C2.14904 21.5807 2.02958 21.3464 2.00549 21.0935C1.98139 20.8406 2.05447 20.588 2.20988 20.387L2.29288 20.293L3.50688 19.077C3.10829 18.3822 2.9377 17.5798 3.01914 16.7829C3.10059 15.9861 3.42997 15.2348 3.96088 14.635L4.12088 14.465L14.7069 3.879C15.2209 3.36454 15.9043 3.0543 16.6299 3.006L16.8279 3ZM16.8279 5C16.6081 4.99998 16.3944 5.07238 16.2199 5.206L16.1209 5.293L14.4139 7L16.9999 9.585L18.7069 7.879C18.8623 7.72345 18.9621 7.521 18.9909 7.303L19.0009 7.172C19.0008 6.95174 18.9281 6.73766 18.7939 6.563L18.7069 6.464L17.5359 5.293C17.4429 5.20002 17.3325 5.12628 17.2111 5.076C17.0896 5.02572 16.9594 4.9999 16.8279 5Z" fill="currentcolor"/>
</svg>
