<svg width="24" height="24" viewBox="0 0 24 24" fill="none" xmlns="http://www.w3.org/2000/svg">
<path d="M13 6.00012L20 13.0001L16 17.0001M3 20.0002L4.768 18.2322M4.82812 18.1721C5.09073 18.4348 5.40253 18.6432 5.74569 18.7853C6.08885 18.9275 6.45667 19.0007 6.82812 19.0007C7.19957 19.0007 7.56738 18.9275 7.91054 18.7853C8.25371 18.6432 8.5655 18.4348 8.82812 18.1721L19.4141 7.58607C19.5999 7.40035 19.7473 7.17983 19.8479 6.93713C19.9484 6.69442 20.0002 6.43429 20.0002 6.17157C20.0002 5.90886 19.9484 5.64872 19.8479 5.40602C19.7473 5.16331 19.5999 4.9428 19.4141 4.75707L18.2431 3.58607C18.0574 3.40027 17.8369 3.25288 17.5942 3.15232C17.3515 3.05176 17.0913 3 16.8286 3C16.5659 3 16.3058 3.05176 16.0631 3.15232C15.8204 3.25288 15.5998 3.40027 15.4141 3.58607L4.82812 14.1721C4.56542 14.4347 4.35704 14.7465 4.21486 15.0896C4.07269 15.4328 3.99951 15.8006 3.99951 16.1721C3.99951 16.5435 4.07269 16.9113 4.21486 17.2545C4.35704 17.5977 4.56542 17.9095 4.82812 18.1721Z" stroke="currentcolor" stroke-width="2" stroke-linecap="round" stroke-linejoin="round"/>
</svg>
