<svg width="24" height="24" viewBox="0 0 24 24" fill="none" xmlns="http://www.w3.org/2000/svg">
<path fill-rule="evenodd" clip-rule="evenodd" d="M6 5C6 4.44772 6.44772 4 7 4H13C14.1935 4 15.3381 4.47411 16.182 5.31802C17.0259 6.16193 17.5 7.30653 17.5 8.5C17.5 9.65816 17.0535 10.7703 16.2559 11.6063C16.5914 11.8006 16.9031 12.0391 17.182 12.318C18.0259 13.1619 18.5 14.3065 18.5 15.5C18.5 16.6935 18.0259 17.8381 17.182 18.682C16.3381 19.5259 15.1935 20 14 20H7C6.44772 20 6 19.5523 6 19V5ZM13 11C13.663 11 14.2989 10.7366 14.7678 10.2678C15.2366 9.79893 15.5 9.16304 15.5 8.5C15.5 7.83696 15.2366 7.20107 14.7678 6.73223C14.2989 6.26339 13.663 6 13 6H8V11H13ZM8 13H14C14.663 13 15.2989 13.2634 15.7678 13.7322C16.2366 14.2011 16.5 14.837 16.5 15.5C16.5 16.163 16.2366 16.7989 15.7678 17.2678C15.2989 17.7366 14.663 18 14 18H8V13Z" fill="black"/>
</svg>
