<svg width="24" height="24" viewBox="0 0 24 24" fill="none" xmlns="http://www.w3.org/2000/svg">
<path fill-rule="evenodd" clip-rule="evenodd" d="M7.75746 2.02985C8.29325 1.8959 8.83619 2.22166 8.97013 2.75746L9.78077 6H14.2192L15.0299 2.75746C15.1638 2.22166 15.7067 1.8959 16.2425 2.02985C16.7783 2.1638 17.1041 2.70673 16.9701 3.24253L16.2808 6H17C17.7956 6 18.5587 6.31607 19.1213 6.87868C19.6839 7.44129 20 8.20435 20 9V9.58579L20.7071 10.2929C20.8946 10.4804 21 10.7348 21 11V14C21 14.2652 20.8946 14.5196 20.7071 14.7071L20 15.4142V18C20 18.7957 19.6839 19.5587 19.1213 20.1213C18.5587 20.6839 17.7957 21 17 21H7C6.20435 21 5.44129 20.6839 4.87868 20.1213C4.31607 19.5587 4 18.7957 4 18V15.4142L3.29289 14.7071C3.10536 14.5196 3 14.2652 3 14V11C3 10.7348 3.10536 10.4804 3.29289 10.2929L4 9.58579V9C4 8.20435 4.31607 7.44129 4.87868 6.87868C5.44129 6.31607 6.20435 6 7 6H7.71922L7.02985 3.24253C6.8959 2.70673 7.22166 2.1638 7.75746 2.02985ZM7 11.5C7 10.6716 7.67157 10 8.5 10C9.32843 10 10 10.6716 10 11.5C10 12.3284 9.32843 13 8.5 13C7.67157 13 7 12.3284 7 11.5ZM15.5 10C14.6716 10 14 10.6716 14 11.5C14 12.3284 14.6716 13 15.5 13C16.3284 13 17 12.3284 17 11.5C17 10.6716 16.3284 10 15.5 10ZM10 15C9.44772 15 9 15.4477 9 16C9 16.5523 9.44772 17 10 17H14C14.5523 17 15 16.5523 15 16C15 15.4477 14.5523 15 14 15H10Z" fill="black"/>
</svg>
