<svg width="24" height="24" viewBox="0 0 24 24" fill="none" xmlns="http://www.w3.org/2000/svg">
<path d="M8 8V6C8 5.46957 8.21071 4.96086 8.58579 4.58579C8.96086 4.21071 9.46957 4 10 4H14C14.5304 4 15.0391 4.21071 15.4142 4.58579C15.7893 4.96086 16 5.46957 16 6V8M3 14C5.79158 15.4067 8.87403 16.1394 12 16.1394C15.126 16.1394 18.2084 15.4067 21 14M5 8H19C20.1046 8 21 8.89543 21 10V19C21 20.1046 20.1046 21 19 21H5C3.89543 21 3 20.1046 3 19V10C3 8.89543 3.89543 8 5 8Z" stroke="#1B1B20" stroke-width="2" stroke-linecap="round" stroke-linejoin="round"/>
</svg>
