<svg width="24" height="24" viewBox="0 0 24 24" fill="none" xmlns="http://www.w3.org/2000/svg">
<mask id="mask0_17027_54203" style="mask-type:alpha" maskUnits="userSpaceOnUse" x="2" y="3" width="21" height="19">
<path fill-rule="evenodd" clip-rule="evenodd" d="M10.0002 5C9.73503 5 9.48067 5.10536 9.29314 5.29289C9.1056 5.48043 9.00024 5.73478 9.00024 6V7H15.0002V6C15.0002 5.73478 14.8949 5.48043 14.7074 5.29289C14.5198 5.10536 14.2655 5 14.0002 5H10.0002ZM17.0002 7V6C17.0002 5.20435 16.6842 4.44129 16.1216 3.87868C15.559 3.31607 14.7959 3 14.0002 3H10.0002C9.20459 3 8.44153 3.31607 7.87892 3.87868C7.31632 4.44129 7.00024 5.20435 7.00024 6V7H5.00024C3.34339 7 2.00024 8.34315 2.00024 10V12.3359L2.45328 12.5767L3.45981 13.1117C6.10928 14.4449 9.03412 15.1394 12.0002 15.1394C14.9699 15.1394 17.8982 14.4433 20.5502 13.1069L20.5512 13.1064L21.5527 12.6031L22.0002 12.3782V10C22.0002 8.34315 20.6571 7 19.0002 7H17.0002ZM22.0002 14.6165L21.4502 14.893C18.519 16.37 15.2825 17.1394 12.0002 17.1394C8.71793 17.1394 5.48136 16.37 2.5502 14.893L2.53084 14.8829L2.00024 14.6009V19C2.00024 20.6569 3.34339 22 5.00024 22H19.0002C20.6571 22 22.0002 20.6569 22.0002 19V14.6165Z" fill="#1B1B20"/>
</mask>
<g mask="url(#mask0_17027_54203)">
<path d="M0 0H24V24H0V0Z" fill="currentcolor"/>
</g>
</svg>
