<svg width="24" height="24" viewBox="0 0 24 24" fill="none" xmlns="http://www.w3.org/2000/svg">
<path fill-rule="evenodd" clip-rule="evenodd" d="M17.0002 7V6C17.0002 5.20435 16.6841 4.44129 16.1215 3.87868C15.5589 3.31607 14.7959 3 14.0002 3H10.0002C9.20456 3 8.4415 3.31607 7.87889 3.87868C7.31628 4.44129 7.00021 5.20435 7.00021 6V7H5.00021C3.34336 7 2.00021 8.34315 2.00021 10V12.3359L3.45978 13.1117C6.10925 14.4449 9.03409 15.1394 12.0002 15.1394C14.9698 15.1394 17.8982 14.4433 20.5502 13.1069L22.0002 12.3782V10C22.0002 8.34315 20.6571 7 19.0002 7H17.0002ZM10.0002 5C9.735 5 9.48064 5.10536 9.29311 5.29289C9.10557 5.48043 9.00021 5.73478 9.00021 6V7H15.0002V6C15.0002 5.73478 14.8949 5.48043 14.7073 5.29289C14.5198 5.10536 14.2654 5 14.0002 5H10.0002Z" fill="#1B1B20"/>
<path d="M22.0002 14.6165L21.4502 14.893C18.519 16.37 15.2824 17.1394 12.0002 17.1394C8.7179 17.1394 5.48133 16.37 2.55017 14.893L2.53081 14.8829L2.00021 14.6009V19C2.00021 20.6569 3.34336 22 5.00021 22H19.0002C20.6571 22 22.0002 20.6569 22.0002 19V14.6165Z" fill="#1B1B20"/>
</svg>
