<svg width="24" height="24" viewBox="0 0 24 24" fill="none" xmlns="http://www.w3.org/2000/svg">
<path d="M12 20C13.3261 20 14.5979 19.4732 15.5355 18.5355C16.4732 17.5979 17 16.3261 17 15V12C16.9409 10.9286 16.5956 9.89259 16 9H8C7.4044 9.89259 7.05907 10.9286 7 12V15C7 16.3261 7.52678 17.5979 8.46447 18.5355C9.40215 19.4732 10.6739 20 12 20ZM12 20V14M4 19L7.35 17M3 13H7M4 7L7.75 9.4M9 9V8C9 7.20435 9.31607 6.44129 9.87868 5.87868C10.4413 5.31607 11.2044 5 12 5C12.7956 5 13.5587 5.31607 14.1213 5.87868C14.6839 6.44129 15 7.20435 15 8V9M20 7L16.25 9.4M17 13H21M19.9999 19L16.6499 17" stroke="black" stroke-width="2" stroke-linecap="round" stroke-linejoin="round"/>
</svg>
