<svg width="24" height="24" viewBox="0 0 24 24" fill="none" xmlns="http://www.w3.org/2000/svg">
<path fill-rule="evenodd" clip-rule="evenodd" d="M8 8C8 6.93913 8.42143 5.92172 9.17157 5.17157C9.92172 4.42143 10.9391 4 12 4C13.0609 4 14.0783 4.42143 14.8284 5.17157C15.5786 5.92172 16 6.93913 16 8C16.1512 8 16.2979 8.03417 16.4303 8.09733L19.4609 6.15773C19.9261 5.86002 20.5446 5.99577 20.8423 6.46095C21.14 6.92612 21.0042 7.54456 20.5391 7.84227L17.5247 9.77149C17.7963 10.4631 17.9572 11.1966 17.9985 11.945C17.9995 11.9633 18 11.9816 18 12H21C21.5523 12 22 12.4477 22 13C22 13.5523 21.5523 14 21 14H18V15C18 15.5188 17.9328 16.0306 17.8033 16.5239L20.5126 18.1414C20.9868 18.4245 21.1417 19.0384 20.8586 19.5126C20.5755 19.9868 19.9616 20.1417 19.4874 19.8586L16.9728 18.3574C16.7598 18.6729 16.5157 18.9696 16.2426 19.2426C15.1174 20.3679 13.5913 21 12 21C10.4087 21 8.88258 20.3679 7.75736 19.2426C7.48428 18.9696 7.24024 18.6729 7.02723 18.3574L4.51261 19.8586C4.03841 20.1417 3.42448 19.9868 3.14138 19.5126C2.85827 19.0384 3.01319 18.4245 3.48739 18.1414L6.19672 16.5239C6.06718 16.0306 6 15.5188 6 15V14H3C2.44772 14 2 13.5523 2 13C2 12.4477 2.44772 12 3 12H6C6 11.9816 6.00051 11.9633 6.00152 11.945C6.04277 11.1966 6.20372 10.4631 6.47534 9.77149L3.46095 7.84227C2.99577 7.54456 2.86002 6.92612 3.15773 6.46095C3.45544 5.99577 4.07388 5.86002 4.53905 6.15773L7.56967 8.09733C7.70214 8.03417 7.84881 8 8 8ZM10.5858 6.58579C10.9609 6.21071 11.4696 6 12 6C12.5304 6 13.0391 6.21071 13.4142 6.58579C13.7893 6.96086 14 7.46957 14 8H10C10 7.46957 10.2107 6.96086 10.5858 6.58579Z" fill="black"/>
</svg>
