<svg width="24" height="24" viewBox="0 0 24 24" fill="none" xmlns="http://www.w3.org/2000/svg">
<g clip-path="url(#clip0_24_370)">
<path d="M5 20H13C13.55 20 14 19.55 14 19C14 18.45 13.55 18 13 18H5C4.45 18 4 18.45 4 19C4 19.55 4.45 20 5 20ZM4 6C4 6.55 4.45 7 5 7H19C19.55 7 20 6.55 20 6C20 5.45 19.55 5 19 5H5C4.45 5 4 5.45 4 6Z" fill="#424D57"/>
<path d="M5 16H19C19.55 16 20 15.55 20 15C20 14.45 19.55 14 19 14H5C4.45 14 4 14.45 4 15C4 15.55 4.45 16 5 16ZM4 10C4 10.55 4.45 11 5 11H19C19.55 11 20 10.55 20 10C20 9.45 19.55 9 19 9H5C4.45 9 4 9.45 4 10Z" fill="#424D57"/>
<path d="M4 15V10C4 9.45 4.45 9 5 9C5.55 9 6 9.45 6 10V15C6 15.55 5.55 16 5 16C4.45 16 4 15.55 4 15Z" fill="#424D57"/>
<path d="M18 15V10C18 9.45 18.45 9 19 9C19.55 9 20 9.45 20 10V15C20 15.55 19.55 16 19 16C18.45 16 18 15.55 18 15Z" fill="#424D57"/>
</g>
<defs>
<clipPath id="clip0_24_370">
<rect width="24" height="24" fill="white"/>
</clipPath>
</defs>
</svg>
