<svg width="24" height="24" viewBox="0 0 24 24" fill="none" xmlns="http://www.w3.org/2000/svg">
<path d="M21 17H15.603C14.7991 16.9999 14.007 16.806 13.294 16.4347C12.581 16.0634 11.968 15.5256 11.507 14.867L10.993 14.133C10.532 13.4744 9.91904 12.9366 9.20601 12.5653C8.49298 12.194 7.70092 12.0001 6.897 12H3" stroke="black" stroke-width="2" stroke-linecap="round" stroke-linejoin="round"/>
<path d="M21 7H15.605C14.8006 6.99996 14.008 7.19402 13.2946 7.56571C12.5812 7.93739 11.9679 8.47572 11.507 9.135L10.997 9.865C10.5362 10.5241 9.9231 11.0624 9.20987 11.4341C8.49664 11.8057 7.70427 11.9999 6.9 12H3" stroke="black" stroke-width="2" stroke-linecap="round" stroke-linejoin="round"/>
<path d="M18 10L21 7L18 4" stroke="black" stroke-width="2" stroke-linecap="round" stroke-linejoin="round"/>
<path d="M18 20L21 17L18 14" stroke="black" stroke-width="2" stroke-linecap="round" stroke-linejoin="round"/>
</svg>
