<svg width="24" height="24" viewBox="0 0 24 24" fill="none" xmlns="http://www.w3.org/2000/svg">
<path d="M21 17H15.603C14.7991 16.9999 14.007 16.806 13.294 16.4347C12.581 16.0634 11.968 15.5256 11.507 14.867L10.993 14.133C10.532 13.4744 9.91904 12.9366 9.20601 12.5653C8.49298 12.194 7.70092 12.0001 6.897 12H3H6.9C7.70427 11.9999 8.49664 11.8057 9.20987 11.4341C9.9231 11.0624 10.5362 10.5241 10.997 9.865L11.507 9.135C11.9679 8.47572 12.5812 7.93739 13.2946 7.56571C14.008 7.19402 14.8006 6.99996 15.605 7H21M21 17L18 20M21 17L18 14M21 7L18 10M21 7L18 4" stroke="black" stroke-width="2" stroke-linecap="round" stroke-linejoin="round"/>
</svg>
