<svg width="24" height="24" viewBox="0 0 24 24" fill="none" xmlns="http://www.w3.org/2000/svg">
<path fill-rule="evenodd" clip-rule="evenodd" d="M12.4646 2.98807C10.0751 2.89119 7.71448 3.56748 5.82116 4.91069C3.92573 6.2554 2.61673 8.1871 2.17611 10.3639C1.76779 12.3812 2.13814 14.4499 3.20113 16.2344L2.05133 19.6838C1.93792 20.024 2.0154 20.399 2.25441 20.6664C2.49341 20.9338 2.85732 21.0528 3.20813 20.9781L7.58162 20.0476C9.62136 20.9545 11.9447 21.2084 14.1661 20.7683C16.5042 20.3051 18.5988 19.0984 20.0455 17.3432C21.4953 15.5843 22.1917 13.3963 21.9753 11.1875C21.7591 8.98036 20.6506 6.94384 18.8942 5.44574C17.1404 3.94983 14.8542 3.08496 12.4646 2.98807ZM12 11C12.5523 11 13 11.4477 13 12V12.01C13 12.5623 12.5523 13.01 12 13.01C11.4477 13.01 11 12.5623 11 12.01V12C11 11.4477 11.4477 11 12 11ZM9.00002 12C9.00002 11.4477 8.5523 11 8.00002 11C7.44773 11 7.00002 11.4477 7.00002 12V12.01C7.00002 12.5623 7.44773 13.01 8.00002 13.01C8.5523 13.01 9.00002 12.5623 9.00002 12.01V12ZM16 11C16.5523 11 17 11.4477 17 12V12.01C17 12.5623 16.5523 13.01 16 13.01C15.4477 13.01 15 12.5623 15 12.01V12C15 11.4477 15.4477 11 16 11Z" fill="currentcolor"/>
</svg>
