<svg width="24" height="24" viewBox="0 0 24 24" fill="none" xmlns="http://www.w3.org/2000/svg">
<path fill-rule="evenodd" clip-rule="evenodd" d="M12.4646 2.98814C10.0751 2.89125 7.71448 3.56754 5.82116 4.91075C3.92573 6.25546 2.61673 8.18716 2.17611 10.364C1.76779 12.3813 2.13814 14.45 3.20113 16.2344L2.05133 19.6838C1.93792 20.0241 2.0154 20.399 2.25441 20.6665C2.49341 20.9339 2.85732 21.0528 3.20813 20.9782L7.58162 20.0476C9.62136 20.9546 11.9447 21.2085 14.1661 20.7684C16.5042 20.3052 18.5988 19.0984 20.0455 17.3433C21.4953 15.5844 22.1917 13.3963 21.9753 11.1876C21.7591 8.98042 20.6506 6.94391 18.8942 5.4458C17.1404 3.94989 14.8542 3.08502 12.4646 2.98814ZM12 11.0001C12.5523 11.0001 13 11.4478 13 12.0001V12.0101C13 12.5623 12.5523 13.0101 12 13.0101C11.4477 13.0101 11 12.5623 11 12.0101V12.0001C11 11.4478 11.4477 11.0001 12 11.0001ZM9.00002 12.0001C9.00002 11.4478 8.5523 11.0001 8.00002 11.0001C7.44773 11.0001 7.00002 11.4478 7.00002 12.0001V12.0101C7.00002 12.5623 7.44773 13.0101 8.00002 13.0101C8.5523 13.0101 9.00002 12.5623 9.00002 12.0101V12.0001ZM16 11.0001C16.5523 11.0001 17 11.4478 17 12.0001V12.0101C17 12.5623 16.5523 13.0101 16 13.0101C15.4477 13.0101 15 12.5623 15 12.0101V12.0001C15 11.4478 15.4477 11.0001 16 11.0001Z" fill="black"/>
</svg>
