<svg width="24" height="24" viewBox="0 0 24 24" fill="none" xmlns="http://www.w3.org/2000/svg">
<path d="M8.01804 9.59484C7.66678 9.44532 7.24973 9.70005 7.24973 10.0818V12.0395C7.24973 12.3112 7.39686 12.5613 7.64277 12.6769C8.39202 13.0291 10.1186 13.7295 11.9995 13.7295C13.8804 13.7295 15.6069 13.0291 16.3562 12.6769C16.6021 12.5613 16.7492 12.3112 16.7492 12.0395V10.0818C16.7492 9.70005 16.3322 9.44532 15.9809 9.59485C15.1143 9.96377 13.6137 10.4797 11.9995 10.4797C10.3853 10.4797 8.8847 9.96377 8.01804 9.59484Z" fill="#0066FF"/>
<path fill-rule="evenodd" clip-rule="evenodd" d="M6.8734 18.9774L9.49961 18.9792L9.49962 22.2291L14.5178 18.9828L17.1168 18.9846C19.526 18.9846 21.6835 17.1917 21.8703 14.6586C22.0404 12.3524 22.0485 8.97656 21.8631 6.66886C21.6773 4.35612 19.8176 2.58507 17.5486 2.42209C13.9847 2.1661 10.0321 2.16611 6.4682 2.42209C4.19924 2.58507 2.33952 4.35612 2.15372 6.66886C1.96833 8.97656 1.94485 12.3524 2.11491 14.6586C2.3017 17.1917 4.46419 18.9774 6.8734 18.9774ZM6.70103 5.66358C10.1099 5.41872 13.9069 5.41872 17.3158 5.66358C18.0294 5.71483 18.57 6.26123 18.6237 6.9291C18.7958 9.07096 18.7871 12.2799 18.6293 14.4196C18.5772 15.1263 17.9567 15.7329 17.1172 15.7329H14.5177L9.49961 18.9792V15.7329H6.86803C6.02857 15.7329 5.40806 15.1263 5.35594 14.4196C5.19816 12.2799 5.22105 9.07096 5.39312 6.9291C5.44677 6.26123 5.98745 5.71483 6.70103 5.66358Z" fill="#0066FF"/>
</svg>
