<svg width="24" height="24" viewBox="0 0 24 24" fill="none" xmlns="http://www.w3.org/2000/svg">
<path d="M12.4646 2.98807C10.0751 2.89119 7.71447 3.56748 5.82115 4.91069C3.92571 6.2554 2.61672 8.1871 2.1761 10.3639C1.76777 12.3812 2.13813 14.4499 3.20112 16.2344L2.05132 19.6838C1.9379 20.024 2.01539 20.399 2.25439 20.6664C2.49339 20.9338 2.85731 21.0528 3.20811 20.9781L7.5816 20.0476C9.62135 20.9545 11.9447 21.2084 14.1661 20.7683C16.5042 20.3051 18.5988 19.0984 20.0455 17.3432C21.4953 15.5843 22.1917 13.3963 21.9753 11.1875C21.7591 8.98036 20.6506 6.94384 18.8942 5.44574C17.1404 3.94983 14.8542 3.08496 12.4646 2.98807Z" fill="black"/>
</svg>
