<svg width="24" height="24" viewBox="0 0 24 24" fill="none" xmlns="http://www.w3.org/2000/svg">
<path fill-rule="evenodd" clip-rule="evenodd" d="M12.4646 2.98814C10.0751 2.89125 7.71448 3.56754 5.82116 4.91075C3.92573 6.25546 2.61673 8.18716 2.17611 10.364C1.76779 12.3813 2.13814 14.45 3.20113 16.2344L2.05133 19.6838C1.93792 20.0241 2.0154 20.399 2.25441 20.6665C2.49341 20.9339 2.85732 21.0528 3.20813 20.9782L7.58162 20.0476C9.62136 20.9546 11.9447 21.2085 14.1661 20.7684C16.5042 20.3052 18.5988 19.0984 20.0455 17.3433C21.4953 15.5844 22.1917 13.3963 21.9753 11.1876C21.7591 8.98042 20.6506 6.94391 18.8942 5.4458C17.1404 3.94989 14.8542 3.08502 12.4646 2.98814Z" fill="black"/>
</svg>
