<svg width="24" height="24" viewBox="0 0 24 24" fill="none" xmlns="http://www.w3.org/2000/svg">
<path d="M22.0039 13.4517L18.9855 11.7204L18.4637 11.4956L6.11719 11.5812V17.8482H22.0012L22.0039 13.4517Z" fill="white"/>
<path d="M16.5075 17.27C16.6547 16.7643 16.5985 16.2987 16.3523 15.9535C16.1275 15.6378 15.7476 15.4531 15.29 15.4317L6.63084 15.3193C6.57465 15.3193 6.52648 15.2899 6.49705 15.2497C6.46761 15.2069 6.46226 15.1507 6.47564 15.0945C6.50507 15.0089 6.58802 14.9474 6.679 14.9393L15.4158 14.827C16.4487 14.7788 17.5752 13.9412 17.9686 12.9137L18.4689 11.6132C18.4904 11.557 18.4984 11.5008 18.4823 11.4446C17.9231 8.89988 15.6512 7 12.9352 7C10.4306 7 8.30594 8.61891 7.54599 10.8613C7.05363 10.4947 6.42747 10.2994 5.75315 10.3609C4.549 10.4813 3.58568 11.4446 3.46794 12.6461C3.43851 12.9565 3.45992 13.2589 3.53217 13.5399C1.57074 13.5961 0 15.1989 0 17.1764C0 17.353 0.0133791 17.5269 0.0347862 17.7035C0.0481656 17.7892 0.120414 17.8507 0.203366 17.8507H16.1864C16.2774 17.8507 16.363 17.7865 16.3898 17.6955L16.5075 17.27Z" fill="#F38020"/>
<path d="M19.2665 11.707C19.1889 11.707 19.1059 11.707 19.0283 11.7151C18.9721 11.7151 18.924 11.7579 18.9026 11.8141L18.5654 12.9888C18.4182 13.4945 18.4744 13.9601 18.7206 14.3053C18.9454 14.6211 19.3254 14.8057 19.7829 14.8271L21.6266 14.9395C21.6828 14.9395 21.731 14.9689 21.7604 15.0091C21.7899 15.0519 21.7952 15.1134 21.7818 15.1643C21.7524 15.2499 21.6694 15.3114 21.5785 15.3195L19.6572 15.4319C18.6163 15.48 17.4977 16.3176 17.1044 17.3451L16.9626 17.7037C16.9331 17.7733 16.984 17.8455 17.0616 17.8455H23.6549C23.7325 17.8455 23.8021 17.7973 23.8235 17.7197C23.9359 17.313 24.0001 16.8822 24.0001 16.4407C24.0001 13.8317 21.8755 11.707 19.2665 11.707Z" fill="#FAAE40"/>
</svg>
