<svg width="24" height="24" viewBox="0 0 24 24" fill="none" xmlns="http://www.w3.org/2000/svg">
<path fill-rule="evenodd" clip-rule="evenodd" d="M3.17157 4.17157C3.92172 3.42143 4.93913 3 6 3H18C19.0609 3 20.0783 3.42143 20.8284 4.17157C21.5786 4.92172 22 5.93913 22 7V17C22 18.0609 21.5786 19.0783 20.8284 19.8284C20.0783 20.5786 19.0609 21 18 21H6C4.93913 21 3.92172 20.5786 3.17157 19.8284C2.42143 19.0783 2 18.0609 2 17V7C2 5.93913 2.42143 4.92172 3.17157 4.17157ZM9 7C8.20435 7 7.44129 7.31607 6.87868 7.87868C6.31607 8.44129 6 9.20435 6 10C6 10.7956 6.31607 11.5587 6.87868 12.1213C7.44129 12.6839 8.20435 13 9 13C9.79565 13 10.5587 12.6839 11.1213 12.1213C11.6839 11.5587 12 10.7957 12 10C12 9.20435 11.6839 8.44129 11.1213 7.87868C10.5587 7.31607 9.79565 7 9 7ZM14 8C14 7.44772 14.4477 7 15 7H17C17.5523 7 18 7.44772 18 8C18 8.55228 17.5523 9 17 9H15C14.4477 9 14 8.55228 14 8ZM15 11C14.4477 11 14 11.4477 14 12C14 12.5523 14.4477 13 15 13H17C17.5523 13 18 12.5523 18 12C18 11.4477 17.5523 11 17 11H15ZM6 16C6 15.4477 6.44772 15 7 15H17C17.5523 15 18 15.4477 18 16C18 16.5523 17.5523 17 17 17H7C6.44772 17 6 16.5523 6 16Z" fill="currentcolor"/>
</svg>
