<svg width="24" height="24" viewBox="0 0 24 24" fill="none" xmlns="http://www.w3.org/2000/svg">
<path fill-rule="evenodd" clip-rule="evenodd" d="M6 3C5.20435 3 4.44129 3.31607 3.87868 3.87868C3.31607 4.44129 3 5.20435 3 6V14C3 14.7956 3.31607 15.5587 3.87868 16.1213C4.44129 16.6839 5.20435 17 6 17H7V18C7 18.7957 7.31607 19.5587 7.87868 20.1213C8.44129 20.6839 9.20435 21 10 21H18C18.7957 21 19.5587 20.6839 20.1213 20.1213C20.6839 19.5587 21 18.7957 21 18V10C21 9.20435 20.6839 8.44129 20.1213 7.87868C19.5587 7.31607 18.7957 7 18 7H17V6C17 5.20435 16.6839 4.44129 16.1213 3.87868C15.5587 3.31607 14.7956 3 14 3H6ZM15 7V6C15 5.73478 14.8946 5.48043 14.7071 5.29289C14.5196 5.10536 14.2652 5 14 5H6C5.73478 5 5.48043 5.10536 5.29289 5.29289C5.10536 5.48043 5 5.73478 5 6V14C5 14.2652 5.10536 14.5196 5.29289 14.7071C5.48043 14.8946 5.73478 15 6 15H7V10C7 9.20435 7.31607 8.44129 7.87868 7.87868C8.44129 7.31607 9.20435 7 10 7H15Z" fill="black"/>
</svg>
