<svg width="24" height="24" viewBox="0 0 24 24" fill="none" xmlns="http://www.w3.org/2000/svg">
<path fill-rule="evenodd" clip-rule="evenodd" d="M3.17157 5.17157C3.92172 4.42143 4.93913 4 6 4H18C19.0609 4 20.0783 4.42143 20.8284 5.17157C21.5786 5.92172 22 6.93913 22 8V9H2V8C2 6.93913 2.42143 5.92172 3.17157 5.17157ZM2 11V16C2 17.0609 2.42143 18.0783 3.17157 18.8284C3.92172 19.5786 4.93913 20 6 20H18C19.0609 20 20.0783 19.5786 20.8284 18.8284C21.5786 18.0783 22 17.0609 22 16V11H2ZM6 15C6 14.4477 6.44772 14 7 14H7.01C7.56228 14 8.01 14.4477 8.01 15C8.01 15.5523 7.56228 16 7.01 16H7C6.44772 16 6 15.5523 6 15ZM10 15C10 14.4477 10.4477 14 11 14H13C13.5523 14 14 14.4477 14 15C14 15.5523 13.5523 16 13 16H11C10.4477 16 10 15.5523 10 15Z" fill="black"/>
</svg>
