<svg width="24" height="24" viewBox="0 0 24 24" fill="none" xmlns="http://www.w3.org/2000/svg">
<g clip-path="url(#clip0_1_4119)">
<path d="M12 19C12.2449 19 12.4813 19.09 12.6644 19.2527C12.8474 19.4155 12.9643 19.6397 12.993 19.883L13 20V21C12.9997 21.2549 12.9021 21.5 12.7272 21.6854C12.5522 21.8707 12.313 21.9822 12.0586 21.9972C11.8042 22.0121 11.5536 21.9293 11.3582 21.7657C11.1627 21.6021 11.0371 21.3701 11.007 21.117L11 21V20C11 19.7348 11.1054 19.4804 11.2929 19.2929C11.4804 19.1054 11.7348 19 12 19Z" fill="black"/>
<path d="M18.313 16.91L18.407 16.993L19.107 17.693C19.2863 17.873 19.3905 18.1144 19.3982 18.3684C19.406 18.6223 19.3168 18.8697 19.1488 19.0603C18.9807 19.2508 18.7464 19.3703 18.4935 19.3944C18.2406 19.4185 17.988 19.3454 17.787 19.19L17.693 19.107L16.993 18.407C16.8204 18.2347 16.7168 18.0054 16.7015 17.762C16.6862 17.5187 16.7603 17.2781 16.9099 17.0856C17.0596 16.8931 17.2744 16.7619 17.514 16.7166C17.7536 16.6714 18.0015 16.7153 18.211 16.84L18.313 16.91Z" fill="black"/>
<path d="M7.007 16.993C7.17918 17.1652 7.28261 17.3943 7.29789 17.6373C7.31317 17.8803 7.23925 18.1206 7.09 18.313L7.007 18.407L6.307 19.107C6.12704 19.2863 5.88557 19.3905 5.63162 19.3982C5.37767 19.406 5.13029 19.3168 4.93972 19.1488C4.74916 18.9807 4.62969 18.7464 4.6056 18.4935C4.58151 18.2406 4.65459 17.988 4.81 17.787L4.893 17.693L5.593 16.993C5.78053 16.8055 6.03484 16.7002 6.3 16.7002C6.56516 16.7002 6.81947 16.8055 7.007 16.993Z" fill="black"/>
<path d="M4 11C4.25488 11.0003 4.50003 11.0979 4.68537 11.2728C4.8707 11.4478 4.98223 11.687 4.99717 11.9414C5.01211 12.1958 4.92933 12.4464 4.76574 12.6418C4.60214 12.8373 4.3701 12.9629 4.117 12.993L4 13H3C2.74512 12.9997 2.49997 12.9021 2.31463 12.7272C2.1293 12.5522 2.01777 12.313 2.00283 12.0586C1.98789 11.8042 2.07067 11.5536 2.23426 11.3582C2.39786 11.1627 2.6299 11.0371 2.883 11.007L3 11H4Z" fill="black"/>
<path d="M21 11C21.2549 11.0003 21.5 11.0979 21.6854 11.2728C21.8707 11.4478 21.9822 11.687 21.9972 11.9414C22.0121 12.1958 21.9293 12.4464 21.7657 12.6418C21.6021 12.8373 21.3701 12.9629 21.117 12.993L21 13H20C19.7451 12.9997 19.5 12.9021 19.3146 12.7272C19.1293 12.5522 19.0178 12.313 19.0028 12.0586C18.9879 11.8042 19.0707 11.5536 19.2343 11.3582C19.3979 11.1627 19.6299 11.0371 19.883 11.007L20 11H21Z" fill="black"/>
<path d="M6.213 4.81L6.307 4.893L7.007 5.593C7.18635 5.77296 7.29047 6.01443 7.29823 6.26838C7.30598 6.52233 7.21679 6.76971 7.04875 6.96028C6.88072 7.15084 6.64645 7.27031 6.39353 7.2944C6.1406 7.31849 5.88799 7.24541 5.687 7.09L5.593 7.007L4.893 6.307C4.72109 6.13468 4.61793 5.90557 4.60287 5.66263C4.5878 5.41969 4.66186 5.17959 4.81116 4.98735C4.96046 4.79511 5.17476 4.66393 5.41387 4.61839C5.65298 4.57285 5.90049 4.61609 6.11 4.74L6.213 4.81Z" fill="black"/>
<path d="M19.107 4.893C19.2792 5.06519 19.3826 5.29429 19.3979 5.53732C19.4132 5.78034 19.3393 6.0206 19.19 6.213L19.107 6.307L18.407 7.007C18.227 7.18635 17.9856 7.29047 17.7316 7.29823C17.4777 7.30598 17.2303 7.21678 17.0397 7.04875C16.8492 6.88072 16.7297 6.64645 16.7056 6.39353C16.6815 6.1406 16.7546 5.88799 16.91 5.687L16.993 5.593L17.693 4.893C17.8805 4.70553 18.1348 4.60021 18.4 4.60021C18.6652 4.60021 18.9195 4.70553 19.107 4.893Z" fill="black"/>
<path d="M12 2C12.2449 2.00003 12.4813 2.08996 12.6644 2.25272C12.8474 2.41547 12.9643 2.63975 12.993 2.883L13 3V4C12.9997 4.25488 12.9021 4.50003 12.7272 4.68537C12.5522 4.8707 12.313 4.98223 12.0586 4.99717C11.8042 5.01211 11.5536 4.92933 11.3582 4.76574C11.1627 4.60214 11.0371 4.3701 11.007 4.117L11 4V3C11 2.73478 11.1054 2.48043 11.2929 2.29289C11.4804 2.10536 11.7348 2 12 2Z" fill="black"/>
<path d="M12 7C12.9797 6.99994 13.9378 7.28769 14.7553 7.8275C15.5729 8.36731 16.2138 9.1354 16.5986 10.0364C16.9833 10.9373 17.0949 11.9315 16.9195 12.8953C16.7441 13.8592 16.2893 14.7502 15.6118 15.4579C14.9343 16.1655 14.0638 16.6585 13.1085 16.8756C12.1532 17.0928 11.1552 17.0245 10.2383 16.6793C9.3215 16.334 8.52629 15.7271 7.95146 14.9338C7.37663 14.1405 7.04752 13.1958 7.005 12.217L7 12L7.005 11.783C7.06092 10.4958 7.61161 9.27978 8.54222 8.38866C9.47284 7.49754 10.7115 7.00007 12 7Z" fill="black"/>
</g>
<defs>
<clipPath id="clip0_1_4119">
<rect width="24" height="24" fill="white"/>
</clipPath>
</defs>
</svg>
