<svg width="24" height="24" viewBox="0 0 24 24" fill="none" xmlns="http://www.w3.org/2000/svg">
<g clip-path="url(#clip0_12772_47409)">
<path d="M12 19C12.2449 19 12.4813 19.09 12.6644 19.2527C12.8474 19.4155 12.9643 19.6397 12.993 19.883L13 20V21C12.9997 21.2549 12.9021 21.5 12.7272 21.6854C12.5522 21.8707 12.313 21.9822 12.0586 21.9972C11.8042 22.0121 11.5536 21.9293 11.3582 21.7657C11.1627 21.6021 11.0371 21.3701 11.007 21.117L11 21V20C11 19.7348 11.1054 19.4804 11.2929 19.2929C11.4804 19.1054 11.7348 19 12 19Z" fill="black"/>
<path d="M18.3132 16.9099L18.4072 16.9929L19.1072 17.6929C19.2866 17.8729 19.3907 18.1144 19.3984 18.3683C19.4062 18.6223 19.317 18.8697 19.149 19.0602C18.9809 19.2508 18.7467 19.3703 18.4937 19.3943C18.2408 19.4184 17.9882 19.3454 17.7872 19.1899L17.6932 19.1069L16.9932 18.4069C16.8207 18.2347 16.717 18.0053 16.7017 17.7619C16.6864 17.5186 16.7605 17.278 16.9102 17.0855C17.0598 16.893 17.2746 16.7618 17.5142 16.7166C17.7538 16.6713 18.0017 16.7152 18.2112 16.8399L18.3132 16.9099Z" fill="black"/>
<path d="M7.00698 16.993C7.17916 17.1652 7.28259 17.3943 7.29787 17.6373C7.31315 17.8803 7.23923 18.1206 7.08998 18.313L7.00698 18.407L6.30698 19.107C6.12702 19.2863 5.88555 19.3905 5.6316 19.3982C5.37765 19.406 5.13027 19.3168 4.9397 19.1487C4.74914 18.9807 4.62968 18.7464 4.60558 18.4935C4.58149 18.2406 4.65457 17.988 4.80998 17.787L4.89298 17.693L5.59298 16.993C5.78051 16.8055 6.03482 16.7002 6.29998 16.7002C6.56515 16.7002 6.81945 16.8055 7.00698 16.993Z" fill="black"/>
<path d="M3.99987 11C4.25475 11.0003 4.4999 11.0979 4.68524 11.2728C4.87057 11.4478 4.9821 11.687 4.99704 11.9414C5.01198 12.1958 4.92919 12.4464 4.7656 12.6418C4.60201 12.8373 4.36996 12.9629 4.11687 12.993L3.99987 13H2.99987C2.74499 12.9997 2.49984 12.9021 2.3145 12.7272C2.12916 12.5522 2.01763 12.313 2.0027 12.0586C1.98776 11.8042 2.07054 11.5536 2.23413 11.3582C2.39772 11.1627 2.62977 11.0371 2.88287 11.007L2.99987 11H3.99987Z" fill="black"/>
<path d="M20.9999 11C21.2547 11.0003 21.4999 11.0979 21.6852 11.2728C21.8706 11.4478 21.9821 11.687 21.997 11.9414C22.012 12.1958 21.9292 12.4464 21.7656 12.6418C21.602 12.8373 21.37 12.9629 21.1169 12.993L20.9999 13H19.9999C19.745 12.9997 19.4998 12.9021 19.3145 12.7272C19.1292 12.5522 19.0176 12.313 19.0027 12.0586C18.9878 11.8042 19.0705 11.5536 19.2341 11.3582C19.3977 11.1627 19.6298 11.0371 19.8829 11.007L19.9999 11H20.9999Z" fill="black"/>
<path d="M6.21313 4.8101L6.30713 4.8931L7.00713 5.5931C7.18647 5.77305 7.2906 6.01453 7.29835 6.26848C7.30611 6.52243 7.21691 6.76981 7.04888 6.96037C6.88084 7.15094 6.64658 7.2704 6.39365 7.2945C6.14073 7.31859 5.88812 7.24551 5.68713 7.0901L5.59313 7.0071L4.89313 6.3071C4.72122 6.13478 4.61806 5.90567 4.60299 5.66273C4.58793 5.41979 4.66199 5.17969 4.81129 4.98745C4.96059 4.79521 5.17488 4.66402 5.414 4.61849C5.65311 4.57295 5.90062 4.61619 6.11013 4.7401L6.21313 4.8101Z" fill="black"/>
<path d="M19.1071 4.89288C19.2793 5.06508 19.3827 5.29418 19.398 5.5372C19.4132 5.78023 19.3393 6.02048 19.1901 6.21288L19.1071 6.30688L18.4071 7.00688C18.2271 7.18623 17.9856 7.29036 17.7317 7.29811C17.4777 7.30587 17.2304 7.21667 17.0398 7.04864C16.8492 6.8806 16.7298 6.64633 16.7057 6.39341C16.6816 6.14049 16.7547 5.88788 16.9101 5.68688L16.9931 5.59288L17.6931 4.89288C17.8806 4.70541 18.1349 4.6001 18.4001 4.6001C18.6652 4.6001 18.9196 4.70541 19.1071 4.89288Z" fill="black"/>
<path d="M12 2C12.2449 2.00003 12.4813 2.08996 12.6644 2.25272C12.8474 2.41547 12.9643 2.63975 12.993 2.883L13 3V4C12.9997 4.25488 12.9021 4.50003 12.7272 4.68537C12.5522 4.8707 12.313 4.98223 12.0586 4.99717C11.8042 5.01211 11.5536 4.92933 11.3582 4.76574C11.1627 4.60214 11.0371 4.3701 11.007 4.117L11 4V3C11 2.73478 11.1054 2.48043 11.2929 2.29289C11.4804 2.10536 11.7348 2 12 2Z" fill="black"/>
<path d="M12 7C12.9797 6.99994 13.9378 7.28769 14.7553 7.8275C15.5729 8.36731 16.2138 9.1354 16.5986 10.0364C16.9833 10.9373 17.0949 11.9315 16.9195 12.8953C16.7441 13.8592 16.2893 14.7502 15.6118 15.4579C14.9343 16.1655 14.0638 16.6585 13.1085 16.8756C12.1532 17.0928 11.1552 17.0245 10.2383 16.6793C9.3215 16.334 8.52629 15.7271 7.95146 14.9338C7.37663 14.1405 7.04752 13.1958 7.005 12.217L7 12L7.005 11.783C7.06092 10.4958 7.61161 9.27978 8.54222 8.38866C9.47284 7.49754 10.7115 7.00007 12 7Z" fill="black"/>
</g>
<defs>
<clipPath id="clip0_12772_47409">
<rect width="24" height="24" fill="white"/>
</clipPath>
</defs>
</svg>
