<svg width="24" height="24" viewBox="0 0 24 24" fill="none" xmlns="http://www.w3.org/2000/svg">
<path d="M18.0308 15.5V17M18.0308 17C18.5612 17 19.0699 17.2107 19.445 17.5858C19.82 17.9609 20.0308 18.4696 20.0308 19C20.0308 19.5304 19.82 20.0391 19.445 20.4142C19.0699 20.7893 18.5612 21 18.0308 21M18.0308 17C17.5003 17 16.9916 17.2107 16.6165 17.5858C16.2415 17.9609 16.0308 18.4696 16.0308 19C16.0308 19.5304 16.2415 20.0391 16.6165 20.4142C16.9916 20.7893 17.5003 21 18.0308 21M21.0617 17.25L19.7627 18M19.7627 20L21.0627 20.75M15 17.25L16.3 18M16.3 20L15 20.75M18.0308 21V22.5M10.5 21H7C6.46957 21 5.96086 20.7893 5.58579 20.4142C5.21071 20.0391 5 19.5304 5 19V5C5 4.46957 5.21071 3.96086 5.58579 3.58579C5.96086 3.21071 6.46957 3 7 3H15C15.5304 3 16.0391 3.21071 16.4142 3.58579C16.7893 3.96086 17 4.46957 17 5V11.5M10 4H12M11 17V17.01" stroke="currentcolor" stroke-width="2" stroke-linecap="round" stroke-linejoin="round"/>
</svg>
