<svg width="24" height="24" viewBox="0 0 24 24" fill="none" xmlns="http://www.w3.org/2000/svg">
<path fill-rule="evenodd" clip-rule="evenodd" d="M15 2C15.7652 1.99996 16.5015 2.29233 17.0583 2.81728C17.615 3.34224 17.9501 4.06011 17.995 4.824L18 5V14.7638C17.9588 14.8008 17.9183 14.8391 17.8787 14.8787L15.9966 16.7608C14.8186 15.7085 13.0095 15.7478 11.8787 16.8787C10.7071 18.0503 10.7071 19.9497 11.8787 21.1213L12.7574 22H7C6.23479 22 5.49849 21.7077 4.94174 21.1827C4.38499 20.6578 4.04989 19.9399 4.005 19.176L4 19V5C3.99996 4.23479 4.29233 3.49849 4.81728 2.94174C5.34224 2.38499 6.06011 2.04989 6.824 2.005L7 2H15ZM12 4H10L9.883 4.007C9.63995 4.03591 9.41594 4.15296 9.25341 4.33596C9.09088 4.51897 9.00111 4.75524 9.00111 5C9.00111 5.24476 9.09088 5.48103 9.25341 5.66404C9.41594 5.84704 9.63995 5.96409 9.883 5.993L10 6H12L12.117 5.993C12.36 5.96409 12.5841 5.84704 12.7466 5.66404C12.9091 5.48103 12.9989 5.24476 12.9989 5C12.9989 4.75524 12.9091 4.51897 12.7466 4.33596C12.5841 4.15296 12.36 4.03591 12.117 4.007L12 4Z" fill="currentcolor"/>
<path d="M20.7071 17.7071C21.0976 17.3166 21.0976 16.6834 20.7071 16.2929C20.3166 15.9024 19.6834 15.9024 19.2929 16.2929L16 19.5858L14.7071 18.2929C14.3166 17.9024 13.6834 17.9024 13.2929 18.2929C12.9024 18.6834 12.9024 19.3166 13.2929 19.7071L15.2929 21.7071C15.6834 22.0976 16.3166 22.0976 16.7071 21.7071L20.7071 17.7071Z" fill="currentcolor"/>
</svg>
