<svg width="24" height="24" viewBox="0 0 24 24" fill="none" xmlns="http://www.w3.org/2000/svg">
<path fill-rule="evenodd" clip-rule="evenodd" d="M2.58579 3.58579C2.96086 3.21071 3.46957 3 4 3H17C17.5304 3 18.0391 3.21071 18.4142 3.58579C18.7893 3.96086 19 4.46957 19 5V7H20C20.5304 7 21.0391 7.21071 21.4142 7.58579C21.7893 7.96086 22 8.46957 22 9V19C22 19.5304 21.7893 20.0391 21.4142 20.4142C21.0391 20.7893 20.5304 21 20 21H14C13.4696 21 12.9609 20.7893 12.5858 20.4142C12.2107 20.0391 12 19.5304 12 19H4C3.46957 19 2.96086 18.7893 2.58579 18.4142C2.21071 18.0391 2 17.5304 2 17V5C2 4.46957 2.21071 3.96086 2.58579 3.58579ZM17 5L17 7H14C13.4696 7 12.9609 7.21071 12.5858 7.58579C12.2107 7.96086 12 8.46957 12 9V17H4V5H17ZM14 19V18V9H15C15 9.55228 15.4477 10 16 10H18C18.5523 10 19 9.55228 19 9H20V19H14Z" fill="black"/>
</svg>
