<svg width="24" height="24" viewBox="0 0 24 24" fill="none" xmlns="http://www.w3.org/2000/svg">
<path d="M10.5198 2.61402C10.8916 2.24246 11.3894 2.02419 11.9145 2.00252C12.4397 1.98084 12.9538 2.15735 13.3548 2.49702L13.4808 2.61402L21.3858 10.519C22.1628 11.296 22.2018 12.532 21.5028 13.355L21.3858 13.481L13.4808 21.386C13.1092 21.7581 12.6111 21.9767 12.0857 21.9983C11.5603 22.02 11.0459 21.8432 10.6448 21.503L10.5188 21.386L2.61185 13.48C2.24078 13.1079 2.02302 12.61 2.00172 12.0849C1.98042 11.5599 2.15714 11.046 2.49685 10.645L2.61385 10.519L10.5188 2.61402H10.5198ZM16.4888 12.149L16.4988 12.033L16.4958 11.913L16.4798 11.799L16.4498 11.689L16.4058 11.577L16.3538 11.479L16.2778 11.374L16.2078 11.293L12.7078 7.79302L12.6128 7.71002C12.4375 7.57395 12.2218 7.5001 11.9998 7.5001C11.7779 7.5001 11.5622 7.57395 11.3868 7.71002L11.2928 7.79302L11.2098 7.88702C11.0738 8.06239 10.9999 8.27805 10.9999 8.50002C10.9999 8.72199 11.0738 8.93765 11.2098 9.11302L11.2928 9.20702L13.0848 11H7.99985L7.88285 11.007C7.6398 11.0359 7.41579 11.153 7.25326 11.336C7.09073 11.519 7.00096 11.7553 7.00096 12C7.00096 12.2448 7.09073 12.481 7.25326 12.6641C7.41579 12.8471 7.6398 12.9641 7.88285 12.993L7.99985 13H13.0848L11.2928 14.793L11.2098 14.887C11.0607 15.0794 10.9869 15.3196 11.0022 15.5626C11.0175 15.8056 11.121 16.0346 11.2931 16.2068C11.4653 16.3789 11.6943 16.4823 11.9373 16.4977C12.1802 16.513 12.4204 16.4392 12.6128 16.29L12.7068 16.207L16.2068 12.707L16.3038 12.595L16.3538 12.521L16.3908 12.454L16.4408 12.342L16.4638 12.266L16.4888 12.149Z" fill="currentcolor"/>
</svg>
