<svg width="24" height="24" viewBox="0 0 24 24" fill="none" xmlns="http://www.w3.org/2000/svg">
<path d="M12 8.5L15.5 12M15.5 12L12 15.5M15.5 12H8M3.31992 12.774L11.2259 20.679C11.6529 21.107 12.3459 21.107 12.7739 20.679L20.6789 12.774C20.8841 12.5687 20.9994 12.2903 20.9994 12C20.9994 11.7098 20.8841 11.4314 20.6789 11.226L12.7739 3.32105C12.5686 3.11587 12.2902 3.00061 11.9999 3.00061C11.7097 3.00061 11.4313 3.11587 11.2259 3.32105L3.32092 11.226C3.11574 11.4314 3.00049 11.7098 3.00049 12C3.00049 12.2903 3.11574 12.5687 3.32092 12.774H3.31992Z" stroke="black" stroke-width="2" stroke-linecap="round" stroke-linejoin="round"/>
</svg>
