<svg width="24" height="24" viewBox="0 0 24 24" fill="none" xmlns="http://www.w3.org/2000/svg">
<path d="M16.973 17.9761C14.186 20.1661 10.083 20.6421 6.7 19.0001L2 20.0001L3.3 16.1001C1.071 12.8041 1.806 8.58907 4.98 6.04307" fill="currentcolor"/>
<path d="M2 3L20 21Z" fill="currentcolor"/>
<path d="M8.59521 4.57707C11.8182 3.40107 15.6202 3.96707 18.2452 6.20707C21.2272 8.75007 21.8462 12.7301 19.8812 15.8671" fill="currentcolor"/>
<path d="M16.973 17.9761C14.186 20.1661 10.083 20.6421 6.7 19.0001L2 20.0001L3.3 16.1001C1.071 12.8041 1.806 8.58907 4.98 6.04307M2 3L20 21M8.59521 4.57707C11.8182 3.40107 15.6202 3.96707 18.2452 6.20707C21.2272 8.75007 21.8462 12.7301 19.8812 15.8671L8.59521 4.57707Z" stroke="currentcolor" stroke-width="2" stroke-linecap="round" stroke-linejoin="round"/>
</svg>
