<svg width="24" height="24" viewBox="0 0 24 24" fill="none" xmlns="http://www.w3.org/2000/svg">
<g clip-path="url(#clip0_17205_8773)">
<g clip-path="url(#clip1_17205_8773)">
<path d="M12.0056 0.00244211C18.6301 0.00469169 23.9988 5.37573 23.9988 12.0002V12.0047C23.9966 18.6302 18.6233 24.0001 11.9967 23.9979C5.37108 23.9956 0.0011691 18.6213 0.00341868 11.9958C0.00566825 5.37011 5.37896 0.00019254 12.0056 0.00244211ZM11.9443 3.08811C11.6149 4.33493 10.5039 5.44247 9.34064 6.60578C7.60078 8.35014 5.62266 10.3238 5.62266 13.2881C5.62716 16.7745 8.45009 19.6009 11.9366 19.6098C15.4297 19.6098 18.2627 16.78 18.266 13.2881C18.266 10.3238 16.2935 8.35126 14.548 6.60578L14.3921 6.44981C13.2868 5.34312 12.2581 4.2801 11.9443 3.08811V3.08811ZM12.0301 12.5545C12.7559 13.3282 13.2167 13.8614 13.6942 14.4436C13.7298 14.487 13.7622 14.5337 13.7911 14.5838C14.3756 15.4265 14.2964 16.5619 13.6008 17.3144C12.7815 18.2016 11.399 18.2561 10.5117 17.4369C9.62455 16.6176 9.57 15.235 10.3892 14.3479C10.8546 13.7979 11.4167 13.2569 12.0301 12.5545V12.5545ZM9.14136 9.65358L9.44637 9.9419L10.8624 11.3901C10.9158 11.4514 10.9158 11.5415 10.8624 11.6028L9.38188 13.2391L8.8642 13.8692C8.6673 14.1089 8.50024 14.3717 8.36667 14.6518C8.34773 14.6985 8.30762 14.733 8.25869 14.7441H8.20639C8.06279 14.7319 7.89801 14.4669 7.89801 14.4669L7.87176 14.4273C7.8375 14.3739 7.80612 14.3188 7.77775 14.2621L7.74991 14.202C7.54782 13.5428 7.53128 12.8407 7.70211 12.1727L7.72123 12.1033C7.87866 11.5481 8.12684 11.0228 8.45571 10.5486C8.66711 10.2375 8.89603 9.93869 9.14136 9.65358V9.65358ZM11.9533 6.72595C12.3306 7.15458 12.7559 7.58425 13.1566 7.98496L13.1655 8.0128C14.0035 8.79345 14.7612 9.65602 15.4274 10.5876C15.9932 11.3825 16.3024 12.3314 16.3136 13.307C16.3135 13.7286 16.2501 14.1477 16.1253 14.5504L16.1192 14.567C16.1027 14.6074 16.0763 14.6429 16.0423 14.6702C16.0083 14.6975 15.9679 14.7157 15.9249 14.723H15.8849C15.7984 14.6956 15.7253 14.6368 15.68 14.5582L15.6129 14.4574C15.2518 13.922 14.8449 13.419 14.3966 12.9542L13.8189 12.3442L11.8931 10.3383C11.568 10.0254 10.987 9.46433 10.742 9.15933C10.7343 9.14256 10.7249 9.12656 10.7142 9.11153C10.6475 9.0202 10.596 8.91869 10.5617 8.81093V8.75084C10.5284 8.55502 10.5548 8.35372 10.6374 8.17308C10.6909 8.05821 10.7644 7.95379 10.8545 7.8647C11.2274 7.49183 11.6003 7.12675 11.9531 6.72595H11.9533Z" fill="#009DDE"/>
</g>
</g>
<defs>
<clipPath id="clip0_17205_8773">
<rect width="24" height="24" fill="white"/>
</clipPath>
<clipPath id="clip1_17205_8773">
<rect width="24" height="24" fill="white"/>
</clipPath>
</defs>
</svg>
