<svg width="24" height="24" viewBox="0 0 24 24" fill="none" xmlns="http://www.w3.org/2000/svg">
<path d="M13.7929 4.79289C14.5109 4.07492 15.4846 3.67157 16.5 3.67157C17.5154 3.67157 18.4891 4.07492 19.2071 4.79289C19.9251 5.51086 20.3284 6.48464 20.3284 7.5C20.3284 8.51536 19.9251 9.48913 19.2071 10.2071L18.8834 10.5308C18.8379 10.4453 18.7792 10.365 18.7071 10.2929L13.7071 5.29289C13.635 5.22083 13.5547 5.16207 13.4692 5.1166L13.7929 4.79289Z" fill="black"/>
<path d="M12.1166 6.46918L3.29289 15.2929C3.10536 15.4804 3 15.7348 3 16V20C3 20.5523 3.44772 21 4 21H8C8.26522 21 8.51957 20.8946 8.70711 20.7071L17.5308 11.8834C17.4453 11.8379 17.365 11.7792 17.2929 11.7071L12.2929 6.70711C12.2208 6.63504 12.1621 6.55472 12.1166 6.46918Z" fill="black"/>
</svg>
