<svg width="24" height="24" viewBox="0 0 24 24" fill="none" xmlns="http://www.w3.org/2000/svg">
<path fill-rule="evenodd" clip-rule="evenodd" d="M13.7929 4.79295C14.5109 4.07498 15.4846 3.67163 16.5 3.67163C17.5154 3.67163 18.4891 4.07498 19.2071 4.79295C19.9251 5.51092 20.3284 6.4847 20.3284 7.50006C20.3284 8.51542 19.9251 9.48919 19.2071 10.2072L18.8834 10.5309C18.8379 10.4453 18.7792 10.365 18.7071 10.293L13.7071 5.29295C13.635 5.22089 13.5547 5.16213 13.4692 5.11666L13.7929 4.79295ZM12.1166 6.46925L3.29289 15.293C3.10536 15.4805 3 15.7348 3 16.0001V20.0001C3 20.5523 3.44772 21.0001 4 21.0001H8C8.26522 21.0001 8.51957 20.8947 8.70711 20.7072L17.5308 11.8835C17.4453 11.838 17.365 11.7792 17.2929 11.7072L12.2929 6.70717C12.2208 6.63511 12.1621 6.55478 12.1166 6.46925Z" fill="currentcolor"/>
</svg>
