<svg width="24" height="24" viewBox="0 0 24 24" fill="none" xmlns="http://www.w3.org/2000/svg">
<path d="M2.87868 4.87868C3.44129 4.31607 4.20435 4 5 4H19C19.7957 4 20.5587 4.31607 21.1213 4.87868C21.2883 5.04561 21.4335 5.2302 21.5552 5.42804L20.4516 6.16377L20.4453 6.16793L12 11.7981L3.55471 6.16793L3.54847 6.16381L2.44481 5.42804C2.56652 5.23019 2.71175 5.04561 2.87868 4.87868Z" fill="#131317"/>
<path d="M2 7.53519V17C2 17.7956 2.31607 18.5587 2.87868 19.1213C3.44129 19.6839 4.20435 20 5 20H19C19.7957 20 20.5587 19.6839 21.1213 19.1213C21.6839 18.5587 22 17.7957 22 17V7.53518L12.5547 13.832C12.2188 14.056 11.7812 14.056 11.4453 13.832L2 7.53519Z" fill="#131317"/>
</svg>
