<svg width="24" height="24" viewBox="0 0 24 24" fill="none" xmlns="http://www.w3.org/2000/svg">
<path d="M8 12C8 13.0609 8.42143 14.0783 9.17157 14.8284C9.92172 15.5786 10.9391 16 12 16C13.0609 16 14.0783 15.5786 14.8284 14.8284C15.5786 14.0783 16 13.0609 16 12C16 10.9391 15.5786 9.92172 14.8284 9.17157C14.0783 8.42143 13.0609 8 12 8C10.9391 8 9.92172 8.42143 9.17157 9.17157C8.42143 9.92172 8 10.9391 8 12Z" stroke="currentcolor" stroke-width="2" stroke-linecap="round" stroke-linejoin="round"/>
<path d="M16 12.0001V13.5001C16 14.1631 16.2634 14.799 16.7322 15.2679C17.2011 15.7367 17.837 16.0001 18.5 16.0001C19.163 16.0001 19.7989 15.7367 20.2678 15.2679C20.7366 14.799 21 14.1631 21 13.5001V12.0001C21.0025 10.0662 20.382 8.18293 19.2304 6.62928C18.0788 5.07564 16.4574 3.93424 14.6064 3.37419C12.7554 2.81414 10.7732 2.86521 8.95343 3.51985C7.13371 4.17449 5.57324 5.39787 4.50321 7.00877C3.43317 8.61966 2.91047 10.5324 3.01255 12.4636C3.11463 14.3948 3.83605 16.2417 5.06995 17.7309C6.30385 19.22 7.98459 20.272 9.86319 20.7312C11.7418 21.1903 13.7183 21.0322 15.5 20.2801" stroke="currentcolor" stroke-width="2" stroke-linecap="round" stroke-linejoin="round"/>
</svg>
