<svg width="24" height="24" viewBox="0 0 24 24" fill="none" xmlns="http://www.w3.org/2000/svg">
<path fill-rule="evenodd" clip-rule="evenodd" d="M8.17317 2.7612C9.38642 2.25866 10.6868 2 12 2C13.3132 2 14.6136 2.25866 15.8268 2.7612C17.0401 3.26375 18.1425 4.00035 19.0711 4.92893C19.9997 5.85752 20.7362 6.95991 21.2388 8.17317C21.7413 9.38642 22 10.6868 22 12C22 13.3132 21.7413 14.6136 21.2388 15.8268C20.7362 17.0401 19.9997 18.1425 19.0711 19.0711C18.1425 19.9997 17.0401 20.7362 15.8268 21.2388C14.6136 21.7413 13.3132 22 12 22C10.6868 22 9.38642 21.7413 8.17317 21.2388C6.95991 20.7362 5.85752 19.9997 4.92893 19.0711C4.00035 18.1425 3.26375 17.0401 2.7612 15.8268C2.25866 14.6136 2 13.3132 2 12C2 10.6868 2.25866 9.38642 2.7612 8.17317C3.26375 6.95991 4.00035 5.85752 4.92893 4.92893C5.85752 4.00035 6.95991 3.26375 8.17317 2.7612ZM9 9C8.44772 9 8 9.44772 8 10C8 10.5523 8.44772 11 9 11H9.01C9.56228 11 10.01 10.5523 10.01 10C10.01 9.44772 9.56228 9 9.01 9H9ZM15 9C14.4477 9 14 9.44772 14 10C14 10.5523 14.4477 11 15 11H15.01C15.5623 11 16.01 10.5523 16.01 10C16.01 9.44772 15.5623 9 15.01 9H15ZM8.80015 14.2857C9.19464 13.8992 9.82777 13.9057 10.2143 14.3001C10.4471 14.5377 10.7249 14.7265 11.0315 14.8553C11.3381 14.9841 11.6674 15.0505 12 15.0505C12.3326 15.0505 12.6619 14.9841 12.9685 14.8553C13.2751 14.7265 13.5529 14.5377 13.7857 14.3001C14.1722 13.9057 14.8054 13.8992 15.1999 14.2857C15.5943 14.6722 15.6008 15.3054 15.2143 15.6999C14.7953 16.1275 14.2952 16.4672 13.7433 16.6991C13.1913 16.9311 12.5987 17.0505 12 17.0505C11.4013 17.0505 10.8087 16.9311 10.2567 16.6991C9.70481 16.4672 9.2047 16.1275 8.78571 15.6999C8.3992 15.3054 8.40566 14.6722 8.80015 14.2857Z" fill="black"/>
</svg>
