<svg width="24" height="24" viewBox="0 0 24 24" fill="none" xmlns="http://www.w3.org/2000/svg">
<mask id="mask0_13163_43650" style="mask-type:alpha" maskUnits="userSpaceOnUse" x="4" y="2" width="16" height="20">
<path fill-rule="evenodd" clip-rule="evenodd" d="M6.29289 4.29289C6.48043 4.10536 6.73478 4 7 4H13V7C13 7.53043 13.2107 8.03914 13.5858 8.41421C13.9609 8.78929 14.4696 9 15 9H18V19C18 19.2652 17.8946 19.5196 17.7071 19.7071C17.5196 19.8946 17.2652 20 17 20H7C6.73478 20 6.48043 19.8946 6.29289 19.7071C6.10536 19.5196 6 19.2652 6 19V5C6 4.73478 6.10536 4.48043 6.29289 4.29289ZM16.5858 7L15 5.41421V7H16.5858ZM7 2C6.20435 2 5.44129 2.31607 4.87868 2.87868C4.31607 3.44129 4 4.20435 4 5V19C4 19.7957 4.31607 20.5587 4.87868 21.1213C5.44129 21.6839 6.20435 22 7 22H17C17.7957 22 18.5587 21.6839 19.1213 21.1213C19.6839 20.5587 20 19.7957 20 19V8C20 7.73478 19.8946 7.48043 19.7071 7.29289L14.7071 2.29289C14.5196 2.10536 14.2652 2 14 2H7ZM8.71267 9.49614C8.80894 8.39578 9.779 7.5818 10.8794 7.67806C11.9797 7.77433 12.7937 8.7444 12.6974 9.84477C12.6818 10.0232 12.6432 10.1941 12.5848 10.3548L14.9027 13.1172C15.0712 13.0875 15.2463 13.0792 15.4248 13.0948C16.5251 13.1911 17.3391 14.1611 17.2429 15.2615C17.1466 16.3619 16.1765 17.1759 15.0762 17.0796C14.5689 17.0352 14.1225 16.8051 13.7981 16.4622L11.0166 17.1267C10.7522 18.0196 9.88845 18.6334 8.92479 18.5491C7.82442 18.4528 7.01044 17.4827 7.10671 16.3824C7.18003 15.5444 7.76014 14.8725 8.51864 14.6422L9.33784 11.1303C8.90559 10.7249 8.65701 10.1323 8.71267 9.49614ZM11.2247 11.8454L13.3707 14.4028C13.357 14.4403 13.3445 14.4784 13.3331 14.517L10.5513 15.1815C10.5239 15.1525 10.4955 15.1242 10.4663 15.0968L11.2247 11.8454Z" fill="currentcolor"/>
</mask>
<g mask="url(#mask0_13163_43650)">
<rect width="24" height="24" fill="currentcolor"/>
</g>
</svg>
