<svg width="24" height="24" viewBox="0 0 24 24" fill="none" xmlns="http://www.w3.org/2000/svg">
<mask id="mask0_13163_43657" style="mask-type:alpha" maskUnits="userSpaceOnUse" x="4" y="2" width="16" height="20">
<path fill-rule="evenodd" clip-rule="evenodd" d="M6.29289 4.29289C6.48043 4.10536 6.73478 4 7 4H13V7C13 7.53043 13.2107 8.03914 13.5858 8.41421C13.9609 8.78929 14.4696 9 15 9H18V19C18 19.2652 17.8946 19.5196 17.7071 19.7071C17.5196 19.8946 17.2652 20 17 20H7C6.73478 20 6.48043 19.8946 6.29289 19.7071C6.10536 19.5196 6 19.2652 6 19V5C6 4.73478 6.10536 4.48043 6.29289 4.29289ZM16.5858 7L15 5.41421V7H16.5858ZM7 2C6.20435 2 5.44129 2.31607 4.87868 2.87868C4.31607 3.44129 4 4.20435 4 5V19C4 19.7957 4.31607 20.5587 4.87868 21.1213C5.44129 21.6839 6.20435 22 7 22H17C17.7957 22 18.5587 21.6839 19.1213 21.1213C19.6839 20.5587 20 19.7957 20 19V8C20 7.73478 19.8946 7.48043 19.7071 7.29289L14.7071 2.29289C14.5196 2.10536 14.2652 2 14 2H7ZM13 10.5C13 9.94772 12.5523 9.5 12 9.5C11.4477 9.5 11 9.94772 11 10.5V11.1716C10.6708 11.288 10.3627 11.4615 10.0906 11.6861L9.51548 11.3401C9.04222 11.0554 8.42779 11.2083 8.1431 11.6815C7.85841 12.1548 8.01127 12.7692 8.48452 13.0539L9.06051 13.4004C9.02056 13.5963 9 13.7971 9 14C9 14.1851 9.0171 14.3684 9.05043 14.5478L8.46805 14.8838C7.98967 15.1598 7.8256 15.7713 8.10159 16.2497C8.37758 16.7281 8.98912 16.8922 9.4675 16.6162L10.0502 16.28C10.3321 16.521 10.6544 16.7062 11 16.8284V17.5C11 18.0523 11.4477 18.5 12 18.5C12.5523 18.5 13 18.0523 13 17.5V16.8284C13.3291 16.7121 13.6372 16.5385 13.9093 16.314L14.4844 16.6599C14.9576 16.9446 15.5721 16.7918 15.8567 16.3185C16.1414 15.8453 15.9886 15.2308 15.5153 14.9461L14.9395 14.5997C14.9794 14.4038 15 14.203 15 14C15 13.8148 14.9829 13.6313 14.9495 13.4517L15.5309 13.116C16.0092 12.8399 16.1731 12.2283 15.897 11.75C15.6208 11.2717 15.0092 11.1078 14.5309 11.384L13.9494 11.7197C13.6677 11.4788 13.3454 11.2937 13 11.1716V10.5ZM12.8608 13.4911C12.8185 13.4194 12.767 13.3528 12.7071 13.2929C12.5196 13.1054 12.2652 13 12 13C11.7348 13 11.4804 13.1054 11.2929 13.2929C11.1054 13.4804 11 13.7348 11 14C11 14.2652 11.1054 14.5196 11.2929 14.7071C11.4804 14.8946 11.7348 15 12 15C12.2652 15 12.5196 14.8946 12.7071 14.7071C12.8946 14.5196 13 14.2652 13 14C13 13.8264 12.9549 13.6575 12.8711 13.5089L12.8659 13.5L12.8608 13.4911Z" fill="currentcolor"/>
</mask>
<g mask="url(#mask0_13163_43657)">
<rect width="24" height="24" fill="currentcolor"/>
</g>
</svg>
