<svg width="24" height="24" viewBox="0 0 24 24" fill="none" xmlns="http://www.w3.org/2000/svg">
<mask id="mask0_13163_43654" style="mask-type:alpha" maskUnits="userSpaceOnUse" x="4" y="2" width="16" height="20">
<path fill-rule="evenodd" clip-rule="evenodd" d="M7 4C6.73478 4 6.48043 4.10536 6.29289 4.29289C6.10536 4.48043 6 4.73478 6 5V19C6 19.2652 6.10536 19.5196 6.29289 19.7071C6.48043 19.8946 6.73478 20 7 20H17C17.2652 20 17.5196 19.8946 17.7071 19.7071C17.8946 19.5196 18 19.2652 18 19V9H15C14.4696 9 13.9609 8.78929 13.5858 8.41421C13.2107 8.03914 13 7.53043 13 7V4H7ZM15 5.41421L16.5858 7H15V5.41421ZM4.87868 2.87868C5.44129 2.31607 6.20435 2 7 2H14C14.2652 2 14.5196 2.10536 14.7071 2.29289L19.7071 7.29289C19.8946 7.48043 20 7.73478 20 8V19C20 19.7957 19.6839 20.5587 19.1213 21.1213C18.5587 21.6839 17.7957 22 17 22H7C6.20435 22 5.44129 21.6839 4.87868 21.1213C4.31607 20.5587 4 19.7957 4 19V5C4 4.20435 4.31607 3.44129 4.87868 2.87868ZM10.4472 12.1056C10.9412 12.3526 11.1414 12.9532 10.8944 13.4472L10.118 15L10.8944 16.5528C11.1414 17.0468 10.9412 17.6474 10.4472 17.8944C9.95324 18.1414 9.35256 17.9412 9.10557 17.4472L8.10557 15.4472C7.96481 15.1657 7.96481 14.8343 8.10557 14.5528L9.10557 12.5528C9.35256 12.0588 9.95324 11.8586 10.4472 12.1056ZM14.8944 12.5528C14.6474 12.0588 14.0468 11.8586 13.5528 12.1056C13.0588 12.3526 12.8586 12.9532 13.1056 13.4472L13.882 15L13.1056 16.5528C12.8586 17.0468 13.0588 17.6474 13.5528 17.8944C14.0468 18.1414 14.6474 17.9412 14.8944 17.4472L15.8944 15.4472C16.0352 15.1657 16.0352 14.8343 15.8944 14.5528L14.8944 12.5528Z" fill="currentcolor"/>
</mask>
<g mask="url(#mask0_13163_43654)">
<rect width="24" height="24" fill="currentcolor"/>
</g>
</svg>
