<svg width="24" height="24" viewBox="0 0 24 24" fill="none" xmlns="http://www.w3.org/2000/svg">
<mask id="mask0_13163_43652" style="mask-type:alpha" maskUnits="userSpaceOnUse" x="4" y="2" width="16" height="20">
<path fill-rule="evenodd" clip-rule="evenodd" d="M6.29289 4.29289C6.48043 4.10536 6.73478 4 7 4H13V7C13 7.53043 13.2107 8.03914 13.5858 8.41421C13.9609 8.78929 14.4696 9 15 9H18V19C18 19.2652 17.8946 19.5196 17.7071 19.7071C17.5196 19.8946 17.2652 20 17 20H7C6.73478 20 6.48043 19.8946 6.29289 19.7071C6.10536 19.5196 6 19.2652 6 19V5C6 4.73478 6.10536 4.48043 6.29289 4.29289ZM16.5858 7L15 5.41421V7H16.5858ZM7 2C6.20435 2 5.44129 2.31607 4.87868 2.87868C4.31607 3.44129 4 4.20435 4 5V19C4 19.7957 4.31607 20.5587 4.87868 21.1213C5.44129 21.6839 6.20435 22 7 22H17C17.7957 22 18.5587 21.6839 19.1213 21.1213C19.6839 20.5587 20 19.7957 20 19V8C20 7.73478 19.8946 7.48043 19.7071 7.29289L14.7071 2.29289C14.5196 2.10536 14.2652 2 14 2H7ZM9 8C8.44772 8 8 8.44772 8 9C8 9.55228 8.44772 10 9 10H10C10.5523 10 11 9.55228 11 9C11 8.44772 10.5523 8 10 8H9ZM8 13C8 12.4477 8.44772 12 9 12H15C15.5523 12 16 12.4477 16 13C16 13.5523 15.5523 14 15 14H9C8.44772 14 8 13.5523 8 13ZM9 16C8.44772 16 8 16.4477 8 17C8 17.5523 8.44772 18 9 18H15C15.5523 18 16 17.5523 16 17C16 16.4477 15.5523 16 15 16H9Z" fill="currentcolor"/>
</mask>
<g mask="url(#mask0_13163_43652)">
<rect width="24" height="24" fill="currentcolor"/>
</g>
</svg>
