<svg width="24" height="24" viewBox="0 0 24 24" fill="none" xmlns="http://www.w3.org/2000/svg">
<path d="M14 3H7C6.46957 3 5.96086 3.21071 5.58579 3.58579C5.21071 3.96086 5 4.46957 5 5V19C5 19.5304 5.21071 20.0391 5.58579 20.4142C5.96086 20.7893 6.46957 21 7 21H17C17.5304 21 18.0391 20.7893 18.4142 20.4142C18.7893 20.0391 19 19.5304 19 19V8M14 3L19 8M14 3V7C14 7.26522 14.1054 7.51957 14.2929 7.70711C14.4804 7.89464 14.7348 8 15 8H19M10.7051 9.67053L9.09879 16.5567L15.2503 15.0873L10.7051 9.67053ZM16.2465 15.1744C16.1984 15.7246 15.7134 16.1316 15.1632 16.0835C14.613 16.0353 14.206 15.5503 14.2542 15.0001C14.3023 14.4499 14.7873 14.0429 15.3375 14.0911C15.8877 14.1392 16.2947 14.6242 16.2465 15.1744ZM11.7011 9.75766C11.653 10.3078 11.168 10.7148 10.6178 10.6667C10.0676 10.6186 9.66061 10.1335 9.70874 9.58335C9.75688 9.03317 10.2419 8.62618 10.7921 8.67431C11.3423 8.72245 11.7493 9.20748 11.7011 9.75766ZM10.0957 16.6439C10.0475 17.1941 9.5625 17.6011 9.01231 17.5529C8.46213 17.5048 8.05514 17.0198 8.10327 16.4696C8.15141 15.9194 8.63644 15.5124 9.18662 15.5605C9.73681 15.6087 10.1438 16.0937 10.0957 16.6439Z" stroke="#131317" stroke-width="2" stroke-linecap="round" stroke-linejoin="round"/>
</svg>
