<svg width="24" height="24" viewBox="0 0 24 24" fill="none" xmlns="http://www.w3.org/2000/svg">
<mask id="mask0_13163_43647" style="mask-type:alpha" maskUnits="userSpaceOnUse" x="4" y="2" width="16" height="20">
<path d="M14 3H7C6.46957 3 5.96086 3.21071 5.58579 3.58579C5.21071 3.96086 5 4.46957 5 5V19C5 19.5304 5.21071 20.0391 5.58579 20.4142C5.96086 20.7893 6.46957 21 7 21H17C17.5304 21 18.0391 20.7893 18.4142 20.4142C18.7893 20.0391 19 19.5304 19 19V8M14 3L19 8M14 3V7C14 7.26522 14.1054 7.51957 14.2929 7.70711C14.4804 7.89464 14.7348 8 15 8H19M10 10.3334V15.6666C9.99998 15.7259 10.0158 15.7841 10.0458 15.8353C10.0758 15.8865 10.1189 15.9287 10.1707 15.9576C10.2224 15.9866 10.281 16.0012 10.3403 15.9999C10.3996 15.9987 10.4575 15.9817 10.508 15.9506L14.8412 13.284C14.8897 13.2542 14.9298 13.2124 14.9576 13.1627C14.9854 13.113 15 13.057 15 13C15 12.943 14.9854 12.887 14.9576 12.8373C14.9298 12.7876 14.8897 12.7458 14.8412 12.716L10.508 10.0494C10.4575 10.0183 10.3996 10.0013 10.3403 10.0001C10.281 9.99883 10.2224 10.0134 10.1707 10.0424C10.1189 10.0713 10.0758 10.1135 10.0458 10.1647C10.0158 10.2159 9.99998 10.2741 10 10.3334Z" stroke="currentcolor" stroke-width="2" stroke-linecap="round" stroke-linejoin="round"/>
</mask>
<g mask="url(#mask0_13163_43647)">
<rect width="24" height="24" fill="currentcolor"/>
</g>
</svg>
