<svg width="24" height="24" viewBox="0 0 24 24" fill="none" xmlns="http://www.w3.org/2000/svg">
<mask id="mask0_13163_43649" style="mask-type:alpha" maskUnits="userSpaceOnUse" x="4" y="2" width="16" height="20">
<path fill-rule="evenodd" clip-rule="evenodd" d="M7 4C6.73478 4 6.48043 4.10536 6.29289 4.29289C6.10536 4.48043 6 4.73478 6 5V19C6 19.2652 6.10536 19.5196 6.29289 19.7071C6.48043 19.8946 6.73478 20 7 20H17C17.2652 20 17.5196 19.8946 17.7071 19.7071C17.8946 19.5196 18 19.2652 18 19V9H15C14.4696 9 13.9609 8.78929 13.5858 8.41421C13.2107 8.03914 13 7.53043 13 7V4H7ZM15 5.41421L16.5858 7H15V5.41421ZM4.87868 2.87868C5.44129 2.31607 6.20435 2 7 2H14C14.2652 2 14.5196 2.10536 14.7071 2.29289L19.7071 7.29289C19.8946 7.48043 20 7.73478 20 8V19C20 19.7957 19.6839 20.5587 19.1213 21.1213C18.5587 21.6839 17.7957 22 17 22H7C6.20435 22 5.44129 21.6839 4.87868 21.1213C4.31607 20.5587 4 19.7957 4 19V5C4 4.20435 4.31607 3.44129 4.87868 2.87868ZM9.58579 14.5858C9.96086 14.2107 10.4696 14 11 14V11C11 10.6534 11.1795 10.3316 11.4743 10.1493C11.7691 9.96714 12.1372 9.95058 12.4472 10.1056L14.4472 11.1056C14.9412 11.3526 15.1414 11.9532 14.8944 12.4472C14.6474 12.9412 14.0468 13.1414 13.5528 12.8944L13 12.618V16C13 16.5304 12.7893 17.0391 12.4142 17.4142C12.0391 17.7893 11.5304 18 11 18C10.4696 18 9.96086 17.7893 9.58579 17.4142C9.21071 17.0391 9 16.5304 9 16C9 15.4696 9.21071 14.9609 9.58579 14.5858Z" fill="currentcolor"/>
</mask>
<g mask="url(#mask0_13163_43649)">
<rect width="24" height="24" fill="currentcolor"/>
</g>
</svg>
