<svg width="24" height="24" viewBox="0 0 24 24" fill="none" xmlns="http://www.w3.org/2000/svg">
<path d="M12.7778 16.2621L13.6667 15.3732C14.4916 14.5794 15.5085 14.5794 16.3334 15.3732L19.0001 18.0398M5 16L7.44446 13.5953C8.26935 12.8016 9.28624 12.8016 10.1111 13.5953L14.5 17.9842M14 3H7C6.46957 3 5.96086 3.21071 5.58579 3.58579C5.21071 3.96086 5 4.46957 5 5V19C5 19.5304 5.21071 20.0391 5.58579 20.4142C5.96086 20.7893 6.46957 21 7 21H17C17.5304 21 18.0391 20.7893 18.4142 20.4142C18.7893 20.0391 19 19.5304 19 19V8M14 3L19 8M14 3V7C14 7.26522 14.1054 7.51957 14.2929 7.70711C14.4804 7.89464 14.7348 8 15 8H19M9.5 9H9.51" stroke="#131317" stroke-width="2" stroke-linecap="round" stroke-linejoin="round"/>
</svg>
