<svg width="24" height="24" viewBox="0 0 24 24" fill="none" xmlns="http://www.w3.org/2000/svg">
<mask id="mask0_13163_43651" style="mask-type:alpha" maskUnits="userSpaceOnUse" x="4" y="2" width="16" height="20">
<path fill-rule="evenodd" clip-rule="evenodd" d="M7 4C6.73478 4 6.48043 4.10536 6.29289 4.29289C6.10536 4.48043 6 4.73478 6 5V13.6135L6.74318 12.8824L6.75103 12.8747L6.75107 12.8748C7.31367 12.3334 8.01261 12 8.77779 12C9.54298 12 10.2419 12.3334 10.8045 12.8748L10.8182 12.8882L12.7778 14.8478L12.9596 14.6661L12.9733 14.6526C13.5359 14.1112 14.2349 13.7778 15.0001 13.7778C15.7652 13.7778 16.4642 14.1112 17.0268 14.6526L17.0405 14.6661L18 15.6256V9H15C14.4696 9 13.9609 8.78929 13.5858 8.41421C13.2107 8.03914 13 7.53043 13 7V4H7ZM4 15.9994V16.0007V19C4 19.7957 4.31607 20.5587 4.87868 21.1213C5.44129 21.6839 6.20435 22 7 22H17C17.7957 22 18.5587 21.6839 19.1213 21.1213C19.6839 20.5587 20 19.7957 20 19V18.0502V18.0294V8C20 7.73478 19.8946 7.48043 19.7071 7.29289L14.7071 2.29289C14.5196 2.10536 14.2652 2 14 2H7C6.20435 2 5.44129 2.31607 4.87868 2.87868C4.31607 3.44129 4 4.20435 4 5V15.9994ZM18 19V18.454L15.6338 16.0878C15.3742 15.8403 15.1545 15.7778 15.0001 15.7778C14.8456 15.7778 14.6259 15.8403 14.3663 16.0878L14.1921 16.262L15.2071 17.2771C15.5976 17.6676 15.5976 18.3008 15.2071 18.6913C14.8166 19.0818 14.1834 19.0818 13.7929 18.6913L12.0743 16.9727L12.0707 16.9692L12.0672 16.9656L9.41156 14.31C9.15196 14.0625 8.93227 14 8.77779 14C8.62279 14 8.40214 14.0629 8.14139 14.3125L6 16.419V19C6 19.2652 6.10536 19.5196 6.29289 19.7071C6.48043 19.8946 6.73478 20 7 20H17C17.2652 20 17.5196 19.8946 17.7071 19.7071C17.8946 19.5196 18 19.2652 18 19ZM15 5.41421L16.5858 7H15V5.41421ZM9.5 8C8.94772 8 8.5 8.44772 8.5 9C8.5 9.55228 8.94772 10 9.5 10H9.51C10.0623 10 10.51 9.55228 10.51 9C10.51 8.44772 10.0623 8 9.51 8H9.5Z" fill="currentcolor"/>
</mask>
<g mask="url(#mask0_13163_43651)">
<rect width="24" height="24" fill="currentcolor"/>
</g>
</svg>
