<svg width="24" height="24" viewBox="0 0 24 24" fill="none" xmlns="http://www.w3.org/2000/svg">
<mask id="mask0_13163_43653" style="mask-type:alpha" maskUnits="userSpaceOnUse" x="4" y="2" width="16" height="20">
<path fill-rule="evenodd" clip-rule="evenodd" d="M7 4C6.73478 4 6.48043 4.10536 6.29289 4.29289C6.10536 4.48043 6 4.73478 6 5V19C6 19.2652 6.10536 19.5196 6.29289 19.7071C6.48043 19.8946 6.73478 20 7 20H17C17.2652 20 17.5196 19.8946 17.7071 19.7071C17.8946 19.5196 18 19.2652 18 19V9H15C14.4696 9 13.9609 8.78929 13.5858 8.41421C13.2107 8.03914 13 7.53043 13 7V4H7ZM15 5.41421L16.5858 7H15V5.41421ZM4.87868 2.87868C5.44129 2.31607 6.20435 2 7 2H14C14.2652 2 14.5196 2.10536 14.7071 2.29289L19.7071 7.29289C19.8946 7.48043 20 7.73478 20 8V19C20 19.7957 19.6839 20.5587 19.1213 21.1213C18.5587 21.6839 17.7957 22 17 22H7C6.20435 22 5.44129 21.6839 4.87868 21.1213C4.31607 20.5587 4 19.7957 4 19V5C4 4.20435 4.31607 3.44129 4.87868 2.87868ZM12 9C10.6739 9 9.40215 9.52678 8.46447 10.4645C7.52678 11.4021 7 12.6739 7 14C7 15.3261 7.52678 16.5979 8.46447 17.5355C9.40215 18.4732 10.6739 19 12 19C13.3261 19 14.5979 18.4732 15.5355 17.5355C16.4732 16.5979 17 15.3261 17 14C17 12.6739 16.4732 11.4021 15.5355 10.4645C14.5979 9.52678 13.3261 9 12 9ZM14.8284 13H13V11.1716C13.4179 11.3193 13.8019 11.5593 14.1213 11.8787C14.4407 12.1981 14.6807 12.5821 14.8284 13ZM14.8284 15C14.6807 15.4179 14.4407 15.8019 14.1213 16.1213C13.5587 16.6839 12.7956 17 12 17C11.2044 17 10.4413 16.6839 9.87868 16.1213C9.31607 15.5587 9 14.7956 9 14C9 13.2044 9.31607 12.4413 9.87868 11.8787C10.1981 11.5593 10.5821 11.3193 11 11.1716V14C11 14.5523 11.4477 15 12 15H14.8284Z" fill="currentcolor"/>
</mask>
<g mask="url(#mask0_13163_43653)">
<rect width="24" height="24" fill="currentcolor"/>
</g>
</svg>
