<svg width="24" height="24" viewBox="0 0 24 24" fill="none" xmlns="http://www.w3.org/2000/svg">
<g clip-path="url(#clip0_12772_47380)">
<path fill-rule="evenodd" clip-rule="evenodd" d="M11 2H14V7C14 7.53043 14.2107 8.03914 14.5858 8.41421C14.9609 8.78929 15.4696 9 16 9H21V15C21 15.7957 20.6839 16.5587 20.1213 17.1213C19.5587 17.6839 18.7957 18 18 18H17V19C17 19.7957 16.6839 20.5587 16.1213 21.1213C15.5587 21.6839 14.7957 22 14 22H7C6.20435 22 5.44129 21.6839 4.87868 21.1213C4.31607 20.5587 4 19.7957 4 19V9C4 8.20435 4.31607 7.44129 4.87868 6.87868C5.44129 6.31607 6.20435 6 7 6H8V5C8 4.20435 8.31607 3.44129 8.87868 2.87868C9.44129 2.31607 10.2044 2 11 2ZM8 8H7C6.73478 8 6.48043 8.10536 6.29289 8.29289C6.10536 8.48043 6 8.73478 6 9V19C6 19.2652 6.10536 19.5196 6.29289 19.7071C6.48043 19.8946 6.73478 20 7 20H14C14.2652 20 14.5196 19.8946 14.7071 19.7071C14.8946 19.5196 15 19.2652 15 19V18H11C10.2043 18 9.44129 17.6839 8.87868 17.1213C8.31607 16.5587 8 15.7957 8 15V8ZM16 2.58579L20.4142 7H16V2.58579Z" fill="black"/>
</g>
<defs>
<clipPath id="clip0_12772_47380">
<rect width="24" height="24" fill="white"/>
</clipPath>
</defs>
</svg>
