<svg width="24" height="24" viewBox="0 0 24 24" fill="none" xmlns="http://www.w3.org/2000/svg">
<path d="M5.50011 5H18.5001C18.6441 5.05051 18.7747 5.13331 18.8817 5.24206C18.9888 5.35082 19.0696 5.48264 19.1178 5.62742C19.1661 5.77221 19.1806 5.92612 19.1602 6.07737C19.1398 6.22861 19.085 6.37318 19.0001 6.5L14.0001 12V19L10.0001 16V12L5.00011 6.5C4.9152 6.37318 4.86044 6.22861 4.84004 6.07737C4.81963 5.92612 4.83411 5.77221 4.88237 5.62742C4.93063 5.48264 5.01139 5.35082 5.11847 5.24206C5.22554 5.13331 5.35609 5.05051 5.50011 5Z" stroke="black" stroke-width="2" stroke-linecap="round" stroke-linejoin="round"/>
</svg>
