<svg width="24" height="24" viewBox="0 0 24 24" fill="none" xmlns="http://www.w3.org/2000/svg">
<path d="M5.66905 4C5.55635 4 5.44446 4.01905 5.33811 4.05635C5.05007 4.15737 4.78898 4.32297 4.57483 4.54048C4.36068 4.75798 4.19916 5.02162 4.10263 5.31119C4.00611 5.60077 3.97715 5.90859 4.01796 6.21108C4.05878 6.51358 4.16829 6.80272 4.33811 7.05635C4.36553 7.09732 4.39595 7.1362 4.42911 7.17267L9.16905 12.3866V16C9.16905 16.3148 9.31725 16.6111 9.56905 16.8L13.5691 19.8C13.8721 20.0273 14.2775 20.0638 14.6163 19.8944C14.955 19.725 15.1691 19.3788 15.1691 19V12.3866L19.909 7.17267C19.9422 7.13619 19.9726 7.09732 20 7.05635C20.1698 6.80272 20.2793 6.51358 20.3201 6.21108C20.361 5.90858 20.332 5.60076 20.2355 5.31119C20.1389 5.02162 19.9774 4.75799 19.7633 4.54048C19.5491 4.32297 19.288 4.15737 19 4.05635C18.8936 4.01905 18.7818 4 18.6691 4H5.66905Z" fill="black"/>
</svg>
