<svg width="24" height="24" viewBox="0 0 24 24" fill="none" xmlns="http://www.w3.org/2000/svg">
<path d="M4.3 4.28515C5.42157 3.18579 6.92948 2.57001 8.5 2.57001C10.0705 2.57001 11.5784 3.18579 12.7 4.28515C13.4477 5.01806 14.453 5.42858 15.5 5.42858C16.547 5.42858 17.5523 5.01806 18.3 4.28515C18.5875 4.0033 19.0161 3.9214 19.3873 4.07734C19.7585 4.23328 20 4.59665 20 4.99929V13.9993C20 14.268 19.8919 14.526 19.7 14.7141C18.5784 15.8135 17.0705 16.4293 15.5 16.4293C13.9295 16.4293 12.4216 15.8135 11.3 14.7141C10.5523 13.9812 9.54701 13.5707 8.5 13.5707C7.5873 13.5707 6.70631 13.8826 6 14.4482V21C6 21.5523 5.55228 22 5 22C4.44772 22 4 21.5523 4 21V5C4 4.96745 4.00159 4.93435 4.00472 4.90223C4.01413 4.80528 4.03738 4.71238 4.07247 4.62553C4.12353 4.49883 4.20051 4.38267 4.3 4.28515Z" fill="currentcolor"/>
</svg>
