<svg width="24" height="24" viewBox="0 0 24 24" fill="none" xmlns="http://www.w3.org/2000/svg">
<path d="M4.3 4.28521C5.42157 3.18585 6.92948 2.57007 8.5 2.57007C10.0705 2.57007 11.5784 3.18585 12.7 4.28521C13.4477 5.01812 14.453 5.42864 15.5 5.42864C16.547 5.42864 17.5523 5.01812 18.3 4.28521C18.5875 4.00336 19.0161 3.92146 19.3873 4.0774C19.7585 4.23334 20 4.59671 20 4.99935V13.9994C20 14.268 19.8919 14.5261 19.7 14.7142C18.5784 15.8135 17.0705 16.4293 15.5 16.4293C13.9295 16.4293 12.4216 15.8135 11.3 14.7142C10.5523 13.9813 9.54701 13.5707 8.5 13.5707C7.5873 13.5707 6.70631 13.8827 6 14.4482V21.0001C6 21.5523 5.55228 22.0001 5 22.0001C4.44772 22.0001 4 21.5523 4 21.0001V5.00006C4 4.96751 4.00159 4.93441 4.00472 4.90229C4.01413 4.80534 4.03738 4.71244 4.07247 4.62559C4.12353 4.49889 4.20051 4.38273 4.3 4.28521Z" fill="black"/>
</svg>
