<svg width="24" height="24" viewBox="0 0 24 24" fill="none" xmlns="http://www.w3.org/2000/svg">
<path d="M5 3C4.20435 3 3.44129 3.31607 2.87868 3.87868C2.31607 4.44129 2 5.20435 2 6V17C2 17.7956 2.31607 18.5587 2.87868 19.1213C3.44129 19.6839 4.20435 20 5 20H19C19.7957 20 20.5587 19.6839 21.1213 19.1213C21.6839 18.5587 22 17.7957 22 17V9C22 8.20435 21.6839 7.44129 21.1213 6.87868C20.5587 6.31607 19.7957 6 19 6H12.4142L9.70711 3.29289C9.51957 3.10536 9.26522 3 9 3H5Z" fill="currentcolor"/>
</svg>
