<svg width="24" height="24" viewBox="0 0 24 24" fill="none" xmlns="http://www.w3.org/2000/svg">
<path d="M3 14C3.83 14.642 5.077 15.017 6.5 15C7.923 15.017 9.17 14.642 10 14C10.83 13.358 12.077 12.983 13.5 13C14.923 12.983 16.17 13.358 17 14M8 3C7.68351 3.22717 7.42707 3.52797 7.25285 3.87642C7.07862 4.22488 6.99184 4.6105 7 5C6.99184 5.3895 7.07862 5.77512 7.25285 6.12358C7.42707 6.47203 7.68351 6.77283 8 7M12 3C11.6835 3.22717 11.4271 3.52797 11.2528 3.87642C11.0786 4.22488 10.9918 4.6105 11 5C10.9918 5.3895 11.0786 5.77512 11.2528 6.12358C11.4271 6.47203 11.6835 6.77283 12 7M16.746 16.726C17.1926 16.931 17.6827 17.0232 18.1733 16.9944C18.6638 16.9656 19.1398 16.8168 19.5594 16.561C19.979 16.3051 20.3293 15.9502 20.5795 15.5273C20.8297 15.1043 20.9723 14.6264 20.9945 14.1355C21.0168 13.6446 20.9181 13.1558 20.7072 12.7119C20.4963 12.2681 20.1796 11.8828 19.7849 11.5901C19.3902 11.2973 18.9297 11.106 18.4437 11.0329C17.9578 10.9598 17.4613 11.0073 16.998 11.171M3 10H17V15C17 16.5913 16.3679 18.1174 15.2426 19.2426C14.1174 20.3679 12.5913 21 11 21H9C7.4087 21 5.88258 20.3679 4.75736 19.2426C3.63214 18.1174 3 16.5913 3 15V10Z" stroke="black" stroke-width="2" stroke-linecap="round" stroke-linejoin="round"/>
</svg>
