<svg width="24" height="24" viewBox="0 0 24 24" fill="none" xmlns="http://www.w3.org/2000/svg">
<path fill-rule="evenodd" clip-rule="evenodd" d="M8.81239 2.41689C9.13444 2.86556 9.03178 3.49034 8.58311 3.81239C8.39849 3.94491 8.24891 4.12037 8.14728 4.32364C8.04564 4.5269 7.99502 4.75185 7.99978 4.97906C8.00007 4.99302 8.00007 5.00698 7.99978 5.02094C7.99502 5.24815 8.04564 5.4731 8.14728 5.67636C8.24891 5.87963 8.39849 6.05509 8.58311 6.18761C9.03178 6.50965 9.13444 7.13444 8.81239 7.58311C8.49035 8.03178 7.86556 8.13443 7.41689 7.81239C6.96852 7.49057 6.60524 7.06443 6.35842 6.57079C6.11472 6.08339 5.99179 5.54466 5.99985 5C5.99179 4.45534 6.11472 3.9166 6.35842 3.42921C6.60524 2.93557 6.96852 2.50943 7.41689 2.18761C7.86556 1.86556 8.49035 1.96821 8.81239 2.41689Z" fill="currentcolor"/>
<path fill-rule="evenodd" clip-rule="evenodd" d="M12.8124 2.41689C13.1344 2.86556 13.0318 3.49034 12.5831 3.81239C12.3985 3.94491 12.2489 4.12037 12.1473 4.32364C12.0456 4.5269 11.995 4.75185 11.9998 4.97906C12.0001 4.99302 12.0001 5.00698 11.9998 5.02094C11.995 5.24815 12.0456 5.4731 12.1473 5.67636C12.2489 5.87963 12.3985 6.05509 12.5831 6.18761C13.0318 6.50965 13.1344 7.13444 12.8124 7.58311C12.4903 8.03178 11.8656 8.13443 11.4169 7.81239C10.9685 7.49056 10.6052 7.06443 10.3584 6.57079C10.1147 6.08339 9.99179 5.54466 9.99985 5C9.99179 4.45534 10.1147 3.9166 10.3584 3.42921C10.6052 2.93557 10.9685 2.50943 11.4169 2.18761C11.8656 1.86556 12.4903 1.96821 12.8124 2.41689Z" fill="currentcolor"/>
<path fill-rule="evenodd" clip-rule="evenodd" d="M2 10C2 9.44771 2.44772 9 3 9H17C17.5521 9 17.9998 9.44748 18 9.99957C18.1977 9.99969 18.3957 10.0145 18.5924 10.044C19.2404 10.1415 19.8544 10.3966 20.3807 10.7869C20.9069 11.1773 21.3292 11.6909 21.6104 12.2827C21.8917 12.8745 22.0232 13.5263 21.9935 14.1808C21.9638 14.8354 21.7738 15.4726 21.4401 16.0365C21.1065 16.6004 20.6394 17.0737 20.08 17.4148C19.5206 17.7559 18.8859 17.9543 18.2318 17.9927C17.9359 18.0101 17.64 17.9944 17.3496 17.9467C17.0072 18.6844 16.5358 19.3637 15.9497 19.9497C14.637 21.2625 12.8565 22 11 22H9C7.14349 22 5.36301 21.2625 4.05025 19.9497C2.7375 18.637 2 16.8565 2 15V10ZM17.9285 15.9984C17.9904 16.0005 18.0526 15.9998 18.1147 15.9961C18.4418 15.977 18.7591 15.8777 19.0388 15.7072C19.3185 15.5366 19.552 15.3 19.7189 15.018C19.8857 14.7361 19.9807 14.4175 19.9956 14.0902C20.0104 13.7629 19.9446 13.437 19.804 13.1411C19.6634 12.8452 19.4523 12.5884 19.1891 12.3933C18.926 12.1981 18.619 12.0705 18.295 12.0218C18.1971 12.0071 18.0984 11.9997 18 11.9996V15C18 15.3361 17.9758 15.6696 17.9285 15.9984ZM16 11.1039C15.997 11.1483 15.9969 11.1931 16 11.2381V12.3699C15.2368 12.1159 14.3843 11.9906 13.5 11.9999C11.9176 11.9832 10.4373 12.3975 9.38816 13.209C8.77992 13.6795 7.7711 14.0151 6.51193 14.0001H6.48804C5.46764 14.0123 4.61164 13.7942 4 13.4606V11H16V11.1039Z" fill="currentcolor"/>
</svg>
