<svg width="24" height="24" viewBox="0 0 24 24" fill="none" xmlns="http://www.w3.org/2000/svg">
<path fill-rule="evenodd" clip-rule="evenodd" d="M8.81239 2.41696C9.13444 2.86563 9.03178 3.49042 8.58311 3.81247C8.39849 3.94498 8.24891 4.12045 8.14728 4.32371C8.04564 4.52698 7.99502 4.75193 7.99978 4.97913C8.00007 4.99309 8.00007 5.00706 7.99978 5.02102C7.99502 5.24823 8.04564 5.47317 8.14728 5.67644C8.24891 5.8797 8.39849 6.05517 8.58311 6.18769C9.03178 6.50973 9.13444 7.13452 8.81239 7.58319C8.49035 8.03186 7.86556 8.13451 7.41689 7.81247C6.96852 7.49064 6.60524 7.06451 6.35842 6.57087C6.11472 6.08347 5.99179 5.54474 5.99985 5.00008C5.99179 4.45542 6.11472 3.91668 6.35842 3.42929C6.60524 2.93565 6.96852 2.50951 7.41689 2.18769C7.86556 1.86564 8.49035 1.96829 8.81239 2.41696Z" fill="black"/>
<path fill-rule="evenodd" clip-rule="evenodd" d="M12.8124 2.41696C13.1344 2.86563 13.0318 3.49042 12.5831 3.81247C12.3985 3.94498 12.2489 4.12045 12.1473 4.32371C12.0456 4.52698 11.995 4.75193 11.9998 4.97913C12.0001 4.99309 12.0001 5.00706 11.9998 5.02102C11.995 5.24822 12.0456 5.47317 12.1473 5.67644C12.2489 5.8797 12.3985 6.05517 12.5831 6.18769C13.0318 6.50973 13.1344 7.13452 12.8124 7.58319C12.4903 8.03186 11.8656 8.13451 11.4169 7.81247C10.9685 7.49064 10.6052 7.06451 10.3584 6.57087C10.1147 6.08347 9.99179 5.54474 9.99985 5.00008C9.99179 4.45542 10.1147 3.91668 10.3584 3.42929C10.6052 2.93565 10.9685 2.50951 11.4169 2.18769C11.8656 1.86564 12.4903 1.96829 12.8124 2.41696Z" fill="black"/>
<path fill-rule="evenodd" clip-rule="evenodd" d="M2 10.0001C2 9.44779 2.44772 9.00008 3 9.00008H17C17.5521 9.00008 17.9998 9.44756 18 9.99965C18.1977 9.99977 18.3957 10.0145 18.5924 10.0441C19.2404 10.1416 19.8544 10.3967 20.3807 10.787C20.9069 11.1774 21.3292 11.691 21.6104 12.2828C21.8917 12.8746 22.0232 13.5264 21.9935 14.1809C21.9638 14.8355 21.7738 15.4727 21.4401 16.0366C21.1065 16.6005 20.6394 17.0738 20.08 17.4149C19.5206 17.756 18.8859 17.9544 18.2318 17.9928C17.9359 18.0101 17.64 17.9945 17.3496 17.9468C17.0072 18.6845 16.5358 19.3638 15.9497 19.9498C14.637 21.2626 12.8565 22.0001 11 22.0001H9C7.14349 22.0001 5.36301 21.2626 4.05025 19.9498C2.7375 18.6371 2 16.8566 2 15.0001V10.0001ZM17.9285 15.9985C17.9904 16.0006 18.0526 15.9999 18.1147 15.9962C18.4418 15.977 18.7591 15.8778 19.0388 15.7073C19.3185 15.5367 19.552 15.3001 19.7189 15.0181C19.8857 14.7362 19.9807 14.4176 19.9956 14.0903C20.0104 13.763 19.9446 13.4371 19.804 13.1412C19.6634 12.8453 19.4523 12.5885 19.1891 12.3933C18.926 12.1982 18.619 12.0706 18.295 12.0219C18.1971 12.0072 18.0984 11.9998 18 11.9997V15.0001C18 15.3361 17.9758 15.6697 17.9285 15.9985ZM16 11.1039C15.997 11.1483 15.9969 11.1932 16 11.2382V12.37C15.2368 12.1159 14.3843 11.9907 13.5 12C11.9176 11.9833 10.4373 12.3976 9.38816 13.2091C8.77992 13.6796 7.7711 14.0152 6.51193 14.0001H6.48804C5.46764 14.0123 4.61164 13.7942 4 13.4607V11.0001H16V11.1039Z" fill="black"/>
</svg>
