<svg width="24" height="24" viewBox="0 0 24 24" fill="none" xmlns="http://www.w3.org/2000/svg">
<path d="M8 4H6L3 14V16.5M3 16.5C3 16.9596 3.09053 17.4148 3.26642 17.8394C3.44231 18.264 3.70012 18.6499 4.02513 18.9749C4.35013 19.2999 4.73597 19.5577 5.16061 19.7336C5.58525 19.9095 6.04037 20 6.5 20C6.95963 20 7.41475 19.9095 7.83939 19.7336C8.26403 19.5577 8.64987 19.2999 8.97487 18.9749C9.29988 18.6499 9.55769 18.264 9.73358 17.8394C9.90947 17.4148 10 16.9596 10 16.5C10 16.0404 9.90947 15.5852 9.73358 15.1606C9.55769 14.736 9.29988 14.3501 8.97487 14.0251C8.64987 13.7001 8.26403 13.4423 7.83939 13.2664C7.41475 13.0905 6.95963 13 6.5 13C6.04037 13 5.58525 13.0905 5.16061 13.2664C4.73597 13.4423 4.35013 13.7001 4.02513 14.0251C3.70012 14.3501 3.44231 14.736 3.26642 15.1606C3.09053 15.5852 3 16.0404 3 16.5ZM16 4H18L21 14V16.5M21 16.5C21 17.4283 20.6313 18.3185 19.9749 18.9749C19.3185 19.6313 18.4283 20 17.5 20C16.5717 20 15.6815 19.6313 15.0251 18.9749C14.3687 18.3185 14 17.4283 14 16.5C14 15.5717 14.3687 14.6815 15.0251 14.0251C15.6815 13.3687 16.5717 13 17.5 13C18.4283 13 19.3185 13.3687 19.9749 14.0251C20.6313 14.6815 21 15.5717 21 16.5ZM10 16H14" stroke="black" stroke-width="2" stroke-linecap="round" stroke-linejoin="round"/>
</svg>
