<svg width="24" height="24" viewBox="0 0 24 24" fill="none" xmlns="http://www.w3.org/2000/svg">
<g clip-path="url(#clip0_17205_8691)">
<path d="M22.3895 5.99996C21.3362 4.17587 19.8214 2.66115 17.9972 1.60803C16.173 0.554909 14.1038 0.000488281 11.9975 0.000488281C9.89113 0.000488281 7.8219 0.554909 5.99773 1.60803C4.17357 2.66115 2.65873 4.17587 1.60547 5.99996L2.32547 18.96L22.3895 5.99996Z" fill="url(#paint0_linear_17205_8691)"/>
<path d="M6.8037 15L1.6077 6C0.554488 7.82421 1.33785e-05 9.89351 2.42095e-10 11.9999C-1.3378e-05 14.1063 0.554435 16.1756 1.60762 17.9999C2.6608 19.8241 4.17561 21.3389 5.9998 22.3922C7.82399 23.4454 9.89328 23.9999 11.9997 24L23.7597 12L6.8037 15Z" fill="url(#paint1_linear_17205_8691)"/>
<path d="M17.196 15L12 24C14.1062 23.9995 16.1752 23.4447 17.9991 22.3913C19.8229 21.3379 21.3374 19.823 22.3903 17.9988C23.4432 16.1747 23.9974 14.1055 23.9973 11.9993C23.9972 9.89311 23.4427 7.82403 22.3896 6H12L17.196 15Z" fill="url(#paint2_linear_17205_8691)"/>
<path d="M12 18C12.7879 18 13.5681 17.8448 14.2961 17.5433C15.0241 17.2417 15.6855 16.7998 16.2426 16.2426C16.7998 15.6855 17.2417 15.0241 17.5433 14.2961C17.8448 13.5681 18 12.7879 18 12C18 11.2121 17.8448 10.4319 17.5433 9.7039C17.2417 8.97595 16.7998 8.31451 16.2426 7.75736C15.6855 7.20021 15.0241 6.75825 14.2961 6.45672C13.5681 6.15519 12.7879 6 12 6C10.4087 6 8.88258 6.63214 7.75736 7.75736C6.63214 8.88258 6 10.4087 6 12C6 13.5913 6.63214 15.1174 7.75736 16.2426C8.88258 17.3679 10.4087 18 12 18Z" fill="white"/>
<path d="M12 16.752C12.6241 16.752 13.242 16.6291 13.8186 16.3903C14.3951 16.1515 14.919 15.8015 15.3602 15.3602C15.8015 14.919 16.1515 14.3951 16.3903 13.8186C16.6291 13.242 16.752 12.6241 16.752 12C16.752 11.376 16.6291 10.7581 16.3903 10.1815C16.1515 9.605 15.8015 9.08114 15.3602 8.63988C14.919 8.19861 14.3951 7.84858 13.8186 7.60977C13.242 7.37096 12.6241 7.24805 12 7.24805C10.7397 7.24805 9.53105 7.7487 8.63988 8.63988C7.7487 9.53105 7.24805 10.7397 7.24805 12C7.24805 13.2604 7.7487 14.469 8.63988 15.3602C9.53105 16.2514 10.7397 16.752 12 16.752Z" fill="#1A73E8"/>
</g>
<defs>
<linearGradient id="paint0_linear_17205_8691" x1="1.60787" y1="7.49996" x2="22.3895" y2="7.49996" gradientUnits="userSpaceOnUse">
<stop stop-color="#D93025"/>
<stop offset="1" stop-color="#EA4335"/>
</linearGradient>
<linearGradient id="paint1_linear_17205_8691" x1="13.2981" y1="23.2488" x2="2.9061" y2="5.2488" gradientUnits="userSpaceOnUse">
<stop stop-color="#1E8E3E"/>
<stop offset="1" stop-color="#34A853"/>
</linearGradient>
<linearGradient id="paint2_linear_17205_8691" x1="10.248" y1="24" x2="20.64" y2="6.0312" gradientUnits="userSpaceOnUse">
<stop stop-color="#FCC934"/>
<stop offset="1" stop-color="#FBBC04"/>
</linearGradient>
<clipPath id="clip0_17205_8691">
<rect width="24" height="24" fill="white"/>
</clipPath>
</defs>
</svg>
