<svg width="24" height="24" viewBox="0 0 24 24" fill="none" xmlns="http://www.w3.org/2000/svg">
<path fill-rule="evenodd" clip-rule="evenodd" d="M3.87868 3.87868C4.44129 3.31607 5.20435 3 6 3H18C18.7956 3 19.5587 3.31607 20.1213 3.87868C20.6839 4.44129 21 5.20435 21 6V18C21 18.7957 20.6839 19.5587 20.1213 20.1213C19.5587 20.6839 18.7957 21 18 21H6C5.20435 21 4.44129 20.6839 3.87868 20.1213C3.31607 19.5587 3 18.7956 3 18V6C3 5.20435 3.31607 4.44129 3.87868 3.87868ZM9 8C9 7.44772 9.44772 7 10 7H12H14C14.5523 7 15 7.44772 15 8C15 8.55228 14.5523 9 14 9H13V16C13 16.5523 12.5523 17 12 17C11.4477 17 11 16.5523 11 16V9H10C9.44772 9 9 8.55228 9 8Z" fill="currentcolor"/>
</svg>
