<svg width="24" height="24" viewBox="0 0 24 24" fill="none" xmlns="http://www.w3.org/2000/svg">
<path fill-rule="evenodd" clip-rule="evenodd" d="M8.17317 2.7612C9.38642 2.25866 10.6868 2 12 2C13.3132 2 14.6136 2.25866 15.8268 2.7612C17.0401 3.26375 18.1425 4.00035 19.0711 4.92893C19.9997 5.85752 20.7362 6.95991 21.2388 8.17317C21.7413 9.38642 22 10.6868 22 12C22 13.3132 21.7413 14.6136 21.2388 15.8268C20.7362 17.0401 19.9997 18.1425 19.0711 19.0711C18.1425 19.9997 17.0401 20.7362 15.8268 21.2388C14.6136 21.7413 13.3132 22 12 22C10.6868 22 9.38642 21.7413 8.17317 21.2388C6.95991 20.7362 5.85752 19.9997 4.92893 19.0711C4.00035 18.1425 3.26375 17.0401 2.7612 15.8268C2.25866 14.6136 2 13.3132 2 12C2 10.6868 2.25866 9.38642 2.7612 8.17317C3.26375 6.95991 4.00035 5.85752 4.92893 4.92893C5.85752 4.00035 6.95991 3.26375 8.17317 2.7612ZM13.8944 8.44721C14.1414 7.95324 13.9412 7.35256 13.4472 7.10557C12.9532 6.85858 12.3526 7.05881 12.1056 7.55279L10.1056 11.5528C9.95058 11.8628 9.96714 12.2309 10.1493 12.5257C10.3316 12.8205 10.6534 13 11 13H12.382L11.1056 15.5528C10.8586 16.0468 11.0588 16.6474 11.5528 16.8944C12.0468 17.1414 12.6474 16.9412 12.8944 16.4472L14.8944 12.4472C15.0494 12.1372 15.0329 11.7691 14.8507 11.4743C14.6684 11.1795 14.3466 11 14 11H12.618L13.8944 8.44721Z" fill="currentcolor"/>
</svg>
