<svg width="24" height="24" viewBox="0 0 24 24" fill="none" xmlns="http://www.w3.org/2000/svg">
<path fill-rule="evenodd" clip-rule="evenodd" d="M3 5C3 5.53043 3.21071 6.03914 3.58579 6.41421C3.96086 6.78929 4.46957 7 5 7C5.53043 7 6.03914 6.78929 6.41421 6.41421C6.78929 6.03914 7 5.53043 7 5C7 4.46957 6.78929 3.96086 6.41421 3.58579C6.03914 3.21071 5.53043 3 5 3C4.46957 3 3.96086 3.21071 3.58579 3.58579C3.21071 3.96086 3 4.46957 3 5ZM10 5C10 5.53043 10.2107 6.03914 10.5858 6.41421C10.9609 6.78929 11.4696 7 12 7C12.5304 7 13.0391 6.78929 13.4142 6.41421C13.7893 6.03914 14 5.53043 14 5C14 4.46957 13.7893 3.96086 13.4142 3.58579C13.0391 3.21071 12.5304 3 12 3C11.4696 3 10.9609 3.21071 10.5858 3.58579C10.2107 3.96086 10 4.46957 10 5ZM17.5858 6.41421C17.2107 6.03914 17 5.53043 17 5C17 4.46957 17.2107 3.96086 17.5858 3.58579C17.9609 3.21071 18.4696 3 19 3C19.5304 3 20.0391 3.21071 20.4142 3.58579C20.7893 3.96086 21 4.46957 21 5C21 5.53043 20.7893 6.03914 20.4142 6.41421C20.0391 6.78929 19.5304 7 19 7C18.4696 7 17.9609 6.78929 17.5858 6.41421ZM3 12C3 12.5304 3.21071 13.0391 3.58579 13.4142C3.96086 13.7893 4.46957 14 5 14C5.53043 14 6.03914 13.7893 6.41421 13.4142C6.78929 13.0391 7 12.5304 7 12C7 11.4696 6.78929 10.9609 6.41421 10.5858C6.03914 10.2107 5.53043 10 5 10C4.46957 10 3.96086 10.2107 3.58579 10.5858C3.21071 10.9609 3 11.4696 3 12ZM10.5858 13.4142C10.2107 13.0391 10 12.5304 10 12C10 11.4696 10.2107 10.9609 10.5858 10.5858C10.9609 10.2107 11.4696 10 12 10C12.5304 10 13.0391 10.2107 13.4142 10.5858C13.7893 10.9609 14 11.4696 14 12C14 12.5304 13.7893 13.0391 13.4142 13.4142C13.0391 13.7893 12.5304 14 12 14C11.4696 14 10.9609 13.7893 10.5858 13.4142ZM17 12C17 12.5304 17.2107 13.0391 17.5858 13.4142C17.9609 13.7893 18.4696 14 19 14C19.5304 14 20.0391 13.7893 20.4142 13.4142C20.7893 13.0391 21 12.5304 21 12C21 11.4696 20.7893 10.9609 20.4142 10.5858C20.0391 10.2107 19.5304 10 19 10C18.4696 10 17.9609 10.2107 17.5858 10.5858C17.2107 10.9609 17 11.4696 17 12ZM3.58579 20.4142C3.21071 20.0391 3 19.5304 3 19C3 18.4696 3.21071 17.9609 3.58579 17.5858C3.96086 17.2107 4.46957 17 5 17C5.53043 17 6.03914 17.2107 6.41421 17.5858C6.78929 17.9609 7 18.4696 7 19C7 19.5304 6.78929 20.0391 6.41421 20.4142C6.03914 20.7893 5.53043 21 5 21C4.46957 21 3.96086 20.7893 3.58579 20.4142ZM17 19C17 19.5304 17.2107 20.0391 17.5858 20.4142C17.9609 20.7893 18.4696 21 19 21C19.5304 21 20.0391 20.7893 20.4142 20.4142C20.7893 20.0391 21 19.5304 21 19C21 18.4696 20.7893 17.9609 20.4142 17.5858C20.0391 17.2107 19.5304 17 19 17C18.4696 17 17.9609 17.2107 17.5858 17.5858C17.2107 17.9609 17 18.4696 17 19ZM10.5858 20.4142C10.2107 20.0391 10 19.5304 10 19C10 18.4696 10.2107 17.9609 10.5858 17.5858C10.9609 17.2107 11.4696 17 12 17C12.5304 17 13.0391 17.2107 13.4142 17.5858C13.7893 17.9609 14 18.4696 14 19C14 19.5304 13.7893 20.0391 13.4142 20.4142C13.0391 20.7893 12.5304 21 12 21C11.4696 21 10.9609 20.7893 10.5858 20.4142Z" fill="black"/>
</svg>
