<svg width="24" height="24" viewBox="0 0 24 24" fill="none" xmlns="http://www.w3.org/2000/svg">
<path d="M8 7C8 8.06087 8.42143 9.07828 9.17157 9.82843C9.92172 10.5786 10.9391 11 12 11C13.0609 11 14.0783 10.5786 14.8284 9.82843C15.5786 9.07828 16 8.06087 16 7C16 5.93913 15.5786 4.92172 14.8284 4.17157C14.0783 3.42143 13.0609 3 12 3C10.9391 3 9.92172 3.42143 9.17157 4.17157C8.42143 4.92172 8 5.93913 8 7Z" stroke="black" stroke-width="2" stroke-linecap="round" stroke-linejoin="round"/>
<path d="M2.5 17C2.5 18.0609 2.92143 19.0783 3.67157 19.8284C4.42172 20.5786 5.43913 21 6.5 21C7.56087 21 8.57828 20.5786 9.32843 19.8284C10.0786 19.0783 10.5 18.0609 10.5 17C10.5 15.9391 10.0786 14.9217 9.32843 14.1716C8.57828 13.4214 7.56087 13 6.5 13C5.43913 13 4.42172 13.4214 3.67157 14.1716C2.92143 14.9217 2.5 15.9391 2.5 17Z" stroke="black" stroke-width="2" stroke-linecap="round" stroke-linejoin="round"/>
<path d="M13.5 17C13.5 18.0609 13.9214 19.0783 14.6716 19.8284C15.4217 20.5786 16.4391 21 17.5 21C18.5609 21 19.5783 20.5786 20.3284 19.8284C21.0786 19.0783 21.5 18.0609 21.5 17C21.5 15.9391 21.0786 14.9217 20.3284 14.1716C19.5783 13.4214 18.5609 13 17.5 13C16.4391 13 15.4217 13.4214 14.6716 14.1716C13.9214 14.9217 13.5 15.9391 13.5 17Z" stroke="black" stroke-width="2" stroke-linecap="round" stroke-linejoin="round"/>
</svg>
