<svg width="24" height="24" viewBox="0 0 24 24" fill="none" xmlns="http://www.w3.org/2000/svg">
<path d="M12 2C10.6739 2 9.40215 2.52678 8.46447 3.46447C7.52678 4.40215 7 5.67392 7 7C7 8.32608 7.52678 9.59785 8.46447 10.5355C9.40215 11.4732 10.6739 12 12 12C13.3261 12 14.5979 11.4732 15.5355 10.5355C16.4732 9.59785 17 8.32608 17 7C17 5.67392 16.4732 4.40215 15.5355 3.46447C14.5979 2.52678 13.3261 2 12 2Z" fill="black"/>
<path d="M6.5 12C5.17392 12 3.90215 12.5268 2.96447 13.4645C2.02678 14.4021 1.5 15.6739 1.5 17C1.5 18.3261 2.02678 19.5979 2.96447 20.5355C3.90215 21.4732 5.17392 22 6.5 22C7.82608 22 9.09785 21.4732 10.0355 20.5355C10.9732 19.5979 11.5 18.3261 11.5 17C11.5 15.6739 10.9732 14.4021 10.0355 13.4645C9.09785 12.5268 7.82608 12 6.5 12Z" fill="black"/>
<path d="M13.9645 13.4645C14.9021 12.5268 16.1739 12 17.5 12C18.8261 12 20.0979 12.5268 21.0355 13.4645C21.9732 14.4021 22.5 15.6739 22.5 17C22.5 18.3261 21.9732 19.5979 21.0355 20.5355C20.0979 21.4732 18.8261 22 17.5 22C16.1739 22 14.9021 21.4732 13.9645 20.5355C13.0268 19.5979 12.5 18.3261 12.5 17C12.5 15.6739 13.0268 14.4021 13.9645 13.4645Z" fill="black"/>
</svg>
