<svg width="24" height="24" viewBox="0 0 24 24" fill="none" xmlns="http://www.w3.org/2000/svg">
<path d="M2 6C2 5.44772 2.44772 5 3 5H5C5.55228 5 6 5.44772 6 6C6 6.55228 5.55228 7 5 7V11H11V7C10.4477 7 10 6.55228 10 6C10 5.44772 10.4477 5 11 5H13C13.5523 5 14 5.44772 14 6C14 6.55228 13.5523 7 13 7V17C13.5523 17 14 17.4477 14 18C14 18.5523 13.5523 19 13 19H11C10.4477 19 10 18.5523 10 18C10 17.4477 10.4477 17 11 17V13H5V17C5.55228 17 6 17.4477 6 18C6 18.5523 5.55228 19 5 19H3C2.44772 19 2 18.5523 2 18C2 17.4477 2.44772 17 3 17V7C2.44772 7 2 6.55228 2 6Z" fill="black"/>
<path d="M19 11C18.7348 11 18.4804 11.1054 18.2929 11.2929C18.1054 11.4804 18 11.7348 18 12C18 12.5523 17.5523 13 17 13C16.4477 13 16 12.5523 16 12C16 11.2043 16.3161 10.4413 16.8787 9.87868C17.4413 9.31607 18.2043 9 19 9C19.7957 9 20.5587 9.31607 21.1213 9.87868C21.6839 10.4413 22 11.2043 22 12C22 12.5095 21.8269 12.9956 21.6442 13.3786C21.4547 13.776 21.2129 14.1483 20.9883 14.4523L20.9769 14.4674L19.0297 17.001H21C21.5523 17.001 22 17.4487 22 18.001C22 18.5533 21.5523 19.001 21 19.001H17C16.6191 19.001 16.2713 18.7846 16.103 18.443C15.9346 18.1013 15.975 17.6936 16.2071 17.3916L19.3851 13.2564C19.5575 13.0223 19.7216 12.7639 19.839 12.5176C19.9646 12.2544 20 12.0815 20 12C20 11.7348 19.8946 11.4804 19.7071 11.2929C19.5196 11.1054 19.2652 11 19 11Z" fill="black"/>
</svg>
