<svg width="24" height="24" viewBox="0 0 24 24" fill="none" xmlns="http://www.w3.org/2000/svg">
<path d="M14.5303 2.22374C14.4576 2.17046 14.3817 2.12092 14.3029 2.07542C13.7287 1.74389 13.0463 1.65406 12.4058 1.82566C11.7654 1.99727 11.2193 2.41627 10.8878 2.99048L8.33236 7.41663C8.13963 6.92434 7.81362 6.49284 7.38812 6.17218C6.87781 5.78762 6.25365 5.58456 5.61476 5.59523C4.96376 5.60596 4.34262 5.87024 3.88346 6.33186C3.42431 6.79348 3.16335 7.416 3.15611 8.06705C3.11365 11.8743 3.10631 14.12 3.13919 14.7343C3.14555 14.8553 3.15223 14.9763 3.15921 15.0973L3.15927 15.0983C3.22736 16.2556 3.5818 17.3779 4.19076 18.3643C4.74097 19.2556 5.4834 20.0108 6.36212 20.5756C6.39545 20.6009 6.43074 20.6244 6.46793 20.6459L8.19998 21.6459C9.80777 22.5742 11.7185 22.8257 13.5117 22.3452C15.305 21.8647 16.8339 20.6915 17.7622 19.0837L22.0122 11.7225C22.3437 11.1483 22.4335 10.4659 22.2619 9.82546C22.1119 9.26564 21.7729 8.77795 21.3064 8.44261L18.433 13.4195C18.2949 13.6586 17.9891 13.7406 17.75 13.6025C17.5109 13.4644 17.4289 13.1586 17.567 12.9195L20.7426 7.41909C20.7623 7.14396 20.7366 6.86492 20.6638 6.59343C20.4922 5.95298 20.0732 5.40694 19.499 5.07542C19.3708 5.00141 19.2373 4.93945 19.1 4.88975L15.5349 11.0646C15.3968 11.3038 15.0911 11.3857 14.8519 11.2476C14.6128 11.1095 14.5308 10.8038 14.6689 10.5646L18.9189 3.20339C18.938 3.17031 18.9603 3.14023 18.9852 3.11333C18.8992 2.88901 18.7811 2.67783 18.6343 2.48652C18.4345 2.22606 18.1853 2.00751 17.9009 1.84336C17.6166 1.67921 17.3028 1.57266 16.9773 1.52981C16.6667 1.48893 16.3514 1.50678 16.0477 1.5823C16.0382 1.60747 16.0265 1.63221 16.0126 1.65627L11.7626 9.01749C11.6245 9.25664 11.3188 9.33858 11.0796 9.20051C10.8405 9.06244 10.7585 8.75664 10.8966 8.51749L14.5303 2.22374Z" fill="currentcolor"/>
</svg>
