<svg width="24" height="24" viewBox="0 0 24 24" fill="none" xmlns="http://www.w3.org/2000/svg">
<path fill-rule="evenodd" clip-rule="evenodd" d="M14.5303 2.22362C14.4576 2.17034 14.3817 2.1208 14.3029 2.07529C13.7286 1.74377 13.0463 1.65393 12.4058 1.82554C11.7654 1.99715 11.2193 2.41615 10.8878 2.99036L8.33235 7.41651C8.13962 6.92422 7.81361 6.49271 7.38811 6.17206C6.87779 5.7875 6.25364 5.58443 5.61474 5.59511C4.96374 5.60584 4.34261 5.87012 3.88345 6.33174C3.42429 6.79336 3.16334 7.41588 3.15609 8.06693C3.11363 11.8741 3.1063 14.1199 3.13917 14.7342C3.14554 14.8552 3.15221 14.9762 3.1592 15.0971L3.15926 15.0982C3.22734 16.2555 3.58178 17.3777 4.19075 18.3642C4.74096 19.2555 5.48339 20.0107 6.3621 20.5755C6.39543 20.6008 6.43072 20.6243 6.46792 20.6458L6.64614 20.7487L6.64805 20.7498L6.6482 20.7499L8.19997 21.6458C9.80776 22.574 11.7184 22.8256 13.5117 22.3451C15.305 21.8646 16.8339 20.6914 17.7621 19.0836L22.0121 11.7224C22.3437 11.1482 22.4335 10.4658 22.2619 9.82533C22.1119 9.26551 21.7729 8.77782 21.3064 8.44249L18.433 13.4193C18.2949 13.6585 17.9891 13.7404 17.75 13.6024C17.5108 13.4643 17.4289 13.1585 17.567 12.9193L20.7426 7.41897C20.7623 7.14383 20.7366 6.8648 20.6638 6.59331C20.4922 5.95286 20.0732 5.40681 19.499 5.07529C19.3708 5.00129 19.2373 4.93933 19.1 4.88963L15.5349 11.0645C15.3968 11.3036 15.091 11.3856 14.8519 11.2475C14.6127 11.1094 14.5308 10.8036 14.6689 10.5645L18.9189 3.20327C18.938 3.17018 18.9603 3.14011 18.9852 3.1132C18.8992 2.88889 18.7811 2.67771 18.6343 2.4864C18.4345 2.22594 18.1852 2.00739 17.9009 1.84324C17.6166 1.67909 17.3027 1.57254 16.9772 1.52969C16.6667 1.4888 16.3514 1.50666 16.0477 1.58218C16.0382 1.60735 16.0265 1.63209 16.0126 1.65615L11.7626 9.01737C11.6245 9.25652 11.3187 9.33846 11.0796 9.20038C10.8404 9.06231 10.7585 8.75652 10.8966 8.51737L14.5303 2.22362Z" fill="currentcolor"/>
</svg>
