<svg width="24" height="24" viewBox="0 0 24 24" fill="none" xmlns="http://www.w3.org/2000/svg">
<g clip-path="url(#clip0_1_4116)">
<path d="M18.5479 9.72246C18.7468 9.37793 19.0744 9.12653 19.4587 9.02357C19.843 8.9206 20.2524 8.97451 20.5969 9.17342C20.9415 9.37233 21.1929 9.69996 21.2958 10.0842C21.3988 10.4685 21.3449 10.8779 21.146 11.2225L16.896 18.5837C16.1003 19.9618 14.7898 20.9674 13.2527 21.3792C11.7157 21.7911 10.0779 21.5755 8.69982 20.7798L6.96777 19.7798L7.1479 19.8838C6.28728 19.3871 5.56349 18.6845 5.04152 17.839C4.51955 16.9934 4.21574 16.0315 4.15739 15.0396C4.1505 14.9203 4.14392 14.801 4.13764 14.6817C4.10694 14.1109 4.11315 11.9102 4.15588 8.07816C4.16023 7.68753 4.3168 7.314 4.5923 7.03703C4.86779 6.76006 5.24047 6.60149 5.63107 6.59505C6.04721 6.58805 6.45375 6.72028 6.78613 6.97076C7.11851 7.22124 7.35766 7.57559 7.46561 7.97754L8.00367 9.9856L11.7539 3.49049C11.9529 3.14596 12.2805 2.89457 12.6648 2.7916C13.049 2.68864 13.4585 2.74254 13.803 2.94145C14.1475 3.14036 14.3989 3.46799 14.5019 3.85226C14.6048 4.23653 14.551 4.64608 14.3521 4.99061M14.3521 4.99061L15.3521 3.25856C15.4506 3.08796 15.5817 2.93844 15.738 2.81853C15.8943 2.69861 16.0726 2.61065 16.2629 2.55967C16.4532 2.50868 16.6516 2.49568 16.8469 2.52139C17.0422 2.5471 17.2305 2.61103 17.4011 2.70952C17.5717 2.80801 17.7212 2.93914 17.8412 3.09541C17.9611 3.25169 18.049 3.43006 18.1 3.62033C18.151 3.8106 18.164 4.00905 18.1383 4.20435C18.1126 4.39964 18.0487 4.58796 17.9502 4.75856L13.7002 12.1198M14.3521 4.99061L11.3813 9.98568M16.9502 6.49049C17.1491 6.14596 17.4768 5.89457 17.861 5.7916C18.2453 5.68864 18.6547 5.74254 18.9993 5.94145C19.3438 6.14036 19.5952 6.46799 19.6982 6.85226C19.8011 7.23653 19.7472 7.64596 19.5483 7.99049L16.2983 13.6197" stroke="currentcolor" stroke-width="2" stroke-linecap="round" stroke-linejoin="round"/>
</g>
<defs>
<clipPath id="clip0_1_4116">
<rect width="24" height="24" fill="white"/>
</clipPath>
</defs>
</svg>
