<svg width="24" height="24" viewBox="0 0 24 24" fill="none" xmlns="http://www.w3.org/2000/svg">
<g clip-path="url(#clip0_12730_43953)">
<path d="M8.00391 9.98563L11.7539 3.49044C11.9528 3.14592 12.2804 2.89452 12.6647 2.79156C13.049 2.68859 13.4584 2.74249 13.8029 2.94141C14.1475 3.14032 14.3989 3.46795 14.5018 3.85222C14.6048 4.23648 14.5509 4.64592 14.352 4.99044L11.102 10.6196" stroke="black" stroke-width="2" stroke-linecap="round" stroke-linejoin="round"/>
<path d="M14.3521 4.99056L15.3521 3.25851C15.4505 3.08792 15.5817 2.9384 15.7379 2.81848C15.8942 2.69857 16.0726 2.6106 16.2629 2.55962C16.4531 2.50864 16.6516 2.49563 16.8469 2.52134C17.0422 2.54705 17.2305 2.61098 17.4011 2.70947C17.5717 2.80796 17.7212 2.93909 17.8411 3.09537C17.961 3.25165 18.049 3.43001 18.1 3.62028C18.151 3.81055 18.164 4.009 18.1383 4.2043C18.1125 4.3996 18.0486 4.58792 17.9501 4.75851L13.7001 12.1197" stroke="black" stroke-width="2" stroke-linecap="round" stroke-linejoin="round"/>
<path d="M16.9502 6.49044C17.1491 6.14592 17.4767 5.89452 17.861 5.79156C18.2453 5.68859 18.6547 5.74249 18.9992 5.94141C19.3438 6.14032 19.5952 6.46795 19.6981 6.85222C19.8011 7.23648 19.7472 7.64592 19.5483 7.99044L16.2983 13.6196" stroke="black" stroke-width="2" stroke-linecap="round" stroke-linejoin="round"/>
<path d="M18.5479 9.72247C18.7468 9.37794 19.0744 9.12655 19.4587 9.02358C19.843 8.92062 20.2524 8.97452 20.5969 9.17343C20.9415 9.37234 21.1929 9.69997 21.2958 10.0842C21.3988 10.4685 21.3449 10.8779 21.146 11.2225L16.896 18.5837C16.1003 19.9618 14.7898 20.9674 13.2527 21.3792C11.7157 21.7911 10.0779 21.5755 8.69982 20.7798L6.96777 19.7798L7.1479 19.8838C6.28728 19.3872 5.56349 18.6845 5.04152 17.839C4.51955 16.9934 4.21574 16.0315 4.15738 15.0396C4.1505 14.9203 4.14392 14.801 4.13764 14.6818C4.10694 14.1109 4.11314 11.9102 4.15588 8.07817C4.16023 7.68754 4.3168 7.31401 4.5923 7.03704C4.86779 6.76007 5.24047 6.6015 5.63107 6.59506C6.0472 6.58806 6.45375 6.7203 6.78613 6.97077C7.1185 7.22125 7.35766 7.5756 7.46561 7.97755L8.00367 9.98561" stroke="black" stroke-width="2" stroke-linecap="round" stroke-linejoin="round"/>
</g>
<defs>
<clipPath id="clip0_12730_43953">
<rect width="24" height="24" fill="white"/>
</clipPath>
</defs>
</svg>
