<svg width="24" height="24" viewBox="0 0 24 24" fill="none" xmlns="http://www.w3.org/2000/svg">
<path fill-rule="evenodd" clip-rule="evenodd" d="M8.17317 2.7612C9.38642 2.25866 10.6868 2 12 2C13.3132 2 14.6136 2.25866 15.8268 2.7612C17.0401 3.26375 18.1425 4.00035 19.0711 4.92893C19.9997 5.85752 20.7362 6.95991 21.2388 8.17317C21.7413 9.38642 22 10.6868 22 12C22 13.3132 21.7413 14.6136 21.2388 15.8268C20.7362 17.0401 19.9997 18.1425 19.0711 19.0711C18.1425 19.9997 17.0401 20.7362 15.8268 21.2388C14.6136 21.7413 13.3132 22 12 22C10.6868 22 9.38642 21.7413 8.17317 21.2388C6.95991 20.7362 5.85752 19.9997 4.92893 19.0711C4.00035 18.1425 3.26375 17.0401 2.7612 15.8268C2.25866 14.6136 2 13.3132 2 12C2 10.6868 2.25866 9.38642 2.7612 8.17317C3.26375 6.95991 4.00035 5.85752 4.92893 4.92893C5.85752 4.00035 6.95991 3.26375 8.17317 2.7612ZM10.4747 6.34489C10.9742 6.09778 11.5241 5.96996 12.0813 5.97151C12.6385 5.97306 13.1877 6.10392 13.6857 6.35379C14.1838 6.60367 14.617 6.96574 14.9513 7.4115C15.2856 7.85725 15.5119 8.37453 15.6123 8.9226C15.7128 9.47067 15.6846 10.0346 15.5301 10.5699C15.3756 11.1052 15.0989 11.5974 14.7218 12.0076C14.3448 12.4179 13.8776 12.735 13.3572 12.934C13.3487 12.9372 13.3403 12.9404 13.3317 12.9434C13.2295 12.9793 13.1417 13.0475 13.0816 13.1377C13.0214 13.2279 12.9923 13.3351 12.9984 13.4434C13.0297 13.9948 12.608 14.4671 12.0566 14.4984C11.5052 14.5297 11.0329 14.108 11.0016 13.5566C10.9709 13.0156 11.1169 12.4792 11.4175 12.0283C11.7149 11.5821 12.1479 11.2435 12.6524 11.0623C12.8798 10.9736 13.084 10.834 13.2493 10.6542C13.4169 10.4719 13.5399 10.2532 13.6085 10.0152C13.6772 9.77731 13.6897 9.52668 13.6451 9.2831C13.6005 9.03951 13.4999 8.80961 13.3513 8.6115C13.2027 8.41338 13.0102 8.25246 12.7888 8.14141C12.5675 8.03035 12.3234 7.97219 12.0757 7.9715C11.8281 7.97082 11.5837 8.02762 11.3617 8.13745C11.1398 8.24728 10.9463 8.40712 10.7967 8.60441C10.4628 9.04439 9.83555 9.13046 9.39557 8.79664C8.95558 8.46283 8.86952 7.83554 9.20333 7.39555C9.54012 6.95166 9.97535 6.592 10.4747 6.34489ZM12 16C12.5523 16 13 16.4477 13 17V17.01C13 17.5623 12.5523 18.01 12 18.01C11.4477 18.01 11 17.5623 11 17.01V17C11 16.4477 11.4477 16 12 16Z" fill="currentcolor"/>
</svg>
