<svg width="24" height="24" viewBox="0 0 24 24" fill="none" xmlns="http://www.w3.org/2000/svg">
<path fill-rule="evenodd" clip-rule="evenodd" d="M12.7071 2.29289C12.3166 1.90237 11.6834 1.90237 11.2929 2.29289L2.29289 11.2929C2.00689 11.5789 1.92134 12.009 2.07612 12.3827C2.2309 12.7564 2.59554 13 3 13H4V19C4 19.7957 4.31607 20.5587 4.87868 21.1213C5.44129 21.6839 6.20435 22 7 22H17C17.7956 22 18.5587 21.6839 19.1213 21.1213C19.6839 20.5587 20 19.7957 20 19V13H21C21.4045 13 21.7691 12.7564 21.9239 12.3827C22.0787 12.009 21.9931 11.5789 21.7071 11.2929L12.7071 2.29289ZM14 15V20H10V15C10 14.7348 10.1054 14.4804 10.2929 14.2929C10.4804 14.1054 10.7348 14 11 14H13C13.2652 14 13.5196 14.1054 13.7071 14.2929C13.8946 14.4804 14 14.7348 14 15Z" fill="black"/>
</svg>
