<svg width="24" height="24" viewBox="0 0 24 24" fill="none" xmlns="http://www.w3.org/2000/svg">
<path d="M12 12C10.4087 12 8.88258 12.6321 7.75736 13.7574C6.63214 14.8826 6 16.4087 6 18V20C6 20.2652 6.10536 20.5196 6.29289 20.7071C6.48043 20.8946 6.73478 21 7 21H17C17.2652 21 17.5196 20.8946 17.7071 20.7071C17.8946 20.5196 18 20.2652 18 20V18C18 16.4087 17.3679 14.8826 16.2426 13.7574C15.1174 12.6321 13.5913 12 12 12ZM12 12C10.4087 12 8.88258 11.3679 7.75736 10.2426C6.63214 9.11742 6 7.5913 6 6V4C6 3.73478 6.10536 3.48043 6.29289 3.29289C6.48043 3.10536 6.73478 3 7 3H17C17.2652 3 17.5196 3.10536 17.7071 3.29289C17.8946 3.48043 18 3.73478 18 4V6C18 7.5913 17.3679 9.11742 16.2426 10.2426C15.1174 11.3679 13.5913 12 12 12ZM6.5 17H17.5" stroke="black" stroke-width="2" stroke-linecap="round" stroke-linejoin="round"/>
</svg>
