<svg width="24" height="24" viewBox="0 0 24 24" fill="none" xmlns="http://www.w3.org/2000/svg">
<path fill-rule="evenodd" clip-rule="evenodd" d="M7 2C6.46957 2 5.96086 2.21071 5.58579 2.58579C5.21071 2.96086 5 3.46957 5 4V6C5 7.85652 5.7375 9.63699 7.05025 10.9497C7.45724 11.3567 7.90918 11.7084 8.39441 12C7.90918 12.2916 7.45724 12.6433 7.05025 13.0503C5.7375 14.363 5 16.1435 5 18V20C5 20.5304 5.21071 21.0391 5.58579 21.4142C5.96086 21.7893 6.46957 22 7 22H17C17.5304 22 18.0391 21.7893 18.4142 21.4142C18.7893 21.0391 19 20.5304 19 20V18C19 16.1435 18.2625 14.363 16.9497 13.0503C16.5428 12.6433 16.0908 12.2916 15.6056 12C16.0908 11.7084 16.5428 11.3567 16.9497 10.9497C18.2625 9.63699 19 7.85651 19 6V4C19 3.46957 18.7893 2.96086 18.4142 2.58579C18.0391 2.21071 17.5304 2 17 2H7ZM7 6H17V4H7L7 6ZM12 13C10.6739 13 9.40215 13.5268 8.46447 14.4645C8.01823 14.9107 7.66506 15.4326 7.41742 16H16.5826C16.3349 15.4326 15.9818 14.9107 15.5355 14.4645C14.5979 13.5268 13.3261 13 12 13Z" fill="currentcolor"/>
</svg>
