<svg width="24" height="24" viewBox="0 0 24 24" fill="none" xmlns="http://www.w3.org/2000/svg">
<path fill-rule="evenodd" clip-rule="evenodd" d="M7 5C6.46957 5 5.96086 5.21071 5.58579 5.58579C5.21071 5.96086 5 6.46957 5 7V12.5858L7.29289 10.2929L7.30662 10.2794C7.909 9.6998 8.66419 9.33014 9.5 9.33014C10.3358 9.33014 11.091 9.6998 11.6934 10.2794L11.7071 10.2929L14 12.5858L14.2929 12.2929L14.3066 12.2794C14.909 11.6998 15.6642 11.3301 16.5 11.3301C17.3358 11.3301 18.091 11.6998 18.6934 12.2794L18.7071 12.2929L19 12.5858V7C19 6.46957 18.7893 5.96086 18.4142 5.58579C18.0391 5.21071 17.5304 5 17 5H7ZM21 14.999V7C21 5.93913 20.5786 4.92172 19.8284 4.17157C19.0783 3.42143 18.0609 3 17 3H7C5.93913 3 4.92172 3.42143 4.17157 4.17157C3.42143 4.92172 3 5.93913 3 7V14.9998V15.0002V17C3 18.0609 3.42143 19.0783 4.17157 19.8284C4.92172 20.5786 5.93913 21 7 21H17C18.0609 21 19.0783 20.5786 19.8284 19.8284C20.5786 19.0783 21 18.0609 21 17V15.001V14.999ZM15 7C14.4477 7 14 7.44772 14 8C14 8.55228 14.4477 9 15 9H15.01C15.5623 9 16.01 8.55228 16.01 8C16.01 7.44772 15.5623 7 15.01 7H15Z" fill="black"/>
</svg>
