<svg width="24" height="24" viewBox="0 0 24 24" fill="none" xmlns="http://www.w3.org/2000/svg">
<path fill-rule="evenodd" clip-rule="evenodd" d="M8.17317 2.7612C9.38642 2.25866 10.6868 2 12 2C13.3132 2 14.6136 2.25866 15.8268 2.7612C17.0401 3.26375 18.1425 4.00035 19.0711 4.92893C19.9997 5.85752 20.7362 6.95991 21.2388 8.17317C21.7413 9.38642 22 10.6868 22 12C22 13.3132 21.7413 14.6136 21.2388 15.8268C20.7362 17.0401 19.9997 18.1425 19.0711 19.0711C18.1425 19.9997 17.0401 20.7362 15.8268 21.2388C14.6136 21.7413 13.3132 22 12 22C10.6868 22 9.38642 21.7413 8.17317 21.2388C6.95991 20.7362 5.85752 19.9997 4.92893 19.0711C4.00035 18.1425 3.26375 17.0401 2.7612 15.8268C2.25866 14.6136 2 13.3132 2 12C2 10.6868 2.25866 9.38642 2.7612 8.17317C3.26375 6.95991 4.00035 5.85752 4.92893 4.92893C5.85752 4.00035 6.95991 3.26375 8.17317 2.7612ZM11 8C11 7.44772 11.4477 7 12 7H12.01C12.5623 7 13.01 7.44772 13.01 8C13.01 8.55228 12.5623 9 12.01 9H12C11.4477 9 11 8.55228 11 8ZM10 12C10 11.4477 10.4477 11 11 11H12C12.5523 11 13 11.4477 13 12V15C13.5523 15 14 15.4477 14 16C14 16.5523 13.5523 17 13 17H12C11.4477 17 11 16.5523 11 16V13C10.4477 13 10 12.5523 10 12Z" fill="black"/>
</svg>
