<svg width="24" height="24" viewBox="0 0 24 24" fill="none" xmlns="http://www.w3.org/2000/svg">
<g clip-path="url(#clip0_17205_8694)">
<g clip-path="url(#clip1_17205_8694)">
<path d="M23.9439 12.5819C23.9439 10.6476 23.4506 8.82706 22.5986 7.2341C26.2983 -1.18589 18.6746 0.0657317 18.2261 0.0657317C16.6565 0.384326 15.0869 0.896352 13.7415 1.54492C8.58424 1.48234 4.09966 4.27572 2.64217 10.0787C5.33292 7.00653 7.23887 5.75491 8.36002 5.29977C8.12458 5.51596 7.88913 5.74353 7.65369 5.9711C5.85986 7.79163 4.40237 9.61217 3.16911 11.5465C2.21614 13.2532 1.15105 14.7324 0.590476 16.6668C-2.43662 27.8175 7.09312 23.1524 8.4385 22.3559C9.89599 23.0841 11.4656 23.4824 13.2594 23.4824C17.9682 23.4824 22.0044 20.4102 23.4618 16.2002H17.744C15.0533 20.524 8.66272 18.5897 8.4385 13.9246H23.9103C23.9686 13.4581 24 12.9915 24 12.5592L23.9439 12.5819ZM21.9259 1.77248C22.8564 2.40967 23.6076 3.36545 22.3183 6.77896C21.085 4.73086 19.2912 3.13789 17.0489 2.3414C18.0467 1.85213 20.5244 0.862217 21.9819 1.77248H21.9259ZM2.0816 22.3673C1.31922 21.5822 1.18468 19.6365 2.8664 16.1092C3.70726 18.6125 5.44504 20.6606 7.57521 21.9122C6.4877 22.5152 3.6512 23.8465 2.0816 22.2877V22.3673ZM8.36002 10.989C8.44634 8.48571 10.6023 6.43761 13.2931 6.43761C15.9838 6.43761 18.114 8.48571 18.2261 10.989H8.47213H8.36002Z" fill="#1EBBEE"/>
</g>
</g>
<defs>
<clipPath id="clip0_17205_8694">
<rect width="24" height="24" fill="white"/>
</clipPath>
<clipPath id="clip1_17205_8694">
<rect width="24" height="24" fill="white"/>
</clipPath>
</defs>
</svg>
