<svg width="24" height="24" viewBox="0 0 24 24" fill="none" xmlns="http://www.w3.org/2000/svg">
<path fill-rule="evenodd" clip-rule="evenodd" d="M1.87868 5.87868C2.44129 5.31607 3.20435 5 4 5H20C20.7957 5 21.5587 5.31607 22.1213 5.87868C22.6839 6.44129 23 7.20435 23 8V16C23 16.7957 22.6839 17.5587 22.1213 18.1213C21.5587 18.6839 20.7957 19 20 19H4C3.20435 19 2.44129 18.6839 1.87868 18.1213C1.31607 17.5587 1 16.7956 1 16V8C1 7.20435 1.31607 6.44129 1.87868 5.87868ZM7 10C7 9.44772 6.55228 9 6 9C5.44772 9 5 9.44772 5 10V10.01C5 10.5623 5.44772 11.01 6 11.01C6.55228 11.01 7 10.5623 7 10.01V10ZM7 14C7 13.4477 6.55228 13 6 13C5.44772 13 5 13.4477 5 14V14.01C5 14.5623 5.44772 15.01 6 15.01C6.55228 15.01 7 14.5623 7 14.01V14ZM10 9C10.5523 9 11 9.44772 11 10V10.01C11 10.5623 10.5523 11.01 10 11.01C9.44772 11.01 9 10.5623 9 10.01V10C9 9.44772 9.44772 9 10 9ZM15 10C15 9.44772 14.5523 9 14 9C13.4477 9 13 9.44772 13 10V10.01C13 10.5623 13.4477 11.01 14 11.01C14.5523 11.01 15 10.5623 15 10.01V10ZM18 9C18.5523 9 19 9.44772 19 10V10.01C19 10.5623 18.5523 11.01 18 11.01C17.4477 11.01 17 10.5623 17 10.01V10C17 9.44772 17.4477 9 18 9ZM19 14C19 13.4477 18.5523 13 18 13C17.4477 13 17 13.4477 17 14V14.01C17 14.5623 17.4477 15.01 18 15.01C18.5523 15.01 19 14.5623 19 14.01V14ZM9 14C9 13.4477 9.44772 13 10 13H14C14.5523 13 15 13.4477 15 14C15 14.5523 14.5523 15 14 15H10C9.44772 15 9 14.5523 9 14Z" fill="black"/>
</svg>
