<svg width="24" height="24" viewBox="0 0 24 24" fill="none" xmlns="http://www.w3.org/2000/svg">
<path d="M16.5 2.96436C15.2971 2.96436 14.1435 3.4422 13.2929 4.29278L12.7929 4.79278C12.4024 5.18331 12.4024 5.81647 12.7929 6.207C13.1834 6.59752 13.8166 6.59752 14.2071 6.207L14.7071 5.707C15.1826 5.23149 15.8275 4.96436 16.5 4.96436C17.1725 4.96436 17.8174 5.23149 18.2929 5.707C18.7684 6.1825 19.0355 6.82742 19.0355 7.49989C19.0355 8.17235 18.7684 8.81728 18.2929 9.29278L14.2929 13.2928L14.2857 13.3C14.0529 13.5376 13.7751 13.7263 13.4685 13.8552C13.1619 13.984 12.8326 14.0504 12.5 14.0504C12.1674 14.0504 11.8381 13.984 11.5315 13.8552C11.2249 13.7263 10.9471 13.5376 10.7143 13.3C10.3278 12.9055 9.69463 12.8991 9.30015 13.2856C8.90566 13.6721 8.8992 14.3053 9.28571 14.6997C9.7047 15.1274 10.2048 15.4671 10.7567 15.699C11.3087 15.9309 11.9013 16.0504 12.5 16.0504C13.0987 16.0504 13.6913 15.9309 14.2433 15.699C14.7935 15.4678 15.2923 15.1294 15.7105 14.7036L19.7071 10.707C20.5577 9.85642 21.0355 8.70279 21.0355 7.49989C21.0355 6.29699 20.5577 5.14336 19.7071 4.29278C18.8565 3.4422 17.7029 2.96436 16.5 2.96436Z" fill="currentcolor"/>
<path d="M11.4999 7.94946C10.9012 7.94946 10.3086 8.06892 9.75662 8.30085C9.20635 8.53207 8.70759 8.87045 8.28938 9.29627L4.29278 13.2929C3.4422 14.1434 2.96436 15.2971 2.96436 16.5C2.96436 17.7029 3.4422 18.8565 4.29278 19.7071C5.14336 20.5577 6.29699 21.0355 7.49989 21.0355C8.70279 21.0355 9.85642 20.5577 10.707 19.7071L11.207 19.2071C11.5975 18.8166 11.5975 18.1834 11.207 17.7929C10.8165 17.4023 10.1833 17.4023 9.79278 17.7929L9.29278 18.2929C8.81728 18.7684 8.17235 19.0355 7.49989 19.0355C6.82742 19.0355 6.1825 18.7684 5.707 18.2929C5.23149 17.8174 4.96436 17.1724 4.96436 16.5C4.96436 15.8275 5.23149 15.1826 5.707 14.7071L9.707 10.7071L9.71418 10.6998C9.94695 10.4623 10.2248 10.2735 10.5314 10.1447C10.838 10.0158 11.1673 9.94946 11.4999 9.94946C11.8325 9.94946 12.1617 10.0158 12.4684 10.1447C12.775 10.2735 13.0528 10.4623 13.2856 10.6998C13.6721 11.0943 14.3053 11.1008 14.6997 10.7143C15.0942 10.3277 15.1007 9.69461 14.7142 9.30012C14.2952 8.87249 13.7951 8.53277 13.2432 8.30085C12.6912 8.06892 12.0986 7.94946 11.4999 7.94946Z" fill="currentcolor"/>
</svg>
