<svg width="24" height="24" viewBox="0 0 24 24" fill="none" xmlns="http://www.w3.org/2000/svg">
<mask id="mask0_14459_42110" style="mask-type:alpha" maskUnits="userSpaceOnUse" x="2" y="3" width="20" height="19">
<path d="M6.73563 17.2815C6.68366 17.308 6.63364 17.3362 6.58579 17.3661C6.21071 17.6005 6 17.9185 6 18.25L7 20.75C7 20.8163 7.04214 20.8799 7.11716 20.9268C7.19217 20.9737 7.29391 21 7.4 21H9.6C9.70609 21 9.80783 20.9737 9.88284 20.9268C9.95786 20.8799 10 20.8163 10 20.75V19.7011M6.73563 17.2815C7.09101 17.1002 7.53724 17 8 17C8.53043 17 9.03914 17.1317 9.41421 17.3661C9.78929 17.6005 10 17.9185 10 18.25V19.5V19.7011M6.73563 17.2815C6.25724 16.5195 6 15.6585 6 14.7743C6 12.8895 6.9161 11.5528 7.81094 10.6966C8.71439 9.83222 10.0857 10.0857 10.9698 10.9698L12 12L13.0302 10.9698C13.9143 10.0857 15.2856 9.83222 16.1891 10.6966C17.0839 11.5528 18 12.8895 18 14.7743C18 15.6585 17.7428 16.5195 17.2644 17.2815M10 19.7011C10.6364 19.8971 11.3121 20 12 20C12.6879 20 13.3636 19.8971 14 19.7011M14 19.7011V20.75C14 20.8163 14.0421 20.8799 14.1172 20.9268C14.1922 20.9737 14.2939 21 14.4 21H16.6C16.7061 21 16.8078 20.9737 16.8828 20.9268C16.9579 20.8799 17 20.8163 17 20.75L18 18.25C18 17.9185 17.7893 17.6005 17.4142 17.3661C17.3664 17.3362 17.3163 17.308 17.2644 17.2815M14 19.7011V18.25C14 17.9185 14.2107 17.6005 14.5858 17.3661C14.9609 17.1317 15.4696 17 16 17C16.4628 17 16.909 17.1002 17.2644 17.2815M3.5 15L6.99995 11.5V9C6.99995 7.67392 7.52674 6.40215 8.46442 5.46447C9.4021 4.52678 10.6739 4 12 4C13.326 4 14.5978 4.52678 15.5355 5.46447C16.4732 6.40215 17 7.67392 17 9V11.5L20.5 15" stroke="currentcolor" stroke-width="2" stroke-linecap="round" stroke-linejoin="round"/>
<path fill-rule="evenodd" clip-rule="evenodd" d="M7.49997 8.5C7.46141 10.3285 9.88332 11 12 11C14.1167 11 16.5386 10.3285 16.5 8.5C16.4595 6.57812 14.6881 4 12 4C9 4 7.54049 6.57812 7.49997 8.5ZM10.5 7C9.94772 7 9.5 7.44772 9.5 8C9.5 8.55228 9.94772 9 10.5 9H10.505C11.0573 9 11.505 8.55228 11.505 8C11.505 7.44772 11.0573 7 10.505 7H10.5ZM13.5 7C12.9477 7 12.5 7.44772 12.5 8C12.5 8.55228 12.9477 9 13.5 9H13.505C14.0573 9 14.505 8.55228 14.505 8C14.505 7.44772 14.0573 7 13.505 7H13.5Z" fill="currentcolor"/>
</mask>
<g mask="url(#mask0_14459_42110)">
<rect width="24" height="24" fill="currentcolor"/>
</g>
</svg>
