<svg width="24" height="24" viewBox="0 0 24 24" fill="none" xmlns="http://www.w3.org/2000/svg">
<mask id="mask0_14459_42110" style="mask-type:alpha" maskUnits="userSpaceOnUse" x="3" y="3" width="18" height="19">
<path d="M7 12L4 16M17 12L20 16M10.5 8H10.505M13.5 8H13.505M10 11L12 12.5L14 11M10 20V19.5V18.25C10 17.9185 9.78929 17.6005 9.41421 17.3661C9.03914 17.1317 8.53043 17 8 17C7.64588 17 7.30145 17.0587 7 17.1675M10 20V20.75C10 20.8163 9.95786 20.8799 9.88284 20.9268C9.80783 20.9737 9.70609 21 9.6 21H7.4C7.29391 21 7.19217 20.9737 7.11716 20.9268C7.04214 20.8799 7 20.8163 7 20.75L6 18.25C6 17.9185 6.21071 17.6005 6.58579 17.3661C6.71046 17.2882 6.8499 17.2216 7 17.1675M10 20H14M7 17.1675V9C7 7.67392 7.52678 6.40215 8.46447 5.46447C9.40215 4.52678 10.6739 4 12 4C13.3261 4 14.5979 4.52678 15.5355 5.46447C16.4732 6.40215 17 7.67392 17 9V17.1675M14 20V20.75C14 20.8163 14.0421 20.8799 14.1172 20.9268C14.1922 20.9737 14.2939 21 14.4 21H16.6C16.7061 21 16.8078 20.9737 16.8828 20.9268C16.9579 20.8799 17 20.8163 17 20.75L18 18.25C18 17.9185 17.7893 17.6005 17.4142 17.3661C17.2895 17.2882 17.1501 17.2216 17 17.1675M14 20V18.25C14 17.9185 14.2107 17.6005 14.5858 17.3661C14.9609 17.1317 15.4696 17 16 17C16.3541 17 16.6985 17.0587 17 17.1675" stroke="currentcolor" stroke-width="2" stroke-linecap="round" stroke-linejoin="round"/>
</mask>
<g mask="url(#mask0_14459_42110)">
<rect width="24" height="24" fill="currentcolor"/>
</g>
</svg>
