<svg width="24" height="24" viewBox="0 0 24 24" fill="none" xmlns="http://www.w3.org/2000/svg">
<mask id="mask0_14459_42109" style="mask-type:alpha" maskUnits="userSpaceOnUse" x="2" y="3" width="20" height="19">
<path d="M6.99995 11.5L3.5 15M6.99995 11.5V9C6.99995 7.67392 7.52674 6.40215 8.46442 5.46447C9.4021 4.52678 10.6739 4 12 4C13.326 4 14.5978 4.52678 15.5355 5.46447C16.4732 6.40215 17 7.67392 17 9V11.5M6.99995 11.5C6.99995 11.5 6 13.6739 6 15C6 15.8122 6.23714 16.604 6.67947 17.3112M17 11.5L20.5 15M17 11.5C17 11.5 18 13.6739 18 15C18 15.8122 17.7629 16.604 17.3205 17.3112M10.5 8H10.505M13.5 8H13.505M9.99995 11L12 12.5L14 11M14 19.7339V20V20.75C14 20.8163 14.0421 20.8799 14.1172 20.9268C14.1922 20.9737 14.2939 21 14.4 21L16.6 21C16.7061 21 16.8078 20.9737 16.8828 20.9268C16.9579 20.8799 17 20.8163 17 20.75L18 18.25C18 17.9185 17.7893 17.6005 17.4142 17.3661C17.3838 17.3471 17.3526 17.3288 17.3205 17.3112M14 19.7339V18.25C14 17.9185 14.2107 17.6005 14.5858 17.3661C14.9609 17.1317 15.4696 17 16 17C16.3541 17 16.6985 17.0587 17 17.1675C17.1135 17.2084 17.221 17.2565 17.3205 17.3112M14 19.7339C13.3936 19.9085 12.7305 20 12 20C11.3346 20 10.7251 19.9241 10.1635 19.7786L10 19.75M6.67947 17.3112C6.6474 17.3288 6.61616 17.3471 6.58579 17.3661C6.21071 17.6005 6 17.9185 6 18.25L7 20.75C7 20.8163 7.04214 20.8799 7.11716 20.9268C7.19217 20.9737 7.29391 21 7.4 21L9.6 21C9.70609 21 9.80783 20.9737 9.88284 20.9268C9.95786 20.8799 10 20.8163 10 20.75V20V19.75M6.67947 17.3112C6.77903 17.2565 6.88647 17.2084 7 17.1675C7.30145 17.0587 7.64589 17 8 17C8.53043 17 9.03914 17.1317 9.41421 17.3661C9.78929 17.6005 10 17.9185 10 18.25L10 19.5V19.75" stroke="currentcolor" stroke-width="2" stroke-linecap="round" stroke-linejoin="round"/>
</mask>
<g mask="url(#mask0_14459_42109)">
<rect width="24" height="24" fill="currentcolor"/>
</g>
</svg>
