<svg width="24" height="24" viewBox="0 0 24 24" fill="none" xmlns="http://www.w3.org/2000/svg">
<path d="M5 5C5.55228 5 6 5.44772 6 6V6.01C6 6.56229 5.55228 7.01 5 7.01C4.44772 7.01 4 6.56229 4 6.01V6C4 5.44772 4.44772 5 5 5Z" fill="currentcolor"/>
<path d="M8 6C8 5.44772 8.44772 5 9 5H20C20.5523 5 21 5.44772 21 6C21 6.55228 20.5523 7 20 7H9C8.44772 7 8 6.55228 8 6Z" fill="currentcolor"/>
<path d="M5 11C5.55228 11 6 11.4477 6 12V12.01C6 12.5623 5.55228 13.01 5 13.01C4.44772 13.01 4 12.5623 4 12.01V12C4 11.4477 4.44772 11 5 11Z" fill="currentcolor"/>
<path d="M8 12C8 11.4477 8.44772 11 9 11H20C20.5523 11 21 11.4477 21 12C21 12.5523 20.5523 13 20 13H9C8.44772 13 8 12.5523 8 12Z" fill="currentcolor"/>
<path d="M5 17C5.55228 17 6 17.4477 6 18V18.01C6 18.5623 5.55228 19.01 5 19.01C4.44772 19.01 4 18.5623 4 18.01V18C4 17.4477 4.44772 17 5 17Z" fill="currentcolor"/>
<path d="M8 18C8 17.4477 8.44772 17 9 17H20C20.5523 17 21 17.4477 21 18C21 18.5523 20.5523 19 20 19H9C8.44772 19 8 18.5523 8 18Z" fill="currentcolor"/>
</svg>
