<svg width="24" height="24" viewBox="0 0 24 24" fill="none" xmlns="http://www.w3.org/2000/svg">
<path d="M17.3158 5.66345C13.9069 5.4186 10.1099 5.4186 6.70103 5.66345C5.98745 5.71471 5.44678 6.2611 5.39312 6.92898C5.22105 9.07084 5.19816 12.2798 5.35594 14.4194C5.40806 15.1262 6.02857 15.7328 6.86803 15.7328H9.49962V18.9791L6.8734 18.9773C4.46419 18.9773 2.30171 17.1916 2.11491 14.6584C1.94485 12.3523 1.96834 8.97644 2.15373 6.66874C2.33952 4.356 4.19925 2.58495 6.4682 2.42197C10.0321 2.16598 13.9847 2.16598 17.5486 2.42197C19.8176 2.58495 21.6773 4.356 21.8631 6.66874C22.0485 8.97644 22.0404 12.3523 21.8703 14.6584C21.6835 17.1916 19.526 18.9845 17.1168 18.9845L14.5178 18.9827L9.49962 22.229L9.49962 18.9791L14.5177 15.7328H17.1172C17.9567 15.7328 18.5772 15.1262 18.6293 14.4194C18.7871 12.2798 18.7958 9.07084 18.6237 6.92898C18.57 6.2611 18.0294 5.71471 17.3158 5.66345Z" fill="#FE5000"/>
</svg>
