<svg width="24" height="24" viewBox="0 0 24 24" fill="none" xmlns="http://www.w3.org/2000/svg">
<path fill-rule="evenodd" clip-rule="evenodd" d="M9.87868 4.87868C10.4413 4.31607 11.2044 4 12 4C12.7956 4 13.5587 4.31607 14.1213 4.87868C14.6839 5.44129 15 6.20435 15 7V10H9V7C9 6.20435 9.31607 5.44129 9.87868 4.87868ZM7 10V7C7 5.67392 7.52678 4.40215 8.46447 3.46447C9.40215 2.52678 10.6739 2 12 2C13.3261 2 14.5979 2.52678 15.5355 3.46447C16.4732 4.40215 17 5.67392 17 7V10C17.7957 10 18.5587 10.3161 19.1213 10.8787C19.6839 11.4413 20 12.2043 20 13V19C20 19.7957 19.6839 20.5587 19.1213 21.1213C18.5587 21.6839 17.7957 22 17 22H7C6.20435 22 5.44129 21.6839 4.87868 21.1213C4.31607 20.5587 4 19.7957 4 19V13C4 12.2044 4.31607 11.4413 4.87868 10.8787C5.44129 10.3161 6.20435 10 7 10ZM10.5858 14.5858C10.9609 14.2107 11.4696 14 12 14C12.5304 14 13.0391 14.2107 13.4142 14.5858C13.7893 14.9609 14 15.4696 14 16C14 16.5304 13.7893 17.0391 13.4142 17.4142C13.0391 17.7893 12.5304 18 12 18C11.4696 18 10.9609 17.7893 10.5858 17.4142C10.2107 17.0391 10 16.5304 10 16C10 15.4696 10.2107 14.9609 10.5858 14.5858Z" fill="black"/>
</svg>
