<svg width="24" height="24" viewBox="0 0 24 24" fill="none" xmlns="http://www.w3.org/2000/svg">
<path d="M11 2C10.4696 2 9.96086 2.21071 9.58579 2.58579C9.21071 2.96086 9 3.46957 9 4V10C9 10.5304 9.21071 11.0391 9.58579 11.4142C9.96086 11.7893 10.4696 12 11 12H17.5858L20.2929 14.7071C20.5789 14.9931 21.009 15.0787 21.3827 14.9239C21.7564 14.7691 22 14.4045 22 14V4C22 3.46957 21.7893 2.96086 21.4142 2.58579C21.0391 2.21071 20.5304 2 20 2H11Z" fill="currentcolor"/>
<path d="M7 9C7 9.33333 7 9.66667 7 10C7 12.2091 8.79086 14 11 14C12.3333 14 13.6667 14 15 14V17C15 17.5304 14.7893 18.0391 14.4142 18.4142C14.0391 18.7893 13.5304 19 13 19H6.41421L3.70711 21.7071C3.42111 21.9931 2.99099 22.0787 2.61732 21.9239C2.24364 21.7691 2 21.4045 2 21V11C2 10.4696 2.21071 9.96086 2.58579 9.58579C2.96086 9.21071 3.46957 9 4 9H7Z" fill="currentcolor"/>
</svg>
