<svg width="24" height="24" viewBox="0 0 24 24" fill="none" xmlns="http://www.w3.org/2000/svg">
<path fill-rule="evenodd" clip-rule="evenodd" d="M2.87868 3.87868C3.44129 3.31607 4.20435 3 5 3H9C9.26522 3 9.51957 3.10536 9.70711 3.29289L12.4142 6H19C19.7957 6 20.5587 6.31607 21.1213 6.87868C21.6839 7.44129 22 8.20435 22 9V17C22 17.7957 21.6839 18.5587 21.1213 19.1213C20.5587 19.6839 19.7957 20 19 20H5C4.20435 20 3.44129 19.6839 2.87868 19.1213C2.31607 18.5587 2 17.7956 2 17V6C2 5.20435 2.31607 4.44129 2.87868 3.87868ZM13.2071 9.79289C12.8166 9.40237 12.1834 9.40237 11.7929 9.79289C11.4024 10.1834 11.4024 10.8166 11.7929 11.2071L12.5858 12H9C8.44772 12 8 12.4477 8 13C8 13.5523 8.44772 14 9 14H12.5858L11.7929 14.7929C11.4024 15.1834 11.4024 15.8166 11.7929 16.2071C12.1834 16.5976 12.8166 16.5976 13.2071 16.2071L15.7071 13.7071C16.0976 13.3166 16.0976 12.6834 15.7071 12.2929L13.2071 9.79289Z" fill="black"/>
</svg>
