<svg width="24" height="24" viewBox="0 0 24 24" fill="none" xmlns="http://www.w3.org/2000/svg">
<path d="M12.0001 1.99194C10.1898 1.99228 8.41358 2.48402 6.86085 3.41471C5.30811 4.3454 4.03715 5.68013 3.18352 7.27653C2.32989 8.87292 1.92562 10.6711 2.01384 12.4792C2.10205 14.2874 2.67944 16.0377 3.68441 17.5434C4.68939 19.0491 6.08424 20.2538 7.7202 21.0289C9.35615 21.804 11.1718 22.1205 12.9736 21.9446C14.7753 21.7687 16.4955 21.1071 17.9506 20.0302C19.4058 18.9533 20.5413 17.5016 21.2361 15.8299C21.5771 15.0099 20.7601 14.1859 19.9381 14.5199C18.5293 15.0906 16.965 15.1495 15.5173 14.6864C14.0695 14.2232 12.8299 13.2674 12.0139 11.985C11.1978 10.7026 10.8571 9.17472 11.0508 7.6671C11.2445 6.15947 11.9604 4.76741 13.0741 3.73294L13.1511 3.65294C13.7021 3.02294 13.2641 1.99994 12.3931 1.99994H12.1271L12.0591 1.99394L11.9991 1.99194H12.0001Z" fill="black"/>
</svg>
