<svg width="24" height="24" viewBox="0 0 24 24" fill="none" xmlns="http://www.w3.org/2000/svg">
<g clip-path="url(#clip0_12772_47444)">
<path d="M14.235 19C15.1 19 15.557 20.024 14.98 20.668C14.6051 21.0875 14.1459 21.4229 13.6323 21.6525C13.1188 21.8821 12.5625 22.0005 12 22C11.4374 22.0005 10.8812 21.8821 10.3676 21.6525C9.85404 21.4229 9.3948 21.0875 9.01997 20.668C8.46797 20.052 8.86197 19.089 9.65397 19.007L9.76397 19.001L14.235 19Z" fill="currentcolor"/>
<path d="M11.9999 2C13.3579 2 14.5059 2.903 14.8749 4.141L14.9209 4.312L14.9289 4.355C16.0313 4.9769 16.9707 5.8511 17.6702 6.906C18.3696 7.9609 18.8092 9.16648 18.9529 10.424L18.9809 10.711L18.9999 11V13.931L19.0209 14.067C19.1579 14.8038 19.5656 15.4627 20.1639 15.914L20.3309 16.031L20.4929 16.13C21.3529 16.617 21.0529 17.896 20.1159 17.994L19.9999 18H3.99995C2.97195 18 2.61295 16.636 3.50695 16.13C3.88798 15.9144 4.21719 15.618 4.47149 15.2616C4.72578 14.9052 4.89899 14.4974 4.97895 14.067L4.99995 13.924L5.00095 10.954C5.06192 9.64788 5.44211 8.37661 6.10823 7.25147C6.77436 6.12632 7.70611 5.18161 8.82195 4.5L9.06995 4.354L9.07995 4.311C9.2214 3.71303 9.54289 3.17284 10.001 2.76334C10.4592 2.35384 11.0319 2.09473 11.6419 2.021L11.8239 2.004L11.9999 2Z" fill="currentcolor"/>
</g>
<defs>
<clipPath id="clip0_12772_47444">
<rect width="24" height="24" fill="white"/>
</clipPath>
</defs>
</svg>
