<svg width="24" height="24" viewBox="0 0 24 24" fill="none" xmlns="http://www.w3.org/2000/svg">
<path d="M3.99987 11C4.25475 11.0003 4.4999 11.0979 4.68524 11.2728C4.87057 11.4478 4.9821 11.687 4.99704 11.9414C5.01198 12.1958 4.92919 12.4464 4.7656 12.6418C4.60201 12.8373 4.36996 12.9629 4.11687 12.993L3.99987 13H2.99987C2.74499 12.9997 2.49984 12.9021 2.3145 12.7272C2.12916 12.5522 2.01763 12.313 2.0027 12.0586C1.98776 11.8042 2.07054 11.5536 2.23413 11.3582C2.39772 11.1627 2.62977 11.0371 2.88287 11.007L2.99987 11H3.99987Z" fill="currentcolor"/>
<path d="M12 2C12.2449 2.00003 12.4813 2.08996 12.6644 2.25272C12.8474 2.41547 12.9643 2.63975 12.993 2.883L13 3V4C12.9997 4.25488 12.9021 4.50003 12.7272 4.68537C12.5522 4.8707 12.313 4.98223 12.0586 4.99717C11.8042 5.01211 11.5536 4.92933 11.3582 4.76574C11.1627 4.60214 11.0371 4.3701 11.007 4.117L11 4V3C11 2.73478 11.1054 2.48043 11.2929 2.29289C11.4804 2.10536 11.7348 2 12 2Z" fill="currentcolor"/>
<path d="M20.9999 11C21.2547 11.0003 21.4999 11.0979 21.6852 11.2728C21.8706 11.4478 21.9821 11.687 21.997 11.9414C22.012 12.1958 21.9292 12.4464 21.7656 12.6418C21.602 12.8373 21.37 12.9629 21.1169 12.993L20.9999 13H19.9999C19.745 12.9997 19.4998 12.9021 19.3145 12.7272C19.1292 12.5522 19.0176 12.313 19.0027 12.0586C18.9878 11.8042 19.0705 11.5536 19.2341 11.3582C19.3977 11.1627 19.6298 11.0371 19.8829 11.007L19.9999 11H20.9999Z" fill="currentcolor"/>
<path d="M4.89288 4.89296C5.06508 4.72078 5.29418 4.61735 5.5372 4.60207C5.78023 4.58679 6.02048 4.66071 6.21288 4.80996L6.30688 4.89296L7.00688 5.59296C7.18623 5.77292 7.29036 6.01439 7.29811 6.26834C7.30587 6.52229 7.21667 6.76967 7.04864 6.96024C6.8806 7.1508 6.64633 7.27026 6.39341 7.29436C6.14049 7.31845 5.88788 7.24537 5.68688 7.08996L5.59288 7.00696L4.89288 6.30696C4.70541 6.11943 4.6001 5.86512 4.6001 5.59996C4.6001 5.33479 4.70541 5.08049 4.89288 4.89296Z" fill="currentcolor"/>
<path d="M17.6931 4.89301C17.873 4.71367 18.1145 4.60954 18.3685 4.60178C18.6224 4.59403 18.8698 4.68323 19.0604 4.85126C19.2509 5.0193 19.3704 5.25356 19.3945 5.50649C19.4186 5.75941 19.3455 6.01202 19.1901 6.21301L19.1071 6.30701L18.4071 7.00701C18.2271 7.18636 17.9856 7.29049 17.7317 7.29824C17.4777 7.306 17.2304 7.2168 17.0398 7.04876C16.8492 6.88073 16.7298 6.64646 16.7057 6.39354C16.6816 6.14062 16.7547 5.888 16.9101 5.68701L16.9931 5.59301L17.6931 4.89301Z" fill="currentcolor"/>
<path d="M14 18C14.2652 18 14.5196 18.1054 14.7071 18.2929C14.8946 18.4804 15 18.7348 15 19C15 19.7956 14.6839 20.5587 14.1213 21.1213C13.5587 21.6839 12.7956 22 12 22C11.2044 22 10.4413 21.6839 9.87868 21.1213C9.31607 20.5587 9 19.7956 9 19C9.00003 18.7551 9.08996 18.5187 9.25272 18.3356C9.41547 18.1526 9.63975 18.0357 9.883 18.007L10 18H14Z" fill="currentcolor"/>
<path d="M12 6C13.2593 6 14.4867 6.39622 15.5083 7.13255C16.5299 7.86887 17.2939 8.90796 17.6921 10.1026C18.0903 11.2973 18.1026 12.587 17.7271 13.789C17.3516 14.991 16.6074 16.0444 15.6 16.8C15.4622 16.9035 15.2999 16.9697 15.129 16.992L15 17H9C8.78363 17 8.5731 16.9298 8.4 16.8C7.39256 16.0444 6.6484 14.991 6.27292 13.789C5.89744 12.587 5.90968 11.2973 6.3079 10.1026C6.70612 8.90796 7.47015 7.86887 8.49174 7.13255C9.51333 6.39622 10.7407 6 12 6Z" fill="currentcolor"/>
</svg>
