<svg width="24" height="24" viewBox="0 0 24 24" fill="none" xmlns="http://www.w3.org/2000/svg">
<mask id="mask0_24_413" style="mask-type:alpha" maskUnits="userSpaceOnUse" x="1" y="2" width="22" height="20">
<path d="M12.0003 2.8114C13.9629 2.8114 15.9955 2.88286 17.8179 3.02578C20.201 3.24015 22.1636 5.09807 22.3739 7.59912L22.3985 8.03088L22.4239 8.57905C22.4492 9.18028 22.4745 10.545 22.5 12.6731L22.4869 13.3633C22.4609 14.5691 22.4214 15.6496 22.3739 16.4011C22.1636 18.9022 20.201 20.7601 17.8179 20.9745C16.1612 21.1044 14.3307 21.1752 12.5371 21.1871L11.9959 21.1886C10.0333 21.1886 8.00064 21.1172 6.17826 20.9743C3.79514 20.7599 1.83257 18.902 1.6223 16.4009L1.59768 15.9692L1.58007 15.6024C1.54591 14.8387 1.51823 13.8992 1.5 12.8939V11.1064L1.5141 10.4219C1.54001 9.30307 1.57759 8.30581 1.6223 7.5993C1.83257 5.09825 3.79514 3.24033 6.17826 3.02596C7.83497 2.89604 9.66547 2.82517 11.4591 2.81336L12.0003 2.8114ZM11.9981 6.31353L11.3564 6.3164L10.7362 6.32482C9.29024 6.35047 7.85389 6.418 6.45863 6.52742C5.68762 6.59888 5.12688 7.17055 5.05679 7.88513L5.03309 8.14159C4.96861 8.90536 4.92674 9.97675 4.90234 11.1539V12.8463L4.91783 13.4918C4.94678 14.545 4.99171 15.4738 5.05679 16.1151C5.12688 16.8297 5.68762 17.4013 6.45863 17.4728C7.85389 17.5822 9.29024 17.6498 10.7362 17.6754L11.3564 17.6838L12.0406 17.6867L12.6397 17.684C14.2947 17.6684 15.943 17.598 17.5375 17.473C18.3085 17.4015 18.8693 16.8299 18.9394 16.1153L18.9631 15.8588C19.042 14.9239 19.0871 13.528 19.1077 12.0415L19.0938 11.1537L19.0783 10.5082C19.0494 9.45507 19.0044 8.52628 18.9394 7.88495C18.8693 7.17037 18.3085 6.5987 17.5375 6.52724C16.1423 6.41782 14.7059 6.35029 13.2599 6.32464L12.6397 6.31621L11.9981 6.31353Z" fill="white"/>
</mask>
<g mask="url(#mask0_24_413)">
<path fill-rule="evenodd" clip-rule="evenodd" d="M11.9981 -1.12695C15.4911 -1.12695 18.9307 0.491946 21.2891 2.71778C21.3356 2.76172 22.0725 3.52591 22.3878 3.99131L11.9981 11.9998V-1.12695Z" fill="url(#paint0_linear_24_413)"/>
<path fill-rule="evenodd" clip-rule="evenodd" d="M21.2891 2.7179C23.7658 5.19225 25.0483 8.58699 25.1342 11.835C25.1356 11.89 25.1368 12.5326 25.1375 12.5875L11.9981 11.9999L21.2891 2.7179Z" fill="url(#paint1_linear_24_413)"/>
<path fill-rule="evenodd" clip-rule="evenodd" d="M25.1375 11.9999C25.1375 15.452 23.8037 18.5928 21.6228 20.9361C21.5555 21.0084 21.2648 21.2112 21.196 21.2819L11.9981 11.9999H25.1375Z" fill="url(#paint2_linear_24_413)"/>
<path fill-rule="evenodd" clip-rule="evenodd" d="M21.4187 21.1506C18.946 23.6209 15.4302 25.0286 12.1792 25.1227C12.1188 25.1245 11.1889 25.1219 11.1286 25.1227L11.9981 11.9999L21.4187 21.1506Z" fill="url(#paint3_linear_24_413)"/>
<path fill-rule="evenodd" clip-rule="evenodd" d="M11.9981 25.1266C8.48691 25.1266 5.16971 23.6249 2.80897 21.3798C2.7748 21.3473 2.27076 20.7838 2.237 20.751L11.9981 11.9999V25.1266Z" fill="url(#paint4_linear_24_413)"/>
<path fill-rule="evenodd" clip-rule="evenodd" d="M2.70709 21.2819C0.254287 18.8315 -1.02727 15.4784 -1.1352 12.259C-1.1381 12.1725 -1.134 11.4674 -1.1352 11.3812L11.9981 11.9999L2.70709 21.2819Z" fill="url(#paint5_linear_24_413)"/>
<path fill-rule="evenodd" clip-rule="evenodd" d="M-1.14139 11.9999C-1.14139 8.51945 0.214429 5.3554 2.42719 3.0061C2.47685 2.95338 2.97284 2.58925 3.02335 2.53735L11.9981 11.9999H-1.14139Z" fill="url(#paint6_linear_24_413)"/>
<path fill-rule="evenodd" clip-rule="evenodd" d="M2.57748 2.84908C5.01123 0.417693 8.45553 -0.984297 11.6631 -1.11764C11.7751 -1.12229 12.1264 -1.1254 12.2377 -1.12695L11.9981 11.9998L2.57748 2.84908Z" fill="url(#paint7_linear_24_413)"/>
</g>
<defs>
<linearGradient id="paint0_linear_24_413" x1="14.4399" y1="4.74649" x2="17.2902" y2="5.46157" gradientUnits="userSpaceOnUse">
<stop stop-color="#9A4AEF"/>
<stop offset="1" stop-color="#D54679"/>
</linearGradient>
<linearGradient id="paint1_linear_24_413" x1="18.7632" y1="6.80251" x2="20.1408" y2="10.0834" gradientUnits="userSpaceOnUse">
<stop stop-color="#D54679"/>
<stop offset="1" stop-color="#FF3E00"/>
</linearGradient>
<linearGradient id="paint2_linear_24_413" x1="19.1723" y1="14.4796" x2="18.2031" y2="16.9298" gradientUnits="userSpaceOnUse">
<stop stop-color="#FF3E00"/>
<stop offset="1" stop-color="#B08F40"/>
</linearGradient>
<linearGradient id="paint3_linear_24_413" x1="16.9391" y1="18.5616" x2="14.0978" y2="19.3915" gradientUnits="userSpaceOnUse">
<stop stop-color="#B08F40"/>
<stop offset="0.454801" stop-color="#91A44C"/>
<stop offset="1" stop-color="#2FD466"/>
</linearGradient>
<linearGradient id="paint4_linear_24_413" x1="6.75557" y1="18.5632" x2="9.84536" y2="18.9303" gradientUnits="userSpaceOnUse">
<stop stop-color="#139FC9"/>
<stop offset="1" stop-color="#2FD466"/>
</linearGradient>
<linearGradient id="paint5_linear_24_413" x1="3.96118" y1="14.0952" x2="4.49929" y2="17.2646" gradientUnits="userSpaceOnUse">
<stop stop-color="#0347FE"/>
<stop offset="1" stop-color="#139FC9"/>
</linearGradient>
<linearGradient id="paint6_linear_24_413" x1="6.3472" y1="7.26861" x2="4.46403" y2="10.0045" gradientUnits="userSpaceOnUse">
<stop stop-color="#644AF9"/>
<stop offset="1" stop-color="#034AFB"/>
</linearGradient>
<linearGradient id="paint7_linear_24_413" x1="9.82326" y1="4.65688" x2="7.02782" y2="5.99196" gradientUnits="userSpaceOnUse">
<stop stop-color="#9A4BF4"/>
<stop offset="1" stop-color="#644AF9"/>
</linearGradient>
</defs>
</svg>
