<svg width="24" height="24" viewBox="0 0 24 24" fill="none" xmlns="http://www.w3.org/2000/svg">
<path fill-rule="evenodd" clip-rule="evenodd" d="M12 2C10.6868 2 9.38642 2.25866 8.17317 2.7612C6.95991 3.26375 5.85752 4.00035 4.92893 4.92893C4.00035 5.85752 3.26375 6.95991 2.7612 8.17317C2.25866 9.38642 2 10.6868 2 12C2 13.3132 2.25866 14.6136 2.7612 15.8268C3.26375 17.0401 4.00035 18.1425 4.92893 19.0711C5.85752 19.9997 6.95991 20.7362 8.17317 21.2388C9.37399 21.7362 10.6601 21.9947 11.9596 21.9999C12.4214 22.0319 12.8826 21.9237 13.2825 21.6891C13.697 21.4458 14.025 21.0788 14.2202 20.6395C14.4154 20.2003 14.4681 19.7109 14.3709 19.2402C14.2737 18.7695 14.0314 18.341 13.6781 18.0151C13.6192 17.9607 13.554 17.9137 13.4839 17.8749C13.2886 17.7669 13.1351 17.5968 13.0477 17.3915C12.9603 17.1862 12.9441 16.9576 13.0015 16.7421C13.059 16.5265 13.1869 16.3364 13.3649 16.2019C13.543 16.0674 13.7608 15.9963 13.9839 15.9999L14 16H16.5C17.9232 16 19.3083 15.4985 20.3463 14.5758C21.3882 13.6497 22 12.3666 22 11C22 8.5725 20.9141 6.27199 19.0283 4.59574C17.1464 2.92289 14.6166 2 12 2ZM12 6C11.1716 6 10.5 6.67157 10.5 7.5C10.5 8.32843 11.1716 9 12 9C12.8284 9 13.5 8.32843 13.5 7.5C13.5 6.67157 12.8284 6 12 6ZM7.5 9C6.67157 9 6 9.67157 6 10.5C6 11.3284 6.67157 12 7.5 12C8.32843 12 9 11.3284 9 10.5C9 9.67157 8.32843 9 7.5 9ZM16.5 9C15.6716 9 15 9.67157 15 10.5C15 11.3284 15.6716 12 16.5 12C17.3284 12 18 11.3284 18 10.5C18 9.67157 17.3284 9 16.5 9Z" fill="black"/>
</svg>
