<svg width="24" height="24" viewBox="0 0 24 24" fill="none" xmlns="http://www.w3.org/2000/svg">
<path d="M8.75481 3.015C8.83981 3.002 8.91281 3 9.02481 3C10.4848 3 11.6748 4.387 11.9448 6.114C12.2338 7.98 11.3698 9.763 9.83681 9.969L9.74481 9.985C9.71693 9.98927 9.68892 9.99261 9.66081 9.995L9.47381 10C8.01581 10 6.82581 8.611 6.55381 6.886C6.26481 5.02 7.12981 3.237 8.66181 3.031L8.75481 3.015Z" fill="currentcolor"/>
<path d="M19.7802 7H19.7502C18.5312 7.02 17.4002 8.066 16.8422 9.504C16.1522 11.279 16.4942 13.224 17.9172 13.837C18.1732 13.946 18.4442 14 18.7182 14C19.9492 14 21.0982 12.947 21.6612 11.496C22.3472 9.722 22.0012 7.776 20.5852 7.164C20.331 7.05571 20.0566 6.99992 19.7802 7Z" fill="currentcolor"/>
<path d="M11.9998 10C10.6798 10 10.0168 10.421 9.0688 11.924L8.8248 12.322L8.4298 13.01C8.38256 13.0945 8.33556 13.1792 8.2888 13.264C8.0488 13.698 7.7178 14.017 7.1498 14.406L6.5998 14.771C5.6598 15.398 5.1678 15.889 4.8928 16.726C4.7688 17.064 4.6968 17.579 4.6998 18.006C4.6998 19.693 5.8978 21 7.4998 21L7.7418 20.994C7.8608 20.988 7.9758 20.977 8.0958 20.96L8.3438 20.917L8.4758 20.889L8.7668 20.816L8.9288 20.771L9.4988 20.601L10.2618 20.358L10.7168 20.222C11.2468 20.072 11.6568 20 11.9998 20C12.3438 20 12.7528 20.073 13.2828 20.222L13.7378 20.358L14.5018 20.6L15.0708 20.771L15.3828 20.855C15.4798 20.879 15.5698 20.9 15.6558 20.917L15.9038 20.96C16.0238 20.977 16.1388 20.988 16.2578 20.994L16.4998 21C18.1018 21 19.2998 19.693 19.2998 18C19.2998 17.573 19.2268 17.061 19.0928 16.694C18.8568 15.97 18.4158 15.471 17.6128 14.864L17.3558 14.674L16.8278 14.294C16.1858 13.824 15.8248 13.468 15.5748 13.016L15.3048 12.531L15.0528 12.099C14.0418 10.403 13.4348 10 11.9998 10Z" fill="currentcolor"/>
<path d="M14.972 3.00001C13.513 3.00001 12.325 4.38801 12.056 6.11301C11.766 7.98001 12.63 9.76301 14.23 9.98001C14.333 9.99301 14.43 10 14.526 10C15.916 10 17.069 8.73501 17.403 7.11701L17.444 6.88701C17.734 5.02001 16.87 3.23701 15.27 3.02001C15.1713 3.00645 15.0717 2.99977 14.972 3.00001Z" fill="currentcolor"/>
<path d="M3.42018 7.161C3.67318 7.054 3.94317 7 4.21718 7C5.44817 7 6.59517 8.053 7.15817 9.504C7.84718 11.277 7.50618 13.224 6.08017 13.839C5.82717 13.946 5.55717 14 5.28317 14C4.05218 14 2.90518 12.947 2.34217 11.496C1.65317 9.723 1.99418 7.776 3.42018 7.161Z" fill="currentcolor"/>
<path d="M8.75481 3.015C8.83981 3.002 8.91281 3 9.02481 3C10.4848 3 11.6748 4.387 11.9448 6.114C12.2338 7.98 11.3698 9.763 9.83681 9.969L9.74481 9.985C9.71693 9.98927 9.68892 9.99261 9.66081 9.995L9.47381 10C8.01581 10 6.82581 8.611 6.55381 6.886C6.26481 5.02 7.12981 3.237 8.66181 3.031L8.75481 3.015Z" stroke="currentcolor"/>
<path d="M19.7802 7H19.7502C18.5312 7.02 17.4002 8.066 16.8422 9.504C16.1522 11.279 16.4942 13.224 17.9172 13.837C18.1732 13.946 18.4442 14 18.7182 14C19.9492 14 21.0982 12.947 21.6612 11.496C22.3472 9.722 22.0012 7.776 20.5852 7.164C20.331 7.05571 20.0566 6.99992 19.7802 7Z" stroke="currentcolor"/>
<path d="M11.9998 10C10.6798 10 10.0168 10.421 9.0688 11.924L8.8248 12.322L8.4298 13.01C8.38256 13.0945 8.33556 13.1792 8.2888 13.264C8.0488 13.698 7.7178 14.017 7.1498 14.406L6.5998 14.771C5.6598 15.398 5.1678 15.889 4.8928 16.726C4.7688 17.064 4.6968 17.579 4.6998 18.006C4.6998 19.693 5.8978 21 7.4998 21L7.7418 20.994C7.8608 20.988 7.9758 20.977 8.0958 20.96L8.3438 20.917L8.4758 20.889L8.7668 20.816L8.9288 20.771L9.4988 20.601L10.2618 20.358L10.7168 20.222C11.2468 20.072 11.6568 20 11.9998 20C12.3438 20 12.7528 20.073 13.2828 20.222L13.7378 20.358L14.5018 20.6L15.0708 20.771L15.3828 20.855C15.4798 20.879 15.5698 20.9 15.6558 20.917L15.9038 20.96C16.0238 20.977 16.1388 20.988 16.2578 20.994L16.4998 21C18.1018 21 19.2998 19.693 19.2998 18C19.2998 17.573 19.2268 17.061 19.0928 16.694C18.8568 15.97 18.4158 15.471 17.6128 14.864L17.3558 14.674L16.8278 14.294C16.1858 13.824 15.8248 13.468 15.5748 13.016L15.3048 12.531L15.0528 12.099C14.0418 10.403 13.4348 10 11.9998 10Z" stroke="currentcolor"/>
<path d="M14.972 3.00001C13.513 3.00001 12.325 4.38801 12.056 6.11301C11.766 7.98001 12.63 9.76301 14.23 9.98001C14.333 9.99301 14.43 10 14.526 10C15.916 10 17.069 8.73501 17.403 7.11701L17.444 6.88701C17.734 5.02001 16.87 3.23701 15.27 3.02001C15.1713 3.00645 15.0717 2.99977 14.972 3.00001Z" stroke="currentcolor"/>
<path d="M3.42018 7.161C3.67318 7.054 3.94317 7 4.21718 7C5.44817 7 6.59517 8.053 7.15817 9.504C7.84718 11.277 7.50618 13.224 6.08017 13.839C5.82717 13.946 5.55717 14 5.28317 14C4.05218 14 2.90518 12.947 2.34217 11.496C1.65317 9.723 1.99418 7.776 3.42018 7.161Z" stroke="currentcolor"/>
</svg>
