<svg width="24" height="24" viewBox="0 0 24 24" fill="none" xmlns="http://www.w3.org/2000/svg">
<path fill-rule="evenodd" clip-rule="evenodd" d="M9 2C7.67392 2 6.40215 2.52678 5.46447 3.46447C4.52678 4.40215 4 5.67392 4 7C4 8.32608 4.52678 9.59785 5.46447 10.5355C6.40215 11.4732 7.67392 12 9 12C10.3261 12 11.5979 11.4732 12.5355 10.5355C13.4732 9.59785 14 8.32608 14 7C14 5.67392 13.4732 4.40215 12.5355 3.46447C11.5979 2.52678 10.3261 2 9 2ZM16.25 2.15876C15.8659 2.05955 15.4594 2.19687 15.214 2.50872C14.9691 2.82008 14.9311 3.24662 15.117 3.59633L15.1172 3.59681L15.1175 3.59729L15.1177 3.59762L15.1224 3.60676C15.1275 3.61655 15.1359 3.63303 15.1471 3.65578C15.1697 3.70132 15.2038 3.77175 15.2454 3.86372C15.329 4.04815 15.4422 4.31645 15.5556 4.64221C15.7859 5.30397 16 6.15423 16 6.99998C16 7.84573 15.7859 8.696 15.5556 9.35776C15.4422 9.68353 15.329 9.95183 15.2454 10.1363C15.2038 10.2282 15.1697 10.2987 15.1471 10.3442C15.1359 10.367 15.1275 10.3834 15.1224 10.3932L15.1175 10.4026L15.1175 10.4027L15.1174 10.403L15.1172 10.4032L15.1172 10.4032L15.117 10.4036C14.9311 10.7533 14.9691 11.1799 15.214 11.4913C15.4594 11.8031 15.8659 11.9404 16.25 11.8412C17.1075 11.6198 17.8986 11.1725 18.5355 10.5355C19.4732 9.59784 20 8.32607 20 6.99999C20 5.67391 19.4732 4.40214 18.5355 3.46446C17.8986 2.8275 17.1075 2.38018 16.25 2.15876ZM7 14C5.67392 14 4.40215 14.5268 3.46447 15.4645C2.52678 16.4021 2 17.6739 2 19V21C2 21.5523 2.44772 22 3 22H15C15.5523 22 16 21.5523 16 21V19C16 17.6739 15.4732 16.4021 14.5355 15.4645C13.5979 14.5268 12.3261 14 11 14H7ZM18.4472 14.1055C18.0622 13.913 17.5973 13.9885 17.2929 14.2929C16.9885 14.5972 16.9131 15.0622 17.1056 15.4472C17.9822 17.2004 18 19.6643 18 21C18 21.5523 18.4477 22 19 22H21C21.5523 22 22 21.5523 22 21L22 19L22 18.9942C21.9936 17.8907 21.6224 16.8202 20.9441 15.9497C20.419 15.2759 19.5025 14.6332 18.4472 14.1055Z" fill="black"/>
</svg>
