<svg width="24" height="24" viewBox="0 0 24 24" fill="none" xmlns="http://www.w3.org/2000/svg">
<path fill-rule="evenodd" clip-rule="evenodd" d="M9 2C7.67392 2 6.40215 2.52678 5.46447 3.46447C4.52678 4.40215 4 5.67392 4 7C4 8.32608 4.52678 9.59785 5.46447 10.5355C6.40215 11.4732 7.67392 12 9 12C10.3261 12 11.5979 11.4732 12.5355 10.5355C13.4732 9.59785 14 8.32608 14 7C14 5.67392 13.4732 4.40215 12.5355 3.46447C11.5979 2.52678 10.3261 2 9 2ZM7 14C5.67392 14 4.40215 14.5268 3.46447 15.4645C2.52678 16.4021 2 17.6739 2 19V21C2 21.5523 2.44772 22 3 22H15C15.5523 22 16 21.5523 16 21V19C16 17.6739 15.4732 16.4021 14.5355 15.4645C13.5979 14.5268 12.3261 14 11 14H7Z" fill="currentcolor"/>
<path fill-rule="evenodd" clip-rule="evenodd" d="M19 7C19.5523 7 20 7.44772 20 8V10H22C22.5523 10 23 10.4477 23 11C23 11.5523 22.5523 12 22 12H20V14C20 14.5523 19.5523 15 19 15C18.4477 15 18 14.5523 18 14V12H16C15.4477 12 15 11.5523 15 11C15 10.4477 15.4477 10 16 10H18V8C18 7.44772 18.4477 7 19 7Z" fill="currentcolor"/>
</svg>
