<svg width="24" height="24" viewBox="0 0 24 24" fill="none" xmlns="http://www.w3.org/2000/svg">
<path fill-rule="evenodd" clip-rule="evenodd" d="M12 2C10.6739 2 9.40215 2.52678 8.46447 3.46447C7.52678 4.40215 7 5.67392 7 7C7 8.32608 7.52678 9.59785 8.46447 10.5355C9.40215 11.4732 10.6739 12 12 12C13.3261 12 14.5979 11.4732 15.5355 10.5355C16.4732 9.59785 17 8.32608 17 7C17 5.67392 16.4732 4.40215 15.5355 3.46447C14.5979 2.52678 13.3261 2 12 2ZM10 14C8.67392 14 7.40215 14.5268 6.46447 15.4645C5.52678 16.4021 5 17.6739 5 19V21C5 21.5523 5.44772 22 6 22H18C18.5523 22 19 21.5523 19 21V19C19 17.6739 18.4732 16.4021 17.5355 15.4645C16.5979 14.5268 15.3261 14 14 14H10Z" fill="black"/>
</svg>
