<svg width="24" height="24" viewBox="0 0 24 24" fill="none" xmlns="http://www.w3.org/2000/svg">
<path d="M8 5.07201C9.51458 4.19759 11.274 3.84356 13.0089 4.06414C14.7438 4.28471 16.3587 5.06772 17.6063 6.29332C18.8538 7.51892 19.6655 9.11958 19.9168 10.8503C20.1682 12.581 19.8456 14.3464 18.9982 15.8763C18.1509 17.4062 16.8255 18.6163 15.2251 19.3214C13.6246 20.0264 11.8372 20.1876 10.1364 19.7802C8.43563 19.3728 6.91521 18.4193 5.80786 17.0657C4.70052 15.712 4.06725 14.0328 4.005 12.285L4 12L4.005 11.715C4.05335 10.3599 4.44534 9.03934 5.14416 7.87732C5.84298 6.7153 6.82569 5.74998 8 5.07201Z" fill="currentcolor"/>
</svg>
