<svg width="24" height="24" viewBox="0 0 24 24" fill="none" xmlns="http://www.w3.org/2000/svg">
<path d="M19.933 13.041C19.7442 14.481 19.1669 15.8423 18.2632 16.9792C17.3594 18.116 16.1633 18.9854 14.803 19.494C13.4427 20.0027 11.9696 20.1315 10.5417 19.8666C9.11374 19.6017 7.78486 18.9531 6.69755 17.9903C5.61024 17.0276 4.80551 15.787 4.36967 14.4016C3.93383 13.0163 3.88332 11.5385 4.22355 10.1266C4.56379 8.71472 5.28194 7.4221 6.30097 6.38736C7.32001 5.35261 8.6015 4.61478 10.008 4.253C13.907 3.253 17.943 5.26 19.433 9" stroke="#424D57" stroke-width="2" stroke-linecap="round" stroke-linejoin="round"/>
<path d="M20 4V9H15" stroke="#424D57" stroke-width="2" stroke-linecap="round" stroke-linejoin="round"/>
</svg>
