<svg width="24" height="24" viewBox="0 0 24 24" fill="none" xmlns="http://www.w3.org/2000/svg">
<path fill-rule="evenodd" clip-rule="evenodd" d="M18 2C16.9391 2 15.9217 2.42143 15.1716 3.17157C14.4214 3.92172 14 4.93913 14 6C14 6.27174 14.0276 6.54062 14.0814 6.80289L9.03981 9.40007C8.97258 9.32147 8.90209 9.24523 8.82843 9.17157C8.07828 8.42143 7.06087 8 6 8C4.93913 8 3.92172 8.42143 3.17157 9.17157C2.42143 9.92172 2 10.9391 2 12C2 13.0609 2.42143 14.0783 3.17157 14.8284C3.92172 15.5786 4.93913 16 6 16C7.06087 16 8.07828 15.5786 8.82843 14.8284C8.90208 14.7548 8.97257 14.6785 9.03979 14.5999L14.0814 17.1971C14.0276 17.4594 14 17.7283 14 18C14 19.0609 14.4214 20.0783 15.1716 20.8284C15.9217 21.5786 16.9391 22 18 22C19.0609 22 20.0783 21.5786 20.8284 20.8284C21.5786 20.0783 22 19.0609 22 18C22 16.9391 21.5786 15.9217 20.8284 15.1716C20.0783 14.4214 19.0609 14 18 14C16.9391 14 15.9217 14.4214 15.1716 15.1716C15.0979 15.2452 15.0274 15.3215 14.9602 15.4001L9.91861 12.8029C9.97235 12.5406 10 12.2717 10 12C10 11.7283 9.97235 11.4594 9.91861 11.1971L14.9602 8.59995C15.0274 8.67855 15.0979 8.75478 15.1716 8.82843C15.9217 9.57857 16.9391 10 18 10C19.0609 10 20.0783 9.57857 20.8284 8.82843C21.5786 8.07828 22 7.06087 22 6C22 4.93913 21.5786 3.92172 20.8284 3.17157C20.0783 2.42143 19.0609 2 18 2Z" fill="currentcolor"/>
</svg>
