<svg width="24" height="25" viewBox="0 0 24 25" fill="none" xmlns="http://www.w3.org/2000/svg">
<g clip-path="url(#clip0_17205_8772)">
<g clip-path="url(#clip1_17205_8772)">
<path d="M19.3937 5.56366C19.3772 5.44366 19.2721 5.37725 19.1852 5.36993C19.0985 5.3627 17.2633 5.22667 17.2633 5.22667C17.2633 5.22667 15.9888 3.96133 15.8489 3.82127C15.7089 3.6813 15.4355 3.72387 15.3294 3.75511C15.3138 3.75971 15.051 3.84083 14.6162 3.97538C14.1904 2.75023 13.439 1.62436 12.1171 1.62436C12.0806 1.62436 12.043 1.62584 12.0055 1.62798C11.6295 1.1308 11.1638 0.914795 10.7616 0.914795C7.68226 0.914795 6.2111 4.76426 5.74984 6.72043C4.55329 7.0912 3.70326 7.35479 3.59468 7.3889C2.92679 7.59841 2.90566 7.61945 2.81796 8.24879C2.75196 8.72526 1.00439 22.24 1.00439 22.24L14.6218 24.7914L22.0002 23.1953C22.0002 23.1953 19.4101 5.68366 19.3938 5.56366H19.3937ZM13.8635 4.20815L12.7113 4.56478C12.7117 4.48357 12.7121 4.40368 12.7121 4.31631C12.7121 3.55489 12.6064 2.94182 12.4368 2.45581C13.118 2.54129 13.5716 3.31628 13.8635 4.20815ZM11.5919 2.6068C11.7813 3.0813 11.9044 3.76226 11.9044 4.68116C11.9044 4.72818 11.904 4.77116 11.9036 4.81464C11.1542 5.04675 10.3399 5.29875 9.52386 5.55158C9.98208 3.78313 10.841 2.92899 11.5919 2.6068V2.6068ZM10.677 1.74074C10.8099 1.74074 10.9438 1.78587 11.0719 1.87406C10.0851 2.33844 9.02725 3.50804 8.58054 5.84369L6.69949 6.42626C7.22272 4.64475 8.46514 1.74074 10.6769 1.74074H10.677Z" fill="#95BF46"/>
<path d="M19.1848 5.37019C19.098 5.36296 17.2629 5.22693 17.2629 5.22693C17.2629 5.22693 15.9883 3.96159 15.8484 3.82153C15.7961 3.76942 15.7255 3.74271 15.6517 3.7312L14.6221 24.7915L21.9997 23.1955C21.9997 23.1955 19.4096 5.68392 19.3933 5.56392C19.3768 5.44392 19.2716 5.37751 19.1848 5.37019" fill="#5E8E3E"/>
<path d="M12.1168 9.44663L11.207 12.1529C11.207 12.1529 10.4099 11.7274 9.43279 11.7274C8.00034 11.7274 7.92826 12.6264 7.92826 12.8529C7.92826 14.0889 11.1502 14.5625 11.1502 17.4576C11.1502 19.7354 9.7055 21.2021 7.75755 21.2021C5.42001 21.2021 4.22461 19.7473 4.22461 19.7473L4.8505 17.6793C4.8505 17.6793 6.07927 18.7343 7.11612 18.7343C7.79363 18.7343 8.06922 18.2009 8.06922 17.8111C8.06922 16.1988 5.42593 16.1269 5.42593 13.4776C5.42593 11.2479 7.02637 9.09009 10.257 9.09009C11.5018 9.09009 12.1168 9.44663 12.1168 9.44663" fill="white"/>
</g>
</g>
<defs>
<clipPath id="clip0_17205_8772">
<rect width="24" height="24" fill="white" transform="translate(0 0.85083)"/>
</clipPath>
<clipPath id="clip1_17205_8772">
<rect width="21.0432" height="24" fill="white" transform="translate(1 0.85083)"/>
</clipPath>
</defs>
</svg>
