<svg width="24" height="24" viewBox="0 0 24 24" fill="none" xmlns="http://www.w3.org/2000/svg">
<path fill-rule="evenodd" clip-rule="evenodd" d="M4 2C3.44772 2 3 2.44772 3 3C3 3.55228 3.44772 4 4 4H5V4.99318V5.00885V16.1716C4.5821 16.3193 4.19808 16.5593 3.87868 16.8787C3.31607 17.4413 3 18.2043 3 19C3 19.7957 3.31607 20.5587 3.87868 21.1213C4.44129 21.6839 5.20435 22 6 22C6.79565 22 7.55871 21.6839 8.12132 21.1213C8.68393 20.5587 9 19.7957 9 19C9 18.6561 8.94094 18.3182 8.82843 18H14.1716C14.0591 18.3182 14 18.6561 14 19C14 19.7957 14.3161 20.5587 14.8787 21.1213C15.4413 21.6839 16.2043 22 17 22C17.7957 22 18.5587 21.6839 19.1213 21.1213C19.6839 20.5587 20 19.7957 20 19C20 18.2043 19.6839 17.4413 19.1213 16.8787C18.5587 16.3161 17.7957 16 17 16H7V14H19C19.4977 14 19.9196 13.6341 19.99 13.1414L20.99 6.1414C21.0292 5.86672 20.9526 5.58809 20.7783 5.37213C20.6041 5.15616 20.348 5.02229 20.0713 5.00252L7 4.06886V3C7 2.44772 6.55228 2 6 2H4ZM17 18C16.7348 18 16.4804 18.1054 16.2929 18.2929C16.1054 18.4804 16 18.7348 16 19C16 19.2652 16.1054 19.5196 16.2929 19.7071C16.4804 19.8946 16.7348 20 17 20C17.2652 20 17.5196 19.8946 17.7071 19.7071C17.8946 19.5196 18 19.2652 18 19C18 18.7348 17.8946 18.4804 17.7071 18.2929C17.5196 18.1054 17.2652 18 17 18ZM6 18C5.73478 18 5.48043 18.1054 5.29289 18.2929C5.10536 18.4804 5 18.7348 5 19C5 19.2652 5.10536 19.5196 5.29289 19.7071C5.48043 19.8946 5.73478 20 6 20C6.26522 20 6.51957 19.8946 6.70711 19.7071C6.89464 19.5196 7 19.2652 7 19C7 18.7348 6.89464 18.4804 6.70711 18.2929C6.51957 18.1054 6.26522 18 6 18Z" fill="currentcolor"/>
</svg>
