<svg width="24" height="24" viewBox="0 0 24 24" fill="none" xmlns="http://www.w3.org/2000/svg">
<path d="M9.17157 14C9.31933 14.4179 9.55927 14.8019 9.87868 15.1213C10.4413 15.6839 11.2044 16 12 16C12.7956 16 13.5587 15.6839 14.1213 15.1213C14.4407 14.8019 14.6807 14.4179 14.8284 14H9.17157Z" fill="currentcolor"/>
<path fill-rule="evenodd" clip-rule="evenodd" d="M8.17317 2.7612C9.38642 2.25866 10.6868 2 12 2C13.3132 2 14.6136 2.25866 15.8268 2.7612C17.0401 3.26375 18.1425 4.00035 19.0711 4.92893C19.9997 5.85752 20.7362 6.95991 21.2388 8.17317C21.7413 9.38642 22 10.6868 22 12C22 13.3132 21.7413 14.6136 21.2388 15.8268C20.7362 17.0401 19.9997 18.1425 19.0711 19.0711C18.1425 19.9997 17.0401 20.7362 15.8268 21.2388C14.6136 21.7413 13.3132 22 12 22C10.6868 22 9.38642 21.7413 8.17317 21.2388C6.95991 20.7362 5.85752 19.9997 4.92893 19.0711C4.00035 18.1425 3.26375 17.0401 2.7612 15.8268C2.25866 14.6136 2 13.3132 2 12C2 10.6868 2.25866 9.38642 2.7612 8.17317C3.26375 6.95991 4.00035 5.85752 4.92893 4.92893C5.85752 4.00035 6.95991 3.26375 8.17317 2.7612ZM9 8C8.44772 8 8 8.44772 8 9C8 9.55228 8.44772 10 9 10H9.01C9.56228 10 10.01 9.55228 10.01 9C10.01 8.44772 9.56228 8 9.01 8H9ZM15 8C14.4477 8 14 8.44772 14 9C14 9.55228 14.4477 10 15 10H15.01C15.5623 10 16.01 9.55228 16.01 9C16.01 8.44772 15.5623 8 15.01 8H15ZM7.29289 12.2929C7.48043 12.1054 7.73478 12 8 12H16C16.2652 12 16.5196 12.1054 16.7071 12.2929C16.8946 12.4804 17 12.7348 17 13C17 14.3261 16.4732 15.5979 15.5355 16.5355C14.5979 17.4732 13.3261 18 12 18C10.6739 18 9.40215 17.4732 8.46447 16.5355C7.52678 15.5979 7 14.3261 7 13C7 12.7348 7.10536 12.4804 7.29289 12.2929Z" fill="currentcolor"/>
</svg>
