<svg width="24" height="24" viewBox="0 0 24 24" fill="none" xmlns="http://www.w3.org/2000/svg">
<path d="M15 8C15.7483 8.56124 16.3242 9.32114 16.6622 10.1933C17.0002 11.0655 17.0867 12.0151 16.912 12.934M15.535 15.536C15.3679 15.7031 15.1891 15.8582 15 16" stroke="#424D57" stroke-width="2" stroke-linecap="round" stroke-linejoin="round"/>
<path d="M17.7 5C19.305 6.29704 20.4155 8.10621 20.8455 10.1244C21.2755 12.1427 20.9989 14.2474 20.062 16.086M18.386 18.385C18.168 18.6016 17.939 18.8068 17.7 19" stroke="#424D57" stroke-width="2" stroke-linecap="round" stroke-linejoin="round"/>
<path d="M9.069 5.054L9.5 4.5C9.5874 4.33023 9.73265 4.19733 9.90949 4.1253C10.0863 4.05327 10.2831 4.04686 10.4643 4.10725C10.6454 4.16763 10.799 4.29081 10.8972 4.45454C10.9955 4.61827 11.0319 4.81175 11 5V7M11 11V19C11.0319 19.1883 10.9955 19.3817 10.8972 19.5455C10.799 19.7092 10.6454 19.8324 10.4643 19.8928C10.2831 19.9531 10.0863 19.9467 9.90949 19.8747C9.73265 19.8027 9.5874 19.6698 9.5 19.5L6 15H4C3.73478 15 3.48043 14.8946 3.29289 14.7071C3.10536 14.5196 3 14.2652 3 14V10C3 9.73479 3.10536 9.48043 3.29289 9.2929C3.48043 9.10536 3.73478 9 4 9H6L7.294 7.336" stroke="#424D57" stroke-width="2" stroke-linecap="round" stroke-linejoin="round"/>
<path d="M3 3L21 21" stroke="#424D57" stroke-width="2" stroke-linecap="round" stroke-linejoin="round"/>
</svg>
