<svg width="24" height="24" viewBox="0 0 24 24" fill="none" xmlns="http://www.w3.org/2000/svg">
<path d="M15 8C15.7483 8.56124 16.3242 9.32114 16.6622 10.1933C17.0002 11.0655 17.0867 12.0151 16.912 12.934M15.535 15.536C15.3679 15.7031 15.1891 15.8582 15 16" stroke="currentcolor" stroke-width="2" stroke-linecap="round" stroke-linejoin="round"/>
<path d="M17.7002 5C19.3051 6.29704 20.4156 8.10621 20.8456 10.1244C21.2757 12.1427 20.9991 14.2474 20.0622 16.086M18.3862 18.385C18.1682 18.6016 17.9392 18.8068 17.7002 19" stroke="currentcolor" stroke-width="2" stroke-linecap="round" stroke-linejoin="round"/>
<path d="M9.069 5.05397L9.5 4.49997C9.5874 4.3302 9.73265 4.1973 9.90949 4.12526C10.0863 4.05323 10.2831 4.04683 10.4643 4.10722C10.6454 4.1676 10.799 4.29078 10.8972 4.45451C10.9955 4.61824 11.0319 4.81171 11 4.99997V6.99997M11 11V19C11.0319 19.1882 10.9955 19.3817 10.8972 19.5454C10.799 19.7092 10.6454 19.8323 10.4643 19.8927C10.2831 19.9531 10.0863 19.9467 9.90949 19.8747C9.73265 19.8027 9.5874 19.6697 9.5 19.5L6 15H4C3.73478 15 3.48043 14.8946 3.29289 14.7071C3.10536 14.5195 3 14.2652 3 14V9.99997C3 9.73476 3.10536 9.4804 3.29289 9.29287C3.48043 9.10533 3.73478 8.99997 4 8.99997H6L7.294 7.33597" stroke="currentcolor" stroke-width="2" stroke-linecap="round" stroke-linejoin="round"/>
<path d="M3 3L21 21" stroke="currentcolor" stroke-width="2" stroke-linecap="round" stroke-linejoin="round"/>
</svg>
