<svg width="24" height="24" viewBox="0 0 24 24" fill="none" xmlns="http://www.w3.org/2000/svg">
<path fill-rule="evenodd" clip-rule="evenodd" d="M14.2001 7.40006C14.5314 6.95823 15.1582 6.86869 15.6001 7.20006C16.3452 7.75894 16.9501 8.48365 17.3666 9.31678C17.7832 10.1499 18.0001 11.0686 18.0001 12.0001C18.0001 12.9315 17.7832 13.8502 17.3666 14.6833C16.9501 15.5165 16.3452 16.2412 15.6001 16.8001C15.1582 17.1314 14.5314 17.0419 14.2001 16.6001C13.8687 16.1582 13.9582 15.5314 14.4001 15.2001C14.8968 14.8275 15.3001 14.3443 15.5778 13.7889C15.8555 13.2335 16.0001 12.621 16.0001 12.0001C16.0001 11.3791 15.8555 10.7666 15.5778 10.2112C15.3001 9.65578 14.8968 9.17265 14.4001 8.80006C13.9582 8.46869 13.8687 7.84189 14.2001 7.40006Z" fill="currentcolor"/>
<path fill-rule="evenodd" clip-rule="evenodd" d="M16.9225 4.37149C17.2696 3.94194 17.8992 3.87512 18.3288 4.22226C19.4887 5.15965 20.4243 6.34462 21.0671 7.69039C21.7098 9.03616 22.0434 10.5087 22.0434 12C22.0434 13.4914 21.7098 14.9639 21.0671 16.3097C20.4243 17.6554 19.4887 18.8404 18.3288 19.7778C17.8992 20.1249 17.2696 20.0581 16.9225 19.6286C16.5753 19.199 16.6421 18.5694 17.0717 18.2223C17.9997 17.4723 18.7481 16.5244 19.2623 15.4477C19.7765 14.3711 20.0434 13.1931 20.0434 12C20.0434 10.8069 19.7765 9.62894 19.2623 8.55232C18.7481 7.4757 17.9997 6.52772 17.0717 5.77781C16.6421 5.43068 16.5753 4.80105 16.9225 4.37149Z" fill="currentcolor"/>
<path fill-rule="evenodd" clip-rule="evenodd" d="M10.7805 3.15853C10.3729 3.02267 9.93016 3.03707 9.53226 3.19914C9.16889 3.34715 8.86481 3.6094 8.665 3.94473L5.51092 7.99997H4C3.46957 7.99997 2.96086 8.21069 2.58579 8.58576C2.21071 8.96083 2 9.46954 2 9.99997V14C2 14.5304 2.21071 15.0391 2.58579 15.4142C2.96086 15.7893 3.46957 16 4 16H5.51092L8.66499 20.0552C8.86481 20.3905 9.16889 20.6528 9.53226 20.8008C9.93016 20.9629 10.3729 20.9773 10.7805 20.8414C11.1881 20.7056 11.5336 20.4284 11.7547 20.06C11.9584 19.7205 12.044 19.3242 12 18.9327V5.06729C12.044 4.67571 11.9584 4.27942 11.7547 3.93995C11.5336 3.57156 11.1881 3.29439 10.7805 3.15853Z" fill="#1B1B20"/>
</svg>
