<svg width="24" height="24" viewBox="0 0 24 24" fill="none" xmlns="http://www.w3.org/2000/svg">
<path d="M3 12H21Z" fill="currentcolor"/>
<path d="M5 12V8C5 7.20435 5.31607 6.44129 5.87868 5.87868C6.44129 5.31607 7.20435 5 8 5H16C16.7956 5 17.5587 5.31607 18.1213 5.87868C18.6839 6.44129 19 7.20435 19 8V12" fill="currentcolor"/>
<path d="M14 18C14 18.7956 14.3161 19.5587 14.8787 20.1213C15.4413 20.6839 16.2044 21 17 21C17.7956 21 18.5587 20.6839 19.1213 20.1213C19.6839 19.5587 20 18.7956 20 18C20 17.2044 19.6839 16.4413 19.1213 15.8787C18.5587 15.3161 17.7956 15 17 15C16.2044 15 15.4413 15.3161 14.8787 15.8787C14.3161 16.4413 14 17.2044 14 18Z" fill="currentcolor"/>
<path d="M10 18H14Z" fill="currentcolor"/>
<path d="M4 18C4 18.394 4.0776 18.7841 4.22836 19.1481C4.37913 19.512 4.6001 19.8427 4.87868 20.1213C5.15726 20.3999 5.48797 20.6209 5.85195 20.7716C6.21593 20.9224 6.60603 21 7 21C7.39397 21 7.78407 20.9224 8.14805 20.7716C8.51203 20.6209 8.84274 20.3999 9.12132 20.1213C9.3999 19.8427 9.62087 19.512 9.77164 19.1481C9.9224 18.7841 10 18.394 10 18C10 17.606 9.9224 17.2159 9.77164 16.8519C9.62087 16.488 9.3999 16.1573 9.12132 15.8787C8.84274 15.6001 8.51203 15.3791 8.14805 15.2284C7.78407 15.0776 7.39397 15 7 15C6.60603 15 6.21593 15.0776 5.85195 15.2284C5.48797 15.3791 5.15726 15.6001 4.87868 15.8787C4.6001 16.1573 4.37913 16.488 4.22836 16.8519C4.0776 17.2159 4 17.606 4 18Z" fill="currentcolor"/>
<path d="M3 12H21M5 12V8C5 7.20435 5.31607 6.44129 5.87868 5.87868C6.44129 5.31607 7.20435 5 8 5H16C16.7956 5 17.5587 5.31607 18.1213 5.87868C18.6839 6.44129 19 7.20435 19 8V12M14 18C14 18.7956 14.3161 19.5587 14.8787 20.1213C15.4413 20.6839 16.2044 21 17 21C17.7956 21 18.5587 20.6839 19.1213 20.1213C19.6839 19.5587 20 18.7956 20 18C20 17.2044 19.6839 16.4413 19.1213 15.8787C18.5587 15.3161 17.7956 15 17 15C16.2044 15 15.4413 15.3161 14.8787 15.8787C14.3161 16.4413 14 17.2044 14 18ZM14 18H10M10 18C10 18.394 9.9224 18.7841 9.77164 19.1481C9.62087 19.512 9.3999 19.8427 9.12132 20.1213C8.84274 20.3999 8.51203 20.6209 8.14805 20.7716C7.78407 20.9224 7.39397 21 7 21C6.60603 21 6.21593 20.9224 5.85195 20.7716C5.48797 20.6209 5.15726 20.3999 4.87868 20.1213C4.6001 19.8427 4.37913 19.512 4.22836 19.1481C4.0776 18.7841 4 18.394 4 18C4 17.606 4.0776 17.2159 4.22836 16.8519C4.37913 16.488 4.6001 16.1573 4.87868 15.8787C5.15726 15.6001 5.48797 15.3791 5.85195 15.2284C6.21593 15.0776 6.60603 15 7 15C7.39397 15 7.78407 15.0776 8.14805 15.2284C8.51203 15.3791 8.84274 15.6001 9.12132 15.8787C9.3999 16.1573 9.62087 16.488 9.77164 16.8519C9.9224 17.2159 10 17.606 10 18Z" stroke="currentcolor" stroke-width="2" stroke-linecap="round" stroke-linejoin="round"/>
</svg>
