<svg width="24" height="24" viewBox="0 0 24 24" fill="none" xmlns="http://www.w3.org/2000/svg">
<path d="M9.99954 4.99921H3.99953C3.44993 4.99921 2.99993 5.44921 2.99993 6.00001C2.99993 6.54961 3.44993 6.99961 3.99953 6.99961H5.99993V9.99961C5.99993 10.5492 6.44994 10.9992 6.99954 10.9992C7.55033 10.9992 8.00033 10.5492 8.00033 9.99961V6.99961H9.99954C10.5503 6.99961 11.0003 6.54961 11.0003 6.00001C11.0003 5.44921 10.5503 4.99921 9.99954 4.99921ZM9.99954 1.99921H3.99953C3.44993 1.99921 2.99993 2.44921 2.99993 3.00001C2.99993 3.54961 3.44993 3.99961 3.99953 3.99961H9.99954C10.5503 3.99961 11.0003 3.54961 11.0003 3.00001C11.0003 2.44921 10.5503 1.99921 9.99954 1.99921ZM20.8907 13.11C20.5007 12.72 19.8707 12.72 19.4807 13.11L13.1207 19.47C12.7307 19.86 12.7307 20.49 13.1207 20.88C13.5107 21.27 14.1407 21.27 14.5307 20.88L20.8907 14.52C21.2807 14.13 21.2807 13.5 20.8907 13.11ZM14.4995 15.9996C15.3275 15.9996 15.9995 15.3276 15.9995 14.4996C15.9995 13.6716 15.3275 12.9996 14.4995 12.9996C13.6715 12.9996 12.9995 13.6716 12.9995 14.4996C12.9995 15.3276 13.6715 15.9996 14.4995 15.9996ZM19.4999 21C20.3279 21 20.9999 20.328 20.9999 19.5C20.9999 18.672 20.3279 18 19.4999 18C18.6719 18 17.9999 18.672 17.9999 19.5C17.9999 20.328 18.6719 21 19.4999 21ZM15.5003 10.9992C16.8803 10.9992 17.9999 9.87961 17.9999 8.49961V3.99961H20.0003C20.5499 3.99961 20.9999 3.54961 20.9999 3.00001C20.9999 2.44921 20.5499 1.99921 20.0003 1.99921H17.9999C17.4503 1.99921 17.0003 2.44921 17.0003 3.00001V6.51001C16.5803 6.18961 16.0703 6.00001 15.5003 6.00001C14.1203 6.00001 12.9995 7.11961 12.9995 8.49961C12.9995 9.87961 14.1203 10.9992 15.5003 10.9992ZM10.4507 18.09C10.8407 17.7 10.8407 17.07 10.4507 16.68C10.0607 16.29 9.43074 16.29 9.04073 16.68L8.33033 17.3892L7.61994 16.68L7.97034 16.3296C8.95074 15.3492 8.95074 13.77 7.97034 12.7896C7.48074 12.3 6.83993 12.06 6.20033 12.06C5.56073 12.06 4.91993 12.3 4.43033 12.7896C3.44993 13.77 3.44993 15.3492 4.43033 16.3296L4.78073 16.68L3.71993 17.7396C2.74073 18.72 2.74073 20.2992 3.71993 21.2796C4.22033 21.7596 4.85994 21.9996 5.50074 21.9996C6.14034 21.9996 6.77993 21.7596 7.27073 21.27L8.33033 20.2092L9.04073 20.9196C9.43074 21.3096 10.0607 21.3096 10.4507 20.9196C10.8407 20.5296 10.8407 19.8996 10.4507 19.5096L9.74033 18.8004L10.4507 18.09ZM5.84993 14.1996C5.96993 14.0796 6.11033 14.0496 6.20033 14.0496C6.29033 14.0496 6.43074 14.0796 6.55073 14.1996C6.74033 14.4 6.74033 14.7096 6.55073 14.91L6.20033 15.2592L5.84993 14.8992C5.72993 14.7792 5.69993 14.64 5.69993 14.55C5.69993 14.46 5.72993 14.3196 5.84993 14.1996ZM5.84993 19.8492C5.72993 19.9692 5.59073 19.9992 5.50074 19.9992C5.41073 19.9992 5.27033 19.9704 5.15033 19.8492C5.03033 19.7292 5.00033 19.59 5.00033 19.5C5.00033 19.41 5.03033 19.2696 5.15033 19.1496L6.20994 18.09L6.92034 18.7992L5.84993 19.8492Z" fill="#424D57"/>
</svg>
