<svg width="24" height="24" viewBox="0 0 24 24" fill="none" xmlns="http://www.w3.org/2000/svg">
<path d="M9.99935 4.99927H3.99935C3.44975 4.99927 2.99975 5.44927 2.99975 6.00007C2.99975 6.54967 3.44975 6.99967 3.99935 6.99967H5.99975V9.99967C5.99975 10.5493 6.44975 10.9993 6.99935 10.9993C7.55015 10.9993 8.00015 10.5493 8.00015 9.99967V6.99967H9.99935C10.5502 6.99967 11.0002 6.54967 11.0002 6.00007C11.0002 5.44927 10.5502 4.99927 9.99935 4.99927ZM9.99935 1.99927H3.99935C3.44975 1.99927 2.99975 2.44927 2.99975 3.00007C2.99975 3.54967 3.44975 3.99967 3.99935 3.99967H9.99935C10.5502 3.99967 11.0002 3.54967 11.0002 3.00007C11.0002 2.44927 10.5502 1.99927 9.99935 1.99927ZM20.8906 13.1101C20.5006 12.7201 19.8706 12.7201 19.4806 13.1101L13.1206 19.4701C12.7306 19.8601 12.7306 20.4901 13.1206 20.8801C13.5106 21.2701 14.1406 21.2701 14.5306 20.8801L20.8906 14.5201C21.2806 14.1301 21.2806 13.5001 20.8906 13.1101ZM14.4994 15.9997C15.3274 15.9997 15.9994 15.3277 15.9994 14.4997C15.9994 13.6717 15.3274 12.9997 14.4994 12.9997C13.6714 12.9997 12.9994 13.6717 12.9994 14.4997C12.9994 15.3277 13.6714 15.9997 14.4994 15.9997ZM19.4998 21.0001C20.3278 21.0001 20.9998 20.3281 20.9998 19.5001C20.9998 18.6721 20.3278 18.0001 19.4998 18.0001C18.6718 18.0001 17.9998 18.6721 17.9998 19.5001C17.9998 20.3281 18.6718 21.0001 19.4998 21.0001ZM15.5002 10.9993C16.8802 10.9993 17.9998 9.87967 17.9998 8.49967V3.99967H20.0002C20.5498 3.99967 20.9998 3.54967 20.9998 3.00007C20.9998 2.44927 20.5498 1.99927 20.0002 1.99927H17.9998C17.4502 1.99927 17.0002 2.44927 17.0002 3.00007V6.51007C16.5802 6.18967 16.0702 6.00007 15.5002 6.00007C14.1202 6.00007 12.9994 7.11967 12.9994 8.49967C12.9994 9.87967 14.1202 10.9993 15.5002 10.9993ZM10.4506 18.0901C10.8406 17.7001 10.8406 17.0701 10.4506 16.6801C10.0606 16.2901 9.43055 16.2901 9.04055 16.6801L8.33015 17.3893L7.61975 16.6801L7.97015 16.3297C8.95055 15.3493 8.95055 13.7701 7.97015 12.7897C7.48055 12.3001 6.83975 12.0601 6.20015 12.0601C5.56055 12.0601 4.91975 12.3001 4.43015 12.7897C3.44975 13.7701 3.44975 15.3493 4.43015 16.3297L4.78055 16.6801L3.71975 17.7397C2.74055 18.7201 2.74055 20.2993 3.71975 21.2797C4.22015 21.7597 4.85975 21.9997 5.50055 21.9997C6.14015 21.9997 6.77975 21.7597 7.27055 21.2701L8.33015 20.2093L9.04055 20.9197C9.43055 21.3097 10.0606 21.3097 10.4506 20.9197C10.8406 20.5297 10.8406 19.8997 10.4506 19.5097L9.74015 18.8005L10.4506 18.0901V18.0901ZM5.84975 14.1997C5.96975 14.0797 6.11015 14.0497 6.20015 14.0497C6.29015 14.0497 6.43055 14.0797 6.55055 14.1997C6.74015 14.4001 6.74015 14.7097 6.55055 14.9101L6.20015 15.2593L5.84975 14.8993C5.72975 14.7793 5.69975 14.6401 5.69975 14.5501C5.69975 14.4601 5.72975 14.3197 5.84975 14.1997ZM5.84975 19.8493C5.72975 19.9693 5.59055 19.9993 5.50055 19.9993C5.41055 19.9993 5.27015 19.9705 5.15015 19.8493C5.03015 19.7293 5.00015 19.5901 5.00015 19.5001C5.00015 19.4101 5.03015 19.2697 5.15015 19.1497L6.20975 18.0901L6.92015 18.7993L5.84975 19.8493V19.8493Z" fill="black"/>
</svg>
