<svg width="24" height="24" viewBox="0 0 24 24" fill="none" xmlns="http://www.w3.org/2000/svg">
<path fill-rule="evenodd" clip-rule="evenodd" d="M4.17157 4.17157C4.92172 3.42143 5.93913 3 7 3H10.859C11.6608 3.00031 12.4301 3.31893 12.9971 3.88584L21.1141 12.0018C21.395 12.2827 21.6179 12.6162 21.7699 12.9833C21.922 13.3503 22.0002 13.7437 22.0002 14.141C22.0002 14.5383 21.922 14.9317 21.7699 15.2987C21.6179 15.6657 21.395 15.9992 21.1141 16.2801L16.2802 21.1141C15.9993 21.395 15.6657 21.6179 15.2987 21.7699C14.9317 21.922 14.5383 22.0002 14.141 22.0002C13.7437 22.0002 13.3503 21.922 12.9833 21.7699C12.6163 21.6179 12.2828 21.395 12.0019 21.1141L3.88589 12.9981C3.31814 12.4304 3 11.6609 3 10.859V7C3 5.93913 3.42143 4.92172 4.17157 4.17157ZM6.5 8.5C6.5 7.39543 7.39543 6.5 8.5 6.5C9.60457 6.5 10.5 7.39543 10.5 8.5C10.5 9.60457 9.60457 10.5 8.5 10.5C7.39543 10.5 6.5 9.60457 6.5 8.5Z" fill="currentcolor"/>
</svg>
