<svg width="24" height="24" viewBox="0 0 24 24" fill="none" xmlns="http://www.w3.org/2000/svg">
<mask id="mask0_17027_54198" style="mask-type:alpha" maskUnits="userSpaceOnUse" x="1" y="2" width="21" height="21">
<path d="M14.75 10L11.75 13M14.75 10V7L17.75 4V7H20.75L17.75 10H14.75ZM11.75 8C10.7611 8 9.7944 8.29324 8.97215 8.84265C8.14991 9.39206 7.50904 10.173 7.1306 11.0866C6.75217 12.0002 6.65315 13.0055 6.84608 13.9755C7.039 14.9454 7.51521 15.8363 8.21447 16.5355C8.91373 17.2348 9.80465 17.711 10.7746 17.9039C11.7445 18.0969 12.7498 17.9978 13.6634 17.6194C14.577 17.241 15.3579 16.6001 15.9074 15.7779C16.4568 14.9556 16.75 13.9889 16.75 13M12.75 4.0549C10.8961 3.84691 9.0233 4.22018 7.39079 5.12307C5.75827 6.02596 4.44667 7.41385 3.63743 9.09476C2.82818 10.7757 2.56128 12.6665 2.87365 14.5057C3.18601 16.345 4.06221 18.0417 5.38103 19.3611C6.69985 20.6806 8.39611 21.5577 10.2352 21.871C12.0742 22.1843 13.9652 21.9183 15.6465 21.1099C17.3279 20.3015 18.7164 18.9906 19.6201 17.3586C20.5238 15.7265 20.898 13.8539 20.691 11.9999M10.75 13C10.75 13.2652 10.8554 13.5196 11.0429 13.7071C11.2304 13.8946 11.4848 14 11.75 14C12.0152 14 12.2696 13.8946 12.4571 13.7071C12.6446 13.5196 12.75 13.2652 12.75 13C12.75 12.7348 12.6446 12.4804 12.4571 12.2929C12.2696 12.1054 12.0152 12 11.75 12C11.4848 12 11.2304 12.1054 11.0429 12.2929C10.8554 12.4804 10.75 12.7348 10.75 13Z" stroke="currentcolor" stroke-width="2" stroke-linecap="round" stroke-linejoin="round"/>
</mask>
<g mask="url(#mask0_17027_54198)">
<path d="M0 0H24V24H0V0Z" fill="currentcolor"/>
</g>
</svg>
