<svg width="24" height="24" viewBox="0 0 24 24" fill="none" xmlns="http://www.w3.org/2000/svg">
<path fill-rule="evenodd" clip-rule="evenodd" d="M5 2C3.34315 2 2 3.34315 2 5V19C2 20.6569 3.34315 22 5 22H19C20.6569 22 22 20.6569 22 19V5C22 3.34315 20.6569 2 19 2H5ZM15.2686 18.1371H13.7541V5.73386H15.2686V18.1371ZM11.8595 16.1787H10.6322C9.3266 16.1787 8.71297 15.4475 8.71297 14.2464V10.8257H7.74683V9.38954H8.71297V7.53558H10.5016V9.38954H11.9509V10.8257H10.5016V14.1158C10.5016 14.5597 10.6714 14.7425 11.1414 14.7425H11.8595V16.1787Z" fill="currentcolor"/>
</svg>
