<svg width="24" height="24" viewBox="0 0 24 24" fill="none" xmlns="http://www.w3.org/2000/svg">
<path d="M13.6551 3.38919L9.95442 8.24789C9.62369 8.57239 9.43597 9.01967 9.43597 9.4845L9.43597 18.246C9.43597 19.2107 10.2405 20 11.2237 20L16.2295 20C16.9446 20 17.5882 19.579 17.8653 18.9388L20.7794 12.2647C21.5392 10.5282 20.243 8.5987 18.3212 8.5987L15.0585 8.5987L15.9077 4.58194C15.9971 4.14343 15.863 3.69614 15.5412 3.38042C15.0138 2.87174 14.1736 2.87174 13.6551 3.38919ZM4.78777 20C5.77104 20 6.57554 19.2107 6.57554 18.246L6.57554 11.2298C6.57554 10.265 5.77104 9.47572 4.78777 9.47572C3.8045 9.47572 3 10.265 3 11.2298L3 18.246C3 19.2107 3.80449 20 4.78777 20Z" stroke="black" stroke-width="2" stroke-linecap="round" stroke-linejoin="round"/>
</svg>
