<svg width="24" height="24" viewBox="0 0 24 24" fill="none" xmlns="http://www.w3.org/2000/svg">
<path d="M13.6551 20.6108L9.95442 15.7521C9.62369 15.4276 9.43597 14.9803 9.43597 14.5155L9.43597 5.75405C9.43597 4.78932 10.2405 4 11.2237 4L16.2295 4C16.9446 4 17.5882 4.42097 17.8653 5.0612L20.7794 11.7353C21.5392 13.4718 20.243 15.4013 18.3212 15.4013L15.0585 15.4013L15.9077 19.4181C15.9971 19.8566 15.863 20.3039 15.5412 20.6196C15.0138 21.1283 14.1736 21.1283 13.6551 20.6108ZM4.78777 4C5.77104 4 6.57554 4.78932 6.57554 5.75405L6.57554 12.7702C6.57554 13.735 5.77104 14.5243 4.78777 14.5243C3.8045 14.5243 3 13.735 3 12.7702L3 5.75405C3 4.78932 3.80449 4 4.78777 4Z" stroke="currentcolor" stroke-width="2" stroke-linecap="round" stroke-linejoin="round"/>
</svg>
