<svg width="24" height="24" viewBox="0 0 24 24" fill="none" xmlns="http://www.w3.org/2000/svg">
<g clip-path="url(#clip0_12772_47395)">
<path fill-rule="evenodd" clip-rule="evenodd" d="M16.2295 3C17.3354 3 18.3436 3.65043 18.7824 4.6624L21.6957 11.3348C22.7557 13.7582 20.9352 16.4013 18.3212 16.4013H16.292L16.8861 19.2112L16.8876 19.2183C17.044 19.9858 16.8077 20.778 16.2416 21.3334L16.2354 21.3393C15.323 22.2193 13.8598 22.228 12.9487 21.3186C12.9167 21.2867 12.887 21.2527 12.8596 21.2167L9.19759 16.4088C8.71007 15.9014 8.43598 15.2215 8.43598 14.5155L8.43597 5.75405C8.43597 4.21917 9.70622 3 11.2237 3H16.2295ZM4.78777 3C6.30529 3 7.57554 4.21917 7.57554 5.75405L7.57554 12.7702C7.57554 14.3051 6.30529 15.5243 4.78777 15.5243C3.27025 15.5243 2 14.3051 2 12.7702V5.75405C2 4.21917 3.27025 3 4.78777 3Z" fill="currentcolor"/>
</g>
<defs>
<clipPath id="clip0_12772_47395">
<rect width="24" height="24" fill="white"/>
</clipPath>
</defs>
</svg>
