<svg width="24" height="24" viewBox="0 0 24 24" fill="none" xmlns="http://www.w3.org/2000/svg">
<path d="M7 13V4.99999C7 4.73478 6.89464 4.48042 6.70711 4.29289C6.51957 4.10535 6.26522 3.99999 6 3.99999H4C3.73478 3.99999 3.48043 4.10535 3.29289 4.29289C3.10536 4.48042 3 4.73478 3 4.99999V12C3 12.2652 3.10536 12.5196 3.29289 12.7071C3.48043 12.8946 3.73478 13 4 13H7ZM7 13C8.06087 13 9.07828 13.4214 9.82843 14.1716C10.5786 14.9217 11 15.9391 11 17V18C11 18.5304 11.2107 19.0391 11.5858 19.4142C11.9609 19.7893 12.4696 20 13 20C13.5304 20 14.0391 19.7893 14.4142 19.4142C14.7893 19.0391 15 18.5304 15 18V13H18C18.5304 13 19.0391 12.7893 19.4142 12.4142C19.7893 12.0391 20 11.5304 20 11L19 5.99999C18.8562 5.38652 18.5834 4.85975 18.2227 4.49903C17.8619 4.13831 17.4328 3.96317 17 3.99999H10C9.20435 3.99999 8.44129 4.31606 7.87868 4.87867C7.31607 5.44128 7 6.20434 7 6.99999" stroke="#424D57" stroke-width="2" stroke-linecap="round" stroke-linejoin="round"/>
</svg>
