<svg width="24" height="24" viewBox="0 0 24 24" fill="none" xmlns="http://www.w3.org/2000/svg">
<path fill-rule="evenodd" clip-rule="evenodd" d="M14 4H5C4.20435 4 3.44129 4.31607 2.87868 4.87868C2.31607 5.44129 2 6.20435 2 7V10C2 10.5523 2.44772 11 3 11C3.26522 11 3.51957 11.1054 3.70711 11.2929C3.89464 11.4804 4 11.7348 4 12C4 12.2652 3.89464 12.5196 3.70711 12.7071C3.51957 12.8946 3.26522 13 3 13C2.44772 13 2 13.4477 2 14V17C2 17.7956 2.31607 18.5587 2.87868 19.1213C3.44129 19.6839 4.20435 20 5 20H14V17C14 16.4477 14.4477 16 15 16C15.5523 16 16 16.4477 16 17V20H19C19.7957 20 20.5587 19.6839 21.1213 19.1213C21.6839 18.5587 22 17.7957 22 17V14C22 13.4477 21.5523 13 21 13C20.7348 13 20.4804 12.8946 20.2929 12.7071C20.1054 12.5196 20 12.2652 20 12C20 11.7348 20.1054 11.4804 20.2929 11.2929C20.4804 11.1054 20.7348 11 21 11C21.5523 11 22 10.5523 22 10V7C22 6.20435 21.6839 5.44129 21.1213 4.87868C20.5587 4.31607 19.7957 4 19 4H16V7C16 7.55228 15.5523 8 15 8C14.4477 8 14 7.55228 14 7V4ZM16 11C16 10.4477 15.5523 10 15 10C14.4477 10 14 10.4477 14 11V13C14 13.5523 14.4477 14 15 14C15.5523 14 16 13.5523 16 13V11Z" fill="currentcolor"/>
</svg>
