<svg width="24" height="24" viewBox="0 0 24 24" fill="none" xmlns="http://www.w3.org/2000/svg">
<path d="M6 16C5.16047 15.3704 4.54033 14.4925 4.22743 13.4908C3.91453 12.4892 3.92473 11.4144 4.25658 10.4189C4.58844 9.4233 5.22512 8.55739 6.07645 7.94379C6.92778 7.33019 7.95059 7 9 7C10.0494 7 11.0722 7.33019 11.9236 7.94379C12.7749 8.55739 13.4116 9.4233 13.7434 10.4189C14.0753 11.4144 14.0855 12.4892 13.7726 13.4908C13.4597 14.4925 12.8395 15.3704 12 16C11.6096 16.3865 11.3156 16.8594 11.1419 17.3806C10.9681 17.9018 10.9195 18.4566 11 19C11 19.5304 10.7893 20.0391 10.4142 20.4142C10.0391 20.7893 9.53043 21 9 21C8.46957 21 7.96086 20.7893 7.58579 20.4142C7.21071 20.0391 7 19.5304 7 19C7.08046 18.4566 7.03185 17.9018 6.85813 17.3806C6.6844 16.8594 6.39043 16.3865 6 16Z" stroke="#424D57" stroke-width="2" stroke-linecap="round" stroke-linejoin="round"/>
<path d="M6.70001 17H11.3" stroke="#424D57" stroke-width="2" stroke-linecap="round" stroke-linejoin="round"/>
<path d="M17 4C17 4.53043 17.2107 5.03914 17.5858 5.41421C17.9609 5.78929 18.4696 6 19 6C18.4696 6 17.9609 6.21071 17.5858 6.58579C17.2107 6.96086 17 7.46957 17 8C17 7.46957 16.7893 6.96086 16.4142 6.58579C16.0391 6.21071 15.5304 6 15 6C15.5304 6 16.0391 5.78929 16.4142 5.41421C16.7893 5.03914 17 4.53043 17 4Z" stroke="#424D57" stroke-width="2" stroke-linecap="round" stroke-linejoin="round"/>
<path d="M19 11H21M20 10V12" stroke="#424D57" stroke-width="2" stroke-linecap="round" stroke-linejoin="round"/>
</svg>
