<svg width="24" height="24" viewBox="0 0 24 24" fill="none" xmlns="http://www.w3.org/2000/svg">
<path fill-rule="evenodd" clip-rule="evenodd" d="M5.70001 17C5.70001 16.4477 6.14773 16 6.70001 16H11.3C11.8523 16 12.3 16.4477 12.3 17C12.3 17.5523 11.8523 18 11.3 18H6.70001C6.14773 18 5.70001 17.5523 5.70001 17Z" fill="black"/>
<path d="M6.70001 17H11.3Z" fill="#D9D9D9"/>
<path d="M17 3C17.5523 3 18 3.44772 18 4C18 4.26522 18.1054 4.51957 18.2929 4.70711C18.4804 4.89464 18.7348 5 19 5C19.5523 5 20 5.44772 20 6C20 6.55228 19.5523 7 19 7C18.7348 7 18.4804 7.10536 18.2929 7.29289C18.1054 7.48043 18 7.73478 18 8C18 8.55228 17.5523 9 17 9C16.4477 9 16 8.55228 16 8C16 7.73478 15.8946 7.48043 15.7071 7.29289C15.5196 7.10536 15.2652 7 15 7C14.4477 7 14 6.55228 14 6C14 5.44772 14.4477 5 15 5C15.2652 5 15.5196 4.89464 15.7071 4.70711C15.8946 4.51957 16 4.26522 16 4C16 3.44772 16.4477 3 17 3Z" fill="black"/>
<path fill-rule="evenodd" clip-rule="evenodd" d="M9 6C7.74071 6 6.51333 6.39622 5.49174 7.13255C4.47014 7.86887 3.70612 8.90796 3.3079 10.1026C2.90968 11.2973 2.89744 12.587 3.27292 13.789C3.6407 14.9664 4.36222 16.0012 5.33839 16.7532C5.50734 16.9286 5.64935 17.1273 5.76033 17.3428C5.78092 17.3992 5.80643 17.4533 5.83637 17.5044C5.8633 17.5674 5.88769 17.6316 5.90945 17.6969C6.03354 18.0691 6.06825 18.4654 6.01078 18.8535C6.0036 18.902 6 18.951 6 19C6 19.7957 6.31607 20.5587 6.87868 21.1213C7.44129 21.6839 8.20435 22 9 22C9.79565 22 10.5587 21.6839 11.1213 21.1213C11.6839 20.5587 12 19.7957 12 19C12 18.951 11.9964 18.902 11.9892 18.8535C11.9317 18.4654 11.9665 18.0691 12.0906 17.6969C12.1123 17.6317 12.1367 17.5675 12.1636 17.5046C12.1936 17.4533 12.2191 17.3992 12.2398 17.3427C12.3507 17.1272 12.4927 16.9285 12.6616 16.7532C13.6378 16.0012 14.3593 14.9664 14.7271 13.789C15.1026 12.587 15.0903 11.2973 14.6921 10.1026C14.2939 8.90796 13.5299 7.86887 12.5083 7.13255C11.4867 6.39622 10.2593 6 9 6ZM9.98874 18C9.95056 18.3504 9.95357 18.705 9.9984 19.0566C9.98455 19.3012 9.88127 19.5329 9.70711 19.7071C9.51957 19.8946 9.26522 20 9 20C8.73478 20 8.48043 19.8946 8.29289 19.7071C8.11873 19.5329 8.01545 19.3012 8.0016 19.0566C8.04643 18.705 8.04944 18.3504 8.01126 18H9.98874Z" fill="black"/>
<path d="M21 10C21 9.44772 20.5523 9 20 9C19.4477 9 19 9.44772 19 10C18.4477 10 18 10.4477 18 11C18 11.5523 18.4477 12 19 12C19 12.5523 19.4477 13 20 13C20.5523 13 21 12.5523 21 12C21.5523 12 22 11.5523 22 11C22 10.4477 21.5523 10 21 10Z" fill="black"/>
</svg>
