<svg width="24" height="24" viewBox="0 0 24 24" fill="none" xmlns="http://www.w3.org/2000/svg">
<path d="M6.99985 10.0001H9.99985V7.0001L6.49985 3.5001C7.61948 2.96537 8.87735 2.7909 10.1003 3.00072C11.3232 3.21054 12.4509 3.79432 13.3283 4.67167C14.2056 5.54903 14.7894 6.6768 14.9992 7.8997C15.209 9.1226 15.0346 10.3805 14.4999 11.5001L20.4999 17.5001C20.8977 17.8979 21.1212 18.4375 21.1212 19.0001C21.1212 19.5627 20.8977 20.1023 20.4999 20.5001C20.102 20.8979 19.5625 21.1214 18.9999 21.1214C18.4372 21.1214 17.8977 20.8979 17.4999 20.5001L11.4999 14.5001C10.3802 15.0348 9.12235 15.2093 7.89946 14.9995C6.67656 14.7897 5.54878 14.2059 4.67143 13.3285C3.79407 12.4512 3.21029 11.3234 3.00048 10.1005C2.79066 8.8776 2.96513 7.61973 3.49985 6.5001L6.99985 10.0001Z" stroke="currentcolor" stroke-width="2" stroke-linecap="round" stroke-linejoin="round"/>
</svg>
