<svg width="24" height="24" viewBox="0 0 24 24" fill="none" xmlns="http://www.w3.org/2000/svg">
<path d="M11 12C11 12.2652 11.1054 12.5196 11.2929 12.7071C11.4804 12.8946 11.7348 13 12 13C12.2652 13 12.5196 12.8946 12.7071 12.7071C12.8946 12.5196 13 12.2652 13 12C13 11.7348 12.8946 11.4804 12.7071 11.2929C12.5196 11.1054 12.2652 11 12 11C11.7348 11 11.4804 11.1054 11.2929 11.2929C11.1054 11.4804 11 11.7348 11 12Z" stroke="#424D57" stroke-width="2" stroke-linecap="round" stroke-linejoin="round"/>
<path d="M15.51 15.56C16.3347 14.7467 16.8515 13.6722 16.972 12.5202C17.0925 11.3682 16.8093 10.2101 16.1707 9.24365C15.5322 8.27725 14.5779 7.56252 13.471 7.22154C12.364 6.88057 11.1729 6.93452 10.1013 7.37416C9.02969 7.8138 8.14395 8.61187 7.59538 9.63204C7.04682 10.6522 6.86946 11.8312 7.09362 12.9676C7.31777 14.104 7.92953 15.1273 8.82439 15.8628C9.71925 16.5983 10.8417 17.0002 12 17" stroke="#424D57" stroke-width="2" stroke-linecap="round" stroke-linejoin="round"/>
<path d="M18.832 17.86C20.1685 16.3021 20.9323 14.3341 20.9967 12.2824C21.0611 10.2308 20.4223 8.21873 19.1861 6.58002C17.95 4.94132 16.1908 3.77441 14.2003 3.27283C12.2099 2.77125 10.1078 2.96515 8.24269 3.82236C6.37758 4.67956 4.86153 6.14858 3.94598 7.98575C3.03044 9.82293 2.77041 11.9179 3.20902 13.9231C3.64764 15.9284 4.75854 17.7235 6.35748 19.0106C7.95643 20.2978 9.94733 20.9997 12 21" stroke="#424D57" stroke-width="2" stroke-linecap="round" stroke-linejoin="round"/>
<path d="M12 12V21" stroke="#424D57" stroke-width="2" stroke-linecap="round" stroke-linejoin="round"/>
</svg>
