<svg width="24" height="24" viewBox="0 0 24 24" fill="none" xmlns="http://www.w3.org/2000/svg">
<path d="M11 12C11 12.2652 11.1054 12.5196 11.2929 12.7071C11.4804 12.8946 11.7348 13 12 13C12.2652 13 12.5196 12.8946 12.7071 12.7071C12.8946 12.5196 13 12.2652 13 12C13 11.7348 12.8946 11.4804 12.7071 11.2929C12.5196 11.1054 12.2652 11 12 11C11.7348 11 11.4804 11.1054 11.2929 11.2929C11.1054 11.4804 11 11.7348 11 12Z" stroke="currentcolor" stroke-width="2" stroke-linecap="round" stroke-linejoin="round"/>
<path d="M15.5099 15.56C16.3346 14.7467 16.8514 13.6722 16.9719 12.5202C17.0924 11.3682 16.8092 10.2101 16.1707 9.24365C15.5321 8.27725 14.5779 7.56252 13.4709 7.22154C12.3639 6.88057 11.1729 6.93452 10.1013 7.37416C9.02962 7.8138 8.14388 8.61187 7.59531 9.63204C7.04675 10.6522 6.86939 11.8312 7.09355 12.9676C7.3177 14.104 7.92946 15.1273 8.82432 15.8628C9.71918 16.5983 10.8416 17.0002 11.9999 17" stroke="currentcolor" stroke-width="2" stroke-linecap="round" stroke-linejoin="round"/>
<path d="M18.8318 17.86C20.1683 16.3021 20.9321 14.3341 20.9966 12.2824C21.061 10.2308 20.4221 8.21873 19.186 6.58002C17.9498 4.94132 16.1906 3.77441 14.2002 3.27283C12.2097 2.77125 10.1076 2.96515 8.24252 3.82236C6.37741 4.67956 4.86136 6.14858 3.94582 7.98575C3.03027 9.82293 2.77024 11.9179 3.20885 13.9231C3.64747 15.9284 4.75837 17.7235 6.35731 19.0106C7.95626 20.2978 9.94716 20.9997 11.9998 21" stroke="currentcolor" stroke-width="2" stroke-linecap="round" stroke-linejoin="round"/>
<path d="M12 12V21" stroke="currentcolor" stroke-width="2" stroke-linecap="round" stroke-linejoin="round"/>
</svg>
