<svg width="24" height="24" viewBox="0 0 24 24" fill="none" xmlns="http://www.w3.org/2000/svg">
<mask id="mask0_14454_42043" style="mask-type:alpha" maskUnits="userSpaceOnUse" x="1" y="3" width="22" height="19">
<path d="M22 4.1106C21 4.6006 20.02 4.7996 19 5.1006C17.879 3.8356 16.217 3.7656 14.62 4.3636C13.023 4.9616 11.977 6.4236 12 8.1006V9.1006C8.755 9.1836 5.865 7.7056 4 5.1006C4 5.1006 -0.182 12.5336 8 16.1006C6.128 17.3476 4.261 18.1886 2 18.1006C5.308 19.9036 8.913 20.5236 12.034 19.6176C15.614 18.5776 18.556 15.8946 19.685 11.8756C20.0218 10.6533 20.189 9.39046 20.182 8.1226C20.182 7.8736 21.692 5.3506 22 4.1096V4.1106Z" stroke="currentcolor" stroke-width="2" stroke-linecap="round" stroke-linejoin="round"/>
</mask>
<g mask="url(#mask0_14454_42043)">
<rect width="24" height="24" fill="currentcolor"/>
</g>
</svg>
