<svg width="24" height="24" viewBox="0 0 24 24" fill="none" xmlns="http://www.w3.org/2000/svg">
<mask id="mask0_14454_42050" style="mask-type:alpha" maskUnits="userSpaceOnUse" x="0" y="3" width="24" height="19">
<path d="M14.0581 3.51243C12.2511 4.27943 11.0631 5.96543 11.0021 7.89243L11.0001 8.07443L10.7571 8.05143C8.36508 7.78243 6.25908 6.53943 4.81308 4.52043C4.71517 4.38359 4.58431 4.27368 4.43262 4.20086C4.28094 4.12804 4.11333 4.09467 3.94532 4.10385C3.77732 4.11302 3.61434 4.16444 3.47148 4.25334C3.32863 4.34224 3.21051 4.46575 3.12808 4.61243L3.03108 4.79843L2.98208 4.89743C2.26308 6.38243 1.79208 8.18743 1.96508 10.1004L1.99508 10.3734C2.27808 12.6364 3.49508 14.5884 5.77408 16.0524L5.94708 16.1594L5.86608 16.2024C4.55108 16.8654 3.34808 17.1544 2.03908 17.1024C0.98308 17.0624 0.59308 18.4744 1.52108 18.9804C5.11908 20.9414 8.98208 21.5464 12.3131 20.5804C16.3731 19.4004 19.4651 16.3574 20.6481 12.1474L20.7751 11.6524C21.0131 10.6594 21.1471 9.64643 21.1761 8.62843L21.1791 8.29643L21.5721 7.51743L22.0121 6.65543L22.2261 6.22143L22.3441 5.97443C22.6091 5.40943 22.8001 4.94143 22.9181 4.54443L22.9321 4.48843L22.9401 4.47043C23.1601 3.87743 22.7741 3.11243 21.9991 3.11243L21.8771 3.11943C21.7981 3.12914 21.7205 3.14827 21.6461 3.17643L21.5601 3.21443C21.2747 3.35302 20.9808 3.47326 20.6801 3.57443L20.3241 3.68943L20.0531 3.76943L19.2811 3.98343C17.9451 2.86543 16.1371 2.72943 14.2691 3.42943L14.0581 3.51243Z" fill="currentcolor"/>
</mask>
<g mask="url(#mask0_14454_42050)">
<rect width="24" height="24" fill="currentcolor"/>
</g>
</svg>
