<svg width="24" height="24" viewBox="0 0 24 24" fill="none" xmlns="http://www.w3.org/2000/svg">
<mask id="mask0_13369_43639" style="mask-type:alpha" maskUnits="userSpaceOnUse" x="2" y="2" width="20" height="20">
<path fill-rule="evenodd" clip-rule="evenodd" d="M4.87868 2.87868C5.44129 2.31607 6.20435 2 7 2C7.79565 2 8.55871 2.31607 9.12132 2.87868C9.68393 3.44129 10 4.20435 10 5C10 5.79565 9.68393 6.55871 9.12132 7.12132C8.55871 7.68393 7.79565 8 7 8C6.20435 8 5.44129 7.68393 4.87868 7.12132C4.31607 6.55871 4 5.79565 4 5C4 4.20435 4.31607 3.44129 4.87868 2.87868ZM14.8787 2.87868C15.4413 2.31607 16.2044 2 17 2C17.7956 2 18.5587 2.31607 19.1213 2.87868C19.6839 3.44129 20 4.20435 20 5C20 5.79565 19.6839 6.55871 19.1213 7.12132C18.5587 7.68393 17.7956 8 17 8C16.2044 8 15.4413 7.68393 14.8787 7.12132C14.3161 6.55871 14 5.79565 14 5C14 4.20435 14.3161 3.44129 14.8787 2.87868ZM8 9.74937C8 9.91173 7.94573 10.0687 7.8548 10.2032C7.31514 11.0014 7 11.9639 7 13C7 13.5202 6.61357 14 6.09335 14H3C2.44771 14 2 13.5523 2 13V12C2 10.3431 3.34315 9 5 9H7.25063C7.66449 9 8 9.33551 8 9.74937ZM16 9.74937C16 9.91173 16.0543 10.0687 16.1452 10.2032C16.6849 11.0014 17 11.9639 17 13C17 13.5202 17.3864 14 17.9067 14H21C21.5523 14 22 13.5523 22 13V12C22 10.3431 20.6569 9 19 9H16.7494C16.3355 9 16 9.33551 16 9.74937ZM8 22C7.44772 22 7 21.5523 7 21V20C7 19.2043 7.31607 18.4413 7.87868 17.8787C8.44129 17.3161 9.20435 17 10 17H14C14.7957 17 15.5587 17.3161 16.1213 17.8787C16.6839 18.4413 17 19.2043 17 20V21C17 21.5523 16.5523 22 16 22H8ZM9.87868 10.8787C10.4413 10.3161 11.2043 10 12 10C12.7957 10 13.5587 10.3161 14.1213 10.8787C14.6839 11.4413 15 12.2043 15 13C15 13.7957 14.6839 14.5587 14.1213 15.1213C13.5587 15.6839 12.7957 16 12 16C11.2043 16 10.4413 15.6839 9.87868 15.1213C9.31607 14.5587 9 13.7957 9 13C9 12.2043 9.31607 11.4413 9.87868 10.8787Z" fill="currentcolor"/>
</mask>
<g mask="url(#mask0_13369_43639)">
<rect width="24" height="24" fill="currentcolor"/>
</g>
</svg>
