<svg width="24" height="24" viewBox="0 0 24 24" fill="none" xmlns="http://www.w3.org/2000/svg">
<mask id="mask0_13369_43658" style="mask-type:alpha" maskUnits="userSpaceOnUse" x="2" y="2" width="20" height="20">
<path fill-rule="evenodd" clip-rule="evenodd" d="M4.87868 2.87868C5.44129 2.31607 6.20435 2 7 2C7.79565 2 8.55871 2.31607 9.12132 2.87868C9.68393 3.44129 10 4.20435 10 5C10 5.79565 9.68393 6.55871 9.12132 7.12132C8.55871 7.68393 7.79565 8 7 8C6.20435 8 5.44129 7.68393 4.87868 7.12132C4.31607 6.55871 4 5.79565 4 5C4 4.20435 4.31607 3.44129 4.87868 2.87868ZM7 4C6.73478 4 6.48043 4.10536 6.29289 4.29289C6.10536 4.48043 6 4.73478 6 5C6 5.26522 6.10536 5.51957 6.29289 5.70711C6.48043 5.89464 6.73478 6 7 6C7.26522 6 7.51957 5.89464 7.70711 5.70711C7.89464 5.51957 8 5.26522 8 5C8 4.73478 7.89464 4.48043 7.70711 4.29289C7.51957 4.10536 7.26522 4 7 4ZM14.8787 2.87868C15.4413 2.31607 16.2044 2 17 2C17.7956 2 18.5587 2.31607 19.1213 2.87868C19.6839 3.44129 20 4.20435 20 5C20 5.79565 19.6839 6.55871 19.1213 7.12132C18.5587 7.68393 17.7956 8 17 8C16.2044 8 15.4413 7.68393 14.8787 7.12132C14.3161 6.55871 14 5.79565 14 5C14 4.20435 14.3161 3.44129 14.8787 2.87868ZM17 4C16.7348 4 16.4804 4.10536 16.2929 4.29289C16.1054 4.48043 16 4.73478 16 5C16 5.26522 16.1054 5.51957 16.2929 5.70711C16.4804 5.89464 16.7348 6 17 6C17.2652 6 17.5196 5.89464 17.7071 5.70711C17.8946 5.51957 18 5.26522 18 5C18 4.73478 17.8946 4.48043 17.7071 4.29289C17.5196 4.10536 17.2652 4 17 4ZM12 10C11.2043 10 10.4413 10.3161 9.87868 10.8787C9.31607 11.4413 9 12.2043 9 13C9 13.7957 9.31607 14.5587 9.87868 15.1213C10.4413 15.6839 11.2043 16 12 16C12.7957 16 13.5587 15.6839 14.1213 15.1213C14.6839 14.5587 15 13.7957 15 13C15 12.2043 14.6839 11.4413 14.1213 10.8787C13.5587 10.3161 12.7957 10 12 10ZM11.2929 12.2929C11.4804 12.1054 11.7348 12 12 12C12.2652 12 12.5196 12.1054 12.7071 12.2929C12.8946 12.4804 13 12.7348 13 13C13 13.2652 12.8946 13.5196 12.7071 13.7071C12.5196 13.8946 12.2652 14 12 14C11.7348 14 11.4804 13.8946 11.2929 13.7071C11.1054 13.5196 11 13.2652 11 13C11 12.7348 11.1054 12.4804 11.2929 12.2929ZM9.29289 19.2929C9.48043 19.1054 9.73478 19 10 19H14C14.2652 19 14.5196 19.1054 14.7071 19.2929C14.8946 19.4804 15 19.7348 15 20V21C15 21.5523 15.4477 22 16 22C16.5523 22 17 21.5523 17 21V20C17 19.2043 16.6839 18.4413 16.1213 17.8787C15.5587 17.3161 14.7957 17 14 17H10C9.20435 17 8.44129 17.3161 7.87868 17.8787C7.31607 18.4413 7 19.2043 7 20V21C7 21.5523 7.44772 22 8 22C8.55228 22 9 21.5523 9 21V20C9 19.7348 9.10536 19.4804 9.29289 19.2929ZM17 9C16.4477 9 16 9.44772 16 10C16 10.5523 16.4477 11 17 11H19C19.2652 11 19.5196 11.1054 19.7071 11.2929C19.8946 11.4804 20 11.7348 20 12V13C20 13.5523 20.4477 14 21 14C21.5523 14 22 13.5523 22 13V12C22 11.2043 21.6839 10.4413 21.1213 9.87868C20.5587 9.31607 19.7957 9 19 9H17ZM4.29289 11.2929C4.48043 11.1054 4.73478 11 5 11H7C7.55228 11 8 10.5523 8 10C8 9.44772 7.55228 9 7 9H5C4.20435 9 3.44129 9.31607 2.87868 9.87868C2.31607 10.4413 2 11.2044 2 12V13C2 13.5523 2.44772 14 3 14C3.55228 14 4 13.5523 4 13V12C4 11.7348 4.10536 11.4804 4.29289 11.2929Z" fill="currentcolor"/>
</mask>
<g mask="url(#mask0_13369_43658)">
<rect width="24" height="24" fill="currentcolor"/>
</g>
</svg>
