<svg width="24" height="24" viewBox="0 0 24 24" fill="none" xmlns="http://www.w3.org/2000/svg">
<path fill-rule="evenodd" clip-rule="evenodd" d="M11.3372 2.25105C11.7156 1.91632 12.2841 1.91632 12.6625 2.25105C14.8036 4.14541 17.5982 5.13173 20.4541 5.00105C20.9143 4.97999 21.3293 5.27601 21.4592 5.71797C21.9506 7.38957 22.101 9.14289 21.9014 10.8737C21.7018 12.6046 21.1563 14.2777 20.2973 15.7935C19.4383 17.3094 18.2833 18.6371 16.9011 19.6978C15.5188 20.7585 13.9374 21.5305 12.2509 21.968C12.0862 22.0107 11.9134 22.0107 11.7488 21.968C10.0622 21.5305 8.48087 20.7585 7.0986 19.6978C5.71634 18.6371 4.5614 17.3094 3.70241 15.7935C2.84342 14.2777 2.29791 12.6046 2.09829 10.8737C1.89868 9.14289 2.04904 7.38957 2.54043 5.71797C2.67035 5.27601 3.08537 4.97999 3.54555 5.00105C6.40145 5.13173 9.19603 4.14541 11.3372 2.25105ZM15.7069 10.7071C16.0974 10.3166 16.0974 9.68342 15.7069 9.29289C15.3164 8.90237 14.6832 8.90237 14.2927 9.29289L10.9998 12.5858L9.70692 11.2929C9.3164 10.9024 8.68323 10.9024 8.29271 11.2929C7.90219 11.6834 7.90219 12.3166 8.29271 12.7071L10.2927 14.7071C10.6832 15.0976 11.3164 15.0976 11.7069 14.7071L15.7069 10.7071Z" fill="currentcolor"/>
</svg>
