<svg width="24" height="24" viewBox="0 0 24 24" fill="none" xmlns="http://www.w3.org/2000/svg">
<path d="M5 5C4.20435 5 3.44129 5.31607 2.87868 5.87868C2.31607 6.44129 2 7.20435 2 8V16C2 16.7956 2.31607 17.5587 2.87868 18.1213C3.44129 18.6839 4.20435 19 5 19H13C13.7956 19 14.5587 18.6839 15.1213 18.1213C15.6839 17.5587 16 16.7956 16 16V15.6179L19.106 17.1705C19.4108 17.3229 19.7495 17.3948 20.09 17.3794C20.4304 17.3641 20.7613 17.262 21.0512 17.0829C21.3411 16.9038 21.5805 16.6536 21.7465 16.356C21.9126 16.0584 21.9998 15.7228 22 15.382V8.61746C21.9998 8.27668 21.9126 7.9416 21.7465 7.64401C21.5805 7.34641 21.3411 7.09619 21.0512 6.91707C20.7613 6.73796 20.4304 6.63589 20.09 6.62056C19.7496 6.60522 19.4107 6.6772 19.1059 6.82953L16 8.38212V8C16 7.20435 15.6839 6.44129 15.1213 5.87868C14.5587 5.31607 13.7956 5 13 5H5Z" fill="currentcolor"/>
</svg>
