<svg width="24" height="24" viewBox="0 0 24 24" fill="none" xmlns="http://www.w3.org/2000/svg">
<path fill-rule="evenodd" clip-rule="evenodd" d="M2.29289 2.29289C2.68342 1.90237 3.31658 1.90237 3.70711 2.29289L15.6349 14.2207L18.063 16.6408C18.0885 16.6663 18.1125 16.693 18.1349 16.7207L21.7071 20.2929C22.0976 20.6834 22.0976 21.3166 21.7071 21.7071C21.3166 22.0976 20.6834 22.0976 20.2929 21.7071L17.2061 18.6203C15.6047 19.5368 13.8653 20.0001 12 20.0001C7.51999 20.0001 3.9072 17.353 1.13177 12.4962C0.956057 12.1888 0.956079 11.8113 1.13182 11.5038C2.30973 9.44313 3.63697 7.77717 5.12713 6.54135L2.29289 3.70711C1.90237 3.31658 1.90237 2.68342 2.29289 2.29289ZM14.8284 13.4143L10.5858 9.17163L9.87868 9.87874C9.31607 10.4413 9 11.2044 9 12.0001C9 12.7957 9.31607 13.5588 9.87868 14.1214C10.4413 14.684 11.2043 15.0001 12 15.0001C12.7957 15.0001 13.5587 14.684 14.1213 14.1214L14.8284 13.4143ZM12 5.00006C11.1082 4.9969 10.2204 5.11978 9.363 5.36506L19.497 15.4881C20.388 14.5241 21.222 13.3611 22 12.0001C19.333 7.33306 16 5.00006 12 5.00006Z" fill="currentcolor"/>
</svg>
