<svg width="24" height="24" viewBox="0 0 24 24" fill="none" xmlns="http://www.w3.org/2000/svg">
<path d="M12.0002 4C16.2902 4 19.8632 6.429 22.6652 11.154L22.8852 11.533L22.9302 11.633L22.9602 11.716L22.9742 11.771L22.9882 11.853L22.9992 11.953V12.063L22.9852 12.174C22.9786 12.2111 22.9699 12.2479 22.9592 12.284L22.9202 12.392L22.8842 12.467L22.8682 12.497C20.1042 17.333 16.5682 19.877 12.3132 19.996L12.0002 20C7.60417 20 3.96317 17.451 1.13217 12.496C1.04588 12.3449 1.00049 12.174 1.00049 12C1.00049 11.826 1.04588 11.6551 1.13217 11.504C3.96317 6.549 7.60417 4 12.0002 4ZM12.0002 9C11.2045 9 10.4415 9.31607 9.87885 9.87868C9.31624 10.4413 9.00017 11.2044 9.00017 12C9.00017 12.7956 9.31624 13.5587 9.87885 14.1213C10.4415 14.6839 11.2045 15 12.0002 15C12.7958 15 13.5589 14.6839 14.1215 14.1213C14.6841 13.5587 15.0002 12.7956 15.0002 12C15.0002 11.2044 14.6841 10.4413 14.1215 9.87868C13.5589 9.31607 12.7958 9 12.0002 9Z" fill="black"/>
</svg>
