<svg width="24" height="24" viewBox="0 0 24 24" fill="none" xmlns="http://www.w3.org/2000/svg">
<path d="M11.9898 1.96802C13.0128 1.96802 13.9598 2.48902 14.5018 3.32702L14.6048 3.49902L21.7048 15.749L21.7668 15.875C21.9442 16.3137 22.0153 16.7881 21.9743 17.2595C21.9333 17.7308 21.7814 18.1859 21.531 18.5873C21.2806 18.9888 20.9388 19.3253 20.5334 19.5695C20.1281 19.8136 19.6708 19.9584 19.1988 19.992L18.9998 20H4.99983L4.95083 19.997L4.83883 19.999C4.39343 19.9761 3.95874 19.8542 3.56641 19.6421C3.17408 19.43 2.83396 19.1331 2.57083 18.773L2.46183 18.613C2.22367 18.2388 2.07145 17.8165 2.01611 17.3764C1.96078 16.9364 2.00371 16.4895 2.14183 16.068L2.21383 15.874L2.27383 15.749L9.36583 3.51602C9.62522 3.04705 10.0055 2.65612 10.4671 2.38389C10.9288 2.11165 11.4549 1.96805 11.9908 1.96802H11.9898ZM12.0098 14L11.8828 14.007C11.6398 14.0359 11.4158 14.153 11.2532 14.336C11.0907 14.519 11.0009 14.7553 11.0009 15C11.0009 15.2448 11.0907 15.481 11.2532 15.6641C11.4158 15.8471 11.6398 15.9641 11.8828 15.993L11.9998 16L12.1268 15.993C12.3699 15.9641 12.5939 15.8471 12.7564 15.6641C12.9189 15.481 13.0087 15.2448 13.0087 15C13.0087 14.7553 12.9189 14.519 12.7564 14.336C12.5939 14.153 12.3699 14.0359 12.1268 14.007L12.0098 14ZM11.9998 8.00002C11.7549 8.00005 11.5185 8.08997 11.3355 8.25273C11.1524 8.41549 11.0355 8.63977 11.0068 8.88302L10.9998 9.00002V11L11.0068 11.117C11.0357 11.3601 11.1528 11.5841 11.3358 11.7466C11.5188 11.9091 11.7551 11.9989 11.9998 11.9989C12.2446 11.9989 12.4809 11.9091 12.6639 11.7466C12.8469 11.5841 12.9639 11.3601 12.9928 11.117L12.9998 11V9.00002L12.9928 8.88302C12.9642 8.63977 12.8472 8.41549 12.6642 8.25273C12.4812 8.08997 12.2448 8.00005 11.9998 8.00002Z" fill="currentcolor"/>
</svg>
