<svg width="24" height="25" viewBox="0 0 24 25" fill="none" xmlns="http://www.w3.org/2000/svg">
<g clip-path="url(#clip0_17205_8775)">
<path d="M19.9041 3.85181C18.0317 3.85181 16.4712 5.09662 15.9926 6.95962C15.1298 4.16024 12.9216 3.85396 12.0004 3.85396C11.0794 3.85396 8.87194 4.16024 8.00756 6.95896C7.52878 5.09774 5.96812 3.85396 4.09622 3.85396C1.79925 3.85396 0 5.49599 0 7.59215C0 8.51915 0.229031 9.25921 0.505781 10.0619L3.62456 18.8815C4.66884 21.8065 6.79631 22.2433 7.97137 22.2433C9.81469 22.2433 11.251 21.2992 12.0001 19.6261C12.7498 21.3067 14.1863 22.2556 16.0287 22.2556C17.2024 22.2556 19.3277 21.8181 20.3773 18.8823L23.5132 10.0327L23.5377 9.95962C23.5735 9.84618 23.6097 9.73978 23.6438 9.63871C23.8108 9.14465 24 8.58468 24 7.89843C24 5.55374 22.2774 3.85181 19.9041 3.85181ZM21.3824 9.27759L18.2465 18.1272C17.8636 19.1978 17.2268 19.9949 16.0287 19.9949C14.9063 19.9949 14.2435 19.3694 13.9124 18.2977L12.0253 12.4078H11.974L10.0882 18.2977C9.75638 19.3696 9.09347 19.9825 7.97128 19.9825C6.77297 19.9825 6.13566 19.1921 5.75344 18.1214L2.64309 9.3254C2.38809 8.58571 2.26069 8.12803 2.26069 7.59196C2.26069 6.77596 3.02597 6.11465 4.09622 6.11465C4.98872 6.11465 5.62603 6.70303 5.83003 7.56984L7.94625 14.5858H7.99688L10.1386 7.72443C10.4196 6.73021 10.9292 6.11465 12.0004 6.11465C13.071 6.11465 13.5807 6.72918 13.8611 7.7234L16.0029 14.5858H16.0536L18.1704 7.56984C18.3742 6.70303 19.0114 6.11249 19.9041 6.11249C20.9743 6.11249 21.7393 6.77624 21.7393 7.89843C21.7393 8.30615 21.5602 8.71574 21.3824 9.27749V9.27759Z" fill="#3192E7"/>
</g>
<defs>
<clipPath id="clip0_17205_8775">
<rect width="24" height="18.4704" fill="white" transform="translate(0 3.85083)"/>
</clipPath>
</defs>
</svg>
