<svg width="24" height="24" viewBox="0 0 24 24" fill="none" xmlns="http://www.w3.org/2000/svg">
<mask id="mask0_13480_43487" style="mask-type:alpha" maskUnits="userSpaceOnUse" x="3" y="2" width="18" height="20">
<path fill-rule="evenodd" clip-rule="evenodd" d="M17.9006 4.99533L13 5.60791V11.0001H19V5.90013C19 5.43794 18.5575 4.94981 17.9006 4.99533ZM19 13.0001H13V18.3923L17.4808 18.9524C17.6393 18.8991 17.8105 18.8856 17.9789 18.9163C18.4484 19.0016 19 18.5932 19 18.0001V13.0001ZM11 11.0001V5.85791L5.92404 6.49241C5.91587 6.49343 5.90769 6.49435 5.8995 6.49517C5.35435 6.54968 5 6.96861 5 7.40013V11.0001H11ZM5 13.0001H11V18.1423L5.92404 17.5079C5.91587 17.5068 5.90769 17.5059 5.8995 17.5051C5.35435 17.4506 5 17.0317 5 16.6001V13.0001ZM3 12.0001V7.40013C3 5.8365 4.23795 4.65789 5.687 4.50647L17.676 3.00785C17.6896 3.00615 17.7033 3.00473 17.717 3.00359C19.4504 2.85913 21 4.16644 21 5.90013V12.0001V18.0001C21 19.6133 19.6861 20.8954 18.173 20.9279C18.0172 20.9906 17.8463 21.0137 17.676 20.9924L5.68699 19.4938C4.23794 19.3424 3 18.1638 3 16.6001V12.0001Z" fill="black"/>
</mask>
<g mask="url(#mask0_13480_43487)">
<rect width="24" height="24" fill="#131317"/>
</g>
</svg>
