<svg width="24" height="24" viewBox="0 0 24 24" fill="none" xmlns="http://www.w3.org/2000/svg">
<mask id="mask0_13480_43493" style="mask-type:alpha" maskUnits="userSpaceOnUse" x="3" y="2" width="18" height="19">
<path d="M10 5L5.8 5.50003C4.8 5.60003 4 6.40003 4 7.40003V10H10V5Z" fill="currentcolor"/>
<path d="M4 14V16.6C4 17.6 4.8 18.4 5.8 18.5L10 19V14H4Z" fill="currentcolor"/>
<path d="M14 19.5L17.8 19.9C18.9 20.1 20 19.2 20 18V14H14V19.5Z" fill="currentcolor"/>
<path d="M20 10H14V4.5L17.8 4.00003C19 3.90003 20 4.80003 20 5.90003V10Z" fill="currentcolor"/>
<path d="M5.8 5.50003L5.8995 6.49507C5.90575 6.49445 5.91199 6.49376 5.91822 6.49302L5.8 5.50003ZM10 5H11V3.87388L9.88178 4.00701L10 5ZM4 10H3V11H4V10ZM10 10V11H11V10H10ZM4 14V13H3V14H4ZM5.8 18.5L5.91821 17.507C5.91198 17.5063 5.90574 17.5056 5.8995 17.505L5.8 18.5ZM10 19L9.8818 19.993L11 20.1261V19H10ZM10 14H11V13H10V14ZM14 19.5H13V20.4003L13.8953 20.4945L14 19.5ZM17.8 19.9L17.9789 18.9162C17.9543 18.9117 17.9295 18.9081 17.9047 18.9055L17.8 19.9ZM20 14H21V13H20V14ZM14 14V13H13V14H14ZM20 10V11H21V10H20ZM14 10H13V11H14V10ZM14 4.5L13.8696 3.50854L13 3.62295V4.5H14ZM17.8 4.00003L17.717 3.00349C17.7011 3.00481 17.6853 3.00651 17.6696 3.00858L17.8 4.00003ZM5.91822 6.49302L10.1182 5.99299L9.88178 4.00701L5.68178 4.50705L5.91822 6.49302ZM5 7.40003C5 6.96851 5.35435 6.54959 5.8995 6.49507L5.7005 4.505C4.24565 4.65048 3 5.83156 3 7.40003H5ZM5 10V7.40003H3V10H5ZM10 9H4V11H10V9ZM9 5V10H11V5H9ZM5 16.6V14H3V16.6H5ZM5.8995 17.505C5.35435 17.4505 5 17.0316 5 16.6H3C3 18.1685 4.24565 19.3496 5.7005 19.4951L5.8995 17.505ZM10.1182 18.007L5.91821 17.507L5.6818 19.493L9.8818 19.993L10.1182 18.007ZM9 14V19H11V14H9ZM4 15H10V13H4V15ZM19 18C19 18.5931 18.4484 19.0015 17.9789 18.9162L17.6211 20.8839C19.3516 21.1985 21 19.8069 21 18H19ZM19 14V18H21V14H19ZM14 15H20V13H14V15ZM15 19.5V14H13V19.5H15ZM20 9H14V11H20V9ZM15 10V4.5H13V10H15ZM14.1304 5.49146L17.9304 4.99149L17.6696 3.00858L13.8696 3.50854L14.1304 5.49146ZM17.883 4.99658C18.5496 4.94103 19 5.43373 19 5.90003H21C21 4.16634 19.4504 2.85904 17.717 3.00349L17.883 4.99658ZM19 5.90003V10H21V5.90003H19ZM17.9047 18.9055L14.1047 18.5055L13.8953 20.4945L17.6953 20.8945L17.9047 18.9055Z" fill="currentcolor"/>
</mask>
<g mask="url(#mask0_13480_43493)">
<rect width="24" height="24" fill="currentcolor"/>
</g>
</svg>
