<svg width="24" height="25" viewBox="0 0 24 25" fill="none" xmlns="http://www.w3.org/2000/svg">
<g clip-path="url(#clip0_17205_8778)">
<path d="M2.22816 5.85083H21.7618C22.9981 5.85083 23.9987 6.85152 23.9987 8.08778V15.544C23.9987 16.7803 22.9981 17.781 21.7618 17.781H14.7568L15.7183 20.1356L11.4897 17.781H2.23791C1.00174 17.781 0.00104856 16.7803 0.00104856 15.544V8.08778C-0.00879428 6.86136 0.991801 5.85083 2.22816 5.85083Z" fill="#9B5C8F"/>
<path d="M1.3676 7.88955C1.50418 7.70413 1.709 7.60664 1.98216 7.58714C2.47974 7.54805 2.76265 7.78213 2.83089 8.28945C3.1333 10.3283 3.46496 12.055 3.81611 13.4695L5.95247 9.4016C6.14764 9.03085 6.39155 8.83578 6.68421 8.81628C7.11345 8.78703 7.37677 9.0601 7.4841 9.63567C7.72801 10.933 8.04017 12.0354 8.41082 12.9719C8.66449 10.4942 9.09372 8.70894 9.69854 7.60664C9.84478 7.33348 10.0594 7.1969 10.3424 7.17731C10.5668 7.1579 10.7716 7.22615 10.9569 7.37248C11.1422 7.51881 11.2398 7.70413 11.2593 7.92855C11.2691 8.10413 11.2398 8.25046 11.1618 8.39679C10.7813 9.09919 10.4691 10.2796 10.2155 11.9184C9.9717 13.5085 9.88387 14.7475 9.94236 15.6352C9.96195 15.8789 9.92286 16.0936 9.82537 16.279C9.7082 16.4936 9.53271 16.6107 9.3083 16.6302C9.05464 16.6497 8.79132 16.5327 8.53765 16.2693C7.63043 15.3424 6.90853 13.9572 6.3818 12.1135C5.74764 13.3622 5.27941 14.2986 4.977 14.923C4.40143 16.0253 3.91369 16.5912 3.50395 16.6204C3.24054 16.6399 3.01622 16.4155 2.82114 15.9474C2.32366 14.6694 1.78709 12.2013 1.21161 8.54312C1.17252 8.28945 1.23102 8.06504 1.3676 7.88955V7.88955ZM22.3314 9.4211C21.9803 8.80653 21.4632 8.43588 20.7707 8.28945C20.5852 8.25046 20.4098 8.23096 20.2438 8.23096C19.3074 8.23096 18.5465 8.71869 17.9514 9.69426C17.4441 10.5234 17.1905 11.4404 17.1905 12.4452C17.1905 13.1963 17.3466 13.8401 17.6587 14.3767C18.0099 14.9913 18.527 15.3619 19.2195 15.5083C19.4049 15.5474 19.5804 15.5669 19.7463 15.5669C20.6926 15.5669 21.4535 15.0791 22.0388 14.1036C22.546 13.2646 22.7997 12.3476 22.7997 11.3429C22.8094 10.582 22.6436 9.94783 22.3314 9.4211V9.4211ZM21.1023 12.1233C20.9657 12.7671 20.7218 13.2451 20.3608 13.567C20.078 13.8207 19.8146 13.9279 19.5708 13.8791C19.3366 13.8304 19.1414 13.6256 18.9952 13.2451C18.878 12.9427 18.8196 12.6403 18.8196 12.3574C18.8196 12.1135 18.8391 11.8696 18.8879 11.6453C18.9757 11.2453 19.1415 10.8551 19.4049 10.4844C19.7269 10.0063 20.0683 9.81134 20.4194 9.87958C20.6536 9.92833 20.8487 10.1332 20.995 10.5136C21.1121 10.8161 21.1706 11.1185 21.1706 11.4014C21.1706 11.655 21.1511 11.8989 21.1023 12.1232V12.1233ZM16.2247 9.4211C15.8735 8.80653 15.3467 8.43588 14.6639 8.28945C14.4786 8.25046 14.303 8.23096 14.1371 8.23096C13.2006 8.23096 12.4397 8.71869 11.8446 9.69426C11.3374 10.5234 11.0838 11.4404 11.0838 12.4452C11.0838 13.1963 11.2398 13.8401 11.552 14.3767C11.9031 14.9913 12.4202 15.3619 13.1128 15.5083C13.2982 15.5474 13.4737 15.5669 13.6396 15.5669C14.5858 15.5669 15.3467 15.0791 15.932 14.1036C16.4394 13.2646 16.6929 12.3476 16.6929 11.3429C16.6929 10.582 16.5368 9.94783 16.2247 9.4211V9.4211ZM14.9858 12.1233C14.8492 12.7671 14.6053 13.2451 14.2444 13.567C13.9615 13.8207 13.6981 13.9279 13.4542 13.8791C13.2201 13.8304 13.025 13.6256 12.8786 13.2451C12.7616 12.9427 12.7031 12.6403 12.7031 12.3574C12.7031 12.1135 12.7226 11.8696 12.7714 11.6453C12.8592 11.2453 13.025 10.8551 13.2884 10.4844C13.6104 10.0063 13.9518 9.81134 14.3029 9.87958C14.5371 9.92833 14.7322 10.1332 14.8785 10.5136C14.9957 10.8161 15.0541 11.1185 15.0541 11.4014C15.0639 11.655 15.0346 11.8989 14.9858 12.1232V12.1233Z" fill="white"/>
</g>
<defs>
<clipPath id="clip0_17205_8778">
<rect width="24" height="14.3424" fill="white" transform="translate(0 5.85083)"/>
</clipPath>
</defs>
</svg>
