<svg width="24" height="24" viewBox="0 0 24 24" fill="none" xmlns="http://www.w3.org/2000/svg">
<path fill-rule="evenodd" clip-rule="evenodd" d="M10.7722 2.07568C9.88083 2.18596 9.00645 2.41607 8.17317 2.76123C6.95991 3.26378 5.85752 4.00037 4.92893 4.92896C4.04472 5.81317 3.33458 6.85498 2.83484 8.00004H8.42463C8.87005 5.9239 9.66074 3.92298 10.7722 2.07568ZM2.20204 10C2.06801 10.6566 2 11.3266 2 12C2 12.6734 2.06801 13.3434 2.20204 14H8.10533C8.03536 13.3375 8 12.67 8 12C8 11.33 8.03536 10.6626 8.10533 10H2.20204ZM2.83485 16C3.33459 17.1451 4.04472 18.1869 4.92893 19.0711C5.85752 19.9997 6.95991 20.7363 8.17317 21.2388C9.00645 21.584 9.88082 21.8141 10.7722 21.9244C9.66073 20.0771 8.87005 18.0762 8.42463 16H2.83485ZM14.1844 21.7585C14.7445 21.6331 15.2941 21.4595 15.8268 21.2388C17.0401 20.7363 18.1425 19.9997 19.0711 19.0711C19.9553 18.1869 20.6654 17.1451 21.1651 16H15.7118C15.4191 18.0107 14.9059 19.9545 14.1844 21.7585ZM21.798 14C21.932 13.3434 22 12.6734 22 12C22 11.3266 21.932 10.6566 21.798 10H15.9285C15.976 10.663 16 11.3305 16 12C16 12.6695 15.976 13.337 15.9285 14H21.798ZM21.1652 8.00004H15.7118C15.4191 5.9894 14.9059 4.04554 14.1844 2.24153C14.7445 2.3669 15.2941 2.54055 15.8268 2.76123C17.0401 3.26378 18.1425 4.00037 19.0711 4.92896C19.9553 5.81317 20.6654 6.85498 21.1652 8.00004ZM12.4194 3.21827C12.9987 4.71815 13.4258 6.32884 13.689 8.00004H10.4757C10.8776 6.33164 11.5305 4.72055 12.4194 3.21827ZM10.1178 10H13.923C13.9741 10.6616 14 11.3292 14 12C14 12.6708 13.9741 13.3385 13.923 14H10.1178C10.0395 13.3379 10 12.6703 10 12C10 11.3298 10.0395 10.6621 10.1178 10ZM10.4757 16H13.689C13.4258 17.6712 12.9987 19.2819 12.4194 20.7818C11.5305 19.2795 10.8776 17.6684 10.4757 16Z" fill="black"/>
</svg>
