<svg width="24" height="24" viewBox="0 0 24 24" fill="none" xmlns="http://www.w3.org/2000/svg">
<path d="M11.9999 3C11.4499 3 10.9999 3.45 10.9999 4V12C10.9999 12.55 11.4499 13 11.9999 13C12.5499 13 12.9999 12.55 12.9999 12V4C12.9999 3.45 12.5499 3 11.9999 3ZM17.1399 5.86C16.7499 6.25 16.7599 6.86 17.1299 7.25C18.2599 8.45 18.9599 10.05 18.9999 11.82C19.0899 15.65 15.9199 18.95 12.0899 18.99C8.17993 19.05 4.99993 15.9 4.99993 12C4.99993 10.16 5.70993 8.49 6.86993 7.24C7.23993 6.85 7.23993 6.24 6.85993 5.86C6.45993 5.46 5.80993 5.47 5.42993 5.88C3.97993 7.42 3.06993 9.47 2.99993 11.74C2.85993 16.62 6.82993 20.84 11.7099 20.99C16.8099 21.15 20.9999 17.06 20.9999 11.99C20.9999 9.62 20.0799 7.48 18.5799 5.88C18.1999 5.47 17.5399 5.46 17.1399 5.86Z" fill="#424D57"/>
</svg>
