<svg width="24" height="24" viewBox="0 0 24 24" fill="none" xmlns="http://www.w3.org/2000/svg">
<path d="M11.9905 1.99927C6.47049 1.99927 2.00049 6.48007 2.00049 12.0001C2.00049 17.5201 6.47049 21.9997 11.9905 21.9997C17.5213 21.9997 22.0009 17.5201 22.0009 12.0001C22.0009 6.48007 17.5213 1.99927 11.9905 1.99927ZM12.0013 19.9993C7.58049 19.9993 4.00089 16.4197 4.00089 12.0001C4.00089 7.57927 7.58049 3.99967 12.0013 3.99967C16.4209 3.99967 20.0017 7.57927 20.0017 12.0001C20.0017 16.4197 16.4209 19.9993 12.0013 19.9993ZM15.5017 10.9993C16.3309 10.9993 17.0017 10.3297 17.0017 9.49927C17.0017 8.67007 16.3309 7.99927 15.5017 7.99927C14.6713 7.99927 14.0017 8.67007 14.0017 9.49927C14.0017 10.3297 14.6713 10.9993 15.5017 10.9993ZM8.50089 10.9993C9.33129 10.9993 10.0009 10.3297 10.0009 9.49927C10.0009 8.67007 9.33129 7.99927 8.50089 7.99927C7.67049 7.99927 7.00089 8.67007 7.00089 9.49927C7.00089 10.3297 7.67049 10.9993 8.50089 10.9993ZM12.0013 17.4997C14.0317 17.4997 15.8017 16.3897 16.7509 14.7493C16.9417 14.4193 16.7017 13.9993 16.3105 13.9993H7.69209C7.31169 13.9993 7.06209 14.4193 7.25169 14.7493C8.20209 16.3897 9.97209 17.4997 12.0025 17.4997H12.0013Z" fill="#424D57"/>
</svg>
