<svg width="24" height="24" viewBox="0 0 24 24" fill="none" xmlns="http://www.w3.org/2000/svg">
<path d="M20.3112 3.69003C20.6616 4.04043 21.0612 5.96042 20.9808 8.37962L15.6216 3.02043C18.0312 2.93043 19.9608 3.33963 20.3112 3.69003Z" fill="#424D57"/>
<path fill-rule="evenodd" clip-rule="evenodd" d="M13.0812 3.27954C10.7508 3.69954 8.29076 4.61994 6.46076 6.45954C4.63076 8.29914 3.70076 10.7495 3.28076 13.0799L10.9116 20.7095C13.2516 20.3003 15.7008 19.3703 17.5308 17.5295C19.3608 15.6899 20.2908 13.2395 20.7108 10.9091L13.0812 3.27954ZM14.8008 10.5995L10.6008 14.7995C10.2108 15.1895 9.59156 15.1895 9.20156 14.7995C8.81156 14.4095 8.81156 13.7903 9.20156 13.3991L13.4016 9.19914C13.7916 8.80914 14.4108 8.80914 14.8008 9.19914C15.1908 9.58914 15.1908 10.2095 14.8008 10.5995Z" fill="#424D57"/>
<path d="M3.0192 15.6191C2.9388 18.0395 3.3396 19.9595 3.6888 20.3099C4.0392 20.6591 5.9688 21.0695 8.3796 20.9795L3.0192 15.6191Z" fill="#424D57"/>
</svg>
