<svg width="24" height="24" viewBox="0 0 24 24" fill="none" xmlns="http://www.w3.org/2000/svg">
<path d="M17 18H7V6H17V7H19V3C19 1.9 18.1 1 17 1L7 1.01C5.9 1.01 5 1.9 5 3V21C5 22.1 5.9 23 7 23H17C18.1 23 19 22.1 19 21V17H17V18ZM21 12C21 11.87 20.98 11.74 20.96 11.61L21.6 11.13C21.8 10.98 21.86 10.69 21.73 10.47L21.16 9.51C21.03 9.3 20.77 9.21 20.54 9.31L19.82 9.61C19.62 9.46 19.4 9.32 19.17 9.22L19.07 8.45C19.04 8.2 18.83 8.02 18.58 8.01L17.46 7.99C17.2 7.99 16.99 8.17 16.96 8.43L16.86 9.22C16.62 9.32 16.41 9.45 16.21 9.61L15.49 9.31C15.26 9.21 14.99 9.3 14.87 9.51L14.3 10.47C14.17 10.69 14.22 10.97 14.43 11.13L15.07 11.61C15.02 11.74 15 11.87 15 12C15 12.13 15.02 12.25 15.04 12.37L14.4 12.86C14.2 13.01 14.14 13.29 14.27 13.51L14.83 14.48C14.96 14.7 15.22 14.79 15.46 14.69L16.19 14.38C16.39 14.54 16.61 14.68 16.86 14.78L16.96 15.55C16.99 15.8 17.2 15.99 17.46 15.99H18.58C18.83 15.99 19.04 15.8 19.08 15.55L19.18 14.78C19.42 14.68 19.64 14.54 19.85 14.38L20.58 14.69C20.81 14.79 21.08 14.7 21.21 14.48L21.77 13.51C21.9 13.29 21.84 13.01 21.64 12.86L21 12.37C20.98 12.25 21 12.13 21 12ZM18 13.5C17.17 13.5 16.5 12.83 16.5 12C16.5 11.17 17.17 10.5 18 10.5C18.83 10.5 19.5 11.17 19.5 12C19.5 12.83 18.83 13.5 18 13.5Z" fill="#424D57"/>
</svg>
