<svg width="24" height="24" viewBox="0 0 24 24" fill="none" xmlns="http://www.w3.org/2000/svg">
<path fill-rule="evenodd" clip-rule="evenodd" d="M11.9999 20.7C8.52051 20.7 5.6999 17.8794 5.6999 14.4V7.88572C5.6999 7.38866 5.29695 6.98572 4.7999 6.98572C4.30285 6.98572 3.8999 7.38865 3.8999 7.88572V14.4C3.8999 18.8735 7.5264 22.5 11.9999 22.5C16.4734 22.5 20.0999 18.8735 20.0999 14.4V7.60758C20.0999 4.23445 17.3655 1.5 13.9924 1.5C10.6192 1.5 7.88474 4.23445 7.88474 7.60758V14.4382C7.88474 16.6183 9.65214 18.3857 11.8323 18.3857C14.0125 18.3857 15.7799 16.6183 15.7799 14.4382V7.88572C15.7799 7.38866 15.3769 6.98572 14.8799 6.98572C14.3829 6.98572 13.9799 7.38866 13.9799 7.88572V14.4382C13.9799 15.6242 13.0183 16.5857 11.8323 16.5857C10.6463 16.5857 9.68474 15.6242 9.68474 14.4382V7.60758C9.68474 5.22857 11.6133 3.3 13.9924 3.3C16.3714 3.3 18.2999 5.22857 18.2999 7.60758V14.4C18.2999 17.8794 15.4793 20.7 11.9999 20.7Z" fill="#424D57"/>
</svg>
