<svg width="24" height="24" viewBox="0 0 24 24" fill="none" xmlns="http://www.w3.org/2000/svg">
<path d="M9 13C8.17 13 7.5 12.33 7.5 11.5C7.5 10.67 8.17 10 9 10C9.83 10 10.5 10.67 10.5 11.5C10.5 12.33 9.83 13 9 13Z" fill="#424D57"/>
<path d="M16.5 11.5C16.5 12.33 15.83 13 15 13C14.17 13 13.5 12.33 13.5 11.5C13.5 10.67 14.17 10 15 10C15.83 10 16.5 10.67 16.5 11.5Z" fill="#424D57"/>
<path d="M8 16C8 15.4477 8.44771 15 9 15H15C15.5523 15 16 15.4477 16 16C16 16.5523 15.5523 17 15 17H9C8.44771 17 8 16.5523 8 16Z" fill="#424D57"/>
<path fill-rule="evenodd" clip-rule="evenodd" d="M8 5C8 4.44772 8.44772 4 9 4C9.55228 4 10 4.44772 10 5L14 5C14 4.44772 14.4477 4 15 4C15.5523 4 16 4.44772 16 5H18C19.1 5 20 5.9 20 7V19C20 20.1 19.1 21 18 21H6C4.9 21 4 20.1 4 19V7C4 5.9 4.9 5 6 5L8 5ZM18 19H6V7H18V19Z" fill="#424D57"/>
</svg>
