<svg width="24" height="24" viewBox="0 0 24 24" fill="none" xmlns="http://www.w3.org/2000/svg">
<path d="M13.89 8.7L12 10.59L10.11 8.7C9.72 8.31 9.09 8.31 8.7 8.7C8.31 9.09 8.31 9.72 8.7 10.11L10.59 12L8.7 13.89C8.31 14.28 8.31 14.91 8.7 15.3C9.09 15.69 9.72 15.69 10.11 15.3L12 13.41L13.89 15.3C14.28 15.69 14.91 15.69 15.3 15.3C15.69 14.91 15.69 14.28 15.3 13.89L13.41 12L15.3 10.11C15.69 9.72 15.69 9.09 15.3 8.7C14.91 8.32 14.27 8.32 13.89 8.7ZM12 2C6.47 2 2 6.47 2 12C2 17.53 6.47 22 12 22C17.53 22 22 17.53 22 12C22 6.47 17.53 2 12 2ZM12 20C7.59 20 4 16.41 4 12C4 7.59 7.59 4 12 4C16.41 4 20 7.59 20 12C20 16.41 16.41 20 12 20Z" fill="#424D57"/>
</svg>
