<svg width="24" height="24" viewBox="0 0 24 24" fill="none" xmlns="http://www.w3.org/2000/svg">
<path d="M5.69997 6.70998C5.30997 7.09998 5.30997 7.72998 5.69997 8.11998L9.57997 12L5.69997 15.88C5.30997 16.27 5.30997 16.9 5.69997 17.29C6.08997 17.68 6.71997 17.68 7.10997 17.29L11.7 12.7C12.09 12.31 12.09 11.68 11.7 11.29L7.11997 6.70998C6.72997 6.31998 6.08997 6.31998 5.69997 6.70998Z" fill="#424D57"/>
<path d="M12.2901 6.71002C11.9001 7.10002 11.9001 7.73002 12.2901 8.12002L16.1701 12L12.2901 15.88C11.9001 16.27 11.9001 16.9 12.2901 17.29C12.6801 17.68 13.3101 17.68 13.7001 17.29L18.2901 12.7C18.6801 12.31 18.6801 11.68 18.2901 11.29L13.7001 6.70002C13.3201 6.32002 12.6801 6.32002 12.2901 6.71002Z" fill="#424D57"/>
</svg>
