<svg width="24" height="24" viewBox="0 0 24 24" fill="none" xmlns="http://www.w3.org/2000/svg">
<path d="M18.9983 9.00007H13.9991L13.2791 7.54927C13.1087 7.20967 12.7583 6.99967 12.3791 6.99967H6.99951V5.71927C7.59951 5.37967 7.99911 4.74007 7.99911 3.99967C7.99911 2.89927 7.09911 1.99927 5.99871 1.99927C4.89951 1.99927 3.99951 2.89927 3.99951 3.99967C3.99951 4.74007 4.39911 5.37967 4.99911 5.71927V19.9993C4.99911 20.5501 5.44911 21.0001 5.99871 21.0001C6.54951 21.0001 6.99951 20.5501 6.99951 19.9993V16.9993H11.9987L12.7187 18.4501C12.8891 18.7897 13.2395 18.9997 13.6091 18.9997H18.9995C19.5491 18.9997 19.9991 18.5497 19.9991 18.0001V9.99967C19.9991 9.45007 19.5491 9.00007 18.9983 9.00007ZM17.9999 16.9993H14.0003L12.9995 15.0001H6.99951V9.00007H11.9999L12.9995 10.9993H17.9999V16.9993Z" fill="#424D57"/>
</svg>
