<svg width="24" height="24" viewBox="0 0 24 24" fill="none" xmlns="http://www.w3.org/2000/svg">
<path fill-rule="evenodd" clip-rule="evenodd" d="M9.00009 3H20.0017C21.1009 3 22.0009 3.9 22.0009 5.0004V8.0004C22.0009 9.0996 21.1009 9.9996 20.0017 9.9996H18.0001V12.9996C18.0001 15.21 16.2097 17.0004 14.0005 17.0004H8.00049C5.79009 17.0004 3.99969 15.21 3.99969 12.9996V5.0004C3.99969 3.9 4.89969 3 6.00009 3H7.99929V5.4L6.19209 6.8496C6.07209 6.9396 6.00249 7.0896 6.00249 7.2396V11.4996C6.00249 11.7804 6.22209 12 6.50169 12H10.5025C10.7821 12 11.0017 11.7804 11.0017 11.4996V7.2396C11.0017 7.0896 10.9321 6.9396 10.8121 6.8496L9.00129 5.4V3H9.00009ZM18.0001 8.0004H20.0017V5.0004H18.0001V8.0004ZM3.00009 19.5H19.0009C19.5517 19.5 20.0017 19.95 20.0017 20.4996C20.0017 21.0504 19.5517 21.5004 19.0009 21.5004H3.00129C2.45049 21.5004 2.00049 21.0504 2.00049 20.4996C2.00049 19.95 2.45049 19.5 3.00129 19.5H3.00009Z" fill="#424D57"/>
</svg>
