<svg width="24" height="24" viewBox="0 0 24 24" fill="none" xmlns="http://www.w3.org/2000/svg">
<path fill-rule="evenodd" clip-rule="evenodd" d="M5.04217 3.71265C5.16907 3.28967 5.55839 3 6 3H8C8.55228 3 9 3.44772 9 4C9 4.55228 8.55228 5 8 5H6.74403L4.50435 12.4656C5.10575 12.1675 5.78331 12 6.5 12C8.45933 12 10.1262 13.2522 10.7439 15H13.2561C13.8738 13.2522 15.5407 12 17.5 12C18.2167 12 18.8943 12.1675 19.4956 12.4656L17.256 5H16C15.4477 5 15 4.55228 15 4C15 3.44772 15.4477 3 16 3H18C18.4416 3 18.8309 3.28967 18.9578 3.71265L21.9578 13.7127C21.9858 13.8059 22 13.9027 22 14V16.5C22 18.9853 19.9853 21 17.5 21C15.1837 21 13.2762 19.25 13.0275 17H10.9725C10.7238 19.25 8.81628 21 6.5 21C4.01472 21 2 18.9853 2 16.5V14C2 13.9027 2.01421 13.8059 2.04217 13.7127L5.04217 3.71265ZM4 16.5C4 17.8807 5.11929 19 6.5 19C7.88071 19 9 17.8807 9 16.5C9 15.1193 7.88071 14 6.5 14C5.11929 14 4 15.1193 4 16.5ZM17.5 14C18.8807 14 20 15.1193 20 16.5C20 17.8807 18.8807 19 17.5 19C16.1193 19 15 17.8807 15 16.5C15 15.1193 16.1193 14 17.5 14Z" fill="#424D57"/>
</svg>
