<svg viewBox="2 2 20 20" fill="none" xmlns="http://www.w3.org/2000/svg">
<path d="M10.8416 6.67091C10.6297 6.69351 10.7029 6.88841 10.5849 6.89263C10.4688 6.8969 10.4924 6.64448 10.8416 6.67091ZM11.4803 6.70307C11.6865 6.6501 11.6876 6.85771 11.8002 6.81993C11.9097 6.78323 11.7985 6.55616 11.4803 6.70307ZM18.5868 20.3012C17.9498 20.6214 17.119 21.3329 16.8083 21.6277C16.5799 21.8463 15.6227 21.9547 15.091 21.681C14.4607 21.3566 14.7951 20.8502 13.822 20.8263C13.3383 20.815 12.868 20.8107 12.3966 20.8164C11.9796 20.822 11.563 20.8348 11.1379 20.857C9.67682 20.8697 9.53385 21.8251 8.60315 21.7901C7.96616 21.7665 7.16226 21.264 5.7817 20.9749C4.81148 20.7729 3.88002 20.7249 3.68052 20.2956C3.48135 19.8676 3.92629 19.3878 3.95591 18.9613C3.99224 18.4052 3.53469 17.6489 3.8729 17.3558C4.15218 17.1132 4.76409 17.2912 5.15849 17.0709C5.57793 16.8382 5.74635 16.6444 5.74635 16.1335C5.90066 16.6553 5.73932 17.0878 5.39259 17.2997C5.18638 17.4243 4.80294 17.4903 4.48766 17.4582C4.23801 17.4346 4.08337 17.4751 4.00748 17.5702C3.91073 17.6938 3.9418 17.9099 4.06359 18.1976C4.18612 18.4854 4.33335 18.6679 4.31357 19.0199C4.29379 19.3723 3.90646 19.7907 3.96829 20.0869C3.99229 20.2006 4.10418 20.2956 4.37254 20.3715C4.81743 20.4965 5.61149 20.6099 6.39501 20.8008C7.26604 21.0145 8.16534 21.417 8.72423 21.3396C10.3954 21.107 9.4424 19.3147 9.17198 18.8886C7.76141 16.668 6.8286 15.2144 6.08184 15.7914C5.88693 15.9414 5.87952 15.4136 5.88801 15.2102C5.92016 14.4804 6.2909 14.2251 6.51121 13.657C6.92362 12.5932 7.24523 11.3747 7.88329 10.7448C8.35818 10.1372 9.09895 9.13691 9.24088 8.60905C9.12154 7.46123 9.08484 6.25298 9.06641 5.19482C9.04841 4.06921 9.22673 3.08165 10.4978 2.39104C10.8078 2.22262 11.2107 2.16083 11.6376 2.15662C12.4009 2.14813 13.2426 2.36174 13.7804 2.76037C14.6376 3.3959 15.1764 4.74857 15.1136 5.72132C15.0627 6.47019 15.1976 7.25507 15.4377 8.06188C15.7251 9.0201 16.1799 9.69379 16.9023 10.46C17.7729 11.3833 18.4505 13.2023 18.6412 14.3544C18.8209 15.4306 18.5868 16.0958 18.3506 16.1294C17.999 16.1812 17.7797 17.2984 16.6781 17.2465C15.9751 17.2126 15.9062 16.7974 15.7114 16.4436C15.3981 15.878 15.0797 16.0549 14.9519 16.6445C14.8859 16.946 14.9339 17.3785 15.0306 17.715C15.2269 18.4042 15.1595 19.0581 15.0423 19.8508C14.8174 21.3722 16.1054 21.6599 16.9743 20.9369C17.8316 20.2229 18.0152 20.1092 19.1002 19.7389C20.7364 19.1785 20.1867 18.6831 19.3068 18.3873C18.518 18.1221 18.4855 16.7892 18.768 16.5378C18.8309 17.9692 19.5758 18.1768 19.8919 18.3721C21.2454 19.2123 19.3805 19.9015 18.5868 20.3012ZM14.9434 16.1084C15.0923 15.9315 15.2678 15.9118 15.4991 15.9075C15.5344 15.0351 16.8927 15.0993 17.3376 15.4644C17.3376 15.2621 16.9107 15.0809 16.7398 14.9955C17.036 14.0104 16.8969 13.6146 16.7006 12.6842C16.5516 11.9742 15.9047 11.0188 15.3981 10.7197C15.5259 10.8316 15.7688 11.1576 16.0255 11.6356C16.4676 12.4586 16.904 13.675 16.6134 14.6964C16.5015 15.0866 16.2458 15.1357 16.0704 15.1554C15.2915 15.2366 15.7494 14.2349 15.426 12.8551C15.0659 11.3213 14.6965 11.2063 14.6037 11.0859C14.1574 9.09027 13.661 9.28944 13.5205 8.53598C13.3944 7.86932 14.1016 7.31788 13.1402 7.13141C12.8471 7.07385 12.4277 6.77657 12.2603 6.75538C12.0947 6.73279 12.0135 5.65518 12.6211 5.6114C13.2288 5.56654 13.3449 6.29779 13.2256 6.58555C13.0529 6.87051 13.2383 6.9771 13.5388 6.88429C13.7846 6.80873 13.626 6.16855 13.6846 6.07363C13.5261 5.15704 13.1434 5.02499 12.7447 4.94802C11.2318 5.06418 11.9111 6.73991 11.7579 6.57852C11.5436 6.35113 10.8992 6.56582 10.9024 6.41999C10.9161 5.56551 10.6298 5.07018 10.2354 5.05991C9.79616 5.04721 9.61504 5.6623 9.58851 6.00862C9.56343 6.34124 9.78627 7.03434 9.94898 6.98137C10.0556 6.94607 10.2381 6.73176 10.0429 6.73279C9.94194 6.73419 9.78941 6.49729 9.77352 6.20915C9.75834 5.92176 9.86357 5.63258 10.2368 5.64777C10.6746 5.66474 10.6703 6.51988 10.6227 6.55307C10.4825 6.65015 10.3028 6.83835 10.2834 6.87046C10.1443 7.10352 9.86498 7.16104 9.7626 7.26346C9.5677 7.45832 9.52813 7.67863 9.67429 7.76305C10.175 8.05044 10.0122 8.37032 10.7127 8.39999C11.1727 8.41804 11.5191 8.32832 11.8323 8.23265C12.0763 8.15887 12.8598 7.99185 13.025 7.70413C13.0967 7.58198 13.1867 7.57771 13.2467 7.61268C13.3519 7.67338 13.3746 7.87677 13.1037 7.94952C12.7164 8.05476 12.3252 8.26129 11.9823 8.39863C11.6402 8.53738 11.5307 8.59073 11.208 8.65002C10.4806 8.78029 9.94363 8.38734 10.4316 8.85904C10.5933 9.01621 10.749 9.11432 11.1674 9.0974C12.0837 9.06102 13.1104 7.96082 13.2117 8.45338C13.2329 8.55435 12.9215 8.69169 12.6786 8.81244C11.8196 9.23512 11.2147 10.0698 10.6646 9.78093C10.1724 9.52143 9.68273 8.30048 9.69116 8.84741C9.70495 9.69088 8.57929 10.4416 9.09726 11.4016C8.76187 11.493 7.99705 13.1066 7.88727 13.9469C7.82727 14.4228 7.93288 15.0206 7.81879 15.3546C7.65318 15.8373 6.90116 14.8946 7.14121 13.7393C7.18434 13.5359 7.14796 13.4928 7.09354 13.591C6.78782 14.1312 6.95582 14.8847 7.19699 15.4136C7.3026 15.6424 7.5494 15.7434 7.73188 15.9471C8.12591 16.3877 9.6336 17.506 9.90688 17.774C10.238 18.0995 10.1452 18.8462 9.44113 18.9176C9.80198 19.5983 10.1536 19.6629 10.1483 20.7758C10.5565 20.5566 10.3923 20.0771 10.2215 19.7611C10.1021 19.545 9.94607 19.4469 9.97996 19.3964C10.0054 19.3583 10.2155 19.1775 10.3419 19.3191C10.7137 19.7357 11.4156 19.8103 12.1705 19.7163C12.9239 19.6206 13.7322 19.3573 14.1057 18.7566C14.2808 18.4745 14.4073 18.3746 14.4884 18.424C14.5686 18.4745 14.6036 18.6736 14.595 18.9935C14.5855 19.3487 14.4369 19.7176 14.3444 20.0125C14.2401 20.3465 14.2081 20.5834 14.5336 20.5961C14.6303 19.9785 14.8002 19.3709 14.8492 18.7566C14.9041 18.0577 14.3978 16.7566 14.9434 16.1084ZM10.3251 6.18548C10.3 6.32319 10.3099 6.40898 10.4053 6.40898C10.4208 6.40898 10.4374 6.40579 10.4434 6.37087C10.4893 6.09721 10.3477 5.89808 10.2901 5.88219C10.1556 5.84863 10.1725 6.04073 10.2424 6.02554C10.2848 6.01701 10.342 6.08727 10.3251 6.18548ZM12.8121 5.80944C12.6744 5.82215 12.714 5.89063 12.7825 5.91041C12.8721 5.93723 12.9566 6.08976 12.976 6.25574C12.9774 6.27093 13.0911 6.23174 13.0911 6.19537C13.0996 5.92982 12.8721 5.8041 12.8121 5.80944Z" fill="black"/>
</svg>
