<svg width="16" height="16" viewBox="0 0 16 16" fill="none" xmlns="http://www.w3.org/2000/svg">
<path d="M12.0001 5.3335H11.3334V4.66683C11.3334 2.82683 9.84008 1.3335 8.00008 1.3335C6.16008 1.3335 4.66675 2.82683 4.66675 4.66683V5.3335H4.00008C3.26675 5.3335 2.66675 5.9335 2.66675 6.66683V12.0002C2.66675 12.7335 3.26675 13.3335 4.00008 13.3335H12.0001C12.7334 13.3335 13.3334 12.7335 13.3334 12.0002V6.66683C13.3334 5.9335 12.7334 5.3335 12.0001 5.3335ZM8.00008 10.6668C7.26675 10.6668 6.66675 10.0668 6.66675 9.3335C6.66675 8.60016 7.26675 8.00016 8.00008 8.00016C8.73341 8.00016 9.33341 8.60016 9.33341 9.3335C9.33341 10.0668 8.73341 10.6668 8.00008 10.6668ZM6.00008 5.3335V4.66683C6.00008 3.56016 6.89341 2.66683 8.00008 2.66683C9.10675 2.66683 10.0001 3.56016 10.0001 4.66683V5.3335H6.00008Z" fill="#424D57"/>
</svg>
