<svg width="24" height="24" viewBox="0 0 24 24" fill="none" xmlns="http://www.w3.org/2000/svg">
<path d="M15.4999 13.9999H14.7099L14.4299 13.7299C15.6299 12.3299 16.2499 10.4199 15.9099 8.38989C15.4399 5.60989 13.1199 3.38989 10.3199 3.04989C6.08989 2.52989 2.52989 6.08989 3.04989 10.3199C3.38989 13.1199 5.60989 15.4399 8.38989 15.9099C10.4199 16.2499 12.3299 15.6299 13.7299 14.4299L13.9999 14.7099V15.4999L18.2499 19.7499C18.6599 20.1599 19.3299 20.1599 19.7399 19.7499C20.1499 19.3399 20.1499 18.6699 19.7399 18.2599L15.4999 13.9999ZM9.49989 13.9999C7.00989 13.9999 4.99989 11.9899 4.99989 9.49989C4.99989 7.00989 7.00989 4.99989 9.49989 4.99989C11.9899 4.99989 13.9999 7.00989 13.9999 9.49989C13.9999 11.9899 11.9899 13.9999 9.49989 13.9999Z" fill="#424D57"/>
</svg>
