<svg width="24" height="24" viewBox="0 0 24 24" fill="none" xmlns="http://www.w3.org/2000/svg">
<path d="M18.3199 5.67993C17.9599 6.03993 17.9299 6.59993 18.2499 6.99993C19.6999 8.81993 20.4599 11.3099 19.7799 13.9199C18.9899 16.9699 16.5999 19.2499 13.5699 19.8599C8.4699 20.8699 3.9999 16.9299 3.9999 11.9999C3.9999 7.91993 7.0499 4.55993 10.9999 4.06993V6.08993C7.8699 6.61993 5.5699 9.54993 6.0699 12.9199C6.4599 15.5299 8.6299 17.6299 11.2499 17.9499C14.8899 18.3999 17.9999 15.5599 17.9999 11.9999C17.9999 10.7499 17.6199 9.59993 16.9699 8.63993C16.6299 8.13993 15.8999 8.10993 15.4699 8.52993L15.4599 8.53993C15.1199 8.87993 15.0899 9.40993 15.3499 9.80993C15.9499 10.7299 16.1899 11.9099 15.8399 13.1299C15.4499 14.4999 14.2999 15.5899 12.8999 15.8999C10.2999 16.4699 7.9999 14.5099 7.9999 11.9999C7.9999 10.1399 9.2799 8.58993 10.9999 8.13993V10.2799C10.3999 10.6299 9.9999 11.2599 9.9999 11.9999C9.9999 13.0999 10.8999 13.9999 11.9999 13.9999C13.0999 13.9999 13.9999 13.0999 13.9999 11.9999C13.9999 11.2599 13.5999 10.6199 12.9999 10.2799V2.70993C12.9999 2.31993 12.6799 1.99993 12.2899 1.99993C6.9299 1.79993 2.3099 6.05993 2.0199 11.3999C1.6599 17.9499 7.4299 23.2199 14.0299 21.7999C17.9099 20.9699 20.9099 17.9999 21.7799 14.1299C22.4899 10.9699 21.5799 7.96993 19.8099 5.75993C19.4399 5.28993 18.7399 5.25993 18.3199 5.67993Z" fill="#424D57"/>
</svg>
