<svg width="24" height="24" viewBox="0 0 24 24" fill="none" xmlns="http://www.w3.org/2000/svg">
<path d="M17.568 19.3308C17.8224 19.0764 17.9208 18.708 17.85 18.354L15.8568 9.72841L19.7448 5.83921C20.3328 5.25121 20.3328 4.30441 19.7448 3.71761C19.158 3.12961 18.2112 3.12961 17.6244 3.71761L13.7352 7.60561L5.10717 5.61361C4.76157 5.53441 4.38717 5.64121 4.13277 5.89561C3.63717 6.39001 3.75717 7.23241 4.38717 7.56361L10.5528 10.788L6.66477 14.6772L4.43637 14.3592C4.28037 14.3316 4.12437 14.388 4.01277 14.5008L3.59517 14.9184C3.36117 15.1512 3.41877 15.5472 3.70797 15.7104L6.31077 17.1528L7.75317 19.7544C7.91517 20.0448 8.31117 20.1012 8.54517 19.8684L8.96157 19.4508C9.07557 19.338 9.13197 19.182 9.10317 19.026L8.78517 16.8L12.6732 12.912L15.8988 19.0776C16.2312 19.7064 17.0724 19.8264 17.5668 19.332L17.568 19.3308Z" fill="#424D57"/>
</svg>
