<svg width="48" height="48" viewBox="0 0 48 48" fill="none" xmlns="http://www.w3.org/2000/svg">
<path d="M8.82784 24.6601C9.47934 15.392 14.5285 11.4199 24.7081 9.76489C34.0734 9.76489 41.4028 16.7988 40.5884 26.3152C39.774 35.8316 33.2589 42.0379 24.7081 41.6242C16.1572 41.2104 8.01347 36.2453 8.82784 24.6601Z" fill="#FFD000"/>
<path d="M7.05761 22.2262C7.72358 12.7521 12.885 8.69181 23.2907 7C32.8642 7 40.3564 14.1902 39.5239 23.9181C38.6915 33.6459 32.0316 39.9902 23.2907 39.5672C14.5498 39.1443 6.22514 34.0689 7.05761 22.2262Z" stroke="#1B1B20" stroke-width="2.5"/>
<path d="M23.2944 14.6368L23.2944 23.588" stroke="#1B1B20" stroke-width="2.5" stroke-linecap="round" stroke-linejoin="round"/>
<path d="M23.5244 24.0493L29.67 29.3151" stroke="#1B1B20" stroke-width="2.5" stroke-linecap="round" stroke-linejoin="round"/>
<path d="M7 23.2935H9.86255" stroke="#1B1B20" stroke-width="2.5" stroke-linecap="round" stroke-linejoin="round"/>
<path d="M23.2939 38.9601L23.2939 36.8552" stroke="#1B1B20" stroke-width="2.5" stroke-linecap="round" stroke-linejoin="round"/>
<path d="M23.2944 7L23.2944 8.63805" stroke="#1B1B20" stroke-width="2.5" stroke-linecap="round" stroke-linejoin="round"/>
<path d="M39.1821 22.5844L37.5441 22.5844" stroke="#1B1B20" stroke-width="2.5" stroke-linecap="round" stroke-linejoin="round"/>
</svg>
