<svg width="24" height="24" viewBox="0 0 24 24" fill="none" xmlns="http://www.w3.org/2000/svg">
<path fill-rule="evenodd" clip-rule="evenodd" d="M20.6796 3.99967C21.2496 3.99967 21.7596 4.35007 21.9396 4.87927C22.1196 5.43967 21.8904 6.04927 21.3804 6.36007L20.5104 6.87967L20.9004 8.11927C21.1296 8.70007 20.9496 9.36967 20.4504 9.73927C20.22 9.90967 19.9404 9.99967 19.6704 9.99967C19.3596 9.99967 19.0596 9.88927 18.81 9.67927L18 8.97967L17.19 9.67927C16.9404 9.88927 16.6404 9.99967 16.3296 9.99967C16.0596 9.99967 15.78 9.90967 15.5496 9.73927C15.06 9.36967 14.8704 8.70007 15.0996 8.11927L15.5004 6.87967L14.6304 6.36007C14.1096 6.04927 13.8804 5.43967 14.07 4.87927C14.25 4.35007 14.76 3.99967 15.33 3.99967H16.4004L16.71 3.03967C16.8504 2.43007 17.3904 1.99927 18 1.99927C18.6096 1.99927 19.1496 2.43007 19.29 3.03007L19.5996 3.99967H20.6796ZM17.0004 6.00007C17.0004 6.54967 17.4504 6.99967 18 6.99967C18.5496 6.99967 18.9996 6.54967 18.9996 6.00007C18.9996 5.44927 18.5496 4.99927 18 4.99927C17.4504 4.99927 17.0004 5.44927 17.0004 6.00007ZM14.4084 12.0001H15.4992C15.7788 12.0001 15.9984 12.2197 16.0092 12.5101C16.0092 12.7897 15.7884 13.0093 15.5088 13.0093H14.6292C14.7288 14.1397 14.358 15.3097 13.4892 16.1797C13.3188 16.3393 13.1388 16.4797 12.9588 16.6093L13.4784 17.9797C14.0388 19.5601 13.2192 21.2797 11.658 21.8293C11.328 21.9397 10.9884 21.9997 10.6488 21.9997C10.2084 21.9997 9.77884 21.9001 9.35884 21.6997C8.87884 21.4693 8.48884 21.1201 8.19844 20.7001C6.85804 21.0793 5.34844 20.7601 4.28884 19.6993C3.22804 18.6397 2.90884 17.1397 3.28804 15.7897C2.86804 15.4993 2.51884 15.1093 2.28844 14.6293C1.93804 13.9093 1.89844 13.0897 2.16844 12.3397C2.71804 10.7881 4.44004 9.96967 6.00004 10.5193L7.39924 11.0497C7.53004 10.8601 7.66924 10.6801 7.83004 10.5193C8.61004 9.73927 9.63964 9.34927 10.6596 9.34927C10.7352 9.34927 10.8144 9.35887 10.8924 9.36847L11.0004 9.38047V8.49967C11.0004 8.22007 11.22 7.99927 11.4996 7.99927C11.7792 7.99927 12 8.22007 12 8.49967V9.58927C12.54 9.78007 13.0404 10.0693 13.4796 10.5097C13.92 10.9501 14.22 11.4601 14.4096 12.0001H14.4084ZM4.09804 13.7797C4.21804 14.0197 4.41844 14.1997 4.66804 14.2897C5.84884 14.7097 7.32844 14.1997 8.47804 13.5997L5.31844 12.4093C4.81804 12.2293 4.24804 12.4993 4.05844 13.0201C3.96844 13.2697 3.97804 13.5397 4.09804 13.7797ZM10.2288 19.8997C10.4688 20.0197 10.7388 20.0293 10.9884 19.9393C11.508 19.7593 11.778 19.1797 11.598 18.6601L10.4184 15.5293C9.80884 16.6801 9.29884 18.1501 9.71884 19.3297C9.80884 19.5793 9.98884 19.7893 10.2288 19.8997ZM11.5884 12.9901L12.198 14.5993C12.8388 13.8097 12.798 12.6601 12.0684 11.9293C11.6988 11.5501 11.1888 11.3401 10.6584 11.3401C10.188 11.3401 9.75844 11.5093 9.39844 11.7997L10.998 12.3997C11.0088 12.4093 11.0184 12.4201 11.028 12.4201C11.0616 12.4261 11.0868 12.4417 11.1108 12.4573L11.148 12.4801C11.1888 12.4993 11.2284 12.5197 11.2584 12.5497L11.4384 12.7297C11.4684 12.7693 11.4888 12.7993 11.508 12.8401L11.568 12.9601C11.5788 12.9697 11.5884 12.9793 11.5884 12.9901Z" fill="#424D57"/>
</svg>
