<svg width="24" height="24" viewBox="0 0 24 24" fill="none" xmlns="http://www.w3.org/2000/svg">
<path fill-rule="evenodd" clip-rule="evenodd" d="M9.68525 1.50911C10.1773 1.5792 10.5194 2.03494 10.4493 2.52703L9.81423 6.98582H15.5168L16.1881 2.2732C16.2582 1.78111 16.7139 1.43902 17.206 1.50911C17.6982 1.5792 18.0401 2.03494 17.9701 2.52703L17.335 6.98582H20.4C20.897 6.98582 21.2999 7.38877 21.2999 7.88582C21.2999 8.38289 20.897 8.78582 20.4 8.78582H17.0786L16.2606 14.5286H20.0089C20.5059 14.5286 20.9089 14.9316 20.9089 15.4286C20.9089 15.9258 20.5059 16.3286 20.0089 16.3286H16.0042L15.2353 21.7271C15.1652 22.2191 14.7094 22.5612 14.2173 22.4911C13.7253 22.421 13.3832 21.9653 13.4533 21.4732L14.186 16.3286H8.48346L7.71452 21.7271C7.64443 22.2191 7.18869 22.5612 6.6966 22.4911C6.20452 22.421 5.86242 21.9653 5.93251 21.4732L6.66529 16.3286H3.59995C3.1029 16.3286 2.69995 15.9258 2.69995 15.4286C2.69995 14.9316 3.1029 14.5286 3.59995 14.5286H6.92167L7.73968 8.78582H4.67473C4.17767 8.78582 3.77473 8.38289 3.77473 7.88582C3.77473 7.38877 4.17767 6.98582 4.67473 6.98582H7.99607L8.66733 2.2732C8.73743 1.78111 9.19316 1.43902 9.68525 1.50911ZM9.55784 8.78582L8.73984 14.5286H14.4424L15.2605 8.78582H9.55784Z" fill="#424D57"/>
</svg>
