<svg width="24" height="24" viewBox="0 0 24 24" fill="none" xmlns="http://www.w3.org/2000/svg">
<path d="M19.15 14.85L17.71 16.29L14.83 13.41L13.41 14.83L16.29 17.71L14.85 19.15C14.54 19.46 14.76 20 15.21 20H19.5C19.78 20 20 19.78 20 19.5V15.21C20 14.76 19.46 14.54 19.15 14.85ZM20 8.79V4.5C20 4.22 19.78 4 19.5 4L15.21 4C14.76 4 14.54 4.54 14.86 4.85L16.3 6.29L11.6 11L5 11C4.45 11 4 11.45 4 12C4 12.55 4.45 13 5 13H12C12.26 13 12.52 12.89 12.71 12.71L17.72 7.71L19.16 9.15C19.46 9.46 20 9.24 20 8.79Z" fill="#424D57"/>
</svg>
