<svg width="24" height="24" viewBox="0 0 24 24" fill="none" xmlns="http://www.w3.org/2000/svg">
<path fill-rule="evenodd" clip-rule="evenodd" d="M17.42 17.42C18.41 16.21 19 14.68 19 13C19 10.82 17.99 8.86 16.42 7.58L17.84 6.16C19.77 7.81 21 10.26 21 13C21 15.23 20.18 17.27 18.84 18.84L17.42 17.42ZM12 1L16 5L12 9V6C8.14 6 5 9.14 5 13C5 14.68 5.59 16.21 6.58 17.42L5.16 18.84C3.82 17.27 3 15.23 3 13C3 8.03 7.03 4 12 4V1ZM8 14C8 11.79 9.79 10 12 10C14.21 10 16 11.79 16 14C16 16.21 14.21 18 12 18C9.79 18 8 16.21 8 14ZM13.12 12.5C13.12 11.89 12.62 11.38 12 11.38C11.38 11.38 10.88 11.89 10.88 12.5C10.88 13.11 11.39 13.62 12 13.62C12.61 13.62 13.12 13.11 13.12 12.5ZM9.76 15.58C10.26 16.29 11.07 16.75 12 16.75C12.93 16.75 13.74 16.29 14.24 15.58C14.19 14.86 12.73 14.5 12 14.5C11.27 14.5 9.81 14.86 9.76 15.58Z" fill="#424D57"/>
</svg>
