<svg width="24" height="24" viewBox="0 0 24 24" fill="none" xmlns="http://www.w3.org/2000/svg">
<path d="M18.2901 17.29C18.6801 16.9 18.6801 16.27 18.2901 15.88L14.4201 12L18.3001 8.11998C18.6901 7.72998 18.6901 7.09998 18.3001 6.70998C17.9101 6.31998 17.2801 6.31998 16.8901 6.70998L12.3001 11.3C11.9101 11.69 11.9101 12.32 12.3001 12.71L16.8901 17.3C17.2701 17.68 17.9001 17.68 18.2901 17.29Z" fill="#424D57"/>
<path d="M11.7 17.29C12.09 16.9 12.09 16.27 11.7 15.88L7.82998 12L11.71 8.11998C12.1 7.72998 12.1 7.09998 11.71 6.70998C11.32 6.31998 10.69 6.31998 10.3 6.70998L5.70998 11.3C5.31998 11.69 5.31998 12.32 5.70998 12.71L10.3 17.3C10.68 17.68 11.31 17.68 11.7 17.29Z" fill="#424D57"/>
</svg>
