<svg width="24" height="24" viewBox="0 0 24 24" fill="none" xmlns="http://www.w3.org/2000/svg">
<path fill-rule="evenodd" clip-rule="evenodd" d="M12 21C16.9705 21 21 16.9705 21 12C21 7.02938 16.9705 2.99995 12 2.99995C7.02938 2.99995 2.99995 7.02938 2.99995 12C2.99995 16.9705 7.02938 21 12 21ZM12 22.7999C17.9647 22.7999 22.7999 17.9647 22.7999 12C22.7999 6.03528 17.9647 1.19995 12 1.19995C6.03528 1.19995 1.19995 6.03528 1.19995 12C1.19995 17.9647 6.03528 22.7999 12 22.7999Z" fill="#424D57"/>
<path d="M8.69995 11.3999C9.52838 11.3999 10.2 10.7283 10.2 9.8999C10.2 9.07148 9.52838 8.3999 8.69995 8.3999C7.87152 8.3999 7.19995 9.07148 7.19995 9.8999C7.19995 10.7283 7.87152 11.3999 8.69995 11.3999Z" fill="#424D57"/>
<path d="M16.8 9.8999C16.8 10.7283 16.1285 11.3999 15.3 11.3999C14.4716 11.3999 13.8 10.7283 13.8 9.8999C13.8 9.07147 14.4716 8.3999 15.3 8.3999C16.1285 8.3999 16.8 9.07147 16.8 9.8999Z" fill="#424D57"/>
<path fill-rule="evenodd" clip-rule="evenodd" d="M8.11563 13.5464C8.58719 13.3892 9.09687 13.6441 9.25406 14.1156C9.68123 15.3971 11.0002 15.9002 12.0002 15.9002C13.0003 15.9002 14.3192 15.3971 14.7464 14.1156C14.9036 13.6441 15.4133 13.3892 15.8849 13.5464C16.3564 13.7036 16.6112 14.2133 16.454 14.6849C15.6812 17.0034 13.4002 17.7002 12.0002 17.7002C10.6003 17.7002 8.31926 17.0034 7.54643 14.6849C7.38925 14.2133 7.64409 13.7036 8.11563 13.5464Z" fill="#424D57"/>
</svg>
