<svg width="24" height="24" viewBox="0 0 24 24" fill="none" xmlns="http://www.w3.org/2000/svg">
<path d="M12 2.02002C6.49002 2.02002 2.02002 6.49002 2.02002 12C2.02002 17.51 6.49002 21.98 12 21.98C17.51 21.98 21.98 17.51 21.98 12C21.98 6.49002 17.51 2.02002 12 2.02002ZM11.48 17.88V13.74H8.82002C8.45002 13.74 8.20002 13.34 8.38002 13.01L12.06 5.84002C12.29 5.37002 13 5.54002 13 6.07002V10.26H15.54C15.91 10.26 16.15 10.65 15.99 10.98L12.43 18.1C12.19 18.58 11.48 18.41 11.48 17.88Z" fill="#424D57"/>
</svg>
