<svg width="24" height="24" viewBox="0 0 24 24" fill="none" xmlns="http://www.w3.org/2000/svg">
<path fill-rule="evenodd" clip-rule="evenodd" d="M4 2H20C21.1 2 22 2.9 22 4V20C22 21.1 21.1 22 20 22H4C2.9 22 2 21.1 2 20V4C2 2.9 2.9 2 4 2ZM6 6.5C6 5.94772 6.44771 5.5 7 5.5H17C17.5523 5.5 18 5.94772 18 6.5C18 7.05228 17.5523 7.5 17 7.5H13.0781C13.035 7.5 13 7.53498 13 7.57812L13 17.5C13 18.0523 12.5523 18.5 12 18.5C11.4477 18.5 11 18.0523 11 17.5L11 7.5H7C6.44772 7.5 6 7.05228 6 6.5Z" fill="#424D57"/>
</svg>
