<svg width="24" height="24" viewBox="0 0 24 24" fill="none" xmlns="http://www.w3.org/2000/svg">
<path d="M9.9996 4.99927H3.9996C3.45 4.99927 3 5.44927 3 6.00007C3 6.54967 3.45 6.99967 3.9996 6.99967H6V9.99967C6 10.5493 6.45 10.9993 6.9996 10.9993C7.5504 10.9993 8.0004 10.5493 8.0004 9.99967V6.99967H9.9996C10.5504 6.99967 11.0004 6.54967 11.0004 6.00007C11.0004 5.44927 10.5504 4.99927 9.9996 4.99927ZM9.9996 1.99927H3.9996C3.45 1.99927 3 2.44927 3 3.00007C3 3.54967 3.45 3.99967 3.9996 3.99967H9.9996C10.5504 3.99967 11.0004 3.54967 11.0004 3.00007C11.0004 2.44927 10.5504 1.99927 9.9996 1.99927ZM20.8908 13.1101C20.5008 12.7201 19.8708 12.7201 19.4808 13.1101L13.1208 19.4701C12.7308 19.8601 12.7308 20.4901 13.1208 20.8801C13.5108 21.2701 14.1408 21.2701 14.5308 20.8801L20.8908 14.5201C21.2808 14.1301 21.2808 13.5001 20.8908 13.1101ZM14.4996 15.9997C15.3276 15.9997 15.9996 15.3277 15.9996 14.4997C15.9996 13.6717 15.3276 12.9997 14.4996 12.9997C13.6716 12.9997 12.9996 13.6717 12.9996 14.4997C12.9996 15.3277 13.6716 15.9997 14.4996 15.9997ZM19.5 21.0001C20.328 21.0001 21 20.3281 21 19.5001C21 18.6721 20.328 18.0001 19.5 18.0001C18.672 18.0001 18 18.6721 18 19.5001C18 20.3281 18.672 21.0001 19.5 21.0001ZM15.5004 10.9993C16.8804 10.9993 18 9.87967 18 8.49967V3.99967H20.0004C20.55 3.99967 21 3.54967 21 3.00007C21 2.44927 20.55 1.99927 20.0004 1.99927H18C17.4504 1.99927 17.0004 2.44927 17.0004 3.00007V6.51007C16.5804 6.18967 16.0704 6.00007 15.5004 6.00007C14.1204 6.00007 12.9996 7.11967 12.9996 8.49967C12.9996 9.87967 14.1204 10.9993 15.5004 10.9993ZM10.4508 18.0901C10.8408 17.7001 10.8408 17.0701 10.4508 16.6801C10.0608 16.2901 9.4308 16.2901 9.0408 16.6801L8.3304 17.3893L7.62 16.6801L7.9704 16.3297C8.9508 15.3493 8.9508 13.7701 7.9704 12.7897C7.4808 12.3001 6.84 12.0601 6.2004 12.0601C5.5608 12.0601 4.92 12.3001 4.4304 12.7897C3.45 13.7701 3.45 15.3493 4.4304 16.3297L4.7808 16.6801L3.72 17.7397C2.7408 18.7201 2.7408 20.2993 3.72 21.2797C4.2204 21.7597 4.86 21.9997 5.5008 21.9997C6.1404 21.9997 6.78 21.7597 7.2708 21.2701L8.3304 20.2093L9.0408 20.9197C9.4308 21.3097 10.0608 21.3097 10.4508 20.9197C10.8408 20.5297 10.8408 19.8997 10.4508 19.5097L9.7404 18.8005L10.4508 18.0901ZM5.85 14.1997C5.97 14.0797 6.1104 14.0497 6.2004 14.0497C6.2904 14.0497 6.4308 14.0797 6.5508 14.1997C6.7404 14.4001 6.7404 14.7097 6.5508 14.9101L6.2004 15.2593L5.85 14.8993C5.73 14.7793 5.7 14.6401 5.7 14.5501C5.7 14.4601 5.73 14.3197 5.85 14.1997ZM5.85 19.8493C5.73 19.9693 5.5908 19.9993 5.5008 19.9993C5.4108 19.9993 5.2704 19.9705 5.1504 19.8493C5.0304 19.7293 5.0004 19.5901 5.0004 19.5001C5.0004 19.4101 5.0304 19.2697 5.1504 19.1497L6.21 18.0901L6.9204 18.7993L5.85 19.8493Z" fill="#424D57"/>
</svg>
