<svg width="24" height="24" viewBox="0 0 24 24" fill="none" xmlns="http://www.w3.org/2000/svg">
<path d="M12.09 2.90995C10.08 0.899954 7.07 0.489954 4.65 1.66995L8.28 5.29995C8.67 5.68995 8.67 6.31995 8.28 6.70995L6.69 8.29995C6.3 8.69995 5.67 8.69995 5.28 8.29995L1.65 4.66995C0.480003 7.09995 0.890003 10.09 2.9 12.1C4.76 13.96 7.48 14.45 9.79 13.58L17.75 21.54C18.78 22.57 20.44 22.57 21.46 21.54C22.49 20.51 22.49 18.85 21.46 17.83L13.54 9.89995C14.46 7.55995 13.98 4.79995 12.09 2.90995Z" fill="#424D57"/>
</svg>
