<svg xmlns="http://www.w3.org/2000/svg" xmlns:xlink="http://www.w3.org/1999/xlink" width="398" height="186" viewBox="0 0 398 186">
    <defs>
        <path id="a" d="M.34.247h366.372v161.445H.34z"/>
    </defs>
    <g fill="none" fill-rule="evenodd">
        <g transform="translate(31.181 .103)">
            <mask id="b" fill="#fff">
                <use xlink:href="#a"/>
            </mask>
            <path fill="#CAD6DE" d="M206.384.24699999999998568c-1.93 0-3.964.08-6.217.243-2.562.187-5.246.53-8.205 1.05-3.182.56-6.238 1.344-8.807 2.038-2.792.754-5.528 1.67-8.09 2.545l-.435.148c-1.181.403-2.403.82-3.597 1.258l-3.568 1.31-3.696 1.357c-.566.208-1.134.414-1.7.62-1.065.387-2.165.786-3.24 1.194-3.467 1.314-6.934 2.626-10.4 3.937l-2.203.833c-1.056.4-2.106.856-3.122 1.297l-.082.035-.108.047c-2.531 1.102-5.062 2.203-7.594 3.303-1.012.441-2.024.881-3.037 1.32-.104.046-.21.09-.315.134-.248.104-.503.21-.744.335l-1.77.924-3.714 1.938-3.326 1.735-3.562 1.858c-.903.472-1.796.992-2.659 1.495l-.148.086-2.723 1.587-4.571 2.663-1.2.696c-.873.505-1.747 1.01-2.615 1.528l-6.016 3.587-6.016 3.587a674.003 674.003 0 0 0-6.98 4.238c-1.016.622-2.03 1.244-3.048 1.864l-.282.172c-1.677 1.023-3.412 2.081-5.092 3.167a261.563 261.563 0 0 0-6.926 4.622c-2.073 1.434-4.293 3.072-6.985 5.152a161.825 161.825 0 0 0-6.317 5.151c-2.032 1.738-4.154 3.69-6.68 6.142l-.345.335C49.12 76.87 47.955 78 46.854 79.155l-2.303 2.416-1.911 2.004-3.159 3.313c-.209.219-.41.444-.612.67l-.183.204-2.706 3.007c-.371.414-.747.825-1.122 1.236-.798.875-1.623 1.778-2.403 2.693l-4.906 5.758c-.924 1.084-1.847 2.199-2.74 3.277l-.418.504-.97 1.168c-.827.994-1.654 1.988-2.47 2.99l-2.17 2.663-2.17 2.663c-.536.658-1.062 1.344-1.57 2.008l-.313.407a113.806 113.806 0 0 0-2.324 3.115c-1.928 2.689-3.462 5.136-4.689 7.484-.99 1.893-1.947 4.063-3.01 6.829-.657 1.705-1.185 3.39-1.615 4.813-.08.27-.166.54-.252.811-.181.576-.37 1.172-.515 1.766l-.785 3.192c-.076.312-.14.63-.202.946l-.097.482-.07.321c-.06.281-.12.561-.173.845a81.137 81.137 0 0 0-.513 3.095c-.123.849-.216 1.76-.065 2.674.088.54.182 1.02.431 1.443.194.33.554.689.918.913.764.47 1.62.77 2.777.974a15.54 15.54 0 0 0 2.708.214c.556 0 1.155-.02 1.886-.065 1.298-.08 2.603-.297 3.937-.532 1.336-.237 2.614-.514 4.146-.852a114.49 114.49 0 0 0 4.143-1.016l.409-.105c.814-.211 1.657-.43 2.48-.665l7.007-2.016c3.118-.896 6.275-1.848 9.329-2.768l2.49-.75a5904.5 5904.5 0 0 0 21.234-6.438l1.713-.522c2.718-.827 5.488-1.645 8.168-2.437l3.42-1.012.609-.182c.888-.266 1.807-.54 2.72-.78l7.385-1.94c2.01-.529 4.02-1.058 6.03-1.584.214-.056.429-.103.644-.149l.301-.066 3.302-.731.114-.025 4.097-.908 4.098-.908c1.15-.255 2.12-.46 3.116-.633l4.246-.74 4.944-.86c.539-.093 1.078-.19 1.617-.288a110.42 110.42 0 0 1 3.556-.602l7.939-1.16 6.807-.996 13.21-1.5 1-.114 1-.114c.256-.029.517-.04.77-.053.114-.005.227-.01.34-.017l3.89-.228 3.9-.228 3.09-.181 3.375-.199c.114-.006.23-.008.343-.008l.303.003.196.003 1.622.017 1.622.017.19.002 8.286.087.76.005c.861.004 1.75.009 2.624.075l8.573.652 2.105.16 2.106.16.481.032c.356.023.724.046 1.083.092l14.268 1.795.066.01c4.3.636 8.6 1.272 12.9 1.91 2.763.408 5.568.856 8.28 1.29 1.129.181 2.257.362 3.386.54l.957.15c.91.141 1.85.288 2.772.453l6.472 1.163.996.18 1.739.312 1.811.326c.145.025.29.05.436.073.319.052.647.106.964.181 2.175.511 4.35 1.022 6.524 1.535l3.714.872c.164.038.328.075.493.11.338.075.686.151 1.02.249l3.285.963 3.283.963c.456.133.912.264 1.369.394 1.06.303 2.155.616 3.219.963l7.32 2.387c2.891.943 5.823 1.922 8.66 2.87l2.508.837c1.11.37 2.223.734 3.336 1.098 2.24.732 4.555 1.488 6.812 2.289 4.207 1.493 8.414 2.988 12.616 4.49.491.174.969.324 1.543.503l2.005.628 2.005.629c1.353.423 2.74.818 4.082 1.2.505.143 1.01.286 1.514.432l.95.273 4.349 1.253c.592.171 1.19.365 1.767.552.282.092.563.183.845.272l1.04.327 1.377.434 3.36 1.06c.677.214 1.372.412 2.044.604.297.086.595.17.892.257.641.188 1.287.363 1.933.538l.615.167c.257.07.522.124.777.176l.222.045c.163.034.326.07.49.108.337.076.684.155 1.028.204l2.105.296c.558.079 1.13.133 1.682.184l.36.035c.397.04.792.07 1.19.1.235.018.48.026.73.026.5 0 1.044-.034 1.711-.107.515-.058 1.275-.176 1.944-.529a6.212 6.212 0 0 0 1.051-.624c.466-.308.87-.698 1.28-1.104.217-.273.432-.547.644-.823.201-.295.38-.607.53-.928.321-.62.538-1.29.75-1.979.214-.696.334-1.429.45-2.138l.006-.037c.117-.716.187-1.504.22-2.48.028-.841-.034-1.697-.095-2.524l-.016-.214a85.277 85.277 0 0 0-.245-2.593l-.012-.114c-.212-2.024-.625-4.024-.995-5.74-.41-1.906-.97-3.809-1.463-5.443a1.729 1.729 0 0 0 1.108-.505 1.76 1.76 0 0 0 .514-1.238l-.033-.247-.03-.218a1.751 1.751 0 0 0-.451-.774l-.964-1.197a337.82 337.82 0 0 0-2.247-2.775l-.06-.203c-.572-1.902-1.164-3.868-1.82-5.778-.166-.484-.43-.826-.807-1.046a1.764 1.764 0 0 0-1.352-.177c-.525.144-.98.564-1.189 1.095a593.402 593.402 0 0 0-1.617-1.88l-.029-.033-2.818-3.264-2.72-3.15c-.266-.307-.53-.617-.793-.927a75.272 75.272 0 0 0-1.576-1.815c-3.273-3.606-6.548-7.21-9.822-10.814l-6.993-7.698c-.613-.675-1.22-1.375-1.808-2.052a288.71 288.71 0 0 0-.852-.978l-2.876-3.274-2.83-3.22a1220.162 1220.162 0 0 0-6.32-7.15l-3.148-3.525-2.591-2.903-1.932-2.164-.155-.174c-.082-.091-.162-.183-.243-.275a14.888 14.888 0 0 0-.527-.584l-9.663-10-1.054-1.09-1.094-1.13a37.65 37.65 0 0 1-.282-.297c-.188-.2-.376-.399-.573-.59l-3.464-3.34-.112-.108-6.017-5.803-.203-.195-2.236-2.157c-.105-.1-.208-.202-.31-.304-.193-.19-.386-.379-.585-.559l-5.049-4.554-5.047-4.553c-.401-.36-.802-.722-1.202-1.084-.26-.234-.548-.45-.827-.66-.14-.106-.28-.21-.417-.318l-3.184-2.501-3.33-2.617-1.24-.973-1.24-.974-.249-.199c-.274-.219-.558-.445-.853-.645l-5.807-3.95c-.47-.32-.939-.643-1.407-.967-1.196-.826-2.432-1.679-3.681-2.463-5.54-3.477-10.269-6.032-14.881-8.042-4.617-2.013-9.943-3.454-15.83-4.284-2.542-.36-5.236-.6-8.008-.715a64.831 64.831 0 0 0-2.669-.053" mask="url(#b)"/>
        </g>
        <g fill="#3F4B55">
            <path d="M394.085 164.112a3.916 3.916 0 0 1-.14.018l.14-.018m.79-.202c-.222.08-.448.142-.68.183-1.724.204-3.474.287-5.208.335-1.861.052-3.721.11-5.58.149-1.317.027-2.634.054-3.952.083-.712.014-1.425.044-2.137.044l-6.41-.011c-3.282-.006-6.558-.017-9.837-.062-5.32-.07-10.64-.142-15.96-.214-7.991-.107-15.982-.168-23.973-.249-2.715-.027-5.432-.08-8.147-.079l-12.001.007-16.738.01h-1.586c-1.519-.002-3.04-.002-4.557.013l-29.843.335c-6.35.071-12.7.202-19.05.322l-16.761.319c-2.134.04-4.268.06-6.4.128l-29.047.922-6.012.19c-.676.023-1.354.034-2.03.065l-11.021.515c-7.678.36-15.357.702-23.034 1.083-7.991.399-15.984.8-23.976 1.192-16.59.814-33.18 1.627-49.775 2.338-3.253.14-6.506.296-9.76.403-2.5.085-5.003.168-7.503.252l-2.526.084c-1.625.053-3.245.27-4.863.424a1.752 1.752 0 0 0-1.688 1.283c-.204.74.118 1.6.804 1.975.35.205.713.39 1.085.55.36.17.696.252 1.082.328.475.093.92.074 1.35-.176.314-.184.566-.466.714-.797.505-.041 1.01-.074 1.516-.09l3.162-.107c2.568-.085 5.134-.17 7.702-.257 3.918-.13 7.834-.329 11.751-.497 8.31-.355 16.619-.752 24.929-1.14 15.84-.74 31.68-1.556 47.519-2.344 8.054-.401 16.11-.755 24.164-1.13l6.485-.304c.68-.031 1.36-.072 2.04-.094 3.46-.11 6.919-.219 10.377-.33l27.036-.857c2.74-.087 5.482-.105 8.22-.157l17.197-.326c6.172-.116 12.341-.226 18.514-.295l28.418-.319c1.727-.019 3.456-.013 5.184-.009.818.001 1.637.004 2.457.002l17.157-.009c3.207-.003 6.412-.003 9.617-.005 1.033-.002 2.068.02 3.101.03l7.397.075c7.778.079 15.557.146 23.334.25 5.298.07 10.595.143 15.892.214 3.553.048 7.106.033 10.657.038 1.34.003 2.681.028 4.02 0l6.711-.142c.725-.015 1.45-.04 2.175-.06.91-.026 1.823-.033 2.733-.078l2.863-.14c.49-.024.981-.084 1.471-.126.73-.061 1.45-.154 2.151-.366.915-.275 1.483-1.214 1.224-2.15a1.79 1.79 0 0 0-1.693-1.289c-.153 0-.309.022-.461.068"/>
            <path d="M215.438 149.307c.424.012.844.057 1.265.107.44.07.875.147 1.312.235.542.108 1.084.308 1.602.51.277.126.539.265.792.434.69.627 1.308 1.33 1.89 2.059.186.262.354.525.497.808.093.274.168.547.224.832.037.39.055.778.046 1.173-.008.4-.043.797-.086 1.194-.097.578-.213 1.14-.408 1.694-.123.258-.26.503-.423.74a6.906 6.906 0 0 1-.724.747c-.263.233-.533.458-.807.677a13.543 13.543 0 0 1-2.404 1.418 14.1 14.1 0 0 1-2.527.727 6.618 6.618 0 0 1-.888.049c-.4-.01-.792-.037-1.188-.073-1.553-.278-3.079-.671-4.596-1.099.039-.145.059-.295.059-.447 0-.48-.194-.887-.513-1.236a13.64 13.64 0 0 1-.366-.418 7.005 7.005 0 0 1-.468-.783c-.173-.49-.271-.993-.348-1.506a9.725 9.725 0 0 1-.066-1.619c.094-.495.222-.985.387-1.462.22-.456.486-.887.782-1.3.656-.8 1.383-1.535 2.175-2.202a9.39 9.39 0 0 1 1.139-.646c.322-.127.649-.244.985-.33.382-.096.763-.172 1.15-.234.503-.04 1-.061 1.507-.049m-1.116-3.482c-1.02.087-2.002.25-2.982.545-.532.16-1.056.407-1.554.647a7.32 7.32 0 0 0-1.046.633c-.725.512-1.352 1.15-1.98 1.774-.5.498-.93 1.078-1.351 1.641-.557.742-.955 1.621-1.228 2.498a9.574 9.574 0 0 0-.297 1.325c-.16.991-.056 1.947.08 2.933.119.858.294 1.666.666 2.453.185.39.41.752.662 1.097-.227.213-.4.485-.485.796-.256.929.308 1.882 1.223 2.15 1.079.315 2.157.643 3.245.923.924.238 1.852.504 2.793.665 1.076.184 2.134.328 3.228.287a10.783 10.783 0 0 0 2.842-.526 17.11 17.11 0 0 0 2.774-1.17c.802-.425 1.522-.99 2.233-1.545.889-.694 1.669-1.476 2.26-2.445.293-.48.49-1.043.67-1.574.124-.37.19-.757.252-1.142a18.35 18.35 0 0 0 .211-1.68c.08-1.263.02-2.543-.422-3.745a6.429 6.429 0 0 0-.827-1.53c-.188-.262-.399-.513-.596-.767a15.15 15.15 0 0 0-.847-.98 15.424 15.424 0 0 0-1.069-1.064c-.815-.724-1.847-1.123-2.87-1.464-.963-.321-1.955-.49-2.962-.613-.646-.079-1.3-.15-1.952-.15-.224 0-.447.009-.67.028M170.171 142.632c-.391.23-.684.608-.805 1.045-.245.884.292 1.944 1.224 2.151 2.057.456 4.133.828 6.205 1.216.833.157 1.667.307 2.502.46.863.157 1.727.333 2.594.47 4.205.665 8.409 1.324 12.614 1.981l6.876 1.08.465.064a1.753 1.753 0 0 0 1.69-1.284c.125-.45.06-.944-.176-1.347-.208-.355-.623-.737-1.047-.804-4.79-.753-9.581-1.494-14.37-2.25-1.943-.308-3.895-.584-5.83-.938-2.14-.39-4.28-.782-6.417-1.182-1.396-.263-2.79-.53-4.175-.838a2.25 2.25 0 0 0-.48-.055c-.301 0-.595.07-.87.231M198.154 154.39c-1.972.12-3.943.241-5.915.356-1.525.088-3.036.114-4.558-.03l-.12-.02-.465-.062a1.76 1.76 0 0 0-1.69 1.284c-.124.45-.06.942.176 1.347.209.352.624.738 1.047.803 1.01.152 2.01.24 3.03.253.77.01 1.54-.019 2.31-.063 2.062-.12 4.123-.247 6.185-.372.475-.029.895-.17 1.239-.512.327-.325.513-.773.513-1.236 0-.881-.75-1.751-1.665-1.751-.029 0-.058 0-.087.003M278.88 107.978l-.144.02c.048-.01.096-.016.144-.02m-.932-3.372c-.54.085-1.048.354-1.484.676a6.563 6.563 0 0 0-.638.53c-.212.203-.374.456-.553.689-.164.214-.289.46-.417.698-.173.32-.33.66-.459 1-.252.658-.42 1.33-.597 2.011a33.393 33.393 0 0 0-.942 5.593c-.315 3.73-.381 7.482-.402 11.224-.006 1.041.007 2.075.043 3.114.027.818.076 1.635.11 2.452.086 1.97.176 3.933.335 5.898.293 3.663.324 7.344.354 11.018.014 1.764.008 3.529.022 5.292.007.924.077 1.843.14 2.764l.088 1.299c.015.222.041.443.062.666.053.574.093 1.186.312 1.722l.177.418c.116.172.246.332.39.48.208.225.625.445.917.525.684.187 1.419-.065 1.962-.482l.355-.273c.216-.218.366-.475.45-.771.124-.451.06-.943-.177-1.347a1.763 1.763 0 0 0-.928-.766c-.06-.69-.098-1.383-.146-2.075a37.47 37.47 0 0 1-.101-2.478c-.003-1.83-.01-3.66-.023-5.49-.03-3.711-.104-7.42-.402-11.122-.147-1.849-.214-3.704-.295-5.557-.038-.922-.088-1.844-.118-2.766a60.328 60.328 0 0 1-.022-2.712c.044-3.865.12-7.724.445-11.576.04-.473.112-.944.176-1.416l-.032.246c.131-.718.272-1.43.438-2.14.204-.883.407-1.773.714-2.626.164-.342.342-.673.554-.987.06-.062.122-.123.186-.182.04-.026.081-.052.123-.076l.027.009c.128.068.25.141.37.221.22.201.419.415.611.641.173.246.326.5.458.769.33.912.525 1.846.667 2.802.191 1.684.268 3.374.275 5.07.007 1.948.018 3.897.034 5.845.014 1.761.048 3.523.111 5.285.037 1.002.075 2.005.12 3.007.04.892.102 1.784.132 2.676.063 1.853.061 3.706.078 5.56.02 2.023.045 4.047.086 6.072.037 1.893.118 3.784.215 5.674.089 1.754.334 3.496.483 5.244.212 2.468.445 4.935.652 7.403.04.478.164.887.513 1.236a1.755 1.755 0 0 0 2.477 0c.305-.305.551-.794.513-1.236-.166-1.971-.353-3.94-.523-5.909-.165-1.928-.387-3.85-.539-5.78-.293-3.725-.326-7.474-.36-11.209-.01-1.019-.02-2.037-.025-3.056-.005-.879.01-1.76-.02-2.638-.064-1.876-.178-3.751-.247-5.63-.136-3.785-.175-7.568-.193-11.356-.009-1.79-.009-3.582-.181-5.366a29.694 29.694 0 0 0-.429-3.03 13.596 13.596 0 0 0-.297-1.139 7.436 7.436 0 0 0-1.407-2.627 6.98 6.98 0 0 0-1.19-1.15c-.42-.321-.861-.515-1.351-.718a2.677 2.677 0 0 0-1.042-.194c-.213 0-.425.019-.635.051"/>
            <path d="M299.751 58.129l.02.142-.02-.142m-.754-2.903c.058.022.115.046.17.073l-.169-.072-.001-.001m-1.74-3.343c-.605.202-1.103.53-1.595.925-.358.29-.696.616-.98.98-.232.302-.47.6-.687.916-.268.391-.44.844-.618 1.282-.335.826-.507 1.681-.634 2.56a30.59 30.59 0 0 0-.263 2.977 560.93 560.93 0 0 0-.244 5.898c-.069 1.889-.02 3.787-.014 5.677.005 1.875.018 3.75.03 5.624.01 1.881.044 3.762.078 5.642.034 1.95.14 3.898.229 5.845.038.816.083 1.637.08 2.453-.003.99-.006 1.982-.013 2.972-.014 1.893-.03 3.786-.066 5.679-.067 3.504-.25 7-.524 10.494-.154 1.96-.304 3.921-.452 5.88-.068.895-.119 1.79-.176 2.684-.05.785-.142 1.566-.218 2.348-.115.792-.264 1.575-.523 2.335a4.814 4.814 0 0 1-.316.554c-.183.22-.369.43-.58.622-.193.12-.394.22-.6.315-1.472.568-3.006.954-4.532 1.345-.924.237-1.474 1.244-1.224 2.15.257.93 1.23 1.458 2.156 1.221a81.734 81.734 0 0 0 3.158-.867c.371-.112.735-.245 1.1-.373.571-.198 1.137-.445 1.665-.737.256-.14.477-.351.707-.531.24-.188.43-.43.62-.663.223-.273.438-.55.644-.837.156-.219.258-.483.362-.729.267-.632.446-1.262.587-1.931.18-.847.265-1.713.347-2.573.095-1.007.173-2.01.239-3.018.244-3.771.575-7.534.828-11.303.246-3.682.268-7.38.294-11.07.007-1.03.014-2.06.018-3.09.004-1.004-.03-2.004-.063-3.007-.064-1.884-.17-3.764-.229-5.648-.117-3.826-.106-7.657-.121-11.484-.009-1.886-.012-3.77.004-5.655.016-1.769.131-3.541.212-5.309.05-1.094.117-2.181.225-3.27.056-.359.118-.715.205-1.069.09-.372.21-.731.347-1.087.13-.261.276-.507.444-.746.247-.3.509-.582.803-.838.105-.071.211-.138.322-.2.095-.029.19-.053.288-.074.062-.001.125 0 .187.003l.084.022.06.036c.058.05.114.102.17.155.037.064.073.13.108.196.271.76.419 1.553.535 2.35.283 2.398.348 4.82.436 7.232.064 1.782.082 3.561.013 5.342-.147 3.864-.222 7.726-.281 11.591-.029 1.841-.165 3.688-.299 5.523-.07.975-.17 1.95-.25 2.924-.074.914-.118 1.832-.162 2.748-.091 1.908-.123 3.82-.249 5.727-.119 1.783-.235 3.564-.287 5.35-.053 1.84-.09 3.678-.108 5.518-.02 1.866.01 3.734-.06 5.6-.065 1.752-.204 3.501-.262 5.255-.06 1.848-.092 3.694-.122 5.542a25.43 25.43 0 0 1-.147 2.435 7.616 7.616 0 0 1-.381 1.345c-.357.727-.827 1.387-1.316 2.03-.5.593-1.027 1.158-1.608 1.674-.441.317-.904.604-1.36.899-.507.326-1.012.652-1.517.981-1.024.67-2.034 1.357-3.067 2.01-.806.508-1.124 1.547-.628 2.39.469.801 1.589 1.138 2.396.629 1.61-1.017 3.184-2.09 4.785-3.12.61-.395 1.246-.774 1.796-1.253.397-.347.772-.72 1.13-1.108a17.64 17.64 0 0 0 2.137-2.839c.312-.515.528-1.084.74-1.646.239-.627.31-1.293.395-1.953.056-.44.095-.885.113-1.328.039-.947.045-1.892.06-2.839.03-1.8.076-3.602.162-5.402.089-1.829.223-3.655.235-5.486.014-1.801.017-3.602.044-5.402.03-1.88.074-3.76.148-5.641.072-1.844.245-3.684.33-5.528.084-1.852.122-3.703.24-5.552.117-1.847.332-3.686.43-5.533.054-1.01.106-2.019.148-3.028.041-.99.052-1.979.067-2.969.03-1.861.067-3.722.111-5.582.044-1.84.162-3.679.18-5.52.021-2.018-.062-4.036-.135-6.053-.034-.964-.105-1.925-.163-2.888a39.391 39.391 0 0 0-.31-2.976 15.699 15.699 0 0 0-.368-1.848c-.163-.619-.408-1.248-.771-1.777-.307-.444-.721-.807-1.166-1.109-.523-.355-1.137-.542-1.764-.595a4.786 4.786 0 0 0-.413-.018c-.463 0-.925.069-1.366.217M260.64 88.182c-.505.04-.937.166-1.394.385-.432.206-.795.5-1.168.799-.438.35-.758.871-.984 1.376-.27.607-.482 1.23-.66 1.87-.363 1.303-.486 2.658-.653 3.996-.217 1.756-.287 3.537-.361 5.304-.07 1.687-.015 3.392.089 5.074.106 1.714.313 3.42.544 5.119.2 1.605.349 3.213.45 4.829.053.829.128 1.657.213 2.483.097.95.19 1.92.44 2.846.24.88.585 1.709.96 2.539a10.773 10.773 0 0 0 1.694 2.61c.598.692 1.408 1.19 2.191 1.644l1.19.686c.68.388 1.37.77 2.015 1.213.111.095.217.194.325.297.684.663 1.794.682 2.477 0 .666-.665.685-1.81 0-2.472-.784-.758-1.72-1.284-2.652-1.83-.837-.491-1.726-.929-2.518-1.488a6.354 6.354 0 0 1-.71-.71 12.978 12.978 0 0 1-1.112-1.993 17.564 17.564 0 0 1-.393-1.1c-.151-.483-.238-.983-.319-1.48-.176-1.447-.272-2.9-.37-4.354-.11-1.624-.31-3.236-.53-4.848-.329-2.607-.515-5.227-.501-7.856.014-2.655.24-5.3.559-7.933.172-.987.407-1.95.755-2.89.048-.095.098-.186.153-.275.058-.06.116-.116.177-.172.09-.06.182-.116.277-.168l.04-.011h.02c.06.016.119.033.178.051.112.062.22.128.328.199.178.153.344.313.504.486l.06.1c.13.395.21.8.282 1.211a48.8 48.8 0 0 1 .297 5.152c.013 1.833.005 3.666.053 5.497.052 1.934.149 3.862.291 5.792.076 1.01.18 2.02.333 3.023.137.91.349 1.798.575 2.691.194.772.392 1.566.755 2.28a7.69 7.69 0 0 0 1.067 1.57c.416.48.831.959 1.328 1.357.31.247.623.47.963.67.37.217.783.366 1.184.51.393.137.809.225 1.213.323.79.191 1.589.354 2.382.529.47.103.93.07 1.351-.177.392-.228.684-.607.805-1.044.243-.883-.292-1.944-1.223-2.15-.688-.153-1.376-.303-2.063-.455-.565-.124-1.136-.258-1.681-.454-.22-.11-.43-.235-.633-.375a9.708 9.708 0 0 1-1.19-1.258 7.357 7.357 0 0 1-.429-.714c-.324-.873-.518-1.796-.74-2.699a19.096 19.096 0 0 1-.312-1.7 110.98 110.98 0 0 1-.406-5.617c-.089-1.862-.094-3.727-.108-5.591-.007-.866.014-1.737-.016-2.603-.035-.944-.084-1.885-.14-2.827a27.87 27.87 0 0 0-.343-3.051c-.087-.497-.241-1.056-.488-1.499-.313-.565-.725-1.039-1.205-1.466-.807-.718-1.865-1.26-2.966-1.26-.083 0-.166.002-.25.009M81.431 137.403c-.343.342-.486.762-.513 1.236-.119 2.008-.065 4.028-.09 6.038-.022 1.74-.082 3.481-.15 5.221-.146 3.689-.3 7.378-.474 11.065-.153 3.24-.305 6.48-.468 9.719-.048.951.833 1.748 1.751 1.748.991 0 1.704-.797 1.752-1.748.214-4.26.418-8.52.605-12.78.173-3.899.357-7.796.455-11.697.03-1.256.046-2.514.053-3.77.007-1.266-.006-2.531.07-3.796.056-.952-.84-1.748-1.752-1.748a1.76 1.76 0 0 0-1.239.512"/>
            <path d="M92.284 117.919c-.348.346-.474.758-.514 1.236-.156 1.95-.119 3.91-.109 5.865.01 2.047.033 4.095.052 6.143.016 1.883.036 3.768.054 5.651.01.933 0 1.867 0 2.8-.002.787.023 1.578-.017 2.364-.104 2.075-.168 4.148-.423 6.212-.209 1.415-.503 2.811-1.027 4.146-.189.402-.398.782-.65 1.145a7.458 7.458 0 0 1-.682.69 4.94 4.94 0 0 1-.526.284c-.696.247-1.412.364-2.14.472-.336.041-.672.083-1.009.123l-.465.06a1.753 1.753 0 0 0-1.286 1.687c0 .462.185.91.512 1.237.296.295.805.562 1.239.512.586-.07 1.172-.137 1.755-.221.44-.065.892-.113 1.327-.214.872-.203 1.749-.498 2.492-1.009 1.12-.771 1.953-1.894 2.513-3.118.56-1.229.9-2.51 1.156-3.832.132-.68.218-1.367.308-2.054.082-.638.166-1.288.199-1.931.056-1.104.11-2.208.167-3.312.097-1.938.06-3.879.061-5.818.001-1.718-.034-3.436-.049-5.154-.02-2.22-.039-4.443-.056-6.665-.015-2.02-.054-4.049.108-6.063.037-.443-.207-.932-.512-1.236a1.76 1.76 0 0 0-1.24-.513 1.76 1.76 0 0 0-1.238.513M68.696 123.945c-.438.12-.819.413-1.047.803l-.177.418a1.753 1.753 0 0 0 0 .926c.123.97.198 1.947.288 2.921.08.888.172 1.776.26 2.662l.307 3.072c.088.864.216 1.726.33 2.588.255 1.892.526 3.78.84 5.663.1.587.198 1.172.309 1.757.251 1.313.544 2.656 1.171 3.848.145.279.331.53.514.783.247.337.506.658.803.951.325.323.71.61 1.103.844.583.351 1.215.45 1.876.536.28.035.568.005.846-.015.439-.033.881-.114 1.315-.193.383-.07.764-.16 1.144-.245.67-.147 1.338-.31 2.007-.466.929-.219 1.47-1.26 1.223-2.151-.26-.944-1.225-1.438-2.154-1.221-1.153.27-2.307.572-3.476.769a5.39 5.39 0 0 1-.812.025 3.462 3.462 0 0 1-.183-.052 3.574 3.574 0 0 1-.202-.121 5.445 5.445 0 0 1-.553-.551 7.01 7.01 0 0 1-.53-.866c-.628-1.75-.866-3.628-1.17-5.455-.166-.99-.314-1.981-.456-2.975-.119-.918-.24-1.836-.357-2.754-.126-.984-.211-1.974-.31-2.961-.11-1.09-.224-2.18-.324-3.271-.123-1.354-.244-2.701-.431-4.048-.06-.422-.456-.841-.805-1.045a1.766 1.766 0 0 0-1.35-.176M204.672 93.35a35.16 35.16 0 0 0-3.702.951c-1.37.432-2.693.996-3.999 1.587-1.072.486-2.117 1.029-3.17 1.55-.877.435-1.725.926-2.585 1.392-.555.3-1.111.601-1.665.904a45.176 45.176 0 0 1-3.694 1.801c-2.098.867-4.253 1.586-6.405 2.299-1.687.559-3.421.988-5.134 1.46-.923.254-1.843.527-2.749.839-.86.293-1.7.635-2.543.97-.88.35-1.776.664-2.685.936-.466.14-.934.276-1.402.411-.46.132-.935.216-1.4.32-.314.07-.637.098-.954.143l-.871.126c-1.84.2-3.68.394-5.52.575-.938.092-1.876.158-2.817.206-.877.045-1.771-.048-2.644-.116-.708-.056-1.418-.132-2.127-.149-1.384-.036-2.684.374-3.971.829a41.23 41.23 0 0 0-2.094.826c-.526.22-1.061.428-1.578.664l-1.498.684c-.447.205-.878.45-1.316.675-.812.419-1.607.867-2.4 1.322-1.269.729-2.457 1.624-3.786 2.246-1.753.666-3.65.913-5.49 1.23a275.7 275.7 0 0 1-4.88.793c-.424.064-.84.45-1.047.803a1.755 1.755 0 0 0-.176 1.347c.12.437.413.816.805 1.044l.418.177c.311.083.62.083.93 0a268.913 268.913 0 0 0 7.382-1.238c.43-.079.855-.17 1.282-.265.918-.207 1.783-.532 2.643-.913.86-.381 1.649-.954 2.445-1.453.71-.444 1.435-.862 2.161-1.28 1.4-.803 2.859-1.495 4.325-2.167l1.282-.536c.598-.25 1.207-.476 1.818-.692.651-.23 1.312-.448 1.993-.574 1.304-.082 2.627.108 3.93.197.884.06 1.773.057 2.659-.014a194.94 194.94 0 0 0 5.482-.53 100.44 100.44 0 0 0 3.42-.42c.893-.129 1.781-.274 2.65-.525.9-.26 1.8-.513 2.68-.831.933-.336 1.85-.71 2.774-1.071 1.73-.679 3.538-1.146 5.326-1.639.918-.253 1.835-.507 2.75-.774.92-.271 1.826-.585 2.737-.887.969-.32 1.925-.685 2.886-1.028a40.935 40.935 0 0 0 2.347-.945 45.167 45.167 0 0 0 3.824-1.858c1.177-.639 2.354-1.277 3.532-1.913.807-.437 1.634-.836 2.457-1.243a52.23 52.23 0 0 1 2.412-1.123 32.217 32.217 0 0 1 3.403-1.166 28.532 28.532 0 0 1 3.454-.758 14.41 14.41 0 0 1 2.821-.026 8.751 8.751 0 0 1 1.602.411c1.66.737 3.278 1.57 4.915 2.355 1.647.79 3.292 1.586 4.951 2.35 1.763.813 3.535 1.61 5.249 2.523a154.95 154.95 0 0 1 4.935 2.74c2.846 1.65 5.694 3.3 8.57 4.9.834.463 1.907.207 2.397-.627.474-.81.204-1.929-.63-2.393-3.675-2.043-7.3-4.177-10.955-6.255-1.657-.942-3.353-1.799-5.065-2.636-1.694-.829-3.422-1.592-5.127-2.398a520.482 520.482 0 0 1-5.02-2.41c-.822-.4-1.641-.81-2.48-1.18a10.653 10.653 0 0 0-1.741-.62c-.658-.166-1.344-.241-2.017-.294-.285-.023-.57-.033-.857-.033-1.16 0-2.325.171-3.453.395M312.704 120.331c-.438.12-.817.412-1.047.802-.464.793-.218 1.953.628 2.393.812.42 1.68.739 2.56.983.893.249 1.818.386 2.724.575.725.153 1.448.313 2.172.47 1.385.3 2.767.607 4.15.914 2.437.542 4.896 1.009 7.234 1.895 1.203.537 2.393 1.1 3.578 1.675.585.282 1.168.565 1.75.85 1 .486 1.985.968 2.888 1.618 1.022.83 1.944 1.76 2.773 2.781.731.992 1.323 2.063 1.855 3.173.184.388.351.786.54 1.173.139.283.278.564.426.843.157.294.391.545.595.807.236.302.531.564.809.825.877.826 1.91 1.516 2.964 2.091.856.466 1.764.852 2.67 1.206.898.351 1.79.72 2.7 1.038 1.915.668 3.835 1.32 5.76 1.96.848.281 1.695.562 2.54.854.862.298 1.707.64 2.57.937 1.66.577 3.321 1.16 4.978 1.75 1.427.508 2.833 1.08 4.239 1.644.691.293 1.39.584 2.061.92.941.47 1.87.951 2.78 1.476.829.476 1.914.198 2.397-.627.48-.818.199-1.916-.628-2.391-3.41-1.963-7.103-3.393-10.803-4.71-1.855-.66-3.719-1.293-5.565-1.977-1.624-.602-3.279-1.121-4.921-1.674-1.309-.44-2.614-.886-3.918-1.339-1.15-.4-2.28-.849-3.413-1.293a29.459 29.459 0 0 1-1.678-.792 13.117 13.117 0 0 1-1.737-1.101c-.46-.377-.898-.778-1.285-1.228-.541-.877-.917-1.863-1.36-2.79-.183-.383-.405-.744-.614-1.113-.66-1.154-1.489-2.195-2.384-3.174-.869-.952-1.865-1.785-2.915-2.53-.713-.507-1.522-.878-2.309-1.257l-2.347-1.139c-1.778-.862-3.555-1.72-5.433-2.344-.843-.28-1.716-.48-2.58-.674-1.012-.23-2.024-.455-3.036-.68-1.216-.268-2.431-.544-3.648-.806l-2.68-.58c-.484-.103-.97-.2-1.458-.294-1.012-.196-1.991-.442-2.95-.817a4.054 4.054 0 0 1-.282-.148 1.967 1.967 0 0 0-.904-.237c-.147 0-.296.02-.446.062M48.266 137.694c-1.45 1.59-2.895 3.185-4.35 4.772a72.318 72.318 0 0 1-2.232 2.308c-.728.725-1.458 1.442-2.257 2.086-1.516 1.091-3.21 1.928-4.92 2.67-1.715.694-3.48 1.25-5.207 1.915l-3.525 1.36c-.508.195-.995.447-1.485.68l-1.979.938c-.87.412-1.724.857-2.55 1.35-1.171.697-2.228 1.573-3.295 2.416a26.858 26.858 0 0 1-3.315 2.083c-.99.532-2.028.986-3.059 1.433l-2.961 1.284c-2.093.904-4.196 1.784-6.264 2.747-.393.183-.694.642-.805 1.045-.124.45-.06.943.177 1.347.228.39.609.683 1.047.803.486.134.907.03 1.35-.176 2.134-.995 4.307-1.903 6.47-2.837l2.91-1.26c1.37-.595 2.723-1.232 4.01-1.99.64-.377 1.257-.788 1.866-1.209.638-.44 1.233-.943 1.839-1.425.93-.688 1.881-1.32 2.906-1.866.544-.291 1.099-.563 1.656-.828l2.657-1.259c1.094-.421 2.188-.842 3.282-1.265 2.126-.818 4.307-1.49 6.39-2.42 1.347-.602 2.669-1.264 3.913-2.06 1.348-.86 2.5-1.966 3.626-3.09 2.282-2.276 4.411-4.7 6.582-7.08.319-.348.513-.755.513-1.236 0-.462-.186-.91-.513-1.236a1.806 1.806 0 0 0-1.269-.508c-.448 0-.893.163-1.208.508M154.782 180.555c0 .976.798 1.716 1.752 1.748 4.197.138 8.395.29 12.592.426 1.864.06 3.73.14 5.594.178l6.537.132c3.933.08 7.87.07 11.804.086 3.853.016 7.705-.004 11.558-.037 1.951-.016 3.904-.091 5.856-.14 1.916-.047 3.833-.051 5.749-.071 1.919-.022 3.836.05 5.753.092 1.892.043 3.782.129 5.672.205 3.771.152 7.545.24 11.32.328 3.572.085 7.146.209 10.716.384 4.287.209 8.571.412 12.858.606 3.702.168 7.408.224 11.112.309 3.706.086 7.413.12 11.117.218 4.232.114 8.464.189 12.695.257 7.141.115 14.287.137 21.428.124a1.767 1.767 0 0 0 1.751-1.748c0-.952-.796-1.75-1.751-1.748-7.49.013-14.983-.02-22.473-.14l-6.716-.109c-2.068-.032-4.136-.11-6.204-.166-3.392-.09-6.785-.112-10.178-.191l-7.317-.172c-1.602-.037-3.201-.118-4.801-.19-4.05-.183-8.1-.38-12.149-.577-7.579-.371-15.17-.43-22.752-.736a310.19 310.19 0 0 0-5.641-.179l-3.322-.075c-.784-.017-1.571.015-2.354.025-1.872.019-3.743.038-5.614.085-1.887.046-3.774.105-5.661.121-3.832.033-7.663.041-11.496.025-3.819-.015-7.64-.015-11.46-.092-2.099-.044-4.198-.084-6.297-.128-1.996-.041-3.992-.128-5.988-.194-3.98-.128-7.958-.275-11.938-.404l-.051-.001c-.933 0-1.7.837-1.7 1.749"/>
        </g>
    </g>
</svg>
