<svg width="48" height="48" viewBox="0 0 48 48" fill="none" xmlns="http://www.w3.org/2000/svg">
<path d="M10.0848 22.5519C10.1807 23.8965 10.0847 30.1455 10.0848 30.5411C10.0848 33.547 12.0023 35.5244 13.8237 36.5527C15.6452 37.581 23.9855 41.9315 28.8747 43.118C33.7638 44.3045 34.61 41.2593 34.8184 39.954C35.5016 35.6737 34.8184 34.2779 34.8184 26.507C34.8184 19.0565 31.0796 19.2298 29.5457 18.1224C28.0119 17.015 18.1375 13.5346 13.8236 12.1899C10.3724 11.1142 9.73328 13.0337 10.0848 14.3257V17.0941C10.0848 17.6478 9.98889 21.2073 10.0848 22.5519Z" fill="#E2E2E4"/>
<path d="M9.0731 19.2743C9.15531 20.6431 9.07304 27.0042 9.0731 27.407C9.0731 30.4668 10.717 32.4797 12.2786 33.5265C13.8402 34.5732 20.9905 39.0018 25.1821 40.2096C29.3737 41.4174 30.0991 38.3174 30.2777 36.9888C30.8635 32.6316 30.2777 31.2108 30.2777 23.3005C30.2777 15.7162 27.3672 16.1766 25.7574 15.2661C24.2442 14.4102 15.9769 10.6517 12.2784 9.28287C9.31964 8.1878 8.77175 10.0986 9.0731 11.4138L9.0731 13.7186C9.0731 14.2822 8.9909 17.9056 9.0731 19.2743Z" stroke="#1B1B20" stroke-width="2.5"/>
<path d="M16.0728 10.0204C16.576 8.63107 18.7811 4.30452 19.4398 4.03558C20.2632 3.69942 25.1349 5.85063 25.9584 6.0523C26.7818 6.25398 30.0303 7.53995 29.6979 8.87995C29.4282 9.96716 28.2395 11.6863 29.6979 12.4852C31.6373 13.5477 35.9385 15.8738 36.4874 16.2099C37.0364 16.546 39.4491 17.7452 37.8022 22.1821C36.1554 26.619 31.6007 39.6801 28.3329 40.1924" stroke="#1B1B20" stroke-width="2.5"/>
</svg>
