<svg width="24" height="24" viewBox="0 0 24 24" fill="none" xmlns="http://www.w3.org/2000/svg">
<path fill-rule="evenodd" clip-rule="evenodd" d="M2 16C2 8.26772 8.26772 2 16 2C17.5913 2 19.1174 2.63214 20.2426 3.75736C21.3679 4.88258 22 6.4087 22 8C22 15.7323 15.7323 22 8 22C6.4087 22 4.88258 21.3679 3.75736 20.2426C2.63214 19.1174 2 17.5913 2 16ZM5.17157 18.8284C4.53442 18.1913 4.13442 17.3613 4.02837 16.4757C4.67799 16.6605 5.49282 16.9727 6.32315 17.4709C7.33387 18.0773 7.78196 19.1316 7.94917 19.9997C6.90668 19.9864 5.90973 19.5666 5.17157 18.8284ZM18.8284 5.17157C19.5286 5.87172 19.9424 6.8047 19.9944 7.78853C19.2543 7.54774 18.3615 7.12329 17.5924 6.42407C16.7831 5.68833 16.3027 4.76243 16.0398 4.0002C17.0863 4.0106 18.0877 4.43082 18.8284 5.17157ZM15.7071 8.29289C15.3166 7.90237 14.6834 7.90237 14.2929 8.29289L13 9.58579L12.7071 9.29289C12.3166 8.90237 11.6834 8.90237 11.2929 9.29289C10.9024 9.68342 10.9024 10.3166 11.2929 10.7071L11.5858 11L11 11.5858L10.7071 11.2929C10.3166 10.9024 9.68342 10.9024 9.29289 11.2929C8.90237 11.6834 8.90237 12.3166 9.29289 12.7071L9.58579 13L8.29289 14.2929C7.90237 14.6834 7.90237 15.3166 8.29289 15.7071C8.68342 16.0976 9.31658 16.0976 9.70711 15.7071L11 14.4142L11.2929 14.7071C11.6834 15.0976 12.3166 15.0976 12.7071 14.7071C13.0976 14.3166 13.0976 13.6834 12.7071 13.2929L12.4142 13L13 12.4142L13.2929 12.7071C13.6834 13.0976 14.3166 13.0976 14.7071 12.7071C15.0976 12.3166 15.0976 11.6834 14.7071 11.2929L14.4142 11L15.7071 9.70711C16.0976 9.31658 16.0976 8.68342 15.7071 8.29289Z" fill="currentcolor"/>
</svg>
