<svg width="24" height="24" viewBox="0 0 24 24" fill="none" xmlns="http://www.w3.org/2000/svg">
<path d="M8.01804 9.59472C7.66678 9.4452 7.24973 9.69993 7.24973 10.0817V12.0394C7.24973 12.3111 7.39686 12.5612 7.64277 12.6767C8.39202 13.0289 10.1186 13.7294 11.9995 13.7294C13.8804 13.7294 15.6069 13.0289 16.3562 12.6767C16.6021 12.5612 16.7492 12.3111 16.7492 12.0394V10.0817C16.7492 9.69993 16.3322 9.4452 15.9809 9.59472C15.1143 9.96364 13.6137 10.4796 11.9995 10.4796C10.3853 10.4796 8.8847 9.96364 8.01804 9.59472Z" fill="#0066FF"/>
<path fill-rule="evenodd" clip-rule="evenodd" d="M6.8734 18.9773L9.49961 18.9791L9.49962 22.229L14.5178 18.9827L17.1168 18.9845C19.526 18.9845 21.6835 17.1916 21.8703 14.6584C22.0404 12.3523 22.0485 8.97644 21.8631 6.66874C21.6773 4.356 19.8176 2.58495 17.5486 2.42197C13.9847 2.16598 10.0321 2.16598 6.4682 2.42197C4.19924 2.58495 2.33952 4.356 2.15372 6.66874C1.96833 8.97644 1.94485 12.3523 2.11491 14.6584C2.3017 17.1916 4.46419 18.9773 6.8734 18.9773ZM6.70103 5.66345C10.1099 5.4186 13.9069 5.4186 17.3158 5.66345C18.0294 5.71471 18.57 6.2611 18.6237 6.92898C18.7958 9.07084 18.7871 12.2798 18.6293 14.4194C18.5772 15.1262 17.9567 15.7328 17.1172 15.7328H14.5177L9.49961 18.9791V15.7328H6.86803C6.02857 15.7328 5.40806 15.1262 5.35594 14.4194C5.19816 12.2798 5.22105 9.07084 5.39312 6.92898C5.44677 6.2611 5.98745 5.71471 6.70103 5.66345Z" fill="#0066FF"/>
</svg>
