<svg width="24" height="24" viewBox="0 0 24 24" fill="none" xmlns="http://www.w3.org/2000/svg">
<path d="M2 6C2 5.44772 2.44772 5 3 5H5C5.55228 5 6 5.44772 6 6C6 6.55228 5.55228 7 5 7V11H11V7C10.4477 7 10 6.55228 10 6C10 5.44772 10.4477 5 11 5H13C13.5523 5 14 5.44772 14 6C14 6.55228 13.5523 7 13 7V17C13.5523 17 14 17.4477 14 18C14 18.5523 13.5523 19 13 19H11C10.4477 19 10 18.5523 10 18C10 17.4477 10.4477 17 11 17V13H5V17C5.55228 17 6 17.4477 6 18C6 18.5523 5.55228 19 5 19H3C2.44772 19 2 18.5523 2 18C2 17.4477 2.44772 17 3 17V7C2.44772 7 2 6.55228 2 6Z" fill="currentcolor"/>
<path d="M19.3827 9.07612C19.7564 9.2309 20 9.59554 20 10V18C20 18.5523 19.5523 19 19 19C18.4477 19 18 18.5523 18 18V12.4142L17.7071 12.7071C17.3166 13.0976 16.6834 13.0976 16.2929 12.7071C15.9024 12.3166 15.9024 11.6834 16.2929 11.2929L18.2929 9.29289C18.5789 9.0069 19.009 8.92134 19.3827 9.07612Z" fill="currentcolor"/>
</svg>
