<svg width="24" height="24" viewBox="0 0 24 24" fill="none" xmlns="http://www.w3.org/2000/svg">
<g clip-path="url(#clip0_17205_8777)">
<g clip-path="url(#clip1_17205_8777)">
<path d="M23.9651 3.33335C23.9651 1.58921 22.5511 0.175293 20.807 0.175293C19.2144 0.175293 17.8979 1.3543 17.681 2.88698L17.649 2.87011C15.0663 1.70525 12.8908 3.76847 12.8908 3.76847L7.13623 9.55122L9.40999 11.7409L14.0418 7.19039C16.2046 5.02744 17.3823 6.4914 17.3823 6.4914C19.0105 7.86688 17.4384 9.49508 17.4384 9.49508L19.7684 11.7409C21.6711 9.68592 21.7814 7.89247 21.203 6.46581C22.7602 6.27084 23.9651 4.94326 23.9651 3.33335" fill="#F9AE41"/>
<path d="M21.2323 17.8574C21.2431 17.8372 21.2492 17.8255 21.2492 17.8255C22.4141 15.2427 20.3508 13.0672 20.3508 13.0672L14.568 7.3125L12.3784 9.58643L16.9289 14.2181C19.0918 16.381 17.6278 17.5588 17.6278 17.5588C16.2524 19.187 14.6242 17.6149 14.6242 17.6149L12.3784 19.9448C14.4333 21.8474 16.2268 21.9578 17.6534 21.3794C17.8484 22.9365 19.176 24.1415 20.7859 24.1415C22.5301 24.1415 23.9439 22.7276 23.9439 20.9835C23.9439 19.3909 22.765 18.0744 21.2323 17.8574Z" fill="#EE4035"/>
<path d="M14.6172 12.4707L9.98542 17.0211C7.82247 19.1842 6.64478 17.7203 6.64478 17.7203C5.01659 16.3447 6.58863 14.7166 6.58863 14.7166L4.25883 12.4707C2.35619 14.5256 2.24577 16.3191 2.82402 17.7457C1.26689 17.9408 0.0620117 19.2683 0.0620117 20.8783C0.0620117 22.6224 1.47592 24.0363 3.22015 24.0363C4.81272 24.0364 6.12923 22.8574 6.34614 21.3248C6.36638 21.3355 6.3781 21.3415 6.3781 21.3415C8.96089 22.5067 11.1363 20.4432 11.1363 20.4432L16.8909 14.6603L14.6172 12.4707" fill="#4F91CD"/>
<path d="M7.09805 9.99328C4.93511 7.83032 6.39888 6.65253 6.39888 6.65253C7.77454 5.02434 9.40262 6.59648 9.40262 6.59648L11.6484 4.26667C9.59356 2.36401 7.80013 2.25369 6.37348 2.83194C6.17851 1.27471 4.85103 0.0698242 3.24085 0.0698242C1.497 0.0698242 0.0831953 1.48374 0.0830078 3.22788C0.0830078 4.82055 1.26191 6.13708 2.79467 6.35398C2.78389 6.37423 2.77789 6.38604 2.77789 6.38604C1.61277 8.96865 3.67616 11.1441 3.67616 11.1441L9.45905 16.8988L11.6486 14.6251L7.09815 9.99328" fill="#7AC043"/>
</g>
</g>
<defs>
<clipPath id="clip0_17205_8777">
<rect width="24" height="24" fill="white"/>
</clipPath>
<clipPath id="clip1_17205_8777">
<rect width="24" height="24.1838" fill="white"/>
</clipPath>
</defs>
</svg>
