<svg width="24" height="24" viewBox="0 0 24 24" fill="none" xmlns="http://www.w3.org/2000/svg">
<path fill-rule="evenodd" clip-rule="evenodd" d="M2 11.7C2 6.12641 6.36671 2 12 2C17.6333 2 22 6.12641 22 11.7C22 17.2736 17.6333 21.4 12 21.4C10.9882 21.4 10.0174 21.2664 9.10531 21.0156C8.92801 20.9668 8.73947 20.9806 8.57121 21.0548L6.58635 21.931C6.06715 22.1602 5.48107 21.791 5.46367 21.2236L5.40921 19.4448C5.40251 19.2256 5.30391 19.0208 5.14057 18.8746C3.1948 17.1346 2 14.6154 2 11.7ZM8.93255 9.87633L5.99505 14.5367C5.71315 14.984 6.26291 15.488 6.68405 15.1684L9.83941 12.7737C10.0529 12.6117 10.3478 12.6108 10.5622 12.7716L12.8986 14.5239C13.5996 15.0497 14.6002 14.8651 15.0675 14.1237L18.005 9.46329C18.2869 9.01603 17.7371 8.51203 17.316 8.83163L14.1606 11.2263C13.9472 11.3883 13.6522 11.3892 13.4379 11.2284L11.1015 9.47613C10.4004 8.95033 9.39981 9.13493 8.93255 9.87633Z" fill="url(#paint0_linear_9_120)"/>
<defs>
<linearGradient id="paint0_linear_9_120" x1="5.87592" y1="21.7974" x2="20.9374" y2="6.73589" gradientUnits="userSpaceOnUse">
<stop stop-color="#0099FF"/>
<stop offset="0.609754" stop-color="#A033FF"/>
<stop offset="0.934823" stop-color="#FF5280"/>
<stop offset="1" stop-color="#FF7061"/>
</linearGradient>
</defs>
</svg>
