<svg width="24" height="24" viewBox="0 0 24 24" fill="none" xmlns="http://www.w3.org/2000/svg">
<g clip-path="url(#clip0_12772_47394)">
<path fill-rule="evenodd" clip-rule="evenodd" d="M16.2295 21C17.3354 21 18.3436 20.3496 18.7824 19.3376L21.6957 12.6652C22.7557 10.2418 20.9352 7.5987 18.3212 7.5987L16.292 7.5987L16.8861 4.78878L16.8876 4.78168C17.044 4.01417 16.8077 3.22204 16.2416 2.66658L16.2354 2.66065C15.323 1.78065 13.8598 1.77203 12.9487 2.68139C12.9167 2.7133 12.887 2.74733 12.8596 2.78327L9.19759 7.59118C8.71007 8.09864 8.43597 8.77852 8.43597 9.4845L8.43597 18.246C8.43597 19.7808 9.70622 21 11.2237 21L16.2295 21ZM4.78777 21C6.30529 21 7.57554 19.7808 7.57554 18.246L7.57554 11.2298C7.57554 9.69489 6.30529 8.47572 4.78777 8.47572C3.27025 8.47573 2 9.69489 2 11.2298L2 18.246C2 19.7808 3.27025 21 4.78777 21Z" fill="currentcolor"/>
</g>
<defs>
<clipPath id="clip0_12772_47394">
<rect width="24" height="24" fill="white"/>
</clipPath>
</defs>
</svg>
