<svg width="24" height="24" viewBox="0 0 24 24" fill="none" xmlns="http://www.w3.org/2000/svg">
<path d="M7.8725 19.29L3.2925 14.71C2.9025 14.32 2.9025 13.68 3.2925 13.29C3.6825 12.9 4.3225 12.9 4.7125 13.29L7.5825 16.17V6C7.5825 5.45 8.0325 5 8.5825 5H18.5825C19.1325 5 19.5825 5.45 19.5825 6C19.5825 6.55 19.1325 7 18.5825 7H9.5825V16.17L12.4525 13.29C12.8425 12.9 13.4825 12.9 13.8725 13.29C14.2625 13.68 14.2625 14.32 13.8725 14.71L9.2925 19.29C8.9025 19.68 8.2625 19.68 7.8725 19.29Z" fill="#424D57"/>
</svg>
