<svg width="24" height="24" viewBox="0 0 24 24" fill="none" xmlns="http://www.w3.org/2000/svg">
<path d="M11.9905 2.00049C6.47049 2.00049 2.00049 6.48009 2.00049 12.0001C2.00049 17.5201 6.47049 21.9997 11.9905 21.9997C17.5201 21.9997 21.9997 17.5201 21.9997 12.0001C21.9997 6.48009 17.5201 2.00049 11.9905 2.00049ZM12.0001 20.0005C7.58049 20.0005 3.99969 16.4197 3.99969 12.0001C3.99969 7.58049 7.58049 3.99969 12.0001 3.99969C16.4197 3.99969 20.0005 7.58049 20.0005 12.0001C20.0005 16.4197 16.4197 20.0005 12.0001 20.0005ZM11.7805 6.99969H11.7205C11.3197 6.99969 11.0005 7.32009 11.0005 7.71969V12.4405C11.0005 12.7897 11.1805 13.1197 11.4901 13.2997L15.6397 15.7897C15.9805 15.9901 16.4197 15.8905 16.6201 15.5497C16.8301 15.2101 16.7197 14.7601 16.3705 14.5597L12.5005 12.2605V7.71969C12.5005 7.32009 12.1801 6.99969 11.7805 6.99969Z" fill="#424D57"/>
</svg>
