<svg width="24" height="24" viewBox="0 0 24 24" fill="none" xmlns="http://www.w3.org/2000/svg">
<path d="M12.0011 3C11.5415 3 11.0711 3.0396 10.6007 3.1404C7.84074 3.6696 5.64114 5.9004 5.12154 8.6604C4.64154 11.2704 5.60154 13.6704 7.34154 15.2196C7.77114 15.6 8.00154 16.1304 8.00154 16.6896V18.9996C8.00154 20.1 8.90154 21 10.0007 21H10.2815C10.6307 21.6 11.2607 21.9996 12.0011 21.9996C12.7415 21.9996 13.3811 21.6 13.7207 21H14.0015C15.1007 21 16.0007 20.1 16.0007 18.9996V16.6896C16.0007 16.14 16.2215 15.6 16.6415 15.2304C18.0911 13.95 19.0007 12.0804 19.0007 9.9996C19.0007 6.1296 15.8711 3 12.0011 3ZM12.5015 14.0004H11.5007V11.4096L9.67194 9.5904L10.3823 8.88L12.0023 10.5L13.6223 8.88L14.3327 9.5904L12.5027 11.4204V14.0004H12.5015ZM13.5011 18.9996C13.4915 18.9996 13.4807 18.99 13.4711 18.99V18.9996H10.5311V18.99C10.5215 18.99 10.5107 18.9996 10.5011 18.9996C10.2215 18.9996 10.0007 18.78 10.0007 18.5004C10.0007 18.2196 10.2215 18 10.5011 18C10.5107 18 10.5215 18.0096 10.5311 18.0096V18H13.4711V18.0096C13.4807 18.0096 13.4915 18 13.5011 18C13.7807 18 14.0015 18.2196 14.0015 18.5004C14.0015 18.78 13.7807 18.9996 13.5011 18.9996ZM13.5011 17.0004H10.5011C10.2215 17.0004 10.0007 16.7796 10.0007 16.5C10.0007 16.2204 10.2215 15.9996 10.5011 15.9996H13.5011C13.7807 15.9996 14.0015 16.2204 14.0015 16.5C14.0015 16.7796 13.7807 17.0004 13.5011 17.0004Z" fill="#424D57"/>
</svg>
